<svg version="1.1" xmlns="http://www.w3.org/2000/svg" xmlns:xlink="http://www.w3.org/1999/xlink" width="360.62265" height="152.68443" viewBox="0,0,360.62265,152.68443"><defs><linearGradient x1="28.23223" y1="195.03074" x2="116.97452" y2="201.79868" gradientUnits="userSpaceOnUse" id="color-1"><stop offset="0" stop-color="#71648d"/><stop offset="1" stop-color="#64888d"/></linearGradient><linearGradient x1="76.07877" y1="132.56535" x2="76.07877" y2="193.74402" gradientUnits="userSpaceOnUse" id="color-2"><stop offset="0" stop-color="#b295ed"/><stop offset="1" stop-color="#c4c4c4"/></linearGradient><linearGradient x1="215.37919" y1="182.73489" x2="210.3352" y2="248.87248" gradientUnits="userSpaceOnUse" id="color-3"><stop offset="0" stop-color="#e3e3e3"/><stop offset="1" stop-color="#c2adec"/></linearGradient><linearGradient x1="247.14925" y1="200.61171" x2="243.27483" y2="251.41371" gradientUnits="userSpaceOnUse" id="color-4"><stop offset="0" stop-color="#e3e3e3"/><stop offset="1" stop-color="#c2adec"/></linearGradient><linearGradient x1="239.88196" y1="186.13818" x2="373.18797" y2="196.30479" gradientUnits="userSpaceOnUse" id="color-5"><stop offset="0" stop-color="#71648d"/><stop offset="1" stop-color="#64888d"/></linearGradient><linearGradient x1="123.72718" y1="157.75663" x2="182.13879" y2="162.2114" gradientUnits="userSpaceOnUse" id="color-6"><stop offset="0" stop-color="#c9b1d9"/><stop offset="1" stop-color="#80c1d9"/></linearGradient></defs><g transform="translate(-26.50787,-113.03958)"><g data-paper-data="{&quot;isPaintingLayer&quot;:true}" stroke-linejoin="miter" stroke-miterlimit="10" stroke-dasharray="" stroke-dashoffset="0" style="mix-blend-mode: normal"><g data-paper-data="{&quot;origPos&quot;:null}" fill-rule="nonzero" stroke-linecap="round"><path d="M157.30695,163.97905c3.24767,0.3835 0.03571,-3.01949 -0.02475,0.32458c-1.06737,13.20893 -2.62024,26.44879 -2.70469,39.74325c-0.06267,9.94595 0.4394,19.89988 1.64201,29.82628c0.94763,7.79062 3.54799,15.17201 5.43125,22.93474c0.41993,1.87279 2.65212,-0.65678 -0.32446,-0.02475c-11.90366,2.5309 -24.31981,5.498 -36.51145,7.98607c-3.04875,0.62137 0.26814,1.96317 -0.29971,-0.3492c-2.26205,-9.24997 -4.83555,-18.71288 -6.33335,-28.22576c-1.05082,-6.62735 -1.60366,-13.99624 -1.66117,-21.01527c-0.11491,-14.05373 1.11789,-28.12884 1.71471,-42.16878c0.17732,-4.41479 0.68555,-8.93758 0.76487,-13.45394c0.09768,-1.07487 -3.57021,-0.05685 -0.3492,0.29971c12.8662,1.40292 25.66032,2.58625 38.65593,4.12306z" data-paper-data="{&quot;origPos&quot;:null}" fill="#e3e3e3" stroke="none" stroke-width="0"/><path d="M154.16259,256.56315l-4.83185,-22.23623l-2.10936,-19.41762l0.03844,-17.62187l1.57827,-29.25433" data-paper-data="{&quot;origPos&quot;:null}" fill="none" stroke="#c2adec" stroke-width="2.12828"/><path d="M150.41986,258.56248l-5.28277,-24.88184l-2.03513,-20.39098l-0.96537,-25.85807l1.68285,-22.06585" data-paper-data="{&quot;origPos&quot;:null}" fill="none" stroke="#c2adec" stroke-width="2.12828"/><path d="M142.55771,258.94201l-8.63511,-36.56094l-0.66852,-29.75203l1.52891,-28.60529" data-paper-data="{&quot;origPos&quot;:null}" fill="none" stroke="#c2adec" stroke-width="2.12828"/><path d="M132.17656,262.39322l-5.15083,-13.77456l-4.08942,-31.97121l0.78089,-27.35684l2.30428,-25.93505" data-paper-data="{&quot;origPos&quot;:null}" fill="none" stroke="#c2adec" stroke-width="2.12828"/></g><path d="M247.09228,204.76207l0.77899,-10.21424l2.64814,0.20197l-0.77899,10.21424z" data-paper-data="{&quot;origPos&quot;:null}" fill="#71648d" fill-rule="nonzero" stroke="none" stroke-width="0" stroke-linecap="butt"/><path d="M241.45352,200.45642c-0.26665,3.49635 2.98734,10.57506 1.10694,10.43165c-1.88039,-0.14341 -4.77835,-7.19497 -4.5117,-10.69131c0.26665,-3.49635 3.29296,-8.10625 5.17335,-7.96284c1.88039,0.14341 -1.50196,4.72614 -1.76861,8.2225z" data-paper-data="{&quot;origPos&quot;:null}" fill="#71648d" fill-rule="nonzero" stroke="none" stroke-width="0" stroke-linecap="butt"/><g data-paper-data="{&quot;origPos&quot;:null}" fill-rule="nonzero" stroke="none" stroke-linecap="butt"><path d="M306.9814,161.62608l0.25347,-3.32368l23.59813,1.79972l-0.25348,3.32368z" data-paper-data="{&quot;origPos&quot;:null}" fill="#5f5f5f" stroke-width="0"/><path d="M28.65474,196.06586l0.37596,-11.50472l88.81833,5.77084l-9.4302,5.29823l-47.8656,9.29538l-11.40977,1.38388l-18.29587,0.45412z" data-paper-data="{&quot;origPos&quot;:null}" fill="url(#color-1)" stroke-width="0"/><path d="M99.2097,193.74402l-70.36347,-5.67775l1.82487,-34.51987l8.30344,-20.98105l43.93714,2.28508l9.64277,10.79429l27.21257,2.40967l3.5443,39.00306z" data-paper-data="{&quot;origPos&quot;:null}" fill="url(#color-2)" stroke-width="0"/><path d="M116.64251,152.0462l0.64149,-8.41128l68.22477,5.20318l-0.64149,8.41127z" data-paper-data="{&quot;origPos&quot;:null}" fill="#393939" stroke-width="0"/><path d="M113.81112,164.52055l1.2117,-15.88796l73.36499,5.5952l-1.2117,15.88796z" data-paper-data="{&quot;origPos&quot;:null}" fill="#e3e3e3" stroke-width="0"/><path d="M355.02817,167.13169c0,0 0.81101,-8.83213 1.55609,-15.86255c0.1483,-1.39933 -0.68962,-8.98844 -8.40757,-9.69194c-49.00143,-4.46652 -74.43386,-7.24878 -123.4877,-11.16443c-7.21255,-0.57574 -7.23959,-1.30634 -10.16855,3.55326c-1.39312,2.31141 -4.91712,23.40572 -4.91712,23.40572l-24.74197,-2.83092c0,0 6.80654,-25.7498 9.19886,-34.41954c1.1303,-4.09619 3.59046,-8.28342 21.34605,-6.76241c41.24211,3.53296 106.78162,13.41146 147.79186,19.71009c3.34663,0.37722 13.23017,6.5219 12.98813,10.94349c-0.49644,9.06888 -2.21967,24.56356 -2.21967,24.56356z" data-paper-data="{&quot;origPos&quot;:null}" fill="#e3e3e3" stroke-width="0"/><g data-paper-data="{&quot;origPos&quot;:null}" stroke-width="0"><path d="M189.09794,238.90514c0,0 2.28244,-14.63217 6.56123,-23.01983c2.44933,-4.8014 7.26185,-11.08173 9.75899,-15.85612c1.27367,-2.4352 6.78136,-2.86423 8.04864,-5.30309c2.37216,-4.56521 -1.88344,-12.28068 -1.88344,-12.28068l24.87636,12.31124c0,0 -2.25749,3.81101 -4.72478,8.55931c-2.18671,4.20833 -6.69599,8.6285 -6.69599,8.6285l-1.69286,10.17535l-7.93186,11.70587l-0.83836,11.65551l-4.20392,3.39409z" data-paper-data="{&quot;origPos&quot;:null,&quot;origRot&quot;:0}" fill="url(#color-3)"/><path d="M204.48342,246.16018l2.16467,-3.43732c0,0 8.71017,1.30491 14.32397,1.6307c7.09399,0.41168 18.23814,0.25899 18.23814,0.25899l16.98799,-3.77625l26.82025,-37.48901l2.97709,1.79778l-25.59971,38.79755l-20.35173,4.92962c0,0 -12.22551,1.08471 -20.21489,0.74167c-6.07181,-0.26072 -15.34578,-3.45371 -15.34578,-3.45371z" data-paper-data="{&quot;origPos&quot;:null}" fill="url(#color-4)"/><path d="M279.11127,210.59463l-10.79008,-13.18536l20.07945,1.14504l-2.4481,7.1535z" data-paper-data="{&quot;origPos&quot;:null}" fill="#71648d"/></g><path d="M192.97859,168.67264l1.2887,-16.89762l28.15848,2.14751l-1.2887,16.89762z" data-paper-data="{&quot;origPos&quot;:null}" fill="#e3e3e3" stroke-width="0"/><path d="M217.67185,168.45186l0.55053,-14.8499l24.21151,1.8465l-1.07712,14.12338z" data-paper-data="{&quot;origPos&quot;:null}" fill="#626262" stroke-width="0"/><path d="M240.58555,171.92288l1.26946,-16.64541l133.16333,10.15573l-1.26947,16.64541z" data-paper-data="{&quot;origPos&quot;:null}" fill="#626262" stroke-width="0"/><path d="M156.73131,203.38388l-44.30293,3.97093c0,0 -0.16518,-7.29675 -2.35587,-9.87937c-1.36651,-1.611 -7.18149,-1.90137 -7.18149,-1.90137l11.08295,-32.2107l128.70506,6.05563l-1.81764,23.8332l-22.78593,-2.24511c0,0 -16.57093,-6.90086 -26.81461,-7.5558c-5.81468,-0.37178 -14.09647,3.56758 -22.12605,8.20275c-8.02958,4.63518 -12.40346,11.72984 -12.40346,11.72984z" data-paper-data="{&quot;origPos&quot;:null}" fill="#9181b1" stroke-width="0"/><g data-paper-data="{&quot;origPos&quot;:null}" fill="none" stroke-width="1" font-family="sans-serif" font-weight="normal" font-size="12" text-anchor="start"/><path d="M363.0238,192.98748l0.90402,-11.85356l23.2027,1.76955l-0.90402,11.85356z" data-paper-data="{&quot;origPos&quot;:null}" fill="#4c4c4c" stroke-width="0"/><path d="M240.87775,193.03778l0.28806,-23.73418l132.90069,10.90485c0,0 1.58696,0.1945 -2.494,5.72222c-1.36032,1.84257 -5.26216,3.89607 -5.26216,3.89607l5.40228,3.98381l-9.46553,18.59231l-3.85405,-0.61621l-5.40575,-7.37206l-11.41424,-1.76956l-27.12882,-1.90905z" data-paper-data="{&quot;origPos&quot;:null}" fill="url(#color-5)" stroke-width="0"/><path d="M329.42413,199.92588l2.15264,-5.4397c0,0 3.6216,-5.54811 4.75441,-5.51379c1.01357,0.0307 2.74076,5.43498 2.74076,5.43498l1.49541,6.16184z" data-paper-data="{&quot;origPos&quot;:null,&quot;origRot&quot;:0}" fill="#e3e3e3" stroke-width="0"/><path d="M315.12169,198.52853l2.15264,-5.43969c0,0 3.6216,-5.54811 4.75441,-5.5138c1.01357,0.0307 2.74074,5.43498 2.74074,5.43498l1.49542,6.16184z" data-paper-data="{&quot;origPos&quot;:null,&quot;origRot&quot;:0}" fill="#e3e3e3" stroke-width="0"/><path d="M300.0906,196.77113l2.43774,-5.31803c0,0 3.91037,-5.3485 5.03978,-5.25423c1.01052,0.08434 2.44902,5.57253 2.44902,5.57253l1.16694,6.23239z" data-paper-data="{&quot;origPos&quot;:null,&quot;origRot&quot;:0}" fill="#e3e3e3" stroke-width="0"/><path d="M286.65752,195.89784l2.15263,-5.43969c0,0 3.6216,-5.5481 4.75441,-5.51379c1.01357,0.0307 2.74075,5.43499 2.74075,5.43499l1.49542,6.16182z" data-paper-data="{&quot;origPos&quot;:null,&quot;origRot&quot;:0}" fill="#e3e3e3" stroke-width="0"/><path d="M221.66244,193.55589l-5.78535,-3.96955l120.25526,9.48059l11.58984,1.79744l8.66656,2.53267l3.15075,8.34898l-2.34588,-0.18548l-3.54474,-4.93483l-10.98975,-2.69233z" data-paper-data="{&quot;origPos&quot;:null}" fill="#e3e3e3" stroke-width="0"/><path d="M184.70765,169.61414l1.52057,-19.93783l8.98681,1.31205l-0.84999,19.36229l-18.26577,16.28915l-39.94526,-5.12162l5.32207,-2.96064l19.2472,-0.21588l11.04537,-7.52093z" data-paper-data="{&quot;origPos&quot;:null}" fill="#e3e3e3" stroke-width="0"/><path d="M194.57824,150.92212c0.19917,-2.61166 2.4778,-4.56735 5.08946,-4.36818c2.61166,0.19917 4.56733,2.4778 4.36816,5.08946c-0.19917,2.61166 -2.47779,4.56735 -5.08945,4.36818c-2.61166,-0.19917 -4.56734,-2.4778 -4.36817,-5.08946z" data-paper-data="{&quot;origPos&quot;:null}" fill="#71648d" stroke-width="0"/><path d="M167.25085,178.70138c0.18698,-2.45175 2.3261,-4.28771 4.77785,-4.10073c2.45175,0.18698 4.28769,2.3261 4.10071,4.77785c-0.18698,2.45175 -2.32609,4.2877 -4.77784,4.10072c-2.45175,-0.18698 -4.28771,-2.32609 -4.10073,-4.77784z" data-paper-data="{&quot;origPos&quot;:null}" fill="#71648d" stroke-width="0"/><path d="M123.29952,163.36415l7.86471,-10.68046l51.40222,3.9202l-0.85531,11.21504z" data-paper-data="{&quot;origPos&quot;:null}" fill="url(#color-6)" stroke-width="0"/><path d="M52.93597,206.44236l7.70215,-8.94018l22.16443,-1.31834c0,0 5.53245,3.16431 3.36409,3.4524c-1.04757,0.13918 -33.23067,6.80612 -33.23067,6.80612z" data-paper-data="{&quot;origPos&quot;:null}" fill="#e3e3e3" stroke-width="0"/><path d="M26.91953,207.74312l-0.41166,-50.88701l8.00552,-0.23433l0.41167,50.88701z" data-paper-data="{&quot;origPos&quot;:null,&quot;origRot&quot;:0}" fill="#e3e3e3" stroke-width="0"/><path d="M114.09728,200.07489c0.16799,-2.20274 2.08984,-3.85223 4.29259,-3.68424c2.20275,0.16799 3.85223,2.08985 3.68424,4.2926c-0.16799,2.20274 -2.08984,3.85224 -4.29259,3.68425c-2.20275,-0.16799 -3.85223,-2.08985 -3.68424,-4.2926z" data-paper-data="{&quot;origPos&quot;:null}" fill="#4c4c4c" stroke-width="0"/></g><path d="M289.73597,155.43022l0.67773,4.26372l-24.39549,-2.14284c0,0 1.34605,-6.85165 1.5232,-9.17435c0.46921,-6.15233 13.42409,-14.36704 10.84466,-8.89273c-0.73811,1.56651 -4.57263,5.39975 -5.5897,7.83121c-0.90461,2.16258 2.0609,5.10947 2.0609,5.10947z" data-paper-data="{&quot;origPos&quot;:null}" fill="#71648d" fill-rule="nonzero" stroke="none" stroke-width="0" stroke-linecap="butt"/><g data-paper-data="{&quot;origPos&quot;:null}" fill-rule="nonzero" stroke="none" stroke-width="0" stroke-linecap="butt"><path d="M341.86344,170.38791c0.3293,-4.31793 10.22438,-7.08401 13.66724,-6.82144c3.44285,0.26257 5.96689,3.9758 5.63759,8.29372c-0.3293,4.31793 -3.38725,7.60544 -6.83011,7.34287c-3.44285,-0.26257 -12.80402,-4.49724 -12.47472,-8.81516z" data-paper-data="{&quot;origPos&quot;:null}" fill="#9181b1"/><path d="M332.162,172.94574l0.50009,-6.55729l15.68518,1.19624l-0.50009,6.55729z" data-paper-data="{&quot;origPos&quot;:null}" fill="#9181b1"/><path d="M325.81271,173.98353l0.78861,-10.34033l10.85897,0.82816l-0.7886,10.34034z" data-paper-data="{&quot;origPos&quot;:null}" fill="#9181b1"/><path d="M351.91802,171.15472c0.1381,-1.81074 1.42046,-3.18937 2.86424,-3.07926c1.44378,0.11011 2.50225,1.66727 2.36415,3.47801c-0.1381,1.81074 -1.42046,3.18938 -2.86423,3.07927c-1.44378,-0.11011 -2.50225,-1.66727 -2.36415,-3.47801z" data-paper-data="{&quot;origPos&quot;:null}" fill="#5a5a5a"/><path d="M213.55626,163.3929l0.50009,-6.55729l113.61698,8.66502l-0.50009,6.55729z" data-paper-data="{&quot;origPos&quot;:null}" fill="#b1cfda"/><path d="M212.83757,164.86011l0.73091,-9.58373l7.4404,0.56745l-0.7309,9.58372z" data-paper-data="{&quot;origPos&quot;:null}" fill="#9181b1"/><path d="M206.09483,168.4046l1.30794,-17.14982l7.4404,0.56745l-1.30793,17.14981z" data-paper-data="{&quot;origPos&quot;:null}" fill="#9181b1"/></g><g fill="#ffffff" fill-rule="evenodd" stroke="none" stroke-width="1" stroke-linecap="butt"><path d="M70.39103,148.42443c-0.31422,0.08097 -0.43085,0.27858 -0.34989,0.5928c-1.17445,-0.25214 -2.3569,-0.50594 -3.54712,-0.76143c0.06506,-0.07262 0.13012,-0.14523 0.19518,-0.21784c1.32676,0.02717 2.5606,0.156 3.70182,0.38646z" opacity="0.989"/><path d="M73.07161,149.07405c0.29308,0.01254 0.54317,0.11565 0.74991,0.30939c-0.33717,0.07776 -0.58709,-0.02537 -0.74991,-0.30939z" opacity="0.616"/><path d="M72.09327,149.82879c0.44398,0.03963 0.82568,0.22051 1.14511,0.54265c-0.44398,-0.03963 -0.82568,-0.22051 -1.14511,-0.54265z" opacity="0.365"/><path d="M70.39103,148.42443c0.93882,0.07755 1.83234,0.29408 2.68058,0.64962c0.16282,0.28403 0.41276,0.38715 0.74991,0.30939c0.64588,0.15927 1.26401,0.39096 1.85453,0.69496c0.08097,0.31422 0.27858,0.43085 0.5928,0.34987c1.01983,0.46871 1.95551,1.06533 2.80687,1.7899c0.18217,0.32987 0.45906,0.53764 0.83089,0.62362c0.11447,0.28951 0.32559,0.45861 0.63328,0.507c0.05035,0.24287 0.19564,0.37298 0.43569,0.39037c0.05035,0.24287 0.19563,0.37297 0.43568,0.39036c0.05035,0.24287 0.19563,0.37299 0.43569,0.39037c0.10018,0.24963 0.10843,0.49883 0.02507,0.74749c-0.59427,0.18665 -1.16365,0.36134 -1.708,0.52389c-0.01347,-0.05231 -0.02701,-0.10479 -0.0405,-0.15712c-0.24746,-0.5084 -0.61733,-0.85993 -1.10944,-1.05448c-0.27502,-0.16353 -0.49964,-0.38495 -0.67378,-0.66411c-0.17015,-0.41975 -0.4607,-0.67996 -0.87136,-0.78073c-1.35886,-0.98015 -2.76907,-1.90133 -4.23055,-2.76341c-0.31943,-0.32215 -0.70112,-0.50303 -1.14511,-0.54265c-0.70336,-0.225 -1.38747,-0.49552 -2.05214,-0.81157c-0.08097,-0.31422 0.03566,-0.51183 0.34989,-0.59281z" opacity="0.998"/><path d="M75.67606,150.07838c0.23642,0.05078 0.43402,0.1674 0.5928,0.34987c-0.31422,0.08097 -0.51182,-0.03565 -0.5928,-0.34987z" opacity="0.306"/><path d="M79.07573,152.21816c0.37183,0.08597 0.64871,0.29376 0.83089,0.62363c-0.37183,-0.08597 -0.64871,-0.29376 -0.83089,-0.62363z" opacity="0.722"/><path d="M77.46894,153.13485c0.41065,0.10077 0.70121,0.36098 0.87136,0.78073c-0.35083,-0.18068 -0.64123,-0.44094 -0.87136,-0.78073z" opacity="0.937"/><path d="M79.9066,152.84178c0.30769,0.04839 0.51881,0.21748 0.63329,0.50699c-0.30769,-0.04839 -0.51881,-0.21748 -0.63329,-0.50699z" opacity="0.588"/><path d="M80.5399,153.34877c0.24005,0.01739 0.38532,0.1475 0.43568,0.39036c-0.24005,-0.01739 -0.38532,-0.1475 -0.43568,-0.39036z" opacity="0.125"/><path d="M79.01407,154.57969c0.49211,0.19454 0.86199,0.54608 1.10944,1.05447c-0.43114,-0.27326 -0.80098,-0.62463 -1.10944,-1.05447z" opacity="0.69"/><path d="M80.97558,153.73915c0.24005,0.01739 0.38533,0.14748 0.43568,0.39036c-0.24005,-0.01739 -0.38533,-0.14748 -0.43568,-0.39036z" opacity="0.247"/><path d="M81.41126,154.12951c0.24005,0.01739 0.38534,0.1475 0.43569,0.39037c-0.24005,-0.01739 -0.38534,-0.1475 -0.43569,-0.39037z" opacity="0.086"/><path d="M82.56122,155.3411c0.32188,0.11124 0.54647,0.33267 0.67376,0.66411c-0.32188,-0.11124 -0.54647,-0.33267 -0.67376,-0.66411z" opacity="0.102"/><path d="M81.84695,154.51989c0.30499,0.20305 0.54308,0.47678 0.71426,0.82122c0.1273,0.33144 0.35189,0.55287 0.67376,0.66411c0.01347,0.05231 0.027,0.1048 0.04049,0.15712c0.0515,0.28698 0.17126,0.53524 0.35954,0.74508c-0.73325,0.18895 -1.46635,0.37786 -2.19958,0.56681c-0.05922,-0.38652 -0.24498,-0.67373 -0.55714,-0.86172c-0.23809,-0.27374 -0.47617,-0.54748 -0.71426,-0.82122c0.54435,-0.16255 1.11374,-0.33724 1.70802,-0.52389c0.08336,-0.24868 0.07511,-0.49786 -0.02507,-0.74749z" opacity="0.983"/><path d="M62.26759,162.41349c-4.23015,1.0346 -8.40626,2.16651 -12.52858,3.39597c-0.24077,0.05919 -0.34632,-0.02535 -0.31663,-0.2535c0.16879,-0.14535 0.36478,-0.25167 0.58796,-0.31905c3.98343,-0.80614 7.91126,-1.8183 11.78351,-3.03643c0.21003,-0.03084 0.36787,0.04008 0.47376,0.21301z" opacity="0.17"/><path d="M69.65192,160.51065c-1.87429,0.42802 -3.69385,0.95269 -5.45848,1.57412c-0.42365,-0.01078 -0.46414,-0.16789 -0.12145,-0.47133c1.87935,-0.37589 3.73938,-0.74344 5.57995,-1.10279z" opacity="0.175"/><path d="M80.87827,156.61251c0.31216,0.18797 0.49793,0.4752 0.55715,0.86172c-2.29303,0.53575 -4.53146,1.16836 -6.71538,1.898c-0.26827,-0.2348 -0.20396,-0.41892 0.19275,-0.55231c2.03162,-0.33436 4.0285,-0.82111 5.99056,-1.45991c0.0407,-0.29263 0.03229,-0.54178 -0.02508,-0.74749z" opacity="0.152"/><path d="M83.27546,156.16232c0.17079,0.08349 0.31607,0.21361 0.43568,0.39037c0.36189,0.01883 0.70308,0.0425 1.02366,0.07131c-0.36655,0.09445 -0.73325,0.18895 -1.09979,0.28341c-0.18828,-0.20983 -0.30804,-0.45812 -0.35955,-0.74509z" opacity="0.192"/><path d="M74.72002,159.37222c2.18392,-0.72965 4.42236,-1.36225 6.71538,-1.89801c0.73325,-0.18895 1.46634,-0.37785 2.19958,-0.5668c0.36655,-0.09445 0.73324,-0.18896 1.09979,-0.28341c1.05944,-0.2911 2.0443,-0.15383 2.95432,0.41154c0.2246,0.22142 0.48801,0.37688 0.7904,0.46651c0.30769,0.04839 0.5188,0.21748 0.63327,0.50699c0.05035,0.24287 0.19564,0.37299 0.43569,0.39037c0.67695,1.20699 1.06663,2.50272 1.16926,3.88734c0.02469,0.46193 -0.09028,0.88245 -0.34506,1.26175c-0.20176,0.13124 -0.26605,0.31536 -0.19275,0.55231c-0.35032,0.59175 -0.76621,1.14559 -1.24725,1.66177c0.08469,0.09261 0.164,0.18392 0.23808,0.27373c0.11447,0.28951 0.32559,0.45861 0.63328,0.507c0.11447,0.28951 0.32559,0.45861 0.63328,0.50699c0.11447,0.28951 0.32559,0.4586 0.63328,0.50699c0.05035,0.24287 0.19564,0.37298 0.43569,0.39036c0.30769,0.04839 0.5188,0.21748 0.63327,0.50699c0.18217,0.32987 0.45906,0.53766 0.83089,0.62362c0.05035,0.24287 0.19563,0.37297 0.43567,0.39036c0.49756,0.22413 0.84122,0.58242 1.0309,1.07472c-1.40042,0.34042 -2.76212,0.69133 -4.08495,1.05264c-0.65353,-0.67854 -1.30121,-1.34937 -1.94276,-2.01257c-0.85557,-0.85987 -1.64931,-1.77237 -2.38085,-2.7374c-0.20943,0.05397 -0.41902,0.10797 -0.62846,0.16194c-1.15211,0.29688 -2.30438,0.5938 -3.45649,0.89069c0.45883,1.78056 0.91769,3.56129 1.37651,5.34185c-0.73325,0.18895 -1.46635,0.37786 -2.19958,0.56681c-0.20943,0.05397 -0.41902,0.10798 -0.62844,0.16195c-1.09833,-4.69075 -2.3907,-9.27235 -3.87699,-13.745c-0.10479,0.02701 -0.17058,-0.01184 -0.19759,-0.11662c-0.25495,-0.28397 -0.57069,-0.42595 -0.94752,-0.42602c-0.09281,-0.14363 -0.22459,-0.22142 -0.39518,-0.23325c-0.11827,-0.02531 -0.23644,-0.05083 -0.35471,-0.07615zM83.10684,160.05934c0.02701,0.10479 0.05396,0.20943 0.08097,0.31421c0.43488,1.08555 0.87538,2.14488 1.32153,3.17793c0.12507,0.33906 0.06169,0.63468 -0.19035,0.88679c-0.98891,0.11879 -1.97807,0.2899 -2.96732,0.51332c-0.332,-1.35667 -0.66938,-2.66591 -1.01215,-3.92783c0.86659,-0.45954 1.78902,-0.78103 2.76731,-0.96443zM86.21346,159.76145c0.29394,0.26554 0.5845,0.52577 0.87136,0.78073c0.05386,0.17193 0.14667,0.31556 0.27858,0.43085c-0.08834,0.21243 -0.03439,0.42185 0.16195,0.62844c0.01347,0.05231 0.027,0.1048 0.04049,0.15712c-0.09138,0.45748 -0.2588,0.89167 -0.50217,1.30222c-0.36961,-0.99413 -0.78316,-1.9488 -1.24057,-2.8637c-0.066,-0.15925 -0.0804,-0.32308 -0.0429,-0.49159c0.13586,0.09098 0.28026,0.10974 0.43326,0.05589z"/><path d="M62.26759,162.41349c0.45235,0.88871 0.69528,1.83139 0.72876,2.82805c-2.72324,0.70174 -5.44666,1.40351 -8.16989,2.10527c0.31041,1.20459 0.62076,2.40902 0.93117,3.6136c2.00247,-0.3493 4.00615,-0.80964 6.0108,-1.38134c0.22944,0.89037 0.45884,1.78056 0.68827,2.67092c-1.99016,0.51283 -3.98016,1.02563 -5.97031,1.53847c0.51284,1.99015 1.02564,3.98015 1.53847,5.97031c-0.94223,0.4033 -1.92374,0.71203 -2.94467,0.92634c-1.08025,-3.9056 -2.0924,-7.83342 -3.03643,-11.7835c-0.13737,-0.93151 -0.45801,-1.7424 -0.962,-2.43284c-0.47398,-0.17492 -0.92155,-0.39467 -1.34271,-0.65928c4.12231,-1.22949 8.2984,-2.36139 12.52857,-3.39599z"/><path d="M69.65192,160.51065c0.02929,0.36072 0.20157,0.59562 0.51666,0.7046c0.05922,0.38652 0.24497,0.67373 0.55714,0.86172c0.10586,0.51156 0.37094,0.8901 0.79523,1.13546c0.01347,0.05231 0.027,0.10479 0.04049,0.15711c0.02929,0.36072 0.20156,0.59562 0.51666,0.7046c0.03155,0.41241 0.21715,0.69968 0.55714,0.86171c0.10586,0.51156 0.37094,0.89009 0.79523,1.13545c0.01347,0.05231 0.027,0.10479 0.04049,0.15711c0.02929,0.36072 0.20157,0.59563 0.51665,0.7046c0.05922,0.38652 0.24499,0.67373 0.55714,0.86171c0.05922,0.38652 0.24498,0.67373 0.55715,0.86171c0.03293,0.26695 0.14615,0.4891 0.33929,0.66652c-0.11447,0.0811 -0.19903,0.18666 -0.2535,0.31663c0.33355,0.19687 0.66274,0.39118 0.98799,0.58315c0.10586,0.51156 0.37094,0.8901 0.79523,1.13546c0.01347,0.05231 0.02699,0.10479 0.04048,0.15711c0.11414,0.4982 0.37923,0.87673 0.79524,1.13546c0.37534,0.43189 0.66738,0.91506 0.87619,1.44967c-0.90264,0.56082 -1.92296,0.9355 -3.06128,1.12395c-0.2255,-0.11178 -0.38411,-0.29425 -0.47618,-0.54747c-0.05922,-0.38652 -0.24498,-0.67373 -0.55715,-0.86172c-0.01347,-0.05231 -0.02698,-0.10479 -0.04048,-0.15712c-0.10747,-0.35531 -0.29325,-0.64253 -0.55714,-0.86171c-2.05006,0.41368 -4.11954,0.83519 -6.20839,1.26472c-0.20188,0.61581 -0.21052,1.23243 -0.026,1.8497c0.04242,0.09243 0.11497,0.15752 0.21784,0.19518c-0.14917,0.42044 -0.23116,0.86043 -0.24626,1.32004c-0.08268,-0.07185 -0.17472,-0.10393 -0.27616,-0.09638c-0.98968,0.28284 -1.99141,0.51316 -3.0054,0.69067c0.08336,-0.24868 0.0751,-0.49787 -0.02508,-0.7475c-0.03594,-0.17655 -0.02411,-0.34714 0.03567,-0.51182c0.06164,-0.29134 0.22403,-0.52853 0.48675,-0.71184c-0.19684,-0.35038 -0.29805,-0.74317 -0.30363,-1.17835c-0.01347,-0.05231 -0.027,-0.1048 -0.04049,-0.15712c0.14153,-0.24272 0.30371,-0.48004 0.48676,-0.71185c-0.19684,-0.35038 -0.29807,-0.74316 -0.30364,-1.17834c0.02531,-0.11828 0.05083,-0.23644 0.07613,-0.35471c0.10349,-0.2056 0.10201,-0.42857 -0.00483,-0.66894c0.26288,-0.53838 0.33738,-1.116 0.22361,-1.73307c-0.01347,-0.05231 -0.02701,-0.1048 -0.0405,-0.15711c0.20522,-0.48582 0.24086,-0.99764 0.10697,-1.53547c0.22318,-0.24767 0.26048,-0.53658 0.1118,-0.86653c-0.01347,-0.05231 -0.027,-0.1048 -0.04049,-0.15712c0.14339,-0.20684 0.19407,-0.44324 0.15229,-0.70943c0.1285,-0.6093 0.18965,-1.23928 0.18309,-1.89019c-0.10559,-0.4488 -0.10889,-0.89462 -0.00966,-1.33788c0.20856,-0.25564 0.20692,-0.47856 -0.00482,-0.66895c-0.13124,-0.20175 -0.31536,-0.26606 -0.55232,-0.19277c-0.2969,-0.08651 -0.56044,-0.24194 -0.79039,-0.46651c1.76463,-0.62143 3.58418,-1.14609 5.45849,-1.57411zM69.01679,165.19805c0.2932,0.64237 0.66458,1.21686 1.11428,1.72341c0.10747,0.35531 0.29325,0.64253 0.55714,0.86171c0.10747,0.35531 0.29325,0.64253 0.55714,0.8617c0.2932,0.64237 0.66459,1.21686 1.11428,1.72341c0.04049,0.15712 0.08097,0.31422 0.12147,0.47135c-0.10479,0.02701 -0.20943,0.05396 -0.31423,0.08095c-0.05397,-0.20943 -0.18577,-0.28722 -0.3952,-0.23325c-0.08767,-0.11781 -0.20582,-0.14333 -0.35472,-0.07614c-1.11572,-0.0099 -2.20352,0.10289 -3.26372,0.33838c0.17301,-0.25904 0.21031,-0.54795 0.1118,-0.86654c-0.01347,-0.05231 -0.027,-0.1048 -0.04049,-0.15711c0.17301,-0.25904 0.21031,-0.54795 0.1118,-0.86654c0.1205,-0.33213 0.14416,-0.67331 0.07131,-1.02365c0.1251,-0.31941 0.14893,-0.66064 0.07131,-1.02365c0.1251,-0.31941 0.14894,-0.66066 0.07131,-1.02366c0.11332,-0.148 0.12516,-0.31859 0.03566,-0.51182c0.09651,-0.09491 0.14812,-0.21977 0.15471,-0.37495c0.08268,0.07185 0.17472,0.10393 0.27615,0.09638z" opacity="0.999"/><path d="M69.65192,160.51065c0.27666,0.14316 0.44895,0.37807 0.51666,0.7046c-0.31508,-0.10897 -0.48737,-0.34388 -0.51666,-0.7046z" opacity="0.639"/><path d="M75.07474,159.44836c0.1706,0.01183 0.30239,0.08963 0.3952,0.23326c-0.20943,0.05397 -0.34122,-0.02383 -0.3952,-0.23326z" opacity="0.008"/><path d="M75.46995,159.68162c0.37682,0.00007 0.69256,0.14204 0.94751,0.42601c-0.37682,-0.00007 -0.69256,-0.14204 -0.94751,-0.42601z" opacity="0.573"/><path d="M64.98383,162.55128c0.23695,-0.0733 0.42107,-0.00899 0.55231,0.19276c-0.23695,0.0733 -0.42107,0.00899 -0.55231,-0.19276z" opacity="0.314"/><path d="M87.68913,157.03555c0.38003,-0.04213 0.64363,0.11346 0.79039,0.46652c-0.30239,-0.08963 -0.56579,-0.2451 -0.79039,-0.46652z" opacity="0.008"/><path d="M65.53614,162.74405c0.21175,0.19038 0.21339,0.4133 0.00482,0.66894c-0.0696,-0.22652 -0.07124,-0.44943 -0.00482,-0.66894z" opacity="0.227"/><path d="M70.16857,161.21524c0.2639,0.21918 0.44966,0.50639 0.55714,0.86172c-0.31216,-0.18797 -0.49792,-0.4752 -0.55714,-0.86172z" opacity="0.392"/><path d="M51.08172,166.46874c0.50398,0.69045 0.82464,1.50133 0.962,2.43284c-0.32335,-0.79327 -0.64399,-1.60417 -0.962,-2.43284z" opacity="0.056"/><path d="M70.72572,162.07695c0.31403,0.32722 0.5791,0.70576 0.79523,1.13546c-0.42429,-0.24536 -0.68937,-0.6239 -0.79523,-1.13546z" opacity="0.482"/><path d="M89.11281,158.00905c0.24005,0.01739 0.38533,0.1475 0.43569,0.39038c-0.24005,-0.01739 -0.38533,-0.1475 -0.43569,-0.39038z" opacity="0.067"/><path d="M62.99633,165.24152c-2.60305,0.83781 -5.26052,1.5784 -7.9723,2.22189c0.31925,1.1817 0.61614,2.33381 0.89069,3.4565c-0.05232,0.01347 -0.1048,0.02701 -0.15711,0.04049c-0.31041,-1.20459 -0.62077,-2.40902 -0.93118,-3.6136c2.72324,-0.70174 5.44666,-1.40352 8.1699,-2.10527z" opacity="0.082"/><path d="M65.55063,164.75087c0.00656,0.6509 -0.05463,1.28089 -0.18312,1.89019c-0.14256,-0.66831 -0.08154,-1.29824 0.18312,-1.89019z" opacity="0.404"/><path d="M85.81826,159.52819c0.1706,0.01183 0.30239,0.08962 0.3952,0.23326c-0.15301,0.05383 -0.2974,0.03508 -0.43326,-0.05589c-0.03751,0.16851 -0.02311,0.33234 0.0429,0.49158c-0.11492,-0.04026 -0.19423,-0.13156 -0.23808,-0.27374c-0.01031,-0.20057 0.06748,-0.33238 0.23325,-0.3952z" opacity="0.09"/><path d="M86.21346,159.76145c0.52706,-0.03328 0.81763,0.22693 0.87136,0.78073c-0.28686,-0.25497 -0.57743,-0.5152 -0.87136,-0.78073z" opacity="0.992"/><path d="M71.56143,163.36952c0.22083,0.18269 0.39311,0.41759 0.51666,0.70459c-0.31508,-0.10897 -0.48737,-0.34387 -0.51666,-0.70459z" opacity="0.655"/><path d="M83.10684,160.05934c0.90733,-0.28776 1.81118,-0.46487 2.71142,-0.53114c-0.16577,0.06283 -0.24357,0.19462 -0.23325,0.39519c0.04385,0.14218 0.12315,0.23349 0.23808,0.27375c0.31956,1.12247 0.70776,2.19527 1.16444,3.21841c-0.03645,0.13037 -0.12083,0.23587 -0.2535,0.31664c-0.60606,0.23979 -1.22775,0.42795 -1.86512,0.56439c-0.03291,-0.31236 -0.15267,-0.56065 -0.35953,-0.74508c-0.23895,-1.16787 -0.67947,-2.22718 -1.32155,-3.17792c-0.02701,-0.10479 -0.05396,-0.20943 -0.08097,-0.31423z" opacity="0.99"/><path d="M69.01679,165.19805c-0.10143,0.00754 -0.19348,-0.02454 -0.27616,-0.09638c-0.0066,0.15517 -0.05818,0.28005 -0.15471,0.37497c-0.04049,-0.15712 -0.08096,-0.31422 -0.12146,-0.47135c0.25508,-0.10175 0.43921,-0.03744 0.55231,0.19277z" opacity="0.133"/><path d="M72.07808,164.07411c0.2639,0.21918 0.44967,0.50639 0.55715,0.86172c-0.34,-0.16204 -0.5256,-0.44931 -0.55715,-0.86172z" opacity="0.757"/><path d="M65.36752,166.64106c0.04179,0.26619 -0.00888,0.5026 -0.15228,0.70944c-0.11869,-0.28439 -0.06787,-0.52085 0.15228,-0.70944z" opacity="0.322"/><path d="M87.36339,160.97304c0.24549,0.18152 0.29948,0.39111 0.16195,0.62844c-0.19633,-0.2066 -0.25028,-0.41601 -0.16195,-0.62844z" opacity="0.471"/><path d="M68.55027,165.98845c0.07763,0.363 0.0538,0.70424 -0.07131,1.02366c-0.13495,-0.367 -0.11113,-0.70824 0.07131,-1.02366z" opacity="0.169"/><path d="M72.63523,164.93583c0.31403,0.32722 0.57911,0.70575 0.79522,1.13545c-0.42429,-0.24536 -0.68938,-0.62389 -0.79522,-1.13545z" opacity="0.537"/><path d="M83.18781,160.37356c0.64208,0.95074 1.08259,2.01006 1.32153,3.17793c-0.44615,-1.03305 -0.88666,-2.09238 -1.32153,-3.17793z" opacity="0.082"/><path d="M85.82308,160.19713c0.45741,0.91488 0.87097,1.86956 1.24057,2.86369c0.24338,-0.41055 0.41081,-0.84474 0.50218,-1.30222c0.08025,0.20935 0.10802,0.42571 0.08338,0.6487c-0.06464,0.44876 -0.28514,0.78488 -0.6617,1.00824c-0.45667,-1.02315 -0.84486,-2.09594 -1.16444,-3.21841z" opacity="0.216"/><path d="M65.25573,167.5076c0.14868,0.32996 0.11138,0.61886 -0.1118,0.86654c-0.09852,-0.31859 -0.06121,-0.6075 0.1118,-0.86654z" opacity="0.643"/><path d="M68.47896,167.0121c0.07763,0.363 0.0538,0.70424 -0.0713,1.02365c-0.13495,-0.367 -0.11114,-0.70824 0.0713,-1.02365z" opacity="0.18"/><path d="M61.72792,169.42193c0.01347,0.05231 0.027,0.1048 0.04049,0.15712c-2.00464,0.5717 -4.00832,1.03204 -6.0108,1.38134c0.05232,-0.01347 0.1048,-0.02699 0.15712,-0.04048c1.93553,-0.54081 3.87321,-1.04013 5.8132,-1.49798z" opacity="0.576"/><path d="M70.13107,166.92147c0.31216,0.18797 0.49792,0.47519 0.55714,0.86171c-0.2639,-0.21918 -0.44967,-0.50639 -0.55714,-0.86171z" opacity="0.2"/><path d="M65.14393,168.37414c0.1339,0.53783 0.09825,1.04965 -0.10697,1.53547c-0.06576,-0.53345 -0.0301,-1.04526 0.10697,-1.53547z" opacity="0.435"/><path d="M73.47094,166.22838c0.27666,0.14316 0.44894,0.37808 0.51666,0.7046c-0.31508,-0.10897 -0.48737,-0.34388 -0.51666,-0.7046z" opacity="0.682"/><path d="M76.61504,160.22427c1.48628,4.47266 2.77866,9.05425 3.87698,13.745c-0.11152,0.11401 -0.21704,0.02962 -0.31664,-0.2535c-1.23909,-4.48341 -2.42589,-8.98046 -3.56034,-13.4915z" opacity="0.605"/><path d="M83.10684,160.05934c-0.97829,0.18338 -1.90073,0.50487 -2.76731,0.96443c0.34277,1.26192 0.68015,2.57115 1.01215,3.92783c0.98926,-0.22342 1.97841,-0.39454 2.96733,-0.51332c0.25204,-0.25209 0.31542,-0.54772 0.19034,-0.88679c0.20686,0.18445 0.32663,0.4327 0.35954,0.74508c-1.13536,0.45878 -2.3263,0.82146 -3.57312,1.08828c-0.41766,-1.51287 -0.78296,-3.03841 -1.09553,-4.57652c0.93079,-0.46202 1.89955,-0.71165 2.9066,-0.74899z" opacity="0.377"/><path d="M70.68821,167.78318c0.31216,0.18797 0.49793,0.47519 0.55715,0.86171c-0.2639,-0.21918 -0.44967,-0.50639 -0.55715,-0.86171z" opacity="0.165"/><path d="M73.9876,166.93299c0.2639,0.21918 0.44966,0.50639 0.55714,0.86171c-0.31216,-0.18797 -0.49792,-0.47519 -0.55714,-0.86171z" opacity="0.478"/><path d="M90.37269,163.5485c0.0733,0.23695 0.009,0.42108 -0.19276,0.55232c-0.0733,-0.23695 -0.009,-0.42108 0.19276,-0.55232z" opacity="0.016"/><path d="M68.33634,169.05941c0.09852,0.31859 0.06121,0.6075 -0.1118,0.86653c-0.09852,-0.31859 -0.06121,-0.6075 0.1118,-0.86653z" opacity="0.216"/><path d="M65.07745,170.06672c0.11378,0.61707 0.03928,1.1947 -0.2236,1.73307c-0.02722,-0.60436 0.04727,-1.18198 0.2236,-1.73307z" opacity="0.827"/><path d="M74.54474,167.79469c0.2639,0.21918 0.44966,0.50639 0.55714,0.86171c-0.31216,-0.18797 -0.49792,-0.4752 -0.55714,-0.86171z" opacity="0.584"/><path d="M68.26504,170.08307c0.09852,0.31859 0.0612,0.60749 -0.11181,0.86652c-0.09852,-0.31859 -0.0612,-0.60749 0.11181,-0.86652z" opacity="0.243"/><path d="M68.15322,170.9496c1.06019,-0.2355 2.148,-0.34826 3.26373,-0.33837c-1.11678,0.18172 -2.24357,0.36032 -3.38035,0.53597c-0.00509,-0.10039 0.03374,-0.16619 0.11662,-0.1976z" opacity="0.12"/><path d="M64.85385,171.7998c0.10684,0.24037 0.10833,0.46334 0.00482,0.66895c-0.06619,0.02795 -0.12538,0.01538 -0.17736,-0.03808c0.0392,-0.22825 0.09659,-0.43855 0.17253,-0.63086z" opacity="0.431"/><path d="M75.10187,168.6564c0.46107,0.43426 0.81911,0.95638 1.07379,1.5663c-0.32524,-0.19197 -0.65444,-0.38628 -0.98798,-0.58314c0.05447,-0.12999 0.13902,-0.23553 0.2535,-0.31664c-0.19316,-0.17742 -0.30637,-0.39956 -0.3393,-0.66653z" opacity="0.984"/><path d="M71.77167,170.68737c0.20943,-0.05397 0.34122,0.02382 0.39519,0.23326c-0.1706,-0.01183 -0.30238,-0.08962 -0.39519,-0.23326z" opacity="0.004"/><path d="M89.17077,166.03633c0.30769,0.04839 0.51881,0.21748 0.63328,0.50699c-0.30769,-0.04839 -0.51881,-0.21748 -0.63328,-0.50699z" opacity="0.384"/><path d="M72.35964,170.36831c0.2255,0.11178 0.38411,0.29425 0.47617,0.54748c-0.05231,0.01347 -0.1048,0.027 -0.15711,0.04049c-0.02701,-0.10479 -0.09281,-0.14363 -0.1976,-0.11663c-0.04049,-0.15712 -0.08096,-0.31422 -0.12146,-0.47134z" opacity="0.161"/><path d="M89.80405,166.54332c0.30769,0.04839 0.51881,0.21748 0.63328,0.507c-0.30769,-0.04839 -0.51881,-0.21748 -0.63328,-0.507z" opacity="0.537"/><path d="M85.40004,167.00798c0.13716,0.56414 0.16747,1.11475 0.09062,1.6521c-0.13066,-0.37179 -0.17263,-0.75186 -0.12629,-1.14028c-0.11827,-0.02531 -0.23645,-0.05083 -0.35472,-0.07614c-0.98291,0.08808 -1.913,0.27196 -2.78996,0.55139c0.40669,1.82014 0.83932,3.60761 1.29797,5.36209c-0.80321,0.26076 -1.6023,0.41072 -2.39718,0.45018c0.73325,-0.18895 1.46634,-0.37785 2.19958,-0.5668c-0.45883,-1.78056 -0.91769,-3.56128 -1.37651,-5.34185c1.15211,-0.29688 2.30437,-0.59381 3.45649,-0.89069z" opacity="0.393"/><path d="M76.17567,170.2227c0.31403,0.32722 0.57912,0.70576 0.79524,1.13546c-0.42429,-0.24536 -0.68938,-0.6239 -0.79524,-1.13546z" opacity="0.573"/><path d="M90.43734,167.05031c0.30769,0.04839 0.5188,0.21748 0.63327,0.50699c-0.30769,-0.04839 -0.5188,-0.21748 -0.63327,-0.50699z" opacity="0.557"/><path d="M61.72792,169.42193c0.22521,0.44159 0.4057,0.92553 0.54172,1.45209c0.16958,0.57353 0.23272,1.14367 0.18942,1.71042c-1.91669,0.38835 -3.82812,0.88091 -5.73463,1.47774c0.43192,1.88485 0.96331,3.73048 1.59437,5.53704c-0.06291,0.24743 -0.16078,0.30062 -0.29399,0.15953c-0.51284,-1.99015 -1.02562,-3.98014 -1.53845,-5.97031c1.99016,-0.51283 3.98014,-1.02563 5.9703,-1.53847c-0.22944,-0.89037 -0.45884,-1.78055 -0.68827,-2.67092c-0.01347,-0.05231 -0.02701,-0.10481 -0.04049,-0.15712z" opacity="0.323"/><path d="M64.78254,172.82345c0.00558,0.43518 0.1068,0.82797 0.30365,1.17835c-0.18304,0.2318 -0.34523,0.46911 -0.48676,0.71184c-0.00656,-0.6509 0.05462,-1.28089 0.18311,-1.89019z"/><path d="M85.40004,167.00798c0.20943,-0.05397 0.41902,-0.10798 0.62844,-0.16195c0.73154,0.96505 1.52528,1.87754 2.38086,2.73741c-0.18539,-0.13619 -0.31627,-0.10248 -0.39279,0.10121c-0.02322,0.71219 -0.09694,1.40137 -0.22118,2.06755c-0.04761,-0.72828 -0.23651,-1.46139 -0.56681,-2.19958c-0.15712,0.04049 -0.31422,0.08096 -0.47134,0.12146c-0.19019,-0.61263 -0.26875,-0.59239 -0.23567,0.06071c-0.1706,-0.01183 -0.34123,-0.02382 -0.51183,-0.03565c-0.1785,0.19093 -0.32137,0.39527 -0.42844,0.61304c-0.13716,-0.56414 -0.16747,-1.11475 -0.09062,-1.65211c0.07684,-0.53734 0.04653,-1.08797 -0.09063,-1.65211z"/><path d="M91.07062,167.55731c0.24005,0.01739 0.38534,0.14749 0.43569,0.39037c-0.24005,-0.01739 -0.38534,-0.14749 -0.43569,-0.39037z" opacity="0.322"/><path d="M73.99057,172.79632c-1.91506,0.4811 -3.84614,1.00668 -5.79295,1.57654c-0.19707,0.50249 -0.34412,1.01503 -0.44144,1.53789c-0.18453,-0.61727 -0.17588,-1.2339 0.026,-1.8497c2.08885,-0.42953 4.15833,-0.85106 6.20839,-1.26472z" opacity="0.404"/><path d="M77.01139,171.51526c0.3704,0.28856 0.63546,0.66694 0.79522,1.13546c-0.41601,-0.25872 -0.68108,-0.63726 -0.79522,-1.13546z" opacity="0.424"/><path d="M73.99057,172.79632c0.2639,0.21918 0.44967,0.50639 0.55714,0.86171c-0.31216,-0.18797 -0.49792,-0.47519 -0.55714,-0.86171z" opacity="0.024"/><path d="M64.63992,174.87076c0.00558,0.43518 0.1068,0.82797 0.30365,1.17835c-0.26272,0.1833 -0.42511,0.42051 -0.48676,0.71184c-0.07467,-0.65714 -0.01351,-1.28712 0.1831,-1.89019z"/><path d="M74.58821,173.81514c0.31216,0.18797 0.49791,0.4752 0.55713,0.86171c-0.2639,-0.21918 -0.44966,-0.50639 -0.55713,-0.86171z" opacity="0.251"/><path d="M87.79539,171.7522c-0.07779,0.1318 -0.15547,0.26339 -0.23325,0.39519c-0.4982,-0.11088 -0.99655,-0.09422 -1.495,0.05015c0.066,0.15925 0.0804,0.32309 0.0429,0.49159c-0.0658,-0.03884 -0.1318,-0.0778 -0.19759,-0.11663c0.05715,0.65546 -0.04749,0.68243 -0.31423,0.08098c0.03561,0.41387 -0.0666,0.77531 -0.30697,1.08437c0.09741,-1.15638 0.1942,-2.29835 0.29007,-3.42566c0.10707,-0.21776 0.24993,-0.42211 0.42844,-0.61304c0.1706,0.01183 0.34122,0.02382 0.51182,0.03565c-0.0331,-0.65312 0.04548,-0.67335 0.23567,-0.06071c0.15712,-0.04049 0.31422,-0.08097 0.47135,-0.12147c0.3303,0.73821 0.51919,1.47131 0.56681,2.19959z" opacity="0.992"/><path d="M64.42115,177.27277c0.10018,0.24963 0.10843,0.49882 0.02507,0.74749c1.01399,-0.17752 2.01572,-0.40783 3.00541,-0.69066c-0.97782,0.418 -2.01182,0.74024 -3.10179,0.96684c-0.13495,-0.367 -0.11113,-0.70824 0.07131,-1.02365z" opacity="0.039"/><path d="M78.68281,174.10039c0.29284,0.00966 0.37888,0.12704 0.25833,0.35229c-1.09468,0.41964 -2.20119,0.67696 -3.31962,0.77165c1.13834,-0.18845 2.15865,-0.56312 3.06129,-1.12394z" opacity="0.043"/><path d="M87.79539,171.7522c0.09852,0.31859 0.06121,0.6075 -0.1118,0.86653c-0.04049,-0.15712 -0.08096,-0.31423 -0.12145,-0.47134c0.07779,-0.1318 0.15547,-0.26339 0.23325,-0.39519z" opacity="0.098"/><path d="M87.68359,172.61874c0.07846,0.43902 0.01579,0.84606 -0.18794,1.22125c-0.07846,-0.43902 -0.01579,-0.84606 0.18794,-1.22125z" opacity="0.063"/><path d="M85.29123,173.73787c0.1492,0.48211 0.1921,0.9737 0.1287,1.47475c-0.16543,-0.14134 -0.2963,-0.10763 -0.39277,0.10121c0.04336,-0.54497 0.13135,-1.07029 0.26409,-1.57597z" opacity="0.925"/><path d="M87.26723,174.90414c0.04874,0.35169 -0.04088,0.65408 -0.26891,0.90703c-0.04874,-0.35169 0.04088,-0.65408 0.26891,-0.90703z" opacity="0.039"/><path d="M86.99831,175.81116c0.0733,0.23695 0.00899,0.42107 -0.19277,0.55231c-0.0733,-0.23695 -0.00899,-0.42107 0.19277,-0.55231z" opacity="0.035"/><path d="M87.56213,172.14741c0.04049,0.15712 0.08097,0.31423 0.12146,0.47135c-0.20372,0.37519 -0.2664,0.78223 -0.18794,1.22125c-0.00789,0.37901 -0.08404,0.73372 -0.22843,1.06413c-0.22802,0.25293 -0.31763,0.55534 -0.26891,0.90703c-0.20176,0.13124 -0.26606,0.31536 -0.19277,0.55231c-0.84881,2.60458 -2.13679,4.975 -3.86412,7.11116c-0.4215,0.46248 -0.87095,0.8854 -1.34847,1.26899c-0.24287,0.05036 -0.37297,0.19563 -0.39036,0.43569c-0.27674,0.32079 -0.6028,0.57234 -0.97834,0.75473c-0.58334,0.05615 -0.68977,-0.13975 -0.31906,-0.58796c0.27733,-0.46988 0.61539,-0.8921 1.01399,-1.26657c0.32987,-0.18218 0.53766,-0.45906 0.62362,-0.83088c0.72843,-1.30908 1.45351,-2.61295 2.17544,-3.9115c0.28397,-0.25495 0.42595,-0.57067 0.42602,-0.94751c0.24735,-1.03618 0.54162,-2.06132 0.88287,-3.07579c0.09646,-0.20883 0.22735,-0.24256 0.39278,-0.10121c0.0634,-0.50105 0.0205,-0.99264 -0.1287,-1.47476c0.24037,-0.30908 0.34259,-0.67051 0.30698,-1.08438c0.26675,0.60145 0.37138,0.5745 0.31423,-0.08095c0.0658,0.03884 0.1318,0.07779 0.1976,0.11662c0.03751,-0.16851 0.02309,-0.33233 -0.04292,-0.49159c0.49844,-0.14436 0.9968,-0.16103 1.495,-0.05015z" opacity="0.997"/><path d="M84.14428,178.38962c-0.00007,0.37682 -0.14205,0.69255 -0.42601,0.94751c0.00007,-0.37682 0.14205,-0.69255 0.42601,-0.94751z" opacity="0.239"/><path d="M81.54282,183.24861c-0.08598,0.37183 -0.29376,0.64871 -0.62362,0.83088c0.08598,-0.37183 0.29376,-0.64871 0.62362,-0.83088z" opacity="0.498"/><path d="M81.59295,184.74361c-0.01739,0.24006 -0.14749,0.38532 -0.39036,0.43569c0.01739,-0.24006 0.14749,-0.38532 0.39036,-0.43569z" opacity="0.004"/><path d="M79.90519,185.34606c-0.37072,0.44822 -0.26428,0.64412 0.31906,0.58796c-0.68431,0.71499 -1.53249,1.32462 -2.54463,1.82854c-0.10479,0.02701 -0.17059,-0.01184 -0.19759,-0.11662c0.75099,-0.81779 1.55867,-1.58452 2.42318,-2.29987z" opacity="0.986"/><path d="M92.41986,195.35735c0.02701,0.10479 0.09281,0.14363 0.1976,0.11664c-0.36584,0.33386 -0.75713,0.65803 -1.17352,0.97258c-0.11426,-0.12939 -0.18082,-0.27979 -0.2,-0.4511c0.39202,-0.21276 0.7839,-0.42535 1.17592,-0.6381z" opacity="0.459"/></g></g></g></svg>