<svg version="1.1" xmlns="http://www.w3.org/2000/svg" xmlns:xlink="http://www.w3.org/1999/xlink" width="585.91787" height="158.88719" viewBox="0,0,585.91787,158.88719"><defs><linearGradient x1="378.19079" y1="183.20684" x2="608.29558" y2="183.20684" gradientUnits="userSpaceOnUse" id="color-1"><stop offset="0" stop-color="#e2d3ff"/><stop offset="1" stop-color="#d3f9ff"/></linearGradient><radialGradient cx="424.56819" cy="174.95542" r="107.4122" gradientUnits="userSpaceOnUse" id="color-2"><stop offset="0" stop-color="#e2d3ff"/><stop offset="1" stop-color="#d3f9ff"/></radialGradient><linearGradient x1="27.00003" y1="211.5" x2="116.00003" y2="211.5" gradientUnits="userSpaceOnUse" id="color-3"><stop offset="0" stop-color="#71648d"/><stop offset="1" stop-color="#64888d"/></linearGradient><linearGradient x1="73.73734" y1="147.33589" x2="73.73734" y2="204.81957" gradientUnits="userSpaceOnUse" id="color-4"><stop offset="0" stop-color="#b295ed"/><stop offset="1" stop-color="#c4c4c4"/></linearGradient><linearGradient x1="212.67009" y1="185.00829" x2="212.67009" y2="251.33793" gradientUnits="userSpaceOnUse" id="color-5"><stop offset="0" stop-color="#e3e3e3"/><stop offset="1" stop-color="#c2adec"/></linearGradient><linearGradient x1="245.70761" y1="200.41741" x2="245.70761" y2="251.36693" gradientUnits="userSpaceOnUse" id="color-6"><stop offset="0" stop-color="#e3e3e3"/><stop offset="1" stop-color="#c2adec"/></linearGradient><linearGradient x1="236.98125" y1="163.96391" x2="370.53135" y2="163.96391" gradientUnits="userSpaceOnUse" id="color-7"><stop offset="0" stop-color="#71648d"/><stop offset="1" stop-color="#64888d"/></linearGradient><linearGradient x1="237.36065" y1="186.53842" x2="371.05382" y2="186.53842" gradientUnits="userSpaceOnUse" id="color-8"><stop offset="0" stop-color="#71648d"/><stop offset="1" stop-color="#64888d"/></linearGradient><linearGradient x1="119.38398" y1="167.07197" x2="177.96522" y2="167.07197" gradientUnits="userSpaceOnUse" id="color-9"><stop offset="0" stop-color="#c9b1d9"/><stop offset="1" stop-color="#80c1d9"/></linearGradient></defs><g transform="translate(-22.37769,-115.82648)"><g data-paper-data="{&quot;isPaintingLayer&quot;:true}" stroke-linejoin="miter" stroke-miterlimit="10" stroke-dasharray="" stroke-dashoffset="0" style="mix-blend-mode: normal"><g data-paper-data="{&quot;index&quot;:null}" fill-rule="nonzero" stroke="none" stroke-width="0.5" stroke-linecap="butt"><path d="M386.20237,174.39825c0.52279,-1.60763 0.96958,-3.36988 1.71757,-4.8713c1.11857,-2.24529 3.58012,-3.86033 3.58012,-6.11325c0,-2.68724 -0.31181,-5.63536 0.12829,-8.29057c0.90949,-5.48709 3.70055,-10.72101 6.00652,-15.71728c2.1149,-4.58229 5.4248,-10.66564 10.06189,-13.25992c1.84693,-1.03329 5.74294,-0.73224 7.8033,-0.73224c1.29559,0.13996 2.62667,0.08773 3.88675,0.41987c0.89237,0.23521 1.37014,1.29409 2.21959,1.65477c1.47882,0.62793 3.14847,0.6957 4.65101,1.26456c3.41814,1.2941 6.99229,3.15856 10.74264,3.6608c4.3019,0.5761 6.97871,0.16972 10.76777,2.73224c3.24646,2.19557 5.10472,6.10482 7.80845,8.81097c2.36558,2.3677 4.86904,4.65936 7.06605,7.18705c1.03682,1.19287 2.78054,2.89743 4.35774,3.26975c2.93739,0.69342 6.97068,-0.00041 10.00073,0c8.78028,0.00117 18.52529,-1.14431 27.13521,0.57767c2.60377,0.52075 5.46552,0.84115 7.9821,1.68625c1.11204,0.37344 1.9265,1.43149 3.05766,1.74225c2.03007,0.55772 4.81964,0.33956 6.91608,0.48725c5.88494,0.41461 11.75706,0.60071 17.59975,1.41499c5.35851,0.7468 10.95904,3.09159 16.30848,3.09159c7.0961,0.09063 14.0066,2.40591 21.05631,3.0005c4.99322,0.42114 10.09329,0.12163 15.10775,0.4166c3.46388,0.20376 7.10872,0.13174 10.53533,0.68272c0.65053,0.10461 1.50526,0.02376 1.89775,0.55299l1.84432,0.53742c1.06761,0.28476 1.85403,1.25842 1.85403,2.41575c0,0.98471 -0.56932,1.83645 -1.39675,2.24402l-4.39238,2.27612l-0.01626,-0.03138c-3.85199,1.86176 -7.69696,3.39531 -11.74778,4.94799c-8.46739,3.1423 -18.75509,4.96301 -27.74233,5.95727c-2.43173,0.26902 -4.9771,-0.33864 -7.39366,-0.07465c-4.92688,0.53823 -9.89574,1.67774 -14.87613,2.23112c-6.92233,0.76914 -13.80696,2.1924 -20.73021,2.84352c-3.54169,0.33309 -7.17431,-0.05019 -10.72507,0.322c-5.24148,0.54942 -10.40464,1.70325 -15.66367,2.22638c-7.1762,0.71385 -14.76063,0.82588 -21.8207,2.32334c-3.10101,0.65774 -6.74579,1.62216 -9.67253,2.86436c-2.96852,1.25993 -5.68568,3.22806 -8.76147,4.23837c-1.7584,0.57759 -3.72975,0.60391 -5.34286,1.51135c-6.20046,3.48799 -13.11445,6.93521 -18.75949,11.26935c-3.89473,2.99029 -7.1698,6.86649 -11.01387,9.91547c-1.9118,1.51636 -4.53118,2.15338 -6.47258,3.59715c-2.21061,1.64397 -3.33738,3.45158 -6.16143,4.15759c-3.08313,0.43697 -5.52405,3.31378 -8.30971,4.59573c-3.09273,1.42326 -8.36308,2.88891 -11.68339,2.55904c-1.81054,-0.17988 -4.24584,-3.21706 -5.11325,-4.58013c-3.47011,-5.45304 -2,-13.68475 -2,-20c0,-10.63929 -0.4643,-21.97771 2.15918,-32.37781c0.68103,-2.69976 2.02399,-5.3973 3,-8c0,0 0.70678,-1.88474 2.54313,-1.63764zM388.40171,177.58871c-0.03272,0.12794 -0.06078,0.20279 -0.06078,0.20279c-0.97438,2.59835 -2.3303,5.30186 -3,8c-2.42579,9.77326 -1.84082,20.63151 -1.84082,30.62219c0,4 0,8 0,12c0,2.1985 -0.39769,3.60231 1,5c0.65066,0.65066 2.46569,3.44593 3.88675,3.41987c0.35748,-0.00656 -0.00999,-0.83745 0.28945,-1.03281c0.69793,-0.45536 1.59638,-0.47892 2.39457,-0.71837c1.59637,-0.47892 3.27509,-0.73999 4.78913,-1.43674c3.15629,-1.45252 5.10475,-3.63035 8.53377,-4.65731c0.66666,-0.16666 1.40402,-0.15789 2,-0.5c0.86084,-0.49416 1.04401,-1.7475 1.83857,-2.34241c2.30132,-1.72307 5.30052,-2.60659 7.52742,-4.40285c3.48672,-2.81246 6.48122,-6.4598 10.0575,-9.20559c5.99337,-4.60158 13.17098,-8.29763 19.74511,-11.99583c2.43343,-1.3689 4.55754,-1.25649 7.08117,-2.10242c2.47941,-0.83111 4.79587,-2.72945 7.23853,-3.76163c3.18543,-1.34606 6.95256,-2.40379 10.32746,-3.13564c7.43583,-1.61246 15.34612,-1.80326 22.90691,-2.55536c5.15006,-0.5123 10.20372,-1.64488 15.3366,-2.18291c3.82698,-0.40114 7.73448,-0.01727 11.54706,-0.39002c6.73411,-0.6584 13.43853,-2.06411 20.17805,-2.81295c4.76331,-0.52925 9.5074,-1.58257 14.21561,-2.11241c2.84424,-0.32008 5.77417,0.25343 8.60634,-0.07465c4.74382,-0.54953 9.54137,-1.78134 14.21218,-2.77061c3.91803,-0.82984 8.01853,-1.36591 11.7406,-2.85545c3.17791,-1.2181 6.20196,-2.41067 9.21165,-3.77435c-2.10315,-0.10394 -4.25533,-0.07121 -6.29398,-0.19113c-4.93648,-0.29038 -9.95814,0.00626 -14.87357,-0.40833c-6.97153,-0.588 -13.99448,-3.13281 -20.99688,-3.00014c-4.92832,0 -9.65143,-2.13035 -14.52257,-2.79437c-5.76502,-0.78587 -11.44256,-1.14021 -17.24322,-1.54887c-2.91711,-0.20552 -6.58924,0.11073 -9.4099,-0.66294c-1.74669,-0.4791 -3.22413,-1.68486 -4.94234,-2.25775c-2.05371,-0.68475 -4.59433,-0.82903 -6.72661,-1.25549c-8.26652,-1.6533 -17.71637,-0.47945 -26.15608,-0.48058c-3.0297,-0.00041 -7.06226,0.69333 -9.99927,0c-6.35747,-1.5008 -10.5676,-7.52562 -14.9609,-11.92285c-2.66788,-2.67026 -4.55958,-6.69308 -7.80687,-8.80938c-2.69694,-1.75762 -4.32183,-0.878 -7.23224,-1.26776c-3.23964,-0.43385 -7.24017,-1.553 -10.30543,-2.71927c-1.04903,-0.39913 -1.89731,-1.23576 -2.95192,-1.61993c-1.07389,-0.39119 -2.29942,-0.28299 -3.34898,-0.73544c-1.90449,-0.821 -2.87191,-2.68788 -4.89366,-1.92535c-1.75445,0 -5.50829,-0.20639 -7.09619,0.68198c-0.30421,0.1702 0.14139,0.73951 -0.02571,1.04543c-1.43806,2.63286 -3.92224,4.27583 -5.15584,7.09014c-2.48026,5.65845 -5.81252,11.30298 -6.85055,17.47303c-0.33455,1.98856 0.12829,4.647 0.12829,6.70943c0,3.6605 -2.88701,5.83753 -4.41987,8.88675c-0.56119,1.11633 -0.80871,2.70471 -1.20842,3.90382l-0.5,1.5c0,0 0.00363,-0.09302 0.00966,-0.2359c-0.29649,0.54145 -1.10878,0.43955 -1.97977,0.12036z" data-paper-data="{&quot;origPos&quot;:null}" fill="url(#color-1)"/><path d="M388.291,177.78867c0,0 0.02808,-0.07495 0.06079,-0.20289c0.87098,0.31919 1.68328,0.42098 1.97977,-0.12047c-0.00604,0.14289 -0.00967,0.23602 -0.00967,0.23602l0.50005,-1.50076c0.3997,-1.19911 0.64742,-2.78948 1.2086,-3.90581c1.53287,-3.04921 4.42066,-5.23103 4.42066,-8.89153c0,-2.06243 -0.46204,-4.7241 -0.12749,-6.71266c1.03803,-6.17005 4.37376,-11.82349 6.85402,-17.48193c1.2336,-2.81431 3.71997,-4.46116 5.15804,-7.09402c0.16709,-0.30592 -0.27826,-0.87562 0.02595,-1.04582c1.58791,-0.88837 5.34306,-0.68395 7.09752,-0.68395c2.02174,-0.76253 2.98958,1.10376 4.89407,1.92477c1.04956,0.45245 2.27558,0.34358 3.34947,0.73478c1.05461,0.38417 1.90307,1.22056 2.95211,1.6197c3.06525,1.16626 7.0676,2.28318 10.30724,2.71702c2.9104,0.38975 4.53725,-0.492 7.23418,1.26562c3.24728,2.1163 5.21162,6.20785 7.87949,8.87812c4.3933,4.39723 8.53169,10.35241 14.88917,11.85321c2.93702,0.69333 6.97987,-0.00822 10.00956,-0.00781c8.43971,0.00112 17.93755,-1.17364 26.20408,0.47966c2.13227,0.42645 4.68217,0.577 6.73588,1.26175c1.71822,0.57289 3.20155,1.7846 4.94824,2.2637c2.82066,0.77367 6.49767,0.46438 9.41478,0.66989c5.80067,0.40866 11.48214,0.77149 17.24715,1.55737c4.87114,0.66402 9.59582,2.79974 14.52414,2.79974c7.00241,-0.13267 14.02616,2.41647 20.99769,3.00447c4.91543,0.41459 9.93725,0.11916 14.87373,0.40954c2.03864,0.11992 4.19086,0.08761 6.29402,0.19155c-3.00968,1.36368 -6.0336,2.55765 -9.21151,3.77575c-3.72207,1.48954 -7.8225,2.02672 -11.74052,2.85656c-4.67082,0.98928 -9.4683,2.22244 -14.21213,2.77197c-2.83217,0.32808 -5.76211,-0.24558 -8.60635,0.0745c-4.70821,0.52983 -9.45227,1.58482 -14.21558,2.11408c-6.73952,0.74884 -13.44418,2.15939 -20.17829,2.81779c-3.81257,0.37276 -7.72068,-0.00692 -11.54765,0.39423c-5.13288,0.53803 -10.21617,1.70753 -15.36622,2.21982c-7.56079,0.7521 -15.53722,0.915 -22.97305,2.52746c-3.37491,0.73185 -7.0484,1.75451 -10.23383,3.10057c-2.44266,1.03218 -4.85272,2.96567 -7.33214,3.79677c-2.52363,0.84592 -4.55437,0.69773 -6.9878,2.06663c-6.57413,3.6982 -13.75288,7.39146 -19.74625,11.99304c-3.57628,2.74579 -6.57188,6.39082 -10.05861,9.20328c-2.2269,1.79625 -5.22623,2.67953 -7.52755,4.4026c-0.79456,0.59491 -0.97802,1.84768 -1.83887,2.34184c-0.59598,0.34211 -1.42172,0.38012 -2.08838,0.54678c-3.42902,1.02697 -5.37744,3.20486 -8.53373,4.65738c-1.51403,0.69675 -3.19295,0.95744 -4.78933,1.43636c-0.79819,0.23945 -1.60772,0.21727 -2.30564,0.67263c-0.29943,0.19537 -0.02083,1.07211 -0.37831,1.07867c-1.42106,0.02606 -3.237,-2.77105 -3.88766,-3.42171c-1.39769,-1.3977 -1.00086,-2.80345 -1.00086,-5.00195c0,-4 -0.00167,-8.00464 -0.00167,-12.00464c0,-9.99068 -0.58715,-20.8625 1.83864,-30.63577c0.6697,-2.69814 2.02569,-5.40552 3.00007,-8.00387z" data-paper-data="{&quot;noHover&quot;:false,&quot;origItem&quot;:[&quot;Path&quot;,{&quot;applyMatrix&quot;:true,&quot;segments&quot;:[[[210.8032,230.64995],[-0.06543,-0.25588],[1.74197,-0.63839]],[[214.76274,230.89066],[-0.59298,-1.08289],[-0.01207,-0.28576]],[214.74342,230.41886],[[215.74342,233.41886],[0,0],[0.79941,2.39822]],[[218.16025,241.2265],[-1.12237,-2.23266],[3.06573,6.09843]],[[227,259],[0,-7.321],[0,4.12486]],[[226.74342,272.41886],[-0.6691,-3.97713],[2.07606,12.3401]],[[240.44451,307.36491],[-4.96052,-11.31688],[2.46719,5.62863]],[[250.75619,321.54518],[-2.87613,-5.26571],[0.33419,0.61184]],[[250.80761,323.63604],[-0.60842,-0.34039],[3.17581,1.77674]],[[265,325],[-3.50891,0],[4.04349,1.52505]],[[274.78732,321.14929],[-3.80899,1.64201],[2.09912,-0.9049]],[[281.48529,319.6784],[-2.14779,0.78239],[2.10922,-0.76834]],[[287.38914,316.43853],[-2.09807,0.79827],[6.13051,-2.33253]],[[308,311],[-6.47929,0.86769],[5.82081,-0.77951]],[[322.46447,308.46447],[-5.39386,3.51525],[6.49457,-4.23259]],[[338.0782,290.8457],[-5.33575,5.34053],[8.78659,-8.79446]],[[368,267],[-12.71495,3.00159],[5.87403,-1.38667]],[[387.99854,267],[-6.05939,0.00081],[16.87942,-0.00225]],[[440.31071,266.03884],[-16.53305,3.30661],[4.26456,-0.85291]],[[453.76393,263.52786],[-4.10742,1.3695],[3.43643,-1.14578]],[[463.64862,259.01236],[-3.49338,0.95819],[5.64133,-1.54734]],[[482.46842,257.68649],[-5.83422,0.41103],[11.60132,-0.81732]],[[516.95485,254.58874],[-11.53003,1.57175],[9.74228,-1.32804]],[[546,249],[-9.85665,0],[14.0048,0.26534]],[[587.99375,242.99972],[-13.94306,1.176],[9.83087,-0.82917]],[[617.7409,242.18307],[-9.87296,0.58076],[4.07729,-0.23984]],[[630.32886,241.80081],[-4.20631,0.20787],[-6.01938,-2.72735]],[[611.90557,234.25211],[6.35581,2.43619],[-7.44414,-2.97907]],[[588.42437,228.54122],[7.83605,1.65967],[-9.34163,-1.97855]],[[560,223],[9.48765,1.09906],[-5.66434,-0.65616]],[[542.78732,222.85071],[5.68848,0.64015],[-9.41642,-1.05968]],[[514.3561,218.62589],[9.52663,1.05851],[-13.47904,-1.49767]],[[474,213],[13.46821,1.31679],[-7.62515,-0.74551]],[[450.90588,212.21995],[7.65395,0.80229],[-10.26576,-1.07606]],[[420.23268,207.85414],[10.30011,1.02459],[-15.12157,-1.5042]],[[374.41886,202.74342],[14.87167,3.22492],[-6.7498,-1.4637]],[[353.76393,196.47214],[6.37086,2.69212],[-4.88531,-2.06437]],[[339.28687,188.94888],[4.95883,1.66221],[-5.04725,-1.69185]],[[325.12454,184.74405],[4.86686,2.73779],[-13.14826,-7.3964]],[[285.63432,160.7524],[11.98674,9.20316],[-7.15256,-5.49158]],[[265.51931,142.34122],[6.97346,5.62491],[-4.4538,-3.59251]],[[250.46447,133.53553],[4.60264,3.44614],[-1.58912,-1.18982]],[[246.78732,128.85071],[1.7217,0.98831],[-1.19195,-0.68421]],[[242.78732,127.85071],[1.33333,0.33333],[-6.85804,-2.05393]],[[225.71979,118.53609],[6.31258,2.90503],[-3.02807,-1.39351]],[[216.14152,115.66261],[3.19275,0.95783],[-1.59638,-0.47891]],[[211.35239,114.22587],[1.39584,0.91072],[-0.59887,-0.39073]],[[210.7735,112.16025],[0.71495,0.01311],[-2.84212,-0.05211]],[[203,119],[1.30132,-1.30132],[-2.79539,2.79539]],[[201,129],[0,-4.397],[0,8]],[[201,153],[0,-8],[0,19.98137]],[[204.68165,214.24438],[-4.85158,-19.54653],[1.33939,5.39628]],[[210.68165,230.24438],[-1.94876,-5.1967],[0,0]]],&quot;closed&quot;:true}],&quot;origPos&quot;:null}" fill="url(#color-2)"/></g><path d="" data-paper-data="{&quot;origPos&quot;:null}" fill="#737373" fill-rule="nonzero" stroke="none" stroke-width="0" stroke-linecap="butt"/><g data-paper-data="{&quot;origPos&quot;:null}" fill-rule="nonzero" stroke-linecap="round"><path d="M153.3397,170.72283c3.26743,0.13542 -0.19401,-3.01347 0,0.32552c-0.05982,13.25185 -0.60137,26.57147 0.3254,39.83385c0.69385,9.92192 1.9514,19.80884 3.90537,29.61504c1.53732,7.696 4.69147,14.85828 7.15959,22.45532c0.56113,1.83543 2.59449,-0.85655 -0.3254,0c-11.67673,3.42878 -23.83129,7.33146 -35.79843,10.73944c-2.99267,0.85141 0.41665,1.93709 -0.3254,-0.3254c-2.95891,-9.05117 -6.24456,-18.29098 -8.46142,-27.66241c-1.55175,-6.52825 -2.66336,-13.83377 -3.25446,-20.8281c-1.18329,-14.0043 -1.02439,-28.1324 -1.49695,-42.17707c-0.15891,-4.41549 0.00391,-8.96383 -0.26044,-13.47315c0.01566,-1.07919 -3.5642,0.21481 -0.3254,0.3254c12.93563,0.42045 25.78269,0.62743 38.85753,1.17155z" data-paper-data="{&quot;origPos&quot;:null}" fill="#e3e3e3" stroke="none" stroke-width="0"/><path d="M157.24495,263.27795l-6.5088,-21.80441l-3.57986,-19.20099l-1.30171,-17.57376l-0.65092,-29.28964" data-paper-data="{&quot;origPos&quot;:null}" fill="none" stroke="#c2adec" stroke-width="2.12828"/><path d="M153.66509,265.5561l-7.15959,-24.40807l-3.57986,-20.17718l-2.92894,-25.70978v-22.12993" data-paper-data="{&quot;origPos&quot;:null}" fill="none" stroke="#c2adec" stroke-width="2.12828"/><path d="M145.85458,266.53241l-11.39036,-35.79843l-2.92906,-29.61504l-0.65079,-28.63872" data-paper-data="{&quot;origPos&quot;:null}" fill="none" stroke="#c2adec" stroke-width="2.12828"/><path d="M135.76594,270.76306l-6.1834,-13.34299l-6.5088,-31.56766l-1.30171,-27.33701l0.3254,-26.03518" data-paper-data="{&quot;origPos&quot;:null}" fill="none" stroke="#c2adec" stroke-width="2.12828"/></g><path d="M245.96638,204.56008v-10.2439h2.65583v10.2439z" data-paper-data="{&quot;origPos&quot;:null}" fill="#71648d" fill-rule="nonzero" stroke="none" stroke-width="0" stroke-linecap="butt"/><path d="M240.01653,200.6957c0,3.50651 3.78286,10.31727 1.89701,10.31727c-1.88585,0 -5.31165,-6.81077 -5.31165,-10.31727c0,-3.50651 2.66699,-8.33318 4.55284,-8.33318c1.88585,0 -1.13821,4.82667 -1.13821,8.33318z" data-paper-data="{&quot;origPos&quot;:null}" fill="#71648d" fill-rule="nonzero" stroke="none" stroke-width="0" stroke-linecap="butt"/><g data-paper-data="{&quot;origPos&quot;:null}" fill-rule="nonzero" stroke="none" stroke-linecap="butt"><path d="M302.40184,156.99477v-3.33333h23.66666v3.33333z" data-paper-data="{&quot;origPos&quot;:null}" fill="#5f5f5f" stroke-width="0"/><path d="M27.50003,212.5l-0.5,-11.5l89,-1l-9,6l-47.02014,12.90838l-11.2715,2.24752l-18.20836,1.8441z" data-paper-data="{&quot;origPos&quot;:null}" fill="url(#color-3)" stroke-width="0"/><path d="M97.67414,204.81957l-70.5915,-0.31056l-0.80545,-34.55869l6.6839,-21.55173l43.98368,-1.0627l10.4357,10.02975l27.31701,0.33333l6.5,38.6206z" data-paper-data="{&quot;origPos&quot;:null}" fill="url(#color-4)" stroke-width="0"/><path d="M111.88557,161.91682v-8.4357h68.42289v8.4357z" data-paper-data="{&quot;origPos&quot;:null}" fill="#393939" stroke-width="0"/><path d="M110.01097,174.57037v-15.9341h73.57804v15.9341z" data-paper-data="{&quot;origPos&quot;:null}" fill="#e3e3e3" stroke-width="0"/><path d="M350.72818,158.83075c0,0 0.13703,-8.86823 0.34533,-15.93495c0.04146,-1.40655 -1.37115,-8.90998 -9.12025,-9.02453c-49.1992,-0.72731 -74.76956,-1.56751 -123.97912,-1.74156c-7.23544,-0.02559 -7.31797,-0.75203 -9.8689,4.31623c-1.21332,2.41066 -3.12301,23.71187 -3.12301,23.71187l-24.88561,-0.94123c0,0 4.82871,-26.19284 6.55481,-35.0194c0.81554,-4.17029 2.95016,-8.53247 20.76999,-8.36608c41.39135,0.3865 107.49229,5.25248 148.86276,8.41428c3.36563,0.12163 13.68782,5.49693 13.78271,9.92413c0.19464,9.08038 -0.34533,24.66123 -0.34533,24.66123z" data-paper-data="{&quot;origPos&quot;:null}" fill="#e3e3e3" stroke-width="0"/><g data-paper-data="{&quot;origPos&quot;:null}" stroke-width="0"><path d="M190.73635,243.01443c0,0 1.16314,-14.76337 4.7917,-23.45212c2.07712,-4.97376 6.39813,-11.60187 8.52497,-16.55233c1.0848,-2.52501 6.54391,-3.37162 7.62206,-5.89979c2.01813,-4.73238 -2.81186,-12.1019 -2.81186,-12.1019l25.74053,10.38389c0,0 -1.96115,3.97164 -4.06021,8.89382c-1.86036,4.36243 -6.02045,9.11271 -6.02045,9.11271l-0.91419,10.27461l-7.01872,12.27515l0.0504,11.68551l-3.93365,3.70395z" data-paper-data="{&quot;origPos&quot;:null,&quot;origRot&quot;:0}" fill="url(#color-5)"/><path d="M206.62899,249.07849l1.89702,-3.59198c0,0 8.78418,0.63877 14.4065,0.53672c7.10475,-0.12897 18.20503,-1.12867 18.20503,-1.12867l16.65164,-5.05716l23.89176,-39.41999l3.10518,1.56619l-22.57525,40.63192l-19.91794,6.46298c0,0 -12.10762,2.01125 -20.09995,2.27675c-6.07405,0.20177 -15.56398,-2.27675 -15.56398,-2.27675z" data-paper-data="{&quot;origPos&quot;:null}" fill="url(#color-6)"/><path d="M278.33619,207.94089l-11.76151,-12.32666l20.10838,-0.38521l-1.89702,7.31895z" data-paper-data="{&quot;origPos&quot;:null}" fill="#71648d"/></g><path d="M189.26493,172.69019v-16.94669h28.24025v16.94669z" data-paper-data="{&quot;origPos&quot;:null}" fill="#e3e3e3" stroke-width="0"/><path d="M213.86995,170.59227l-0.58031,-14.84876h24.28182v14.16439z" data-paper-data="{&quot;origPos&quot;:null}" fill="#626262" stroke-width="0"/><path d="M236.98125,172.31078v-16.69375h133.55003v16.69375z" data-paper-data="{&quot;origPos&quot;:null}" fill="url(#color-7)" stroke-width="0"/><path d="M155.76225,210.05733l-43.87268,7.32842c0,0 -0.71959,-7.26306 -3.10033,-9.67162c-1.48506,-1.50242 -7.30528,-1.34975 -7.30528,-1.34975l8.60141,-32.96023l128.79289,-3.7492v23.90242l-22.89068,-0.50587c0,0 -17.04771,-5.62076 -27.31154,-5.49482c-5.82612,0.07148 -13.78436,4.6292 -21.43821,9.86156c-7.65385,5.23236 -11.47556,12.63909 -11.47556,12.63909z" data-paper-data="{&quot;origPos&quot;:null}" fill="#9181b1" stroke-width="0"/><g data-paper-data="{&quot;origPos&quot;:null}" fill="none" stroke-width="1" font-family="sans-serif" font-weight="normal" font-size="12" text-anchor="start"/><path d="M360.66688,184.00364v-11.88798h23.27008v11.88798z" data-paper-data="{&quot;origPos&quot;:null}" fill="#4c4c4c" stroke-width="0"/><path d="M238.87827,193.34232l-1.51762,-23.68736l133.34512,0.76693c0,0 1.59716,0.07326 -2.05163,5.8953c-1.21626,1.94068 -4.95065,4.28495 -4.95065,4.28495l5.68958,3.56146l-8.02428,19.25828l-3.88975,-0.32135l-5.9507,-6.93964l-11.51575,-0.89644l-27.19544,0.15947z" data-paper-data="{&quot;origPos&quot;:null}" fill="url(#color-8)" stroke-width="0"/><path d="M327.6921,193.47702l1.73275,-5.58764c0,0 3.18921,-5.80745 4.32135,-5.85938c1.01297,-0.04647 3.14612,5.21083 3.14612,5.21083l1.95966,6.03028z" data-paper-data="{&quot;origPos&quot;:null,&quot;origRot&quot;:0}" fill="#e3e3e3" stroke-width="0"/><path d="M313.3248,193.17134l1.73275,-5.58764c0,0 3.18921,-5.80745 4.32135,-5.85938c1.01297,-0.04647 3.1461,5.21083 3.1461,5.21083l1.95966,6.03028z" data-paper-data="{&quot;origPos&quot;:null,&quot;origRot&quot;:0}" fill="#e3e3e3" stroke-width="0"/><path d="M298.20358,192.56206l2.02627,-5.48801c0,0 3.49232,-5.63037 4.62563,-5.62226c1.01401,0.00725 2.86569,5.37015 2.86569,5.37015l1.6375,6.12561z" data-paper-data="{&quot;origPos&quot;:null,&quot;origRot&quot;:0}" fill="#e3e3e3" stroke-width="0"/><path d="M284.74298,192.7128l1.73274,-5.58763c0,0 3.18921,-5.80744 4.32135,-5.85937c1.01297,-0.04647 3.14611,5.21083 3.14611,5.21083l1.95966,6.03027z" data-paper-data="{&quot;origPos&quot;:null,&quot;origRot&quot;:0}" fill="#e3e3e3" stroke-width="0"/><path d="M219.75795,195.32014l-6.07046,-3.51811l120.628,0.3084l11.69296,0.91089l8.83406,1.86629l3.77652,8.08521l-2.35319,-0.00655l-3.90974,-4.65098l-11.16266,-1.84883z" data-paper-data="{&quot;origPos&quot;:null}" fill="#e3e3e3" stroke-width="0"/><path d="M181.08959,174.25793v-19.99573l9.06056,0.62486l0.62487,19.37086l-16.97418,17.63099l-40.21907,-2.06918l5.08152,-3.35678l19.17506,-1.6789l10.44146,-8.33909z" data-paper-data="{&quot;origPos&quot;:null}" fill="#e3e3e3" stroke-width="0"/><path d="M189.51017,154.86943c0,-2.61924 2.12331,-4.74255 4.74255,-4.74255c2.61924,0 4.74254,2.12331 4.74254,4.74255c0,2.61924 -2.1233,4.74255 -4.74254,4.74255c-2.61924,0 -4.74255,-2.12331 -4.74255,-4.74255z" data-paper-data="{&quot;origPos&quot;:null}" fill="#71648d" stroke-width="0"/><path d="M164.37437,184.64634c0,-2.45887 1.99331,-4.45218 4.45218,-4.45218c2.45887,0 4.45217,1.99331 4.45217,4.45218c0,2.45887 -1.9933,4.45217 -4.45217,4.45217c-2.45887,0 -4.45218,-1.9933 -4.45218,-4.45217z" data-paper-data="{&quot;origPos&quot;:null}" fill="#71648d" stroke-width="0"/><path d="M119.38398,172.69577l7.02975,-11.2476h51.55149v11.2476z" data-paper-data="{&quot;origPos&quot;:null}" fill="url(#color-9)" stroke-width="0"/><path d="M52.50003,221l7,-9.5l22,-3c0,0 5.75706,2.73443 3.61688,3.18658c-1.03395,0.21844 -32.61688,9.31342 -32.61688,9.31342z" data-paper-data="{&quot;origPos&quot;:null}" fill="#e3e3e3" stroke-width="0"/><path d="M26.65784,224.2754l-4.28015,-50.70836l7.96452,-0.84243l4.28015,50.70836z" data-paper-data="{&quot;origPos&quot;:null,&quot;origRot&quot;:0}" fill="#e3e3e3" stroke-width="0"/><path d="M113.00003,210c0,-2.20914 1.79086,-4 4,-4c2.20914,0 4,1.79086 4,4c0,2.20914 -1.79086,4 -4,4c-2.20914,0 -4,-1.79086 -4,-4z" data-paper-data="{&quot;origPos&quot;:null}" fill="#4c4c4c" stroke-width="0"/></g><path d="M287.73519,152.12826l1,4.19984l-24.4878,-0.2815c0,0 0.82113,-6.93417 0.82113,-9.26361c0,-6.1702 12.29269,-15.34627 10.13702,-9.69166c-0.61685,1.6181 -4.14877,5.73185 -4.978,8.2336c-0.73753,2.22511 2.44349,4.93795 2.44349,4.93795z" data-paper-data="{&quot;origPos&quot;:null}" fill="#71648d" fill-rule="nonzero" stroke="none" stroke-width="0" stroke-linecap="butt"/><g data-paper-data="{&quot;origPos&quot;:null}" fill-rule="nonzero" stroke="none" stroke-width="0" stroke-linecap="butt"><path d="M337.84919,163.07864c0,-4.33047 9.65608,-7.841 13.10894,-7.841c3.45285,0 6.25195,3.51054 6.25195,7.841c0,4.33047 -2.79909,7.841 -6.25195,7.841c-3.45285,0 -13.10894,-3.51054 -13.10894,-7.841z" data-paper-data="{&quot;origPos&quot;:null}" fill="#9181b1"/><path d="M328.37032,166.3668v-6.57633h15.73073v6.57633z" data-paper-data="{&quot;origPos&quot;:null}" fill="#9181b1"/><path d="M322.11834,167.88441v-10.37036h10.89051v10.37036z" data-paper-data="{&quot;origPos&quot;:null}" fill="#9181b1"/><path d="M347.933,163.07864c0,-1.816 1.17382,-3.28816 2.62179,-3.28816c1.44797,0 2.62178,1.47216 2.62178,3.28816c0,1.816 -1.17381,3.28816 -2.62178,3.28816c-1.44797,0 -2.62179,-1.47216 -2.62179,-3.28816z" data-paper-data="{&quot;origPos&quot;:null}" fill="#5a5a5a"/><path d="M209.38151,165.86092v-6.57633h113.94692v6.57633z" data-paper-data="{&quot;origPos&quot;:null}" fill="#b1cfda"/><path d="M208.77648,167.37854v-9.61156h7.46201v9.61156z" data-paper-data="{&quot;origPos&quot;:null}" fill="#9181b1"/><path d="M202.32285,171.42551v-17.19962h7.46201v17.19962z" data-paper-data="{&quot;origPos&quot;:null}" fill="#9181b1"/></g><g fill="#ffffff" fill-rule="evenodd" stroke="none" stroke-width="1" stroke-linecap="butt"><path d="M65.49262,161.82271c-0.30716,0.10463 -0.40842,0.31053 -0.30379,0.61769c-1.19023,-0.1621 -2.38855,-0.32525 -3.59475,-0.48948c0.05935,-0.07735 0.1187,-0.15471 0.17805,-0.23205c1.32498,-0.0738 2.56504,-0.03916 3.72049,0.10384z" opacity="0.989"/><path d="M68.21485,162.2666c0.29318,-0.00979 0.55038,0.074 0.77126,0.25147c-0.33028,0.10318 -0.58731,0.01935 -0.77126,-0.25147z" opacity="0.616"/><path d="M67.29673,163.09356c0.44571,0.00575 0.84006,0.15708 1.18306,0.454c-0.44571,-0.00575 -0.84006,-0.15708 -1.18306,-0.454z" opacity="0.365"/><path d="M65.49262,161.82271c0.94199,0.00594 1.8494,0.15389 2.72222,0.44389c0.18395,0.27082 0.441,0.35465 0.77126,0.25147c0.65612,0.10969 1.29008,0.2937 1.90201,0.55191c0.10463,0.30716 0.31054,0.40842 0.61769,0.30379c1.05252,0.3898 2.03086,0.91354 2.93485,1.57127c0.20673,0.31506 0.49862,0.50118 0.87591,0.55863c0.13616,0.27997 0.35953,0.43252 0.67,0.45737c0.06867,0.23834 0.22343,0.35702 0.46411,0.3561c0.06867,0.23834 0.22343,0.35702 0.46411,0.3561c0.06867,0.23834 0.22343,0.35703 0.46411,0.35611c0.11887,0.24129 0.14605,0.48914 0.08184,0.74342c-0.57836,0.2313 -1.1328,0.44878 -1.66322,0.65226c-0.01741,-0.05114 -0.03489,-0.10243 -0.05232,-0.15358c-0.2854,-0.48811 -0.68094,-0.8105 -1.18642,-0.96706c-0.28666,-0.14214 -0.52746,-0.34584 -0.72232,-0.61095c-0.20158,-0.4056 -0.51108,-0.64296 -0.92821,-0.71221c-1.42947,-0.87398 -2.90564,-1.68526 -4.42844,-2.4337c-0.343,-0.29692 -0.73734,-0.44825 -1.18306,-0.454c-0.71843,-0.17086 -1.42113,-0.38857 -2.10791,-0.65316c-0.10463,-0.30716 -0.00337,-0.51306 0.30379,-0.6177z" opacity="0.998"/><path d="M70.88812,163.06997c0.2396,0.03265 0.4455,0.13392 0.61769,0.30379c-0.30716,0.10463 -0.51305,0.00337 -0.61769,-0.30379z" opacity="0.306"/><path d="M74.44067,164.94503c0.37729,0.05745 0.66917,0.24357 0.87591,0.55863c-0.37729,-0.05745 -0.66917,-0.24357 -0.87591,-0.55863z" opacity="0.722"/><path d="M72.90824,165.98125c0.41712,0.06925 0.72663,0.30661 0.92821,0.71221c-0.36355,-0.15348 -0.67291,-0.39091 -0.92821,-0.71221z" opacity="0.937"/><path d="M75.31656,165.50367c0.31047,0.02485 0.53384,0.1774 0.67,0.45736c-0.31047,-0.02485 -0.53384,-0.1774 -0.67,-0.45736z" opacity="0.588"/><path d="M75.98657,165.96103c0.24068,-0.00091 0.39543,0.11777 0.46411,0.3561c-0.24068,0.00091 -0.39543,-0.11777 -0.46411,-0.3561z" opacity="0.125"/><path d="M74.55877,167.30441c0.50548,0.15655 0.90103,0.47895 1.18642,0.96705c-0.45067,-0.23968 -0.84616,-0.56191 -1.18642,-0.96705z" opacity="0.69"/><path d="M76.45068,166.31714c0.24068,-0.00091 0.39543,0.11776 0.4641,0.3561c-0.24068,0.00091 -0.39543,-0.11776 -0.4641,-0.3561z" opacity="0.247"/><path d="M76.91478,166.67324c0.24068,-0.00091 0.39544,0.11777 0.46411,0.35611c-0.24068,0.00091 -0.39544,-0.11777 -0.46411,-0.35611z" opacity="0.086"/><path d="M78.15354,167.79388c0.3294,0.08644 0.57019,0.29015 0.72232,0.61095c-0.3294,-0.08644 -0.57019,-0.29015 -0.72232,-0.61095z" opacity="0.102"/><path d="M77.3789,167.02936c0.31954,0.17927 0.57776,0.43411 0.77464,0.76453c0.15213,0.3208 0.39292,0.52451 0.72232,0.61095c0.01741,0.05114 0.03489,0.10244 0.05232,0.15358c0.07317,0.28223 0.21147,0.52067 0.41516,0.71558c-0.71676,0.24416 -1.43336,0.48827 -2.15011,0.73243c-0.08844,-0.38089 -0.29551,-0.65315 -0.62106,-0.81685c-0.25822,-0.25484 -0.51642,-0.50969 -0.77464,-0.76453c0.53041,-0.20348 1.08486,-0.42097 1.66323,-0.65226c0.06421,-0.2543 0.03703,-0.50213 -0.08184,-0.74342z" opacity="0.983"/><path d="M58.4565,176.389c-4.13923,1.35328 -8.21717,2.79949 -12.23406,4.33887c-0.23557,0.07733 -0.34725,0.00106 -0.335,-0.22869c0.15725,-0.15777 0.34459,-0.27868 0.562,-0.36284c3.91059,-1.10673 7.75008,-2.41464 11.51848,-3.92371c0.20708,-0.04672 0.36986,0.01199 0.48859,0.17637z" opacity="0.17"/><path d="M65.67474,173.93014c-1.83631,0.56931 -3.6107,1.23083 -5.32297,1.98465c-0.42325,0.02146 -0.47557,-0.13212 -0.15695,-0.46074c1.84532,-0.51771 3.67202,-1.02564 5.47993,-1.52391z" opacity="0.175"/><path d="M76.57215,169.18958c0.32555,0.16369 0.53262,0.43596 0.62106,0.81685c-2.24565,0.70857 -4.4295,1.50957 -6.55161,2.40317c-0.28535,-0.21372 -0.23522,-0.4022 0.1502,-0.56537c2.00031,-0.48789 3.95439,-1.12508 5.86219,-1.91123c0.01833,-0.29488 -0.009,-0.54267 -0.08185,-0.74342z" opacity="0.152"/><path d="M78.92817,168.55841c0.17665,0.07026 0.3314,0.18895 0.4641,0.3561c0.36227,-0.00874 0.70428,-0.01109 1.02612,-0.00674c-0.35831,0.12205 -0.71676,0.24416 -1.07506,0.36622c-0.20369,-0.19491 -0.34198,-0.43336 -0.41516,-0.71558z" opacity="0.192"/><path d="M70.64159,172.4096c2.12211,-0.89361 4.30597,-1.6946 6.55161,-2.40318c0.71676,-0.24416 1.43335,-0.48826 2.15011,-0.73242c0.35831,-0.12205 0.71675,-0.24417 1.07506,-0.36622c1.03424,-0.37082 2.02668,-0.30884 2.97706,0.18569c0.24079,0.2037 0.51525,0.33868 0.82358,0.40506c0.31047,0.02485 0.53384,0.1774 0.67,0.45737c0.06867,0.23834 0.22343,0.35703 0.46411,0.35611c0.76677,1.15201 1.25386,2.41436 1.46149,3.78717c0.05975,0.45871 -0.02291,0.88675 -0.24811,1.28433c-0.19119,0.1462 -0.2413,0.33468 -0.1502,0.56537c-0.30431,0.61667 -0.67687,1.20053 -1.11727,1.7518c0.09149,0.0859 0.17751,0.17092 0.25821,0.25484c0.13616,0.27997 0.35953,0.43252 0.67,0.45737c0.13616,0.27997 0.35953,0.43253 0.67,0.45737c0.13616,0.27997 0.35953,0.43252 0.67,0.45737c0.06867,0.23834 0.22344,0.35702 0.46411,0.3561c0.31047,0.02485 0.53384,0.1774 0.67,0.45737c0.20673,0.31506 0.49861,0.50119 0.8759,0.55863c0.06867,0.23834 0.22343,0.35702 0.4641,0.3561c0.51317,0.18565 0.88307,0.51676 1.10964,0.99321c-1.37048,0.44593 -2.70155,0.89937 -3.99307,1.36023c-0.70323,-0.62688 -1.40006,-1.24651 -2.09018,-1.85901c-0.91848,-0.79232 -1.77931,-1.64182 -2.58212,-2.54843c-0.20472,0.06974 -0.40959,0.13953 -0.61432,0.20927c-1.1262,0.38363 -2.25255,0.76731 -3.37875,1.15095c0.59291,1.74052 1.18585,3.48119 1.77875,5.22171c-0.71676,0.24416 -1.43336,0.48827 -2.15011,0.73243c-0.20472,0.06974 -0.40959,0.13953 -0.61431,0.20927c-1.45185,-4.59365 -3.08889,-9.0637 -4.91099,-13.41038c-0.10243,0.0349 -0.17099,0.00117 -0.20589,-0.10126c-0.27581,-0.26376 -0.60142,-0.38132 -0.97717,-0.35273c-0.10346,-0.13616 -0.24078,-0.2037 -0.41178,-0.20253c-0.11986,-0.01624 -0.23962,-0.0327 -0.35948,-0.04895zM79.05638,172.45696c0.0349,0.10244 0.06973,0.20472 0.10463,0.30715c0.51617,1.04934 1.03596,2.07209 1.55937,3.06823c0.15049,0.32856 0.10978,0.62815 -0.12236,0.89869c-0.97701,0.19364 -1.9503,0.43948 -2.9197,0.73748c-0.43421,-1.3275 -0.87017,-2.60729 -1.30791,-3.83949c0.82913,-0.52411 1.72445,-0.91481 2.68596,-1.17207zM82.13135,171.92369c0.31329,0.24242 0.62279,0.47979 0.92821,0.71221c0.06678,0.16734 0.17024,0.3035 0.31054,0.40842c-0.07193,0.21853 -0.0022,0.42325 0.20927,0.61431c0.01741,0.05114 0.03489,0.10244 0.05232,0.15358c-0.05633,0.46311 -0.19024,0.90878 -0.40169,1.33664c-0.44413,-0.96315 -0.92909,-1.88361 -1.45475,-2.76107c-0.07792,-0.15377 -0.10474,-0.31603 -0.08016,-0.4869c0.14239,0.08039 0.2878,0.0881 0.43626,0.02278z"/><path d="M58.4565,176.389c0.51862,0.85174 0.83252,1.77322 0.9417,2.76444c-2.66199,0.90679 -5.32415,1.81364 -7.98614,2.72045c0.40111,1.17749 0.80216,2.35484 1.20327,3.53233c1.97011,-0.50056 3.93297,-1.11195 5.88835,-1.83443c0.29648,0.87034 0.59291,1.74052 0.88938,2.61085c-1.94539,0.66269 -3.89064,1.32533 -5.83603,1.98802c0.66269,1.94539 1.32533,3.89063 1.98802,5.83603c-0.90884,0.47379 -1.86402,0.85626 -2.86569,1.14759c-1.37412,-3.81214 -2.68203,-7.65162 -3.92371,-11.51848c-0.20781,-0.91837 -0.58919,-1.70253 -1.14422,-2.35264c-0.48591,-0.13837 -0.94889,-0.32345 -1.38896,-0.55526c4.01688,-1.5394 8.09481,-2.9856 12.23405,-4.33888z"/><path d="M65.67474,173.93014c0.05663,0.35745 0.24628,0.57856 0.56874,0.66327c0.08844,0.38089 0.2955,0.65315 0.62105,0.81685c0.14445,0.50203 0.43755,0.85931 0.87927,1.0717c0.01741,0.05114 0.03489,0.10243 0.05232,0.15358c0.05663,0.35745 0.24627,0.57856 0.56874,0.66327c0.06282,0.40882 0.26973,0.68114 0.62105,0.81685c0.14445,0.50203 0.43755,0.8593 0.87927,1.07169c0.01741,0.05114 0.03489,0.10244 0.05232,0.15358c0.05663,0.35745 0.24628,0.57857 0.56874,0.66327c0.08844,0.38089 0.29551,0.65315 0.62105,0.81684c0.08844,0.38089 0.29551,0.65315 0.62106,0.81685c0.05313,0.26368 0.18292,0.47657 0.389,0.63879c-0.10797,0.08957 -0.18426,0.20125 -0.22869,0.33499c0.34755,0.17093 0.69057,0.33964 1.02947,0.50633c0.14445,0.50203 0.43755,0.85931 0.87927,1.0717c0.01741,0.05114 0.03489,0.10244 0.05232,0.15358c0.15169,0.48807 0.44479,0.84535 0.87927,1.07169c0.4071,0.4021 0.73504,0.86166 0.9839,1.37885c-0.85738,0.62784 -1.84625,1.07902 -2.96695,1.35349c-0.23335,-0.09431 -0.40537,-0.26419 -0.51643,-0.50968c-0.08844,-0.38089 -0.29551,-0.65315 -0.62106,-0.81685c-0.01741,-0.05114 -0.03488,-0.10244 -0.05231,-0.15359c-0.13418,-0.34611 -0.34126,-0.61837 -0.62106,-0.81684c-2.01266,0.56837 -4.04409,1.14604 -6.09423,1.73317c-0.15446,0.62938 -0.1162,1.24487 0.11473,1.84632c0.04932,0.08894 0.12662,0.14832 0.23205,0.17805c-0.11677,0.43057 -0.16506,0.87552 -0.14516,1.33495c-0.08791,-0.06536 -0.18212,-0.09034 -0.28269,-0.0751c-0.96531,0.35728 -1.94661,0.66311 -2.94417,0.91722c0.06421,-0.2543 0.03702,-0.50214 -0.08185,-0.74343c-0.04926,-0.1733 -0.05044,-0.3443 -0.00336,-0.51305c0.03931,-0.29518 0.18319,-0.54403 0.43121,-0.74679c-0.22292,-0.3344 -0.3537,-0.71835 -0.39236,-1.15185c-0.01741,-0.05114 -0.0349,-0.10244 -0.05233,-0.15358c0.12266,-0.25278 0.26633,-0.50174 0.43122,-0.7468c-0.22292,-0.3344 -0.35372,-0.71834 -0.39237,-1.15184c0.01624,-0.11986 0.0327,-0.23962 0.04894,-0.35948c0.08756,-0.21288 0.06913,-0.43508 -0.05569,-0.66663c0.22118,-0.55681 0.25154,-1.13843 0.09117,-1.74506c-0.01741,-0.05114 -0.0349,-0.10244 -0.05233,-0.15358c0.16768,-0.50002 0.1643,-1.01307 -0.01011,-1.53916c0.2037,-0.26393 0.21892,-0.55484 0.04558,-0.87253c-0.01741,-0.05114 -0.03489,-0.10244 -0.05232,-0.15358c0.12725,-0.21714 0.1598,-0.45672 0.0979,-0.71896c0.08179,-0.6173 0.09486,-1.25012 0.03883,-1.89864c-0.13941,-0.43947 -0.17661,-0.88375 -0.11137,-1.33327c0.18852,-0.27076 0.16993,-0.4929 -0.05568,-0.66664c-0.1462,-0.19119 -0.33468,-0.24131 -0.56538,-0.15021c-0.30262,-0.06369 -0.57722,-0.19862 -0.82358,-0.40506c1.71227,-0.75382 3.48665,-1.41533 5.32298,-1.98464zM65.3979,178.65226c0.3412,0.61822 0.75519,1.1628 1.24211,1.63369c0.13418,0.34611 0.34126,0.61837 0.62105,0.81684c0.13418,0.34611 0.34126,0.61837 0.62105,0.81684c0.3412,0.61822 0.7552,1.1628 1.24211,1.63369c0.05232,0.15358 0.10462,0.30715 0.15695,0.46074c-0.10243,0.0349 -0.20472,0.06973 -0.30716,0.10462c-0.06974,-0.20472 -0.20707,-0.27226 -0.41179,-0.20252c-0.09637,-0.1108 -0.21612,-0.12726 -0.35948,-0.04895c-1.11324,0.07498 -2.18932,0.27015 -3.22854,0.58559c0.15281,-0.27145 0.16803,-0.56236 0.04558,-0.87253c-0.01741,-0.05114 -0.03489,-0.10244 -0.05232,-0.15358c0.15281,-0.27145 0.16803,-0.56236 0.04558,-0.87253c0.09489,-0.34033 0.09254,-0.68233 -0.00674,-1.02611c0.10045,-0.328 0.09826,-0.67005 -0.00674,-1.02611c0.10045,-0.328 0.09827,-0.67007 -0.00674,-1.02612c0.10174,-0.15618 0.10058,-0.32718 -0.00336,-0.51305c0.08902,-0.10197 0.13097,-0.2304 0.12574,-0.38563c0.08791,0.06536 0.18212,0.09034 0.28269,0.0751z" opacity="0.999"/><path d="M65.67474,173.93014c0.28674,0.12171 0.4764,0.34284 0.56874,0.66327c-0.32246,-0.0847 -0.51211,-0.30582 -0.56874,-0.66327z" opacity="0.639"/><path d="M71.00108,172.45855c0.171,-0.00117 0.30833,0.06637 0.41179,0.20253c-0.20472,0.06974 -0.34205,0.00219 -0.41179,-0.20253z" opacity="0.008"/><path d="M71.41288,172.66108c0.37574,-0.02859 0.70135,0.08897 0.97716,0.35273c-0.37574,0.02859 -0.70135,-0.08897 -0.97716,-0.35273z" opacity="0.573"/><path d="M61.17535,176.31984c0.23069,-0.0911 0.41917,-0.04099 0.56537,0.1502c-0.23069,0.0911 -0.41917,0.04099 -0.56537,-0.1502z" opacity="0.314"/><path d="M83.39546,169.09347c0.37573,-0.07091 0.65039,0.06418 0.82358,0.40506c-0.30833,-0.06637 -0.58279,-0.20136 -0.82358,-0.40506z" opacity="0.008"/><path d="M61.74072,176.47005c0.22561,0.17373 0.2442,0.39588 0.05568,0.66664c-0.08662,-0.22057 -0.10521,-0.44271 -0.05568,-0.66664z" opacity="0.227"/><path d="M66.24348,174.5934c0.2798,0.19847 0.48687,0.47073 0.62105,0.81685c-0.32555,-0.16369 -0.53261,-0.43596 -0.62105,-0.81685z" opacity="0.392"/><path d="M47.61139,181.28313c0.55503,0.65012 0.93642,1.43427 1.14422,2.35264c-0.38274,-0.76639 -0.76412,-1.55056 -1.14422,-2.35264z" opacity="0.056"/><path d="M66.86454,175.41024c0.338,0.30239 0.6311,0.65968 0.87927,1.0717c-0.44172,-0.21239 -0.73482,-0.56967 -0.87927,-1.0717z" opacity="0.482"/><path d="M84.88905,169.95589c0.24068,-0.00091 0.39543,0.11777 0.46411,0.35611c-0.24068,0.00091 -0.39543,-0.11777 -0.46411,-0.35611z" opacity="0.067"/><path d="M59.39818,179.15343c-2.53181,1.03333 -5.12526,1.97386 -7.78025,2.82171c0.40819,1.15401 0.79183,2.2802 1.15096,3.37876c-0.05114,0.01741 -0.10244,0.0349 -0.15358,0.05232c-0.40111,-1.17749 -0.80216,-2.35484 -1.20327,-3.53233c2.66199,-0.90679 5.32415,-1.81364 7.98614,-2.72045z" opacity="0.082"/><path d="M61.90777,178.46996c0.05603,0.64852 0.04294,1.28134 -0.03884,1.89864c-0.19297,-0.65553 -0.18003,-1.28828 0.03884,-1.89864z" opacity="0.404"/><path d="M81.71956,171.72116c0.171,-0.00117 0.30833,0.06637 0.41179,0.20253c-0.14847,0.06531 -0.29387,0.05759 -0.43626,-0.02278c-0.02459,0.17087 0.00223,0.33313 0.08016,0.4869c-0.11765,-0.0314 -0.20368,-0.11641 -0.25821,-0.25485c-0.02553,-0.19921 0.04201,-0.33655 0.20253,-0.41179z" opacity="0.09"/><path d="M82.13135,171.92369c0.523,-0.07326 0.83252,0.1641 0.92821,0.71221c-0.30542,-0.23242 -0.61493,-0.46979 -0.92821,-0.71221z" opacity="0.992"/><path d="M67.79612,176.63552c0.23408,0.16537 0.42373,0.38648 0.56874,0.66326c-0.32246,-0.0847 -0.51211,-0.30581 -0.56874,-0.66326z" opacity="0.655"/><path d="M79.05638,172.45696c0.88282,-0.35592 1.77059,-0.60126 2.66318,-0.73579c-0.16052,0.07525 -0.22806,0.21258 -0.20253,0.41179c0.05453,0.13843 0.14055,0.22345 0.25821,0.25485c0.404,1.09492 0.87265,2.13509 1.40581,3.12054c-0.02643,0.13276 -0.10255,0.24438 -0.22869,0.335c-0.58607,0.28518 -1.19165,0.52008 -1.8168,0.70459c-0.05657,-0.30896 -0.19486,-0.54742 -0.41515,-0.71558c-0.32707,-1.14632 -0.84687,-2.16906 -1.55938,-3.06822c-0.0349,-0.10244 -0.06973,-0.20472 -0.10463,-0.30716z" opacity="0.99"/><path d="M65.3979,178.65226c-0.10057,0.01523 -0.19479,-0.00975 -0.2827,-0.0751c0.00522,0.15522 -0.03671,0.28366 -0.12574,0.38564c-0.05232,-0.15358 -0.10462,-0.30715 -0.15695,-0.46074c0.24661,-0.12086 0.43509,-0.07074 0.56537,0.15021z" opacity="0.133"/><path d="M68.36486,177.29878c0.2798,0.19847 0.48688,0.47073 0.62106,0.81685c-0.35133,-0.13572 -0.55824,-0.40803 -0.62106,-0.81685z" opacity="0.757"/><path d="M61.86893,180.3686c0.06191,0.26224 0.02936,0.50182 -0.0979,0.71896c-0.13997,-0.27455 -0.10728,-0.51418 0.0979,-0.71896z" opacity="0.322"/><path d="M83.37009,173.04433c0.25858,0.16233 0.32836,0.3672 0.20927,0.61431c-0.21147,-0.19107 -0.28119,-0.39578 -0.20927,-0.61431z" opacity="0.471"/><path d="M64.99284,179.47585c0.10501,0.35605 0.10719,0.69811 0.00674,1.02612c-0.16246,-0.35567 -0.16466,-0.69774 -0.00674,-1.02612z" opacity="0.169"/><path d="M68.98592,178.11564c0.338,0.30239 0.63111,0.65967 0.87927,1.07169c-0.44172,-0.21239 -0.73483,-0.56966 -0.87927,-1.07169z" opacity="0.537"/><path d="M79.16101,172.76412c0.71252,0.89916 1.23231,1.92191 1.55937,3.06823c-0.52341,-0.99614 -1.04321,-2.01889 -1.55937,-3.06823z" opacity="0.082"/><path d="M81.77524,172.3878c0.52566,0.87745 1.01062,1.79791 1.45475,2.76106c0.21145,-0.42786 0.34537,-0.87353 0.40169,-1.33664c0.09594,0.20264 0.14008,0.41627 0.13247,0.64048c-0.03033,0.45237 -0.22463,0.80429 -0.58311,1.05564c-0.53315,-0.98546 -1.0018,-2.02562 -1.40581,-3.12054z" opacity="0.216"/><path d="M61.82336,181.24113c0.17334,0.31769 0.15812,0.6086 -0.04558,0.87253c-0.12246,-0.31017 -0.10723,-0.60109 0.04558,-0.87253z" opacity="0.643"/><path d="M64.99957,180.50196c0.10501,0.35605 0.1072,0.69811 0.00675,1.02611c-0.16246,-0.35567 -0.16467,-0.69774 -0.00675,-1.02611z" opacity="0.18"/><path d="M58.45134,183.41819c0.01741,0.05114 0.03489,0.10244 0.05232,0.15358c-1.95537,0.72248 -3.91824,1.33387 -5.88835,1.83443c0.05114,-0.01741 0.10245,-0.03489 0.15359,-0.05232c1.8888,-0.68643 3.7829,-1.33165 5.68245,-1.9357z" opacity="0.576"/><path d="M66.64001,180.28596c0.32555,0.16369 0.53261,0.43595 0.62105,0.81684c-0.2798,-0.19847 -0.48687,-0.47073 -0.62105,-0.81684z" opacity="0.2"/><path d="M61.77778,182.11366c0.17441,0.52609 0.17778,1.03914 0.0101,1.53916c-0.10614,-0.5269 -0.10949,-1.03995 -0.0101,-1.53916z" opacity="0.435"/><path d="M69.9175,179.3409c0.28674,0.12171 0.47639,0.34285 0.56874,0.66327c-0.32246,-0.0847 -0.51211,-0.30582 -0.56874,-0.66327z" opacity="0.682"/><path d="M72.59592,173.11508c1.8221,4.34668 3.45914,8.81673 4.91099,13.41038c-0.10253,0.12216 -0.21416,0.04603 -0.335,-0.22869c-1.57644,-4.3762 -3.10178,-8.76998 -4.57599,-13.18169z" opacity="0.605"/><path d="M79.05638,172.45696c-0.96151,0.25725 -1.85683,0.64795 -2.68596,1.17207c0.43774,1.2322 0.8737,2.51198 1.30791,3.83949c0.9694,-0.298 1.94268,-0.54385 2.9197,-0.73748c0.23214,-0.27053 0.27286,-0.57012 0.12236,-0.89869c0.22029,0.16818 0.35859,0.40661 0.41516,0.71558c-1.09718,0.54379 -2.2571,0.99598 -3.48002,1.35684c-0.5315,-1.47673 -1.01174,-2.97007 -1.44038,-4.47996c0.89296,-0.53146 1.83993,-0.85404 2.84123,-0.96785z" opacity="0.377"/><path d="M67.26106,181.1028c0.32555,0.16369 0.53262,0.43596 0.62106,0.81685c-0.2798,-0.19847 -0.48688,-0.47073 -0.62106,-0.81685z" opacity="0.165"/><path d="M70.48625,180.00417c0.2798,0.19847 0.48687,0.47073 0.62105,0.81685c-0.32555,-0.16369 -0.53261,-0.43596 -0.62105,-0.81685z" opacity="0.478"/><path d="M86.56653,175.38349c0.0911,0.23069 0.04099,0.41918 -0.1502,0.56538c-0.0911,-0.23069 -0.04099,-0.41918 0.1502,-0.56538z" opacity="0.016"/><path d="M65.01306,182.55418c0.12246,0.31017 0.10723,0.60109 -0.04558,0.87253c-0.12246,-0.31017 -0.10723,-0.60109 0.04558,-0.87253z" opacity="0.216"/><path d="M61.8402,183.8064c0.16037,0.60663 0.13002,1.18825 -0.09116,1.74506c-0.0731,-0.60054 -0.04275,-1.18215 0.09116,-1.74506z" opacity="0.827"/><path d="M71.1073,180.82101c0.2798,0.19847 0.48687,0.47073 0.62105,0.81685c-0.32555,-0.16369 -0.53261,-0.43596 -0.62105,-0.81685z" opacity="0.584"/><path d="M65.0198,183.5803c0.12246,0.31017 0.10722,0.60108 -0.04559,0.87252c-0.12246,-0.31017 -0.10722,-0.60108 0.04559,-0.87252z" opacity="0.243"/><path d="M64.97421,184.45283c1.03921,-0.31544 2.1153,-0.5106 3.22855,-0.58558c-1.09973,0.26612 -2.20968,0.52989 -3.32981,0.79147c-0.01271,-0.09971 0.02101,-0.16827 0.10126,-0.20589z" opacity="0.12"/><path d="M61.74904,185.55146c0.12481,0.23155 0.14325,0.45376 0.05568,0.66664c-0.06387,0.0329 -0.12384,0.02487 -0.17974,-0.02448c0.02173,-0.23057 0.06296,-0.44463 0.12405,-0.64216z" opacity="0.431"/><path d="M71.72835,181.63786c0.49276,0.39794 0.88947,0.89132 1.18979,1.48011c-0.3389,-0.16668 -0.68192,-0.33539 -1.02947,-0.50632c0.04443,-0.13375 0.12071,-0.24542 0.22869,-0.335c-0.20609,-0.16222 -0.33587,-0.37511 -0.38901,-0.63879z" opacity="0.984"/><path d="M68.56224,183.91619c0.20472,-0.06974 0.34204,-0.0022 0.41178,0.20253c-0.171,0.00117 -0.30832,-0.06637 -0.41178,-0.20253z" opacity="0.004"/><path d="M85.55727,177.95551c0.31047,0.02485 0.53384,0.1774 0.67,0.45737c-0.31047,-0.02485 -0.53384,-0.1774 -0.67,-0.45737z" opacity="0.384"/><path d="M69.12424,183.55335c0.23335,0.09431 0.40537,0.26419 0.51642,0.50968c-0.05114,0.01741 -0.10244,0.03489 -0.15358,0.05232c-0.0349,-0.10244 -0.10346,-0.13616 -0.20589,-0.10127c-0.05232,-0.15358 -0.10462,-0.30715 -0.15695,-0.46074z" opacity="0.161"/><path d="M86.22728,178.41288c0.31047,0.02485 0.53384,0.1774 0.67,0.45737c-0.31047,-0.02485 -0.53384,-0.1774 -0.67,-0.45737z" opacity="0.537"/><path d="M81.87135,179.2111c0.17966,0.55208 0.25175,1.09879 0.21599,1.64042c-0.15855,-0.36078 -0.2293,-0.73656 -0.21263,-1.12738c-0.11986,-0.01624 -0.23962,-0.0327 -0.35948,-0.04894c-0.97337,0.16257 -1.88678,0.41664 -2.73996,0.76195c0.54393,1.78394 1.11123,3.53335 1.70197,5.24787c-0.78105,0.32109 -1.56642,0.53137 -2.356,0.63116c0.71676,-0.24416 1.43335,-0.48827 2.15011,-0.73243c-0.59291,-1.74052 -1.18585,-3.48118 -1.77875,-5.2217c1.1262,-0.38363 2.25255,-0.76732 3.37876,-1.15096z" opacity="0.393"/><path d="M72.91815,183.11797c0.338,0.30239 0.63111,0.65968 0.87928,1.0717c-0.44172,-0.21239 -0.73483,-0.56967 -0.87928,-1.0717z" opacity="0.573"/><path d="M86.89728,178.87024c0.31047,0.02485 0.53384,0.1774 0.67,0.45737c-0.31047,-0.02485 -0.53384,-0.1774 -0.67,-0.45737z" opacity="0.557"/><path d="M58.45134,183.41819c0.25814,0.42318 0.47491,0.892 0.65058,1.40669c0.2127,0.55898 0.31901,1.12267 0.31894,1.69107c-1.8816,0.53298 -3.75005,1.16946 -5.60565,1.90954c0.574,1.84654 1.2442,3.64643 2.01081,5.39977c-0.04391,0.2515 -0.13746,0.31198 -0.28101,0.18142c-0.66269,-1.94539 -1.32532,-3.89063 -1.98801,-5.83603c1.94539,-0.66269 3.89063,-1.32533 5.83602,-1.98802c-0.29648,-0.87034 -0.59291,-1.74051 -0.88938,-2.61085c-0.01741,-0.05114 -0.03489,-0.10244 -0.05232,-0.15358z" opacity="0.323"/><path d="M61.75578,186.57757c0.03866,0.4335 0.16945,0.81745 0.39237,1.15184c-0.16488,0.24505 -0.30856,0.49401 -0.43122,0.7468c-0.05603,-0.64852 -0.04294,-1.28134 0.03884,-1.89864z"/><path d="M81.87135,179.2111c0.20472,-0.06974 0.40959,-0.13953 0.61431,-0.20927c0.80281,0.90662 1.66364,1.75611 2.58213,2.54843c-0.19521,-0.1217 -0.32314,-0.07813 -0.38395,0.13079c0.031,0.71189 0.0099,1.40469 -0.06332,2.07838c-0.10285,-0.72255 -0.34695,-1.43917 -0.73243,-2.15011c-0.15359,0.05232 -0.30716,0.10462 -0.46074,0.15695c-0.23623,-0.59639 -0.31302,-0.57023 -0.23037,0.07846c-0.171,0.00117 -0.34206,0.0022 -0.51306,0.00337c-0.16346,0.20395 -0.29038,0.41857 -0.38058,0.64385c-0.17966,-0.55208 -0.25175,-1.09879 -0.21599,-1.64043c0.03575,-0.54163 -0.03634,-1.08835 -0.216,-1.64043z"/><path d="M87.56728,179.32762c0.24068,-0.00091 0.39544,0.11777 0.46411,0.35611c-0.24068,0.00091 -0.39544,-0.11777 -0.46411,-0.35611z" opacity="0.322"/><path d="M70.93509,185.8503c-1.87293,0.62533 -3.75845,1.29624 -5.65629,2.01249c-0.15829,0.51602 -0.26593,1.03826 -0.32321,1.56701c-0.23094,-0.60145 -0.2692,-1.21695 -0.11473,-1.84632c2.05014,-0.58713 4.08158,-1.16481 6.09424,-1.73317z" opacity="0.404"/><path d="M73.84974,184.34323c0.39127,0.25956 0.68434,0.61669 0.87927,1.0717c-0.43448,-0.22634 -0.72758,-0.58363 -0.87927,-1.0717z" opacity="0.424"/><path d="M70.93509,185.8503c0.2798,0.19847 0.48687,0.47073 0.62105,0.81684c-0.32555,-0.16369 -0.53261,-0.43595 -0.62105,-0.81684z" opacity="0.024"/><path d="M61.76926,188.6298c0.03866,0.4335 0.16945,0.81745 0.39237,1.15185c-0.24802,0.20275 -0.3919,0.45162 -0.43122,0.7468c-0.12443,-0.64956 -0.11135,-1.28237 0.03884,-1.89864z"/><path d="M71.60847,186.82073c0.32555,0.16369 0.53261,0.43596 0.62105,0.81685c-0.2798,-0.19847 -0.48687,-0.47073 -0.62105,-0.81685z" opacity="0.251"/><path d="M84.62053,183.75943c-0.06754,0.13733 -0.13499,0.27445 -0.20253,0.41178c-0.50519,-0.07267 -1.00083,-0.01816 -1.48686,0.16369c0.07792,0.15377 0.10474,0.31604 0.08016,0.4869c-0.06857,-0.03372 -0.13733,-0.06755 -0.20589,-0.10127c0.10683,0.64922 0.00455,0.68406 -0.30716,0.10464c0.06698,0.40997 -0.00746,0.77813 -0.22363,1.10458c0.0092,-1.16044 0.01887,-2.30647 0.02873,-3.4378c0.0902,-0.22527 0.21711,-0.4399 0.38058,-0.64385c0.171,-0.00117 0.34205,-0.0022 0.51305,-0.00337c-0.08267,-0.64871 -0.00586,-0.67486 0.23037,-0.07846c0.15359,-0.05232 0.30716,-0.10463 0.46075,-0.15696c0.38548,0.71096 0.62958,1.42757 0.73243,2.15012z" opacity="0.992"/><path d="M61.73378,191.04149c0.11887,0.24129 0.14605,0.48913 0.08184,0.74342c0.99755,-0.25411 1.97886,-0.55993 2.94418,-0.91721c-0.9432,0.49115 -1.9497,0.89108 -3.01928,1.19991c-0.16246,-0.35567 -0.16466,-0.69774 -0.00674,-1.02611z" opacity="0.039"/><path d="M75.71291,186.79378c0.29273,-0.01264 0.38744,0.09786 0.28437,0.33163c-1.0596,0.50167 -2.14334,0.84239 -3.25133,1.02185c1.12071,-0.27447 2.10958,-0.72564 2.96696,-1.35348z" opacity="0.043"/><path d="M84.62053,183.75943c0.12246,0.31017 0.10723,0.60108 -0.04558,0.87252c-0.05232,-0.15358 -0.10462,-0.30716 -0.15695,-0.46074c0.06754,-0.13733 0.13499,-0.27445 0.20253,-0.41178z" opacity="0.098"/><path d="M84.57495,184.63196c0.11161,0.43179 0.08008,0.84241 -0.09453,1.23201c-0.11161,-0.43179 -0.08008,-0.84241 0.09453,-1.23201z" opacity="0.063"/><path d="M82.27462,185.92977c0.18543,0.46937 0.26559,0.95627 0.24048,1.46069c-0.1757,-0.12835 -0.30363,-0.08478 -0.38394,0.13079c0.0018,-0.54669 0.04958,-1.07718 0.14348,-1.59149z" opacity="0.925"/><path d="M84.33359,186.9424c0.07534,0.34696 0.00897,0.65529 -0.19916,0.92485c-0.07534,-0.34696 -0.00897,-0.65529 0.19916,-0.92485z" opacity="0.039"/><path d="M84.13443,187.86725c0.0911,0.23069 0.04098,0.41917 -0.15021,0.56537c-0.0911,-0.23069 -0.04098,-0.41917 0.15021,-0.56537z" opacity="0.035"/><path d="M84.41801,184.17123c0.05232,0.15358 0.10463,0.30716 0.15695,0.46074c-0.1746,0.3896 -0.20614,0.80022 -0.09453,1.23201c0.02096,0.37851 -0.02799,0.73798 -0.14684,1.07842c-0.20813,0.26954 -0.27449,0.57788 -0.19916,0.92485c-0.19119,0.1462 -0.24131,0.33468 -0.15021,0.56537c-0.64829,2.66159 -1.75228,5.12309 -3.31217,7.38441c-0.38511,0.49319 -0.80109,0.94907 -1.24806,1.36786c-0.23834,0.06868 -0.35702,0.22343 -0.3561,0.46411c-0.25154,0.3409 -0.55752,0.61652 -0.91811,0.82694c-0.57738,0.10035 -0.69841,-0.08689 -0.36285,-0.562c0.2408,-0.48961 0.54577,-0.93631 0.91474,-1.34001c0.31506,-0.20674 0.50119,-0.49862 0.55863,-0.8759c0.62677,-1.36068 1.25061,-2.71592 1.8717,-4.0656c0.26376,-0.27581 0.38132,-0.60141 0.35273,-0.97716c0.16784,-1.05199 0.3833,-2.09654 0.64642,-3.13402c0.08031,-0.21556 0.20825,-0.25914 0.38395,-0.13079c0.02511,-0.50442 -0.05505,-0.99132 -0.24048,-1.4607c0.21617,-0.32646 0.29061,-0.69461 0.22363,-1.10458c0.31171,0.57942 0.41399,0.54459 0.30716,-0.10462c0.06857,0.03372 0.13733,0.06754 0.2059,0.10126c0.02459,-0.17087 -0.00224,-0.33312 -0.08017,-0.4869c0.48602,-0.18185 0.98166,-0.23636 1.48685,-0.16369z" opacity="0.997"/><path d="M81.48473,190.65527c0.02859,0.37574 -0.08898,0.70135 -0.35273,0.97716c-0.02859,-0.37574 0.08898,-0.70135 0.35273,-0.97716z" opacity="0.239"/><path d="M79.2603,195.69802c-0.05745,0.37729 -0.24358,0.66917 -0.55863,0.8759c0.05745,-0.37729 0.24358,-0.66917 0.55863,-0.8759z" opacity="0.498"/><path d="M79.42398,197.18488c0.00091,0.24068 -0.11776,0.39543 -0.3561,0.46411c-0.00091,-0.24068 0.11776,-0.39543 0.3561,-0.46411z" opacity="0.004"/><path d="M77.78691,197.91393c-0.33557,0.47511 -0.21453,0.66235 0.36285,0.562c-0.62796,0.76496 -1.42733,1.43732 -2.39822,2.01675c-0.10243,0.0349 -0.171,0.00117 -0.20589,-0.10126c0.68662,-0.87253 1.43367,-1.69846 2.24127,-2.47748z" opacity="0.986"/><path d="M91.02667,206.94456c0.0349,0.10244 0.10346,0.13616 0.20589,0.10127c-0.33939,0.36071 -0.70489,0.7137 -1.09616,1.059c-0.12377,-0.12033 -0.20158,-0.26522 -0.23373,-0.43458c0.3747,-0.24196 0.74929,-0.48373 1.124,-0.72568z" opacity="0.459"/></g></g></g></svg>