<svg version="1.1" xmlns="http://www.w3.org/2000/svg" xmlns:xlink="http://www.w3.org/1999/xlink" width="361.55189" height="164.46441" viewBox="0,0,361.55189,164.46441"><defs><linearGradient x1="246.52916" y1="148.35821" x2="271.01007" y2="148.35821" gradientUnits="userSpaceOnUse" id="color-1"><stop offset="0" stop-color="#71648d"/><stop offset="1" stop-color="#64888d"/></linearGradient><linearGradient x1="32.63488" y1="224.05541" x2="121.42475" y2="224.05541" gradientUnits="userSpaceOnUse" id="color-2"><stop offset="0" stop-color="#71648d"/><stop offset="1" stop-color="#64888d"/></linearGradient><linearGradient x1="78.24966" y1="159.78505" x2="78.24966" y2="219.77127" gradientUnits="userSpaceOnUse" id="color-3"><stop offset="0" stop-color="#b295ed"/><stop offset="1" stop-color="#c4c4c4"/></linearGradient><linearGradient x1="219.0509" y1="189.69273" x2="219.0509" y2="255.68491" gradientUnits="userSpaceOnUse" id="color-4"><stop offset="0" stop-color="#e3e3e3"/><stop offset="1" stop-color="#c2adec"/></linearGradient><linearGradient x1="252.4014" y1="200.825" x2="252.4014" y2="255.24948" gradientUnits="userSpaceOnUse" id="color-5"><stop offset="0" stop-color="#e3e3e3"/><stop offset="1" stop-color="#c2adec"/></linearGradient><linearGradient x1="240.8071" y1="182.42835" x2="374.35645" y2="182.42835" gradientUnits="userSpaceOnUse" id="color-6"><stop offset="0" stop-color="#71648d"/><stop offset="1" stop-color="#64888d"/></linearGradient><linearGradient x1="122.88083" y1="177.01016" x2="181.36218" y2="173.5906" gradientUnits="userSpaceOnUse" id="color-7"><stop offset="0" stop-color="#c9b1d9"/><stop offset="1" stop-color="#80c1d9"/></linearGradient></defs><g transform="translate(-26.41908,-119.51716)"><g data-paper-data="{&quot;isPaintingLayer&quot;:true}" stroke-linejoin="miter" stroke-miterlimit="10" stroke-dasharray="" stroke-dashoffset="0" style="mix-blend-mode: normal"><path d="M269.85181,154.10852l1.15826,4.15898l-24.48091,0.64566c0,0 0.55806,-6.96028 0.46988,-9.28805c-0.23357,-6.16577 11.70296,-15.8006 9.76289,-10.06844c-0.55516,1.64029 -3.92882,5.88479 -4.66276,8.41613c-0.65277,2.25144 2.62866,4.84191 2.62866,4.84191z" data-paper-data="{&quot;origPos&quot;:null,&quot;origRot&quot;:0}" fill="url(#color-1)" fill-rule="nonzero" stroke="none" stroke-width="0" stroke-linecap="butt"/><path d="" data-paper-data="{&quot;origPos&quot;:null}" fill="#737373" fill-rule="nonzero" stroke="none" stroke-width="0" stroke-linecap="butt"/><g data-paper-data="{&quot;origPos&quot;:null}" fill-rule="nonzero" stroke-linecap="round"><path d="M156.99176,178.6727c3.26977,-0.05554 -0.36959,-2.99701 0.019,0.32496c0.71383,13.23274 0.95072,26.56127 2.65007,39.74694c1.27184,9.8645 3.10437,19.66116 5.62743,29.33658c1.98394,7.59314 5.55079,14.55908 8.45817,21.9991c0.66732,1.79955 2.54006,-1.00653 -0.32485,0.019c-11.45667,4.10454 -23.36269,8.71006 -35.1105,12.81079c-2.93787,1.02465 0.52901,1.90946 -0.34384,-0.30585c-3.48221,-8.86302 -7.3016,-17.89528 -10.06172,-27.12133c-1.93018,-6.42654 -3.46634,-13.65471 -4.46471,-20.60261c-1.99874,-13.91135 -2.66482,-28.02463 -3.9564,-42.01777c-0.41639,-4.39869 -0.51935,-8.94878 -1.04646,-13.43498c-0.04736,-1.07826 -3.54558,0.42249 -0.30585,0.34384c12.93811,-0.33536 25.77536,-0.87865 38.85966,-1.09867z" data-paper-data="{&quot;origPos&quot;:null}" fill="#e3e3e3" stroke="none" stroke-width="0"/><path d="M166.29307,270.84202l-7.77049,-21.38729l-4.69457,-18.95928l-2.32532,-17.46781l-2.35953,-29.2017" data-paper-data="{&quot;origPos&quot;:null}" fill="none" stroke="#c2adec" stroke-width="2.12828"/><path d="M162.85229,273.32527l-8.57216,-23.94853l-4.75155,-19.93381l-4.4247,-25.49497l-1.29179,-22.0922" data-paper-data="{&quot;origPos&quot;:null}" fill="none" stroke="#c2adec" stroke-width="2.12828"/><path d="M155.11209,274.75584l-13.4606,-35.0725l-4.65278,-29.39356l-2.3214,-28.5519" data-paper-data="{&quot;origPos&quot;:null}" fill="none" stroke="#c2adec" stroke-width="2.12828"/><path d="M145.28761,279.56818l-6.95173,-12.95929l-8.3404,-31.1339l-2.89523,-27.21441l-1.19491,-26.00978" data-paper-data="{&quot;origPos&quot;:null}" fill="none" stroke="#c2adec" stroke-width="2.12828"/></g><path d="M251.43564,207.04536l-0.59797,-10.22643l2.65131,-0.15503l0.59797,10.22644z" data-paper-data="{&quot;origPos&quot;:null}" fill="#71648d" fill-rule="nonzero" stroke="none" stroke-width="0" stroke-linecap="butt"/><path d="M245.27035,203.53488c0.20469,3.50053 4.37866,10.07885 2.49603,10.18894c-1.88263,0.11008 -5.70016,-6.4891 -5.90484,-9.98962c-0.20469,-3.50053 2.17601,-8.47465 4.05865,-8.58474c1.88263,-0.11008 -0.85452,4.88489 -0.64984,8.38542z" data-paper-data="{&quot;origPos&quot;:null}" fill="#71648d" fill-rule="nonzero" stroke="none" stroke-width="0" stroke-linecap="butt"/><g data-paper-data="{&quot;origPos&quot;:null}" fill-rule="nonzero" stroke="none" stroke-linecap="butt"><path d="M304.99838,156.26683l-0.19457,-3.32764l23.6263,-1.3815l0.19458,3.32765z" data-paper-data="{&quot;origPos&quot;:null}" fill="#5f5f5f" stroke-width="0"/><path d="M33.80532,227.72427l-1.17044,-11.4512l88.78987,-6.19349l-8.63442,6.51513l-46.18646,15.63107l-11.12109,2.90163l-18.06966,2.90384z" data-paper-data="{&quot;origPos&quot;:null}" fill="url(#color-2)" stroke-width="0"/><path d="M103.41144,215.96066l-70.48925,3.81061l-2.82137,-34.45274l5.41446,-21.90514l43.84665,-3.62834l11.00338,9.40349l27.28989,-1.26182l8.74331,38.17533z" data-paper-data="{&quot;origPos&quot;:null}" fill="url(#color-3)" stroke-width="0"/><path d="M115.09428,172.30151l-0.49242,-8.42131l68.30622,-3.99405l0.49241,8.42131z" data-paper-data="{&quot;origPos&quot;:null}" fill="#393939" stroke-width="0"/><path d="M113.9615,185.04291l-0.93012,-15.90693l73.45258,-4.29497l0.93012,15.90693z" data-paper-data="{&quot;origPos&quot;:null}" fill="#e3e3e3" stroke-width="0"/><path d="M353.3494,155.27874c0,0 -0.38086,-8.86111 -0.58542,-15.92794c-0.04071,-1.40657 -1.88892,-8.81475 -9.63149,-8.47676c-49.15776,2.14584 -74.73356,2.79969 -123.86937,5.49844c-7.22459,0.39681 -7.34939,-0.32358 -9.60012,4.88494c-1.07054,2.47737 -1.73355,23.85374 -1.73355,23.85374l-24.89812,0.51302c0,0 3.29153,-26.43005 4.49945,-35.34231c0.57072,-4.21079 2.44706,-8.69013 20.24622,-9.56422c41.34333,-2.03029 107.6156,-1.03112 149.10009,-0.28963c3.36699,-0.07504 13.98535,4.68856 14.33851,9.10267c0.72436,9.05354 1.09481,24.63934 1.09481,24.63934z" data-paper-data="{&quot;origPos&quot;:null}" fill="#e3e3e3" stroke-width="0"/><g data-paper-data="{&quot;origPos&quot;:null}" stroke-width="0"><path d="M198.54452,248.65808c0,0 0.29938,-14.80609 3.41456,-23.69183c1.78324,-5.08652 5.70998,-11.95557 7.54422,-17.02174c0.93556,-2.58402 6.33594,-3.74785 7.26468,-6.33465c1.73845,-4.84212 -3.51349,-11.91713 -3.51349,-11.91713l26.30278,8.86364c0,0 -1.72597,4.07934 -3.53413,9.11566c-1.60254,4.46358 -5.47825,9.4486 -5.47825,9.4486l-0.31287,10.31045l-6.29021,12.66393l0.73243,11.66264l-3.71073,3.92726z" data-paper-data="{&quot;origPos&quot;:null,&quot;origRot&quot;:0}" fill="url(#color-4)"/><path d="M214.76401,253.7841l1.68411,-3.69659c0,0 8.80649,0.12493 14.41326,-0.30514c7.0851,-0.54348 18.1081,-2.18942 18.1081,-2.18942l16.32804,-6.02054l21.54996,-40.74741l3.19131,1.38226l-20.16495,41.88042l-19.50671,7.61463c0,0 -11.96957,2.71458 -19.93277,3.44616c-6.05192,0.55598 -15.67034,-1.36435 -15.67034,-1.36435z" data-paper-data="{&quot;origPos&quot;:null}" fill="url(#color-5)"/><path d="M283.94764,208.53088l-12.461,-11.61909l20.05161,-1.55834l-1.46656,7.4172z" data-paper-data="{&quot;origPos&quot;:null}" fill="#71648d"/></g><path d="M192.97057,178.53964l-0.98923,-16.91779l28.1921,-1.64847l0.98923,16.9178z" data-paper-data="{&quot;origPos&quot;:null}" fill="#e3e3e3" stroke-width="0"/><path d="M217.41115,175.00903l-1.44608,-14.78956l24.24041,-1.41741l0.82682,14.14024z" data-paper-data="{&quot;origPos&quot;:null}" fill="#626262" stroke-width="0"/><path d="M240.58338,175.37554l-0.97446,-16.66529l133.32231,-7.79572l0.97447,16.66529z" data-paper-data="{&quot;origPos&quot;:null}" fill="#626262" stroke-width="0"/><path d="M161.70625,217.79872l-43.37008,9.8769c0,0 -1.14233,-7.20867 -3.65961,-9.47415c-1.57023,-1.41317 -7.37161,-0.92102 -7.37161,-0.92102l6.66276,-33.40611l128.35443,-11.26083l1.39525,23.86166l-22.88118,0.83119c0,0 -17.34674,-4.61605 -27.58571,-3.8912c-5.81202,0.41144 -13.49063,5.42594 -20.82601,11.09616c-7.33537,5.67022 -10.71821,13.28741 -10.71821,13.28741z" data-paper-data="{&quot;origPos&quot;:null}" fill="#9181b1" stroke-width="0"/><g data-paper-data="{&quot;origPos&quot;:null}" fill="none" stroke-width="1" font-family="sans-serif" font-weight="normal" font-size="12" text-anchor="start"/><path d="M364.74057,179.82857l-0.69394,-11.86771l23.2304,-1.35835l0.69394,11.86771z" data-paper-data="{&quot;origPos&quot;:null}" fill="#4c4c4c" stroke-width="0"/><path d="M243.70484,196.26048l-2.89774,-23.55838l133.16251,-7.01813c0,0 1.59872,-0.02009 -1.704,6.00501c-1.10091,2.00837 -4.69208,4.56663 -4.69208,4.56663l5.88777,3.22327l-6.88644,19.69385l-3.90187,-0.09375l-6.34564,-6.58045l-11.54845,-0.2227l-27.13976,1.74667z" data-paper-data="{&quot;origPos&quot;:null}" fill="url(#color-6)" stroke-width="0"/><path d="M332.37503,191.21063l1.40363,-5.67926c0,0 2.84477,-5.98371 3.97195,-6.10164c1.00853,-0.10552 3.44493,5.0183 3.44493,5.0183l2.30832,5.90561z" data-paper-data="{&quot;origPos&quot;:null,&quot;origRot&quot;:0}" fill="#e3e3e3" stroke-width="0"/><path d="M318.01439,191.74413l1.40362,-5.67925c0,0 2.84478,-5.98371 3.97196,-6.10164c1.00853,-0.10552 3.44491,5.0183 3.44491,5.0183l2.30832,5.90561z" data-paper-data="{&quot;origPos&quot;:null,&quot;origRot&quot;:0}" fill="#e3e3e3" stroke-width="0"/><path d="M302.88344,192.01856l1.70247,-5.59694c0,0 3.1577,-5.82462 4.28955,-5.88268c1.0127,-0.05195 3.17428,5.19371 3.17428,5.19371l1.99228,6.01958z" data-paper-data="{&quot;origPos&quot;:null,&quot;origRot&quot;:0}" fill="#e3e3e3" stroke-width="0"/><path d="M289.4546,192.95477l1.40362,-5.67924c0,0 2.84478,-5.9837 3.97196,-6.10163c1.00853,-0.10552 3.44491,5.01829 3.44491,5.01829l2.30833,5.9056z" data-paper-data="{&quot;origPos&quot;:null,&quot;origRot&quot;:0}" fill="#e3e3e3" stroke-width="0"/><path d="M224.73257,199.35104l-6.26547,-3.15776l120.44031,-6.73354l11.72619,0.22678l8.92793,1.34744l4.24204,7.85098l-2.34956,0.13083l-4.17457,-4.41483l-11.25154,-1.19408z" data-paper-data="{&quot;origPos&quot;:null}" fill="#e3e3e3" stroke-width="0"/><path d="M184.90066,180.58193l-1.16721,-19.96163l9.08158,0.0949l1.75454,19.30136l-15.91606,18.59176l-40.27128,0.28205l4.87691,-3.64768l19.04436,-2.79534l9.93688,-8.93436z" data-paper-data="{&quot;origPos&quot;:null}" fill="#e3e3e3" stroke-width="0"/><path d="M192.1751,160.73496c-0.1529,-2.61478 1.84285,-4.85841 4.45763,-5.0113c2.61478,-0.1529 4.8584,1.84285 5.01129,4.45763c0.1529,2.61478 -1.84284,4.8584 -4.45762,5.0113c-2.61478,0.1529 -4.85841,-1.84285 -5.0113,-4.45762z" data-paper-data="{&quot;origPos&quot;:null}" fill="#71648d" stroke-width="0"/><path d="M168.82037,191.92834c-0.14353,-2.45468 1.73003,-4.56095 4.1847,-4.70448c2.45468,-0.14353 4.56094,1.73003 4.70446,4.1847c0.14353,2.45468 -1.73002,4.56094 -4.18469,4.70446c-2.45468,0.14353 -4.56095,-1.73002 -4.70448,-4.18469z" data-paper-data="{&quot;origPos&quot;:null}" fill="#71648d" stroke-width="0"/><path d="M123.2091,182.62437l6.36121,-11.63877l51.46358,-3.00922l0.65655,11.22843z" data-paper-data="{&quot;origPos&quot;:null}" fill="url(#color-7)" stroke-width="0"/><path d="M59.25886,234.75045l6.43352,-9.89241l21.78737,-4.27909c0,0 5.90686,2.39371 3.79672,2.97002c-1.01944,0.27842 -32.01761,11.20148 -32.01761,11.20148z" data-paper-data="{&quot;origPos&quot;:null}" fill="#e3e3e3" stroke-width="0"/><path d="M33.65193,239.52875l-7.23285,-50.37205l7.90176,-1.3059l7.23285,50.37204z" data-paper-data="{&quot;origPos&quot;:null,&quot;origRot&quot;:0}" fill="#e3e3e3" stroke-width="0"/><path d="M119.0136,220.23764c-0.12896,-2.20538 1.55432,-4.09771 3.75969,-4.22667c2.20538,-0.12895 4.09771,1.55431 4.22667,3.75968c0.12896,2.20538 -1.55431,4.09772 -3.75969,4.22668c-2.20538,0.12895 -4.09772,-1.55432 -4.22667,-3.75969z" data-paper-data="{&quot;origPos&quot;:null}" fill="#4c4c4c" stroke-width="0"/></g><g data-paper-data="{&quot;origPos&quot;:null}" fill-rule="nonzero" stroke="none" stroke-width="0" stroke-linecap="butt"><path d="M340.74034,160.27118c-0.25278,-4.32308 9.18191,-8.39129 12.62888,-8.59284c3.44696,-0.20156 6.44621,3.13961 6.69899,7.46269c0.25278,4.32308 -2.33661,7.99102 -5.78359,8.19257c-3.44696,0.20156 -13.29151,-2.73934 -13.54429,-7.06242z" data-paper-data="{&quot;origPos&quot;:null}" fill="#9181b1"/><path d="M331.46964,164.10704l-0.38388,-6.56512l15.70391,-0.91825l0.38388,6.56512z" data-paper-data="{&quot;origPos&quot;:null}" fill="#9181b1"/><path d="M325.31692,165.98701l-0.60535,-10.35268l10.87194,-0.63571l0.60535,10.35267z" data-paper-data="{&quot;origPos&quot;:null}" fill="#9181b1"/><path d="M350.80695,159.68256c-0.106,-1.81291 0.97988,-3.35108 2.42538,-3.4356c1.4455,-0.08452 2.70325,1.31661 2.80925,3.12951c0.106,1.81291 -0.97987,3.35108 -2.42537,3.4356c-1.4455,0.08452 -2.70326,-1.31661 -2.80926,-3.12951z" data-paper-data="{&quot;origPos&quot;:null}" fill="#5a5a5a"/><path d="M212.6542,170.54775l-0.38388,-6.56511l113.75263,-6.65142l0.38388,6.56511z" data-paper-data="{&quot;origPos&quot;:null}" fill="#b1cfda"/><path d="M212.13879,172.0981l-0.56106,-9.59517l7.44929,-0.43558l0.56106,9.59517z" data-paper-data="{&quot;origPos&quot;:null}" fill="#9181b1"/><path d="M205.9324,176.51489l-1.004,-17.17029l7.44929,-0.43558l1.00399,17.17029z" data-paper-data="{&quot;origPos&quot;:null}" fill="#9181b1"/></g><g fill="#ffffff" fill-rule="evenodd" stroke="none" stroke-width="1" stroke-linecap="butt"><path d="M68.37095,173.63918c-0.29645,0.13197 -0.37869,0.34617 -0.24672,0.64262c-1.20002,-0.05386 -2.40817,-0.10803 -3.62428,-0.16255c0.05212,-0.0824 0.10423,-0.1648 0.15635,-0.24719c1.31288,-0.19326 2.55101,-0.27086 3.71466,-0.23288z" opacity="0.989"/><path d="M71.12216,173.83519c0.2911,-0.03625 0.55482,0.02395 0.79083,0.18072c-0.3196,0.13261 -0.58315,0.07236 -0.79083,-0.18072z" opacity="0.616"/><path d="M70.28255,174.74175c0.44441,-0.03455 0.85083,0.0805 1.21926,0.3452c-0.44441,0.03455 -0.85083,-0.0805 -1.21926,-0.3452z" opacity="0.365"/><path d="M68.37095,173.63918c0.93867,-0.07923 1.85573,-0.0139 2.7512,0.19601c0.20768,0.25308 0.47124,0.31333 0.79083,0.18072c0.66334,0.04994 1.31135,0.17589 1.94411,0.37773c0.13196,0.29645 0.34618,0.37868 0.64263,0.24672c1.08345,0.29307 2.10511,0.72624 3.06486,1.29957c0.23437,0.29507 0.54186,0.45406 0.92281,0.47717c0.16091,0.26651 0.39716,0.39825 0.7086,0.39493c0.08994,0.23115 0.25479,0.33537 0.49439,0.31269c0.08994,0.23115 0.2548,0.33537 0.4944,0.31269c0.08994,0.23115 0.25479,0.33538 0.49439,0.3127c0.14019,0.22955 0.18966,0.47393 0.14871,0.73298c-0.55508,0.28262 -1.0876,0.54934 -1.59746,0.79993c-0.02196,-0.04935 -0.044,-0.09885 -0.06598,-0.14822c-0.32836,-0.46032 -0.75141,-0.74563 -1.26899,-0.85586c-0.29833,-0.11565 -0.55657,-0.29675 -0.77459,-0.54315c-0.23741,-0.38572 -0.56712,-0.59413 -0.98879,-0.6254c-1.50262,-0.7412 -3.04608,-1.41572 -4.63029,-2.02346c-0.36843,-0.2647 -0.77483,-0.37975 -1.21925,-0.34521c-0.73093,-0.10522 -1.45043,-0.25852 -2.15834,-0.45996c-0.13196,-0.29645 -0.04973,-0.51065 0.24672,-0.64263z" opacity="0.998"/><path d="M73.8571,174.39364c0.24158,0.01085 0.45578,0.0931 0.64263,0.24672c-0.29644,0.13197 -0.51065,0.04973 -0.64263,-0.24672z" opacity="0.306"/><path d="M77.5646,175.93991c0.38094,0.02311 0.68843,0.18209 0.92281,0.47717c-0.38094,-0.02311 -0.68843,-0.18209 -0.92281,-0.47717z" opacity="0.722"/><path d="M76.1321,177.11039c0.42168,0.03127 0.75137,0.23968 0.98879,0.6254c-0.37594,-0.12 -0.70548,-0.32848 -0.98879,-0.6254z" opacity="0.937"/><path d="M78.48741,176.41707c0.31145,-0.00331 0.54769,0.12842 0.7086,0.39493c-0.31145,0.00331 -0.54769,-0.12842 -0.7086,-0.39493z" opacity="0.588"/><path d="M79.19601,176.81201c0.23962,-0.02267 0.40446,0.08155 0.49439,0.31269c-0.23962,0.02267 -0.40446,-0.08155 -0.49439,-0.31269z" opacity="0.125"/><path d="M77.89549,178.27894c0.51757,0.11022 0.94063,0.39555 1.26899,0.85586c-0.47048,-0.19797 -0.89349,-0.48312 -1.26899,-0.85586z" opacity="0.69"/><path d="M79.69041,177.12471c0.23962,-0.02267 0.40446,0.08154 0.49439,0.31268c-0.23962,0.02267 -0.40446,-0.08154 -0.49439,-0.31268z" opacity="0.247"/><path d="M80.1848,177.43741c0.23962,-0.02267 0.40446,0.08155 0.49439,0.3127c-0.23962,0.02267 -0.40446,-0.08155 -0.49439,-0.3127z" opacity="0.086"/><path d="M81.51978,178.44149c0.33586,0.05631 0.59408,0.23742 0.77459,0.54315c-0.33586,-0.05631 -0.59408,-0.23742 -0.77459,-0.54315z" opacity="0.102"/><path d="M80.67921,177.75011c0.33442,0.14966 0.61464,0.38011 0.84058,0.69138c0.18051,0.30574 0.43872,0.48685 0.77459,0.54316c0.02196,0.04935 0.04401,0.09886 0.06601,0.14823c0.09837,0.27446 0.25766,0.49943 0.47814,0.67512c-0.69175,0.30795 -1.38336,0.61583 -2.07511,0.92378c-0.1225,-0.37134 -0.35334,-0.62378 -0.69235,-0.75737c-0.28019,-0.23046 -0.56038,-0.46093 -0.84058,-0.69139c0.50985,-0.2506 1.04237,-0.51731 1.59746,-0.79993c0.04097,-0.25906 -0.00851,-0.50343 -0.1487,-0.73298z" opacity="0.983"/><path d="M62.68028,188.78182c-3.99997,1.72189 -7.9305,3.53078 -11.79179,5.42695c-0.22762,0.0983 -0.34574,0.03244 -0.3543,-0.19747c0.14233,-0.17135 0.31799,-0.30869 0.52691,-0.41216c3.79454,-1.45568 7.5001,-3.10528 11.11666,-4.9488c0.20201,-0.06524 0.36944,-0.02149 0.50253,0.13149z" opacity="0.17"/><path d="M69.64671,185.68058c-1.77732,0.73297 -3.48467,1.55216 -5.1218,2.45766c-0.41959,0.05962 -0.48556,-0.08859 -0.19795,-0.44466c1.79097,-0.68238 3.56429,-1.35335 5.31975,-2.013z" opacity="0.175"/><path d="M80.07102,179.9744c0.339,0.1336 0.56985,0.38603 0.69235,0.75737c-2.17241,0.90866 -4.27491,1.90377 -6.30758,2.98553c-0.3035,-0.18705 -0.27061,-0.37929 0.09849,-0.57663c1.94802,-0.66671 3.83651,-1.47791 5.66543,-2.43329c-0.00841,-0.29533 -0.05802,-0.53963 -0.14871,-0.73298z" opacity="0.152"/><path d="M82.36035,179.13286c0.18229,0.054 0.34712,0.15822 0.49439,0.31269c0.36,-0.04145 0.70039,-0.0747 1.0213,-0.09946c-0.34581,0.15393 -0.69176,0.30795 -1.03756,0.46189c-0.22048,-0.1757 -0.37975,-0.40067 -0.47814,-0.67512z" opacity="0.192"/><path d="M74.4558,183.71732c2.03267,-1.08177 4.13515,-2.07689 6.30757,-2.98554c0.69175,-0.30795 1.38336,-0.61582 2.0751,-0.92377c0.34581,-0.15393 0.69175,-0.30796 1.03756,-0.4619c0.99648,-0.46279 1.99046,-0.49077 2.98166,-0.08418c0.25821,0.18111 0.54375,0.29073 0.85683,0.32896c0.31145,-0.00331 0.54769,0.12843 0.7086,0.39494c0.08994,0.23115 0.2548,0.33537 0.4944,0.31269c0.86776,1.07798 1.46696,2.29114 1.79782,3.63956c0.10098,0.45142 0.05734,0.88519 -0.131,1.3015c-0.17719,0.16289 -0.21007,0.35511 -0.09849,0.57663c-0.24733,0.64164 -0.56558,1.2568 -0.95435,1.84562c0.09887,0.07728 0.19223,0.15418 0.28019,0.23047c0.16091,0.26651 0.39716,0.39825 0.7086,0.39493c0.16091,0.26651 0.39716,0.39826 0.7086,0.39494c0.16091,0.26651 0.39715,0.39825 0.7086,0.39493c0.08994,0.23115 0.2548,0.33537 0.4944,0.31269c0.31145,-0.00331 0.54769,0.12843 0.7086,0.39494c0.23437,0.29507 0.54186,0.45406 0.9228,0.47717c0.08994,0.23115 0.25479,0.33537 0.49439,0.31269c0.52784,0.13852 0.92616,0.43483 1.19488,0.88884c-1.32457,0.56799 -2.60921,1.13988 -3.85377,1.71559c-0.75701,-0.56076 -1.507,-1.11485 -2.24965,-1.66246c-0.98633,-0.70605 -1.92042,-1.47426 -2.80191,-2.30461c-0.19758,0.08796 -0.3953,0.176 -0.59289,0.26395c-1.08692,0.48386 -2.17397,0.96777 -3.26089,1.45164c0.74781,1.67981 1.49565,3.35975 2.24346,5.03955c-0.69175,0.30795 -1.38336,0.61583 -2.07511,0.92378c-0.19758,0.08796 -0.3953,0.17599 -0.59288,0.26394c-1.86113,-4.44362 -3.89551,-8.74739 -6.10305,-12.91157c-0.09886,0.04401 -0.17019,0.01662 -0.21419,-0.08223c-0.29853,-0.23774 -0.63342,-0.3254 -1.00504,-0.26296c-0.11534,-0.12625 -0.25821,-0.18112 -0.4284,-0.16447c-0.12084,-0.00533 -0.2416,-0.01092 -0.36243,-0.01626zM82.84041,183.00387c0.044,0.09885 0.08796,0.19758 0.13196,0.29644c0.6089,0.99839 1.21902,1.96997 1.83034,2.91471c0.17957,0.31362 0.16611,0.61566 -0.04063,0.90607c-0.95551,0.28116 -1.90258,0.61397 -2.84109,0.99837c-0.55243,-1.28282 -1.10227,-2.51796 -1.64959,-3.70555c0.77836,-0.59691 1.63471,-1.06693 2.56901,-1.41005zM85.8546,182.19483c0.33392,0.21311 0.6636,0.42155 0.98879,0.62541c0.08164,0.16062 0.19698,0.28687 0.34618,0.37868c-0.05188,0.22414 0.03608,0.42171 0.26394,0.59288c0.02196,0.04935 0.044,0.09886 0.066,0.14823c-0.01423,0.4663 -0.10731,0.92226 -0.27922,1.36748c-0.52937,-0.91907 -1.09554,-1.79193 -1.69836,-2.61828c-0.09151,-0.1461 -0.13288,-0.30527 -0.12385,-0.47766c0.14907,0.06719 0.29459,0.06173 0.43655,-0.01675z"/><path d="M62.68028,188.78182c0.59349,0.80137 0.98938,1.69072 1.18771,2.66801c-2.56913,1.1437 -5.13841,2.28746 -7.70754,3.43117c0.5059,1.13641 1.01173,2.27269 1.51762,3.4091c1.91681,-0.6766 3.81636,-1.4629 5.69843,-2.35917c0.37394,0.83998 0.74781,1.67981 1.12174,2.51978c-1.87753,0.83582 -3.75491,1.67158 -5.63244,2.5074c0.83582,1.87753 1.67158,3.75491 2.5074,5.63244c-0.86229,0.554 -1.779,1.02124 -2.75024,1.40192c-1.71308,-3.67232 -3.36267,-7.37788 -4.9488,-11.11666c-0.28996,-0.89583 -0.74068,-1.64231 -1.35219,-2.23958c-0.49643,-0.09389 -0.97423,-0.23635 -1.43345,-0.42745c3.86129,-1.89618 7.79181,-3.70507 11.79178,-5.42695z"/><path d="M69.64671,185.68058c0.08871,0.35087 0.29757,0.55393 0.62637,0.60914c0.1225,0.37134 0.35333,0.62378 0.69233,0.75737c0.18924,0.48692 0.51343,0.81623 0.97254,0.98783c0.02196,0.04935 0.04401,0.09886 0.06601,0.14823c0.08871,0.35087 0.29756,0.55393 0.62637,0.60914c0.09952,0.40146 0.3302,0.65397 0.69234,0.75737c0.18924,0.48692 0.51343,0.81623 0.97254,0.98783c0.02196,0.04935 0.044,0.09885 0.06598,0.14822c0.08871,0.35087 0.29757,0.55394 0.62637,0.60914c0.1225,0.37134 0.35334,0.62377 0.69234,0.75736c0.1225,0.37134 0.35334,0.62378 0.69234,0.75737c0.07675,0.2578 0.22525,0.45809 0.44514,0.60101c-0.09944,0.09897 -0.16531,0.21708 -0.19747,0.35429c0.36158,0.13882 0.71845,0.27583 1.07103,0.4112c0.18924,0.48692 0.51343,0.81623 0.97254,0.98783c0.02196,0.04935 0.04401,0.09885 0.066,0.14822c0.19519,0.47236 0.51939,0.80168 0.97254,0.98783c0.44178,0.36366 0.80992,0.79168 1.10449,1.28427c-0.79713,0.70276 -1.74116,1.24149 -2.83246,1.61612c-0.24092,-0.07283 -0.42759,-0.22648 -0.56038,-0.46092c-0.1225,-0.37134 -0.35334,-0.62378 -0.69235,-0.75737c-0.02196,-0.04935 -0.044,-0.09886 -0.06599,-0.14823c-0.16492,-0.33256 -0.39576,-0.585 -0.69234,-0.75737c-1.95305,0.74797 -3.92395,1.5069 -5.91262,2.27693c-0.09694,0.64076 -0.00321,1.25029 0.28115,1.82839c0.05716,0.08412 0.1395,0.13626 0.24719,0.15635c-0.07737,0.43935 -0.08524,0.88685 -0.0239,1.34261c-0.09346,-0.05714 -0.18955,-0.07352 -0.28833,-0.04924c-0.92906,0.44308 -1.87871,0.83636 -2.84921,1.1796c0.04097,-0.25906 -0.00852,-0.50343 -0.14872,-0.73298c-0.06472,-0.16814 -0.08135,-0.33834 -0.04972,-0.51065c0.01246,-0.29752 0.13325,-0.55836 0.36194,-0.78271c-0.25224,-0.31288 -0.4172,-0.68344 -0.49486,-1.11167c-0.02196,-0.04935 -0.04401,-0.09886 -0.066,-0.14823c0.0993,-0.26282 0.21989,-0.52376 0.36195,-0.78271c-0.25224,-0.31288 -0.41721,-0.68343 -0.49487,-1.11166c0.00533,-0.12084 0.01091,-0.2416 0.01625,-0.36243c0.06796,-0.21993 0.02952,-0.43955 -0.11571,-0.65887c0.16994,-0.57451 0.1476,-1.1565 -0.06695,-1.74614c-0.02196,-0.04935 -0.04401,-0.09886 -0.066,-0.14823c0.12179,-0.51314 0.07205,-1.02378 -0.14919,-1.53196c0.17901,-0.28126 0.16788,-0.57236 -0.03347,-0.87308c-0.02196,-0.04935 -0.044,-0.09885 -0.06599,-0.14822c0.10711,-0.22776 0.11787,-0.46929 0.03251,-0.72486c0.02566,-0.62217 -0.01852,-1.25359 -0.13295,-1.89438c-0.17856,-0.42507 -0.25576,-0.86417 -0.23143,-1.31775c0.16329,-0.28669 0.12468,-0.50624 -0.11571,-0.65887c-0.16289,-0.17719 -0.35513,-0.21008 -0.57664,-0.0985c-0.30713,-0.03608 -0.59281,-0.14562 -0.85682,-0.32895c1.63712,-0.9055 3.34446,-1.72469 5.12179,-2.45766zM69.79784,190.4084c0.39569,0.58485 0.8572,1.08979 1.3847,1.51473c0.16492,0.33256 0.39576,0.585 0.69234,0.75737c0.16492,0.33256 0.39576,0.58499 0.69235,0.75736c0.39569,0.58485 0.8572,1.08979 1.38469,1.51472c0.06601,0.14823 0.13195,0.29645 0.19795,0.44466c-0.09886,0.04401 -0.19757,0.08795 -0.29644,0.13196c-0.08796,-0.19758 -0.23082,-0.25243 -0.42841,-0.16447c-0.10598,-0.10163 -0.22674,-0.1072 -0.36243,-0.01626c-1.10191,0.17531 -2.15595,0.46693 -3.1624,0.87501c0.12765,-0.28414 0.11651,-0.57525 -0.03347,-0.87308c-0.02196,-0.04935 -0.044,-0.09885 -0.06599,-0.14822c0.12765,-0.28414 0.11651,-0.57525 -0.03347,-0.87308c0.06375,-0.34751 0.03048,-0.6879 -0.09947,-1.0213c0.07039,-0.33574 0.03729,-0.6762 -0.09948,-1.02129c0.07039,-0.33574 0.0373,-0.67621 -0.09947,-1.02131c0.08721,-0.16473 0.07059,-0.33492 -0.04972,-0.51065c0.07944,-0.1096 0.10962,-0.2413 0.09037,-0.39542c0.09346,0.05714 0.18955,0.07351 0.28833,0.04924z" opacity="0.999"/><path d="M69.64671,185.68058c0.29657,0.09529 0.50543,0.29837 0.62637,0.60914c-0.32879,-0.05521 -0.53766,-0.25829 -0.62637,-0.60914z" opacity="0.639"/><path d="M74.81822,183.73356c0.17019,-0.01663 0.31308,0.03824 0.42841,0.16448c-0.19758,0.08796 -0.34046,0.0331 -0.42841,-0.16448z" opacity="0.008"/><path d="M75.24665,183.89805c0.37162,-0.06243 0.70652,0.02522 1.00504,0.26296c-0.37162,0.06243 -0.70652,-0.02522 -1.00504,-0.26296z" opacity="0.573"/><path d="M65.38175,188.4672c0.22152,-0.11158 0.41374,-0.0787 0.57663,0.09849c-0.22152,0.11158 -0.41374,0.0787 -0.57663,-0.09849z" opacity="0.314"/><path d="M86.85771,179.26194c0.36777,-0.10458 0.65353,0.00512 0.85683,0.32896c-0.31308,-0.03823 -0.59861,-0.14785 -0.85683,-0.32896z" opacity="0.008"/><path d="M65.95837,188.56569c0.2404,0.15263 0.27899,0.37219 0.1157,0.65888c-0.1062,-0.21184 -0.1448,-0.4314 -0.1157,-0.65888z" opacity="0.227"/><path d="M70.27308,186.28971c0.29659,0.17237 0.52742,0.4248 0.69234,0.75737c-0.339,-0.1336 -0.56984,-0.38603 -0.69234,-0.75737z" opacity="0.392"/><path d="M52.32194,194.63621c0.61151,0.59729 1.06224,1.34376 1.3522,2.23959c-0.45045,-0.72866 -0.90116,-1.47515 -1.3522,-2.23959z" opacity="0.056"/><path d="M70.96543,187.04708c0.36395,0.2706 0.68815,0.59993 0.97254,0.98783c-0.45912,-0.1716 -0.7833,-0.50091 -0.97254,-0.98783z" opacity="0.482"/><path d="M88.42313,179.98581c0.23962,-0.02267 0.40446,0.08155 0.49439,0.31269c-0.23962,0.02267 -0.40446,-0.08155 -0.49439,-0.31269z" opacity="0.067"/><path d="M63.86798,191.44982c-2.42804,1.25795 -4.92586,2.42904 -7.49335,3.5134c0.51083,1.11238 0.9947,2.19928 1.45166,3.26089c-0.04935,0.02196 -0.09886,0.04401 -0.14824,0.06599c-0.5059,-1.13641 -1.01173,-2.2727 -1.51763,-3.40911c2.56913,-1.1437 5.13842,-2.28746 7.70754,-3.43117z" opacity="0.082"/><path d="M66.30553,190.54231c0.11442,0.6408 0.15858,1.27222 0.13294,1.89438c-0.25143,-0.63541 -0.29574,-1.26674 -0.13294,-1.89438z" opacity="0.404"/><path d="M85.42619,182.03035c0.17019,-0.01663 0.31308,0.03823 0.42841,0.16447c-0.14195,0.07848 -0.28746,0.08393 -0.43655,0.01675c-0.00903,0.1724 0.03234,0.33156 0.12385,0.47767c-0.12001,-0.02064 -0.21338,-0.09753 -0.2802,-0.23047c-0.04343,-0.19609 0.01142,-0.33897 0.16447,-0.42841z" opacity="0.09"/><path d="M85.8546,182.19483c0.51424,-0.12024 0.84394,0.08818 0.98879,0.62541c-0.32519,-0.20386 -0.65487,-0.4123 -0.98879,-0.62541z" opacity="0.992"/><path d="M72.00395,188.18314c0.24806,0.14354 0.45693,0.3466 0.62637,0.60914c-0.32879,-0.05521 -0.53766,-0.25828 -0.62637,-0.60914z" opacity="0.655"/><path d="M82.84041,183.00387c0.84703,-0.43426 1.709,-0.75883 2.58577,-0.97351c-0.15306,0.08945 -0.20791,0.23232 -0.16447,0.42841c0.06681,0.13293 0.16018,0.20983 0.2802,0.23047c0.50131,1.05392 1.06207,2.04746 1.68211,2.9807c-0.01433,0.13461 -0.08004,0.25265 -0.19747,0.3543c-0.55789,0.33698 -1.13976,0.62567 -1.74568,0.86592c-0.08426,-0.30258 -0.24355,-0.52755 -0.47814,-0.67512c-0.42935,-1.11208 -1.03946,-2.08363 -1.83034,-2.9147c-0.044,-0.09885 -0.08796,-0.19758 -0.13196,-0.29644z" opacity="0.99"/><path d="M69.79784,190.4084c-0.09878,0.02426 -0.19485,0.00789 -0.28832,-0.04924c0.01924,0.15411 -0.01092,0.28582 -0.09037,0.39542c-0.06601,-0.14823 -0.13195,-0.29645 -0.19795,-0.44466c0.23468,-0.14265 0.42692,-0.10977 0.57664,0.0985z" opacity="0.133"/><path d="M72.63032,188.79228c0.29659,0.17237 0.52743,0.4248 0.69234,0.75737c-0.36216,-0.10341 -0.59284,-0.3559 -0.69234,-0.75737z" opacity="0.757"/><path d="M66.43846,192.43668c0.08535,0.25557 0.07459,0.49712 -0.03251,0.72487c-0.16421,-0.26078 -0.15332,-0.50237 0.03251,-0.72487z" opacity="0.322"/><path d="M87.18956,183.19891c0.27219,0.13829 0.36021,0.33601 0.26394,0.59288c-0.22787,-0.17116 -0.31582,-0.36875 -0.26394,-0.59288z" opacity="0.471"/><path d="M69.46888,191.26522c0.13677,0.3451 0.16986,0.68556 0.09947,1.0213c-0.19396,-0.33953 -0.22705,-0.67999 -0.09947,-1.0213z" opacity="0.169"/><path d="M73.32266,189.54964c0.36395,0.2706 0.68815,0.59993 0.97255,0.98782c-0.45912,-0.1716 -0.78331,-0.50091 -0.97255,-0.98782z" opacity="0.537"/><path d="M82.97238,183.30031c0.79089,0.83107 1.401,1.80264 1.83034,2.91471c-0.61131,-0.94475 -1.22143,-1.91633 -1.83034,-2.91471z" opacity="0.082"/><path d="M85.54189,182.68923c0.60283,0.82634 1.16899,1.6992 1.69836,2.61827c0.17191,-0.44523 0.265,-0.90117 0.27922,-1.36747c0.11387,0.19314 0.17713,0.40191 0.18982,0.62589c0.01068,0.45327 -0.151,0.8213 -0.4853,1.10403c-0.62004,-0.93323 -1.18079,-1.92678 -1.68212,-2.9807z" opacity="0.216"/><path d="M66.47193,193.30976c0.20135,0.30072 0.21248,0.59182 0.03347,0.87308c-0.14998,-0.29783 -0.16113,-0.58894 -0.03347,-0.87308z" opacity="0.643"/><path d="M69.56834,192.28652c0.13677,0.3451 0.16986,0.68555 0.09947,1.0213c-0.19396,-0.33953 -0.22705,-0.67999 -0.09947,-1.0213z" opacity="0.18"/><path d="M63.31051,195.78271c0.02196,0.04935 0.044,0.09886 0.06599,0.14823c-1.88207,0.89626 -3.78162,1.68259 -5.69843,2.35917c0.04935,-0.02196 0.09887,-0.04401 0.14824,-0.06599c1.81902,-0.85435 3.64704,-1.66814 5.48422,-2.44141z" opacity="0.576"/><path d="M71.18253,191.92313c0.339,0.1336 0.56983,0.38603 0.69233,0.75736c-0.29659,-0.17237 -0.52742,-0.42479 -0.69233,-0.75736z" opacity="0.2"/><path d="M66.5054,194.18285c0.22125,0.50817 0.27098,1.01882 0.14918,1.53195c-0.15333,-0.51515 -0.20304,-1.0258 -0.14918,-1.53195z" opacity="0.435"/><path d="M74.36119,190.68569c0.29657,0.09529 0.50543,0.29838 0.62636,0.60916c-0.32879,-0.05521 -0.53766,-0.2583 -0.62636,-0.60916z" opacity="0.682"/><path d="M76.4659,184.24324c2.20755,4.16419 4.24192,8.46797 6.10304,12.91159c-0.09108,0.13094 -0.20913,0.0652 -0.3543,-0.19747c-1.96554,-4.21579 -3.88179,-8.45372 -5.74874,-12.71411z" opacity="0.605"/><path d="M82.84041,183.00387c-0.93432,0.34311 -1.79067,0.81314 -2.56902,1.41006c0.54733,1.1876 1.09719,2.42272 1.64961,3.70555c0.93849,-0.3844 1.88558,-0.71721 2.84109,-0.99837c0.20674,-0.29041 0.2202,-0.59246 0.04063,-0.90607c0.2346,0.14758 0.39387,0.37254 0.47815,0.67512c-1.04354,0.64074 -2.15783,1.19592 -3.34313,1.66585c-0.6628,-1.42265 -1.27606,-2.86647 -1.83943,-4.33143c0.84126,-0.61 1.7552,-1.01686 2.74211,-1.22071z" opacity="0.377"/><path d="M71.87487,192.68049c0.339,0.1336 0.56985,0.38603 0.69235,0.75737c-0.29659,-0.17237 -0.52744,-0.42481 -0.69235,-0.75737z" opacity="0.165"/><path d="M74.98755,191.29483c0.29659,0.17237 0.52742,0.4248 0.69234,0.75737c-0.339,-0.1336 -0.56983,-0.38603 -0.69234,-0.75737z" opacity="0.478"/><path d="M90.58435,185.23957c0.11158,0.22152 0.0787,0.41375 -0.09849,0.57664c-0.11158,-0.22152 -0.0787,-0.41375 0.09849,-0.57664z" opacity="0.016"/><path d="M69.76727,194.32914c0.14999,0.29784 0.16112,0.58894 0.03347,0.87308c-0.14999,-0.29784 -0.16112,-0.58894 -0.03347,-0.87308z" opacity="0.216"/><path d="M66.72059,195.86302c0.21455,0.58965 0.23689,1.17164 0.06695,1.74614c-0.12709,-0.59146 -0.14942,-1.17345 -0.06695,-1.74614z" opacity="0.827"/><path d="M75.6799,192.0522c0.29659,0.17237 0.52743,0.4248 0.69235,0.75737c-0.339,-0.1336 -0.56984,-0.38603 -0.69235,-0.75737z" opacity="0.584"/><path d="M69.86672,195.35044c0.14999,0.29784 0.16112,0.58893 0.03347,0.87308c-0.14999,-0.29784 -0.16112,-0.58893 -0.03347,-0.87308z" opacity="0.243"/><path d="M69.90019,196.22352c1.00644,-0.40808 2.06049,-0.69971 3.16239,-0.87502c-1.07117,0.36445 -2.15274,0.72746 -3.24464,1.08921c-0.02167,-0.09815 0.00571,-0.16948 0.08223,-0.21419z" opacity="0.12"/><path d="M66.78754,197.60917c0.14524,0.21933 0.18368,0.43895 0.1157,0.65888c-0.06063,0.03855 -0.12109,0.03595 -0.18121,-0.00813c0.00081,-0.23159 0.02252,-0.44851 0.0655,-0.65074z" opacity="0.431"/><path d="M76.37225,192.80956c0.52671,0.35177 0.96639,0.80727 1.3187,1.36652c-0.35258,-0.13537 -0.70945,-0.27239 -1.07102,-0.4112c0.03216,-0.13722 0.09802,-0.25532 0.19747,-0.35429c-0.21991,-0.14292 -0.3684,-0.34322 -0.44514,-0.60101z" opacity="0.984"/><path d="M73.42503,195.36474c0.19758,-0.08796 0.34045,-0.03311 0.42841,0.16447c-0.17019,0.01663 -0.31307,-0.03823 -0.42841,-0.16447z" opacity="0.004"/><path d="M89.8117,187.89229c0.31145,-0.00331 0.54769,0.12843 0.7086,0.39494c-0.31145,0.00331 -0.54769,-0.12843 -0.7086,-0.39494z" opacity="0.384"/><path d="M73.95194,194.95259c0.24092,0.07283 0.42759,0.22647 0.56038,0.46092c-0.04935,0.02196 -0.09886,0.044 -0.14823,0.066c-0.044,-0.09885 -0.11534,-0.12625 -0.2142,-0.08223c-0.06601,-0.14823 -0.13195,-0.29645 -0.19794,-0.44466z" opacity="0.161"/><path d="M90.5203,188.28723c0.31145,-0.00331 0.54769,0.12842 0.7086,0.39493c-0.31145,0.00331 -0.54769,-0.12842 -0.7086,-0.39493z" opacity="0.537"/><path d="M86.25437,189.47591c0.22882,0.53358 0.35004,1.07153 0.36339,1.61418c-0.19051,-0.34498 -0.29493,-0.71282 -0.31366,-1.10353c-0.12084,-0.00533 -0.2416,-0.01091 -0.36243,-0.01625c-0.9547,0.24989 -1.84139,0.58549 -2.65987,1.0065c0.70295,1.72746 1.42606,3.41843 2.16935,5.07253c-0.74884,0.39038 -1.51198,0.67079 -2.28931,0.84154c0.69175,-0.30795 1.38335,-0.61584 2.07511,-0.92378c-0.74781,-1.67981 -1.49565,-3.35975 -2.24346,-5.03956c1.08692,-0.48386 2.17397,-0.96778 3.26088,-1.45165z" opacity="0.393"/><path d="M77.69095,194.17607c0.36395,0.2706 0.68815,0.59993 0.97255,0.98783c-0.45912,-0.1716 -0.78331,-0.50091 -0.97255,-0.98783z" opacity="0.573"/><path d="M91.22891,188.68216c0.31145,-0.00331 0.54769,0.12843 0.7086,0.39494c-0.31145,0.00331 -0.54769,-0.12843 -0.7086,-0.39494z" opacity="0.557"/><path d="M63.31051,195.78271c0.29533,0.39811 0.5536,0.84542 0.77506,1.34212c0.26236,0.53746 0.41918,1.08925 0.4705,1.65531c-1.82572,0.70087 -3.62899,1.50364 -5.41011,2.40842c0.73855,1.7871 1.56871,3.51905 2.49066,5.19591c-0.02099,0.25444 -0.1087,0.32314 -0.26345,0.20608c-0.83582,-1.87753 -1.67158,-3.75491 -2.5074,-5.63244c1.87753,-0.83582 3.75491,-1.67158 5.63244,-2.5074c-0.37394,-0.83998 -0.74781,-1.6798 -1.12173,-2.51977c-0.02196,-0.04935 -0.044,-0.09886 -0.06599,-0.14823z" opacity="0.323"/><path d="M66.887,198.63047c0.0777,0.42822 0.24265,0.7988 0.49487,1.11167c-0.14206,0.25894 -0.26265,0.51988 -0.36194,0.78272c-0.11442,-0.6408 -0.15858,-1.27221 -0.13294,-1.89438z"/><path d="M86.25437,189.47591c0.19758,-0.08796 0.3953,-0.17599 0.59289,-0.26394c0.88147,0.83035 1.81557,1.59855 2.80191,2.3046c-0.20541,-0.10355 -0.32888,-0.0486 -0.37056,0.16496c0.09522,0.70618 0.13682,1.39805 0.1248,2.07559c-0.16774,-0.7103 -0.47562,-1.40192 -0.92378,-2.07512c-0.14823,0.066 -0.29645,0.13196 -0.44468,0.19797c-0.28918,-0.57259 -0.36327,-0.53961 -0.22233,0.09897c-0.17019,0.01663 -0.34046,0.03311 -0.51066,0.04974c-0.14435,0.21788 -0.25135,0.44311 -0.32081,0.67561c-0.22882,-0.53358 -0.35004,-1.07154 -0.3634,-1.61419c-0.01336,-0.54265 -0.13456,-1.08061 -0.36339,-1.61418z"/><path d="M91.93751,189.0771c0.23962,-0.02267 0.40446,0.08155 0.49439,0.31269c-0.23962,0.02267 -0.40446,-0.08155 -0.49439,-0.31269z" opacity="0.322"/><path d="M75.963,197.07646c-1.80874,0.79206 -3.62589,1.63065 -5.45123,2.51552c-0.11099,0.52822 -0.171,1.05805 -0.18025,1.58981c-0.28436,-0.57811 -0.3781,-1.18762 -0.28115,-1.82839c1.98868,-0.77004 3.95959,-1.52897 5.91263,-2.27693z" opacity="0.404"/><path d="M78.72948,195.31211c0.41314,0.22312 0.73729,0.55232 0.97254,0.98783c-0.45315,-0.18615 -0.77735,-0.51547 -0.97254,-0.98783z" opacity="0.424"/><path d="M75.963,197.07646c0.29659,0.17237 0.52742,0.42479 0.69234,0.75736c-0.339,-0.1336 -0.56983,-0.38603 -0.69234,-0.75736z" opacity="0.024"/><path d="M67.08592,200.67308c0.0777,0.42822 0.24265,0.7988 0.49487,1.11167c-0.22868,0.22435 -0.34946,0.48519 -0.36194,0.78272c-0.18264,-0.63565 -0.2268,-1.26705 -0.13294,-1.89438z"/><path d="M76.72133,197.98204c0.339,0.1336 0.56984,0.38603 0.69234,0.75737c-0.29659,-0.17237 -0.52742,-0.4248 -0.69234,-0.75737z" opacity="0.251"/><path d="M89.40342,193.75714c-0.05485,0.14287 -0.10962,0.28553 -0.16447,0.4284c-0.50969,-0.02669 -0.99837,0.07238 -1.46598,0.29741c0.09151,0.1461 0.13288,0.30527 0.12385,0.47766c-0.07133,-0.02738 -0.14288,-0.05485 -0.2142,-0.08223c0.16508,0.63691 0.06637,0.68085 -0.29644,0.13197c0.10377,0.40224 0.06291,0.77562 -0.12287,1.12027c-0.09573,-1.15652 -0.18968,-2.29874 -0.28213,-3.42632c0.06948,-0.23249 0.17647,-0.45772 0.32081,-0.67562c0.17019,-0.01663 0.34045,-0.03311 0.51065,-0.04973c-0.14096,-0.63858 -0.06684,-0.67158 0.22235,-0.09897c0.14823,-0.066 0.29644,-0.13197 0.44467,-0.19797c0.44818,0.6732 0.75605,1.36482 0.92378,2.07513z" opacity="0.992"/><path d="M67.26858,203.07811c0.14019,0.22955 0.18966,0.47393 0.14871,0.73297c0.9705,-0.34324 1.92014,-0.7365 2.84922,-1.17959c-0.89495,0.5744 -1.86118,1.06368 -2.89846,1.46791c-0.19396,-0.33953 -0.22705,-0.68 -0.09947,-1.02131z" opacity="0.039"/><path d="M80.80653,197.58421c0.29039,-0.03906 0.3947,0.06245 0.31317,0.30457c-1.00991,0.59538 -2.05843,1.03267 -3.14566,1.31156c1.09131,-0.37465 2.03535,-0.91337 2.83248,-1.61612z" opacity="0.043"/><path d="M89.40342,193.75714c0.14999,0.29784 0.16112,0.58893 0.03347,0.87307c-0.06601,-0.14823 -0.13195,-0.29645 -0.19795,-0.44466c0.05485,-0.14287 0.10962,-0.28553 0.16447,-0.4284z" opacity="0.098"/><path d="M89.43689,194.6302c0.15019,0.41994 0.1559,0.83171 0.01723,1.23551c-0.15019,-0.41994 -0.1559,-0.83171 -0.01723,-1.23551z" opacity="0.063"/><path d="M87.26329,196.13063c0.22709,0.4507 0.35095,0.92835 0.37153,1.43297c-0.18657,-0.11195 -0.31005,-0.05698 -0.37055,0.16495c-0.04763,-0.54462 -0.04798,-1.07725 -0.00097,-1.59794z" opacity="0.925"/><path d="M89.40536,196.953c0.10639,0.33873 0.06817,0.6518 -0.11476,0.93907c-0.10639,-0.33873 -0.06817,-0.6518 0.11476,-0.93907z" opacity="0.039"/><path d="M89.29061,197.89207c0.11158,0.22152 0.0787,0.41375 -0.09849,0.57664c-0.11158,-0.22152 -0.0787,-0.41375 0.09849,-0.57664z" opacity="0.035"/><path d="M89.23894,194.18554c0.06601,0.14823 0.13196,0.29644 0.19795,0.44466c-0.13868,0.40379 -0.13297,0.81557 0.01722,1.2355c0.05509,0.37506 0.03883,0.7375 -0.04876,1.08728c-0.18292,0.28725 -0.22114,0.60033 -0.11476,0.93907c-0.17719,0.16289 -0.21008,0.35513 -0.09849,0.57664c-0.40506,2.70929 -1.28203,5.2605 -2.63114,7.65356c-0.33897,0.52597 -0.71203,1.0176 -1.11931,1.47507c-0.23115,0.08994 -0.33537,0.25479 -0.31269,0.49439c-0.21969,0.36224 -0.49951,0.66439 -0.8396,0.90655c-0.56595,0.15212 -0.70341,-0.02341 -0.41216,-0.5269c0.19556,-0.50939 0.4589,-0.98181 0.78987,-1.41722c0.29507,-0.23437 0.45406,-0.54186 0.47717,-0.9228c0.50121,-1.41177 0.99999,-2.81785 1.49655,-4.21815c0.23774,-0.29853 0.3254,-0.63342 0.26295,-1.00505c0.07207,-1.06285 0.19222,-2.12261 0.36049,-3.17962c0.0605,-0.22194 0.18398,-0.27691 0.37055,-0.16496c-0.02058,-0.50463 -0.14443,-0.98228 -0.37153,-1.43297c0.18577,-0.34466 0.22664,-0.71803 0.12287,-1.12027c0.36281,0.54888 0.46152,0.50495 0.29645,-0.13196c0.07133,0.02738 0.14288,0.05485 0.2142,0.08223c0.00903,-0.1724 -0.03234,-0.33156 -0.12385,-0.47766c0.4676,-0.22502 0.95628,-0.32412 1.46597,-0.29742z" opacity="0.997"/><path d="M86.90377,200.90819c0.06243,0.37161 -0.02522,0.70652 -0.26296,1.00504c-0.06243,-0.37161 0.02522,-0.70652 0.26296,-1.00504z" opacity="0.239"/><path d="M85.14426,206.13136c-0.0231,0.38093 -0.18209,0.68844 -0.47717,0.92281c0.0231,-0.38093 0.18209,-0.68844 0.47717,-0.92281z" opacity="0.498"/><path d="M85.44166,207.59734c0.02267,0.23961 -0.08154,0.40446 -0.31269,0.49439c-0.02267,-0.23961 0.08154,-0.40446 0.31269,-0.49439z" opacity="0.004"/><path d="M83.8772,208.47137c-0.29125,0.50349 -0.15379,0.67903 0.41216,0.52691c-0.55624,0.8186 -1.29157,1.56045 -2.20611,2.22527c-0.09886,0.04401 -0.17019,0.01662 -0.21419,-0.08223c0.60494,-0.93102 1.27428,-1.8211 2.00816,-2.66993z" opacity="0.986"/><path d="M97.87901,216.2683c0.044,0.09885 0.11534,0.12625 0.2142,0.08223c-0.30539,0.38991 -0.6375,0.77449 -0.99596,1.15375c-0.13414,-0.10865 -0.22473,-0.24591 -0.27206,-0.41167c0.3513,-0.27484 0.70251,-0.54948 1.05381,-0.82431z" opacity="0.459"/></g></g></g></svg>