<svg version="1.1" xmlns="http://www.w3.org/2000/svg" xmlns:xlink="http://www.w3.org/1999/xlink" width="261.20345" height="327" viewBox="0,0,261.20345,327"><g transform="translate(-109.39827,-53)"><g data-paper-data="{&quot;isPaintingLayer&quot;:true}" fill="#ffffff" fill-rule="evenodd" stroke="none" stroke-width="1" stroke-linecap="butt" stroke-linejoin="miter" stroke-miterlimit="10" stroke-dasharray="" stroke-dashoffset="0" style="mix-blend-mode: normal"><g><path d="M261.10173,61c-2,0 -3,1 -3,3c-6.622,-3.3112 -13.289,-6.6446 -20,-10c0.5,-0.3333 1,-0.6667 1.5,-1c7.877,2.2027 15.043,4.8693 21.5,8z" opacity="0.989"/><path d="M276.10173,69c1.73,0.5256 3.064,1.5256 4,3c-2.132,-0.0544 -3.465,-1.0544 -4,-3z" opacity="0.616"/><path d="M269.10173,72c2.589,0.9194 4.589,2.586 6,5c-2.589,-0.9194 -4.589,-2.586 -6,-5z" opacity="0.365"/><path d="M261.10173,61c5.484,1.9068 10.484,4.5734 15,8c0.535,1.9456 1.868,2.9456 4,3c3.61,1.944 6.943,4.2774 10,7c0,2 1,3 3,3c5.366,4.366 10.033,9.366 14,15c0.58,2.249 1.913,3.915 4,5c0.238,1.904 1.238,3.238 3,4c-0.073,1.527 0.594,2.527 2,3c-0.073,1.527 0.594,2.527 2,3c-0.073,1.527 0.594,2.527 2,3c0.214,1.644 -0.12,3.144 -1,4.5c-3.834,0.2 -7.501,0.367 -11,0.5c0,-0.333 0,-0.667 0,-1c-0.695,-3.415 -2.362,-6.082 -5,-8c-1.39,-1.399 -2.39,-3.066 -3,-5c-0.37,-2.767 -1.704,-4.767 -4,-6c-6.603,-7.94 -13.603,-15.607 -21,-23c-1.411,-2.414 -3.411,-4.0806 -6,-5c-3.852,-2.4247 -7.519,-5.0914 -11,-8c0,-2 1,-3 3,-3z" opacity="0.998"/><path d="M290.10173,79c1.333,0.6667 2.333,1.6667 3,3c-2,0 -3,-1 -3,-3z" opacity="0.306"/><path d="M307.10173,97c2.087,1.085 3.42,2.751 4,5c-2.087,-1.085 -3.42,-2.751 -4,-5z" opacity="0.722"/><path d="M296.10173,100c2.296,1.233 3.63,3.233 4,6c-1.816,-1.618 -3.149,-3.618 -4,-6z" opacity="0.937"/><path d="M311.10173,102c1.762,0.762 2.762,2.096 3,4c-1.762,-0.762 -2.762,-2.096 -3,-4z" opacity="0.588"/><path d="M314.10173,106c1.406,0.473 2.073,1.473 2,3c-1.406,-0.473 -2.073,-1.473 -2,-3z" opacity="0.125"/><path d="M303.10173,111c2.638,1.918 4.305,4.585 5,8c-2.153,-2.294 -3.82,-4.96 -5,-8z" opacity="0.69"/><path d="M316.10173,109c1.406,0.473 2.073,1.473 2,3c-1.406,-0.473 -2.073,-1.473 -2,-3z" opacity="0.247"/><path d="M318.10173,112c1.406,0.473 2.073,1.473 2,3c-1.406,-0.473 -2.073,-1.473 -2,-3z" opacity="0.086"/><path d="M323.10173,121c1.75,1.159 2.75,2.826 3,5c-1.75,-1.159 -2.75,-2.826 -3,-5z" opacity="0.102"/><path d="M320.10173,115c1.508,1.681 2.508,3.681 3,6c0.25,2.174 1.25,3.841 3,5c0,0.333 0,0.667 0,1c-0.134,1.792 0.199,3.458 1,5c-4.667,0 -9.333,0 -14,0c0.241,-2.398 -0.426,-4.398 -2,-6c-1,-2 -2,-4 -3,-6c3.499,-0.133 7.166,-0.3 11,-0.5c0.88,-1.356 1.214,-2.856 1,-4.5z" opacity="0.983"/><path d="M191.10173,132c-26.839,-0.331 -53.505,0.002 -80,1c-1.5281,-0.017 -2.0281,-0.684 -1.5,-2c1.231,-0.608 2.5643,-0.941 4,-1c25.015,1.315 50.015,1.315 75,0c1.301,0.139 2.134,0.805 2.5,2z" opacity="0.17"/><path d="M238.10173,132c-11.845,-0.328 -23.512,0.005 -35,1c-2.512,-0.716 -2.512,-1.716 0,-3c11.795,0.647 23.462,1.314 35,2z" opacity="0.175"/><path d="M311.10173,126c1.574,1.602 2.241,3.602 2,6c-14.51,-0.329 -28.843,0.004 -43,1c-1.24,-1.814 -0.573,-2.814 2,-3c12.64,1.129 25.307,1.295 38,0.5c0.693,-1.684 1.026,-3.184 1,-4.5z" opacity="0.152"/><path d="M326.10173,127c0.891,0.761 1.558,1.761 2,3c2.131,0.669 4.131,1.335 6,2c-2.333,0 -4.667,0 -7,0c-0.801,-1.542 -1.134,-3.208 -1,-5z" opacity="0.192"/><path d="M270.10173,133c14.157,-0.996 28.49,-1.329 43,-1c4.667,0 9.333,0 14,0c2.333,0 4.667,0 7,0c6.771,-0.108 12.438,2.226 17,7c1,1.667 2.333,3 4,4c1.762,0.762 2.762,2.096 3,4c-0.073,1.527 0.594,2.527 2,3c2.184,8.245 2.517,16.578 1,25c-0.563,2.795 -1.896,5.128 -4,7c-1.406,0.473 -2.073,1.473 -2,3c-3.001,2.993 -6.335,5.659 -10,8c0.363,0.683 0.696,1.35 1,2c0.238,1.904 1.238,3.238 3,4c0.238,1.904 1.238,3.238 3,4c0.238,1.904 1.238,3.238 3,4c-0.073,1.527 0.594,2.527 2,3c1.762,0.762 2.762,2.096 3,4c0.58,2.249 1.913,3.915 4,5c-0.073,1.527 0.594,2.527 2,3c2.625,2.103 4.125,4.77 4.5,8c-8.882,-0.122 -17.549,-0.122 -26,0c-2.857,-5.055 -5.691,-10.055 -8.5,-15c-3.784,-6.448 -7.118,-13.115 -10,-20c-1.333,0 -2.667,0 -4,0c-7.333,0 -14.667,0 -22,0c0,11.333 0,22.667 0,34c-4.667,0 -9.333,0 -14,0c-1.333,0 -2.667,0 -4,0c0.659,-29.686 -0.008,-59.019 -2,-88c-0.667,0 -1,-0.333 -1,-1c-1.085,-2.087 -2.751,-3.42 -5,-4c-0.333,-1 -1,-1.667 -2,-2c-0.667,-0.333 -1.333,-0.667 -2,-1zM319.10173,150c0,0.667 0,1.333 0,2c0.926,7.148 1.926,14.148 3,21c0.225,2.216 -0.608,3.883 -2.5,5c-6.085,-0.812 -12.252,-1.312 -18.5,-1.5c0.105,-8.608 0.105,-16.941 0,-25c5.879,-1.41 11.879,-1.91 18,-1.5zM338.10173,153c1.346,2.037 2.68,4.037 4,6c0.057,1.109 0.39,2.109 1,3c-0.854,1.132 -0.854,2.465 0,4c0,0.333 0,0.667 0,1c-1.249,2.59 -2.916,4.924 -5,7c-0.677,-6.502 -1.677,-12.836 -3,-19c-0.149,-1.052 0.017,-2.052 0.5,-3c0.671,0.752 1.504,1.086 2.5,1z"/><path d="M191.10173,132c1.333,6 1.333,12 0,18c-17.333,0 -34.667,0 -52,0c0,7.667 0,15.333 0,23c12.489,0.995 25.156,1.329 38,1c0,5.667 0,11.333 0,17c-12.667,0 -25.333,0 -38,0c0,12.667 0,25.333 0,38c-6.244,0.958 -12.577,1.291 -19,1c-0.4407,-24.972 -0.4407,-49.972 0,-75c0.6128,-5.771 -0.0539,-11.104 -2,-16c-2.5599,-1.773 -4.8932,-3.773 -7,-6c26.495,-0.998 53.161,-1.331 80,-1z"/><path d="M238.10173,132c-0.38,2.198 0.287,3.865 2,5c-0.241,2.398 0.426,4.398 2,6c-0.155,3.216 0.845,5.883 3,8c0,0.333 0,0.667 0,1c-0.38,2.198 0.287,3.865 2,5c-0.446,2.51 0.22,4.51 2,6c-0.155,3.216 0.845,5.883 3,8c0,0.333 0,0.667 0,1c-0.38,2.198 0.287,3.865 2,5c-0.241,2.398 0.426,4.398 2,6c-0.241,2.398 0.426,4.398 2,6c-0.214,1.644 0.12,3.144 1,4.5c-0.808,0.308 -1.475,0.808 -2,1.5c1.688,1.688 3.354,3.354 5,5c-0.155,3.216 0.845,5.883 3,8c0,0.333 0,0.667 0,1c-0.085,3.149 0.915,5.816 3,8c1.576,3.155 2.576,6.488 3,10c-6.25,1.959 -12.916,2.626 -20,2c-1.174,-1.014 -1.84,-2.347 -2,-4c0.241,-2.398 -0.426,-4.398 -2,-6c0,-0.333 0,-0.667 0,-1c-0.095,-2.286 -0.762,-4.286 -2,-6c-12.872,-0.684 -25.872,-1.351 -39,-2c-2.152,3.365 -3.152,7.032 -3,11c0.111,0.617 0.444,1.117 1,1.5c-1.537,2.28 -2.703,4.78 -3.5,7.5c-0.383,-0.556 -0.883,-0.889 -1.5,-1c-6.342,0.166 -12.675,0 -19,-0.5c0.88,-1.356 1.214,-2.856 1,-4.5c0.057,-1.109 0.39,-2.109 1,-3c0.816,-1.644 2.15,-2.81 4,-3.5c-0.636,-2.394 -0.636,-4.894 0,-7.5c0,-0.333 0,-0.667 0,-1c1.218,-1.231 2.551,-2.398 4,-3.5c-0.636,-2.394 -0.636,-4.894 0,-7.5c0.333,-0.667 0.667,-1.333 1,-2c0.934,-1.068 1.268,-2.401 1,-4c2.397,-2.809 3.73,-6.142 4,-10c0,-0.333 0,-0.667 0,-1c1.972,-2.584 2.972,-5.584 3,-9c1.713,-1.135 2.38,-2.802 2,-5c0,-0.333 0,-0.667 0,-1c1.174,-1.014 1.84,-2.347 2,-4c1.704,-3.439 3.038,-7.105 4,-11c0.06,-2.841 0.726,-5.507 2,-8c1.638,-1.205 1.971,-2.538 1,-4c-0.473,-1.406 -1.473,-2.073 -3,-2c-1.639,-0.973 -2.973,-2.306 -4,-4c11.488,-0.995 23.155,-1.328 35,-1zM227.10173,159c0.762,4.285 2.095,8.285 4,12c0.095,2.286 0.762,4.286 2,6c0.095,2.286 0.762,4.286 2,6c0.762,4.285 2.095,8.285 4,12c0,1 0,2 0,3c-0.667,0 -1.333,0 -2,0c0,-1.333 -0.667,-2 -2,-2c-0.342,-0.838 -1.008,-1.172 -2,-1c-6.644,-1.775 -13.31,-2.775 -20,-3c1.431,-1.28 2.098,-2.947 2,-5c0,-0.333 0,-0.667 0,-1c1.431,-1.28 2.098,-2.947 2,-5c1.23,-1.797 1.896,-3.797 2,-6c1.238,-1.714 1.905,-3.714 2,-6c1.238,-1.714 1.905,-3.714 2,-6c0.904,-0.709 1.237,-1.709 1,-3c0.722,-0.418 1.222,-1.084 1.5,-2c0.383,0.556 0.883,0.889 1.5,1z" opacity="0.999"/><path d="M238.10173,132c1.431,1.28 2.098,2.947 2,5c-1.713,-1.135 -2.38,-2.802 -2,-5z" opacity="0.639"/><path d="M272.10173,134c1,0.333 1.667,1 2,2c-1.333,0 -2,-0.667 -2,-2z" opacity="0.008"/><path d="M274.10173,136c2.249,0.58 3.915,1.913 5,4c-2.249,-0.58 -3.915,-1.913 -5,-4z" opacity="0.573"/><path d="M207.10173,137c1.527,-0.073 2.527,0.594 3,2c-1.527,0.073 -2.527,-0.594 -3,-2z" opacity="0.314"/><path d="M351.10173,139c2.333,0.333 3.667,1.667 4,4c-1.667,-1 -3,-2.333 -4,-4z" opacity="0.008"/><path d="M210.10173,139c0.971,1.462 0.638,2.795 -1,4c-0.067,-1.459 0.266,-2.792 1,-4z" opacity="0.227"/><path d="M240.10173,137c1.238,1.714 1.905,3.714 2,6c-1.574,-1.602 -2.241,-3.602 -2,-6z" opacity="0.392"/><path d="M118.10173,139c1.9461,4.896 2.6128,10.229 2,16c-0.7099,-5.232 -1.3765,-10.565 -2,-16z" opacity="0.056"/><path d="M242.10173,143c1.371,2.436 2.371,5.103 3,8c-2.155,-2.117 -3.155,-4.784 -3,-8z" opacity="0.482"/><path d="M358.10173,147c1.406,0.473 2.073,1.473 2,3c-1.406,-0.473 -2.073,-1.473 -2,-3z" opacity="0.067"/><path d="M191.10173,150c-16.825,0.997 -33.825,1.33 -51,1c0.088,7.544 0.088,14.877 0,22c-0.333,0 -0.667,0 -1,0c0,-7.667 0,-15.333 0,-23c17.333,0 34.667,0 52,0z" opacity="0.082"/><path d="M207.10173,151c-0.962,3.895 -2.296,7.561 -4,11c0.177,-4.208 1.51,-7.874 4,-11z" opacity="0.404"/><path d="M336.10173,151c1,0.333 1.667,1 2,2c-0.996,0.086 -1.829,-0.248 -2.5,-1c-0.483,0.948 -0.649,1.948 -0.5,3c-0.624,-0.417 -0.957,-1.084 -1,-2c0.247,-1.213 0.914,-1.88 2,-2z" opacity="0.09"/><path d="M338.10173,153c3.197,0.612 4.531,2.612 4,6c-1.32,-1.963 -2.654,-3.963 -4,-6z" opacity="0.992"/><path d="M245.10173,152c1.037,1.43 1.704,3.097 2,5c-1.713,-1.135 -2.38,-2.802 -2,-5z" opacity="0.655"/><path d="M319.10173,150c5.858,-0.322 11.525,0.011 17,1c-1.086,0.12 -1.753,0.787 -2,2c0.043,0.916 0.376,1.583 1,2c0.181,7.191 0.848,14.191 2,21c-0.418,0.722 -1.084,1.222 -2,1.5c-3.986,0.499 -7.986,0.666 -12,0.5c0.284,-1.915 -0.049,-3.581 -1,-5c0.37,-7.338 -0.63,-14.338 -3,-21c0,-0.667 0,-1.333 0,-2z" opacity="0.99"/><path d="M227.10173,159c-0.617,-0.111 -1.117,-0.444 -1.5,-1c-0.278,0.916 -0.778,1.582 -1.5,2c0,-1 0,-2 0,-3c1.679,-0.215 2.679,0.452 3,2z" opacity="0.133"/><path d="M247.10173,157c1.238,1.714 1.905,3.714 2,6c-1.78,-1.49 -2.446,-3.49 -2,-6z" opacity="0.757"/><path d="M203.10173,162c-0.16,1.653 -0.826,2.986 -2,4c-0.271,-1.88 0.396,-3.213 2,-4z" opacity="0.322"/><path d="M343.10173,162c1.186,1.461 1.186,2.795 0,4c-0.854,-1.535 -0.854,-2.868 0,-4z" opacity="0.471"/><path d="M223.10173,163c-0.095,2.286 -0.762,4.286 -2,6c-0.241,-2.398 0.426,-4.398 2,-6z" opacity="0.169"/><path d="M249.10173,163c1.371,2.436 2.371,5.103 3,8c-2.155,-2.117 -3.155,-4.784 -3,-8z" opacity="0.537"/><path d="M319.10173,152c2.37,6.662 3.37,13.662 3,21c-1.074,-6.852 -2.074,-13.852 -3,-21z" opacity="0.082"/><path d="M335.10173,155c1.323,6.164 2.323,12.498 3,19c2.084,-2.076 3.751,-4.41 5,-7c0.157,1.373 -0.01,2.707 -0.5,4c-1.076,2.579 -2.909,4.246 -5.5,5c-1.152,-6.809 -1.819,-13.809 -2,-21z" opacity="0.216"/><path d="M201.10173,167c0.38,2.198 -0.287,3.865 -2,5c-0.098,-2.053 0.569,-3.72 2,-5z" opacity="0.643"/><path d="M221.10173,169c-0.095,2.286 -0.762,4.286 -2,6c-0.241,-2.398 0.426,-4.398 2,-6z" opacity="0.18"/><path d="M177.10173,173c0,0.333 0,0.667 0,1c-12.844,0.329 -25.511,-0.005 -38,-1c0.333,0 0.667,0 1,0c12.384,-0.251 24.717,-0.251 37,0z" opacity="0.576"/><path d="M231.10173,171c1.574,1.602 2.241,3.602 2,6c-1.238,-1.714 -1.905,-3.714 -2,-6z" opacity="0.2"/><path d="M199.10173,172c-0.028,3.416 -1.028,6.416 -3,9c0.428,-3.285 1.428,-6.285 3,-9z" opacity="0.435"/><path d="M252.10173,172c1.431,1.28 2.098,2.947 2,5c-1.713,-1.135 -2.38,-2.802 -2,-5z" opacity="0.682"/><path d="M280.10173,141c1.992,28.981 2.659,58.314 2,88c-0.841,0.509 -1.341,-0.157 -1.5,-2c-0.5,-28.665 -0.667,-57.331 -0.5,-86z" opacity="0.605"/><path d="M319.10173,150c-6.121,-0.41 -12.121,0.09 -18,1.5c0.105,8.059 0.105,16.392 0,25c6.248,0.188 12.415,0.688 18.5,1.5c1.892,-1.117 2.725,-2.784 2.5,-5c0.951,1.419 1.284,3.085 1,5c-7.482,0.992 -15.148,1.325 -23,1c-0.166,-9.672 0,-19.339 0.5,-29c6.266,-1.326 12.432,-1.326 18.5,0z" opacity="0.377"/><path d="M233.10173,177c1.574,1.602 2.241,3.602 2,6c-1.238,-1.714 -1.905,-3.714 -2,-6z" opacity="0.165"/><path d="M254.10173,177c1.238,1.714 1.905,3.714 2,6c-1.574,-1.602 -2.241,-3.602 -2,-6z" opacity="0.478"/><path d="M357.10173,182c0.073,1.527 -0.594,2.527 -2,3c-0.073,-1.527 0.594,-2.527 2,-3z" opacity="0.016"/><path d="M217.10173,181c0.098,2.053 -0.569,3.72 -2,5c-0.098,-2.053 0.569,-3.72 2,-5z" opacity="0.216"/><path d="M196.10173,182c-0.27,3.858 -1.603,7.191 -4,10c0.767,-3.649 2.1,-6.982 4,-10z" opacity="0.827"/><path d="M256.10173,183c1.238,1.714 1.905,3.714 2,6c-1.574,-1.602 -2.241,-3.602 -2,-6z" opacity="0.584"/><path d="M215.10173,187c0.098,2.053 -0.569,3.72 -2,5c-0.098,-2.053 0.569,-3.72 2,-5z" opacity="0.243"/><path d="M213.10173,192c6.69,0.225 13.356,1.225 20,3c-6.945,-0.633 -13.945,-1.3 -21,-2c0.124,-0.607 0.457,-0.94 1,-1z" opacity="0.12"/><path d="M192.10173,192c0.268,1.599 -0.066,2.932 -1,4c-0.438,0.065 -0.772,-0.101 -1,-0.5c0.585,-1.302 1.251,-2.469 2,-3.5z" opacity="0.431"/><path d="M258.10173,189c2.084,3.301 3.418,6.968 4,11c-1.646,-1.646 -3.312,-3.312 -5,-5c0.525,-0.692 1.192,-1.192 2,-1.5c-0.88,-1.356 -1.214,-2.856 -1,-4.5z" opacity="0.984"/><path d="M235.10173,196c1.333,0 2,0.667 2,2c-1,-0.333 -1.667,-1 -2,-2z" opacity="0.004"/><path d="M346.10173,195c1.762,0.762 2.762,2.096 3,4c-1.762,-0.762 -2.762,-2.096 -3,-4z" opacity="0.384"/><path d="M239.10173,195c1.174,1.014 1.84,2.347 2,4c-0.333,0 -0.667,0 -1,0c0,-0.667 -0.333,-1 -1,-1c0,-1 0,-2 0,-3z" opacity="0.161"/><path d="M349.10173,199c1.762,0.762 2.762,2.096 3,4c-1.762,-0.762 -2.762,-2.096 -3,-4z" opacity="0.537"/><path d="M322.10173,195c-0.049,3.578 -0.715,6.911 -2,10c-0.208,-2.42 0.126,-4.753 1,-7c-0.667,-0.333 -1.333,-0.667 -2,-1c-6.002,-0.986 -11.836,-1.319 -17.5,-1c-0.372,11.489 -0.539,22.823 -0.5,34c-5.195,0.321 -10.195,-0.013 -15,-1c4.667,0 9.333,0 14,0c0,-11.333 0,-22.667 0,-34c7.333,0 14.667,0 22,0z" opacity="0.393"/><path d="M262.10173,200c1.371,2.436 2.371,5.103 3,8c-2.155,-2.117 -3.155,-4.784 -3,-8z" opacity="0.573"/><path d="M352.10173,203c1.762,0.762 2.762,2.096 3,4c-1.762,-0.762 -2.762,-2.096 -3,-4z" opacity="0.557"/><path d="M177.10173,173c0.665,2.982 0.998,6.148 1,9.5c0.13,3.684 -0.37,7.184 -1.5,10.5c-12.037,-0.63 -24.203,-0.63 -36.5,0c-0.321,11.914 0.012,23.747 1,35.5c-0.756,1.38 -1.422,1.547 -2,0.5c0,-12.667 0,-25.333 0,-38c12.667,0 25.333,0 38,0c0,-5.667 0,-11.333 0,-17c0,-0.333 0,-0.667 0,-1z" opacity="0.323"/><path d="M190.10173,198c-0.636,2.606 -0.636,5.106 0,7.5c-1.449,1.102 -2.782,2.269 -4,3.5c0.962,-3.895 2.296,-7.561 4,-11z"/><path d="M322.10173,195c1.333,0 2.667,0 4,0c2.882,6.885 6.216,13.552 10,20c-0.897,-1.098 -1.73,-1.098 -2.5,0c-1.234,4.215 -2.734,8.215 -4.5,12c0.836,-4.42 0.836,-9.086 0,-14c-1,0 -2,0 -3,0c-0.193,-3.949 -0.693,-3.949 -1.5,0c-1,-0.333 -2,-0.667 -3,-1c-1.359,0.865 -2.526,1.865 -3.5,3c0.049,-3.578 0.715,-6.911 2,-10c1.285,-3.089 1.951,-6.422 2,-10z"/><path d="M355.10173,207c1.406,0.473 2.073,1.473 2,3c-1.406,-0.473 -2.073,-1.473 -2,-3z" opacity="0.322"/><path d="M245.10173,212c-12.17,-0.074 -24.504,0.093 -37,0.5c-1.949,2.696 -3.615,5.529 -5,8.5c-0.152,-3.968 0.848,-7.635 3,-11c13.128,0.649 26.128,1.316 39,2z" opacity="0.404"/><path d="M265.10173,209c1.767,2.292 2.767,4.958 3,8c-2.085,-2.184 -3.085,-4.851 -3,-8z" opacity="0.424"/><path d="M245.10173,212c1.238,1.714 1.905,3.714 2,6c-1.574,-1.602 -2.241,-3.602 -2,-6z" opacity="0.024"/><path d="M186.10173,210c-0.636,2.606 -0.636,5.106 0,7.5c-1.85,0.69 -3.184,1.856 -4,3.5c0.565,-4.037 1.899,-7.703 4,-11z"/><path d="M247.10173,219c1.574,1.602 2.241,3.602 2,6c-1.238,-1.714 -1.905,-3.714 -2,-6z" opacity="0.251"/><path d="M329.10173,227c-0.667,0.667 -1.333,1.333 -2,2c-2.803,-1.428 -5.803,-2.095 -9,-2c0.149,1.052 -0.017,2.052 -0.5,3c-0.333,-0.333 -0.667,-0.667 -1,-1c-0.667,4 -1.333,4 -2,0c-0.424,2.525 -1.59,4.525 -3.5,6c2.36,-6.752 4.694,-13.419 7,-20c0.974,-1.135 2.141,-2.135 3.5,-3c1,0.333 2,0.667 3,1c0.807,-3.949 1.307,-3.949 1.5,0c1,0 2,0 3,0c0.836,4.914 0.836,9.58 0,14z" opacity="0.992"/><path d="M181.10173,224c0.214,1.644 -0.12,3.144 -1,4.5c6.325,0.5 12.658,0.666 19,0.5c-6.479,0.991 -13.146,1.324 -20,1c-0.241,-2.398 0.426,-4.398 2,-6z" opacity="0.039"/><path d="M271.10173,227c1.733,0.508 2.066,1.341 1,2.5c-7.179,0.821 -14.179,0.655 -21,-0.5c7.084,0.626 13.75,-0.041 20,-2z" opacity="0.043"/><path d="M329.10173,227c0.098,2.053 -0.569,3.72 -2,5c0,-1 0,-2 0,-3c0.667,-0.667 1.333,-1.333 2,-2z" opacity="0.098"/><path d="M327.10173,232c-0.207,2.741 -1.207,5.074 -3,7c0.207,-2.741 1.207,-5.074 3,-7z" opacity="0.063"/><path d="M311.10173,235c0.149,3.107 -0.351,6.107 -1.5,9c-0.77,-1.098 -1.603,-1.098 -2.5,0c1.097,-3.186 2.43,-6.186 4,-9z" opacity="0.925"/><path d="M321.10173,245c-0.25,2.174 -1.25,3.841 -3,5c0.25,-2.174 1.25,-3.841 3,-5z" opacity="0.039"/><path d="M318.10173,250c0.073,1.527 -0.594,2.527 -2,3c-0.073,-1.527 0.594,-2.527 2,-3z" opacity="0.035"/><path d="M327.10173,229c0,1 0,2 0,3c-1.793,1.926 -2.793,4.259 -3,7c-0.63,2.25 -1.63,4.25 -3,6c-1.75,1.159 -2.75,2.826 -3,5c-1.406,0.473 -2.073,1.473 -2,3c-9.072,14.24 -20.405,26.407 -34,36.5c-3.227,2.112 -6.56,3.945 -10,5.5c-1.527,-0.073 -2.527,0.594 -3,2c-2.145,1.489 -4.478,2.489 -7,3c-3.568,-0.562 -3.902,-1.895 -1,-4c2.378,-2.378 5.045,-4.378 8,-6c2.249,-0.58 3.915,-1.913 5,-4c6.361,-6.693 12.694,-13.36 19,-20c2.087,-1.085 3.42,-2.751 4,-5c3.07,-5.804 6.403,-11.47 10,-17c0.897,-1.098 1.73,-1.098 2.5,0c1.149,-2.893 1.649,-5.893 1.5,-9c1.91,-1.475 3.076,-3.475 3.5,-6c0.667,4 1.333,4 2,0c0.333,0.333 0.667,0.667 1,1c0.483,-0.948 0.649,-1.948 0.5,-3c3.197,-0.095 6.197,0.572 9,2z" opacity="0.997"/><path d="M297.10173,261c-0.58,2.249 -1.913,3.915 -4,5c0.58,-2.249 1.913,-3.915 4,-5z" opacity="0.239"/><path d="M274.10173,286c-1.085,2.087 -2.751,3.42 -5,4c1.085,-2.087 2.751,-3.42 5,-4z" opacity="0.498"/><path d="M272.10173,295c-0.473,1.406 -1.473,2.073 -3,2c0.473,-1.406 1.473,-2.073 3,-2z" opacity="0.004"/><path d="M261.10173,296c-2.902,2.105 -2.568,3.438 1,4c-5.184,3.215 -11.184,5.549 -18,7c-0.667,0 -1,-0.333 -1,-1c5.74,-3.726 11.74,-7.06 18,-10z" opacity="0.986"/><path d="M320.39827,375c0,0.667 0.333,1 1,1c-2.697,1.43 -5.531,2.763 -8.5,4c-0.483,-0.948 -0.649,-1.948 -0.5,-3c2.667,-0.667 5.333,-1.333 8,-2z" opacity="0.459"/></g></g></g></svg>