<svg version="1.1" xmlns="http://www.w3.org/2000/svg" xmlns:xlink="http://www.w3.org/1999/xlink" width="359.73091" height="179.57567" viewBox="0,0,359.73091,179.57567"><defs><linearGradient x1="219.59971" y1="146.22921" x2="244.17975" y2="145.71607" gradientUnits="userSpaceOnUse" id="color-1"><stop offset="0" stop-color="#71648d"/><stop offset="1" stop-color="#64888d"/></linearGradient><linearGradient x1="29.18636" y1="233.61454" x2="117.49076" y2="231.7711" gradientUnits="userSpaceOnUse" id="color-2"><stop offset="0" stop-color="#71648d"/><stop offset="1" stop-color="#64888d"/></linearGradient><linearGradient x1="73.02043" y1="168.54579" x2="73.02043" y2="231.84737" gradientUnits="userSpaceOnUse" id="color-3"><stop offset="0" stop-color="#b295ed"/><stop offset="1" stop-color="#c4c4c4"/></linearGradient><linearGradient x1="214.79835" y1="188.16423" x2="216.16496" y2="253.62729" gradientUnits="userSpaceOnUse" id="color-4"><stop offset="0" stop-color="#e3e3e3"/><stop offset="1" stop-color="#c2adec"/></linearGradient><linearGradient x1="248.49847" y1="194.58921" x2="249.70055" y2="252.17086" gradientUnits="userSpaceOnUse" id="color-5"><stop offset="0" stop-color="#e3e3e3"/><stop offset="1" stop-color="#c2adec"/></linearGradient><linearGradient x1="231.16512" y1="156.2389" x2="365.71591" y2="153.43001" gradientUnits="userSpaceOnUse" id="color-6"><stop offset="0" stop-color="#71648d"/><stop offset="1" stop-color="#64888d"/></linearGradient><linearGradient x1="233.48869" y1="173.88243" x2="366.47379" y2="171.10623" gradientUnits="userSpaceOnUse" id="color-7"><stop offset="0" stop-color="#71648d"/><stop offset="1" stop-color="#64888d"/></linearGradient><linearGradient x1="116.12268" y1="182.45706" x2="174.18261" y2="174.65919" gradientUnits="userSpaceOnUse" id="color-8"><stop offset="0" stop-color="#c9b1d9"/><stop offset="1" stop-color="#80c1d9"/></linearGradient></defs><g transform="translate(-20.84422,-108.4583)"><g data-paper-data="{&quot;isPaintingLayer&quot;:true}" stroke-linejoin="miter" stroke-miterlimit="10" stroke-dasharray="" stroke-dashoffset="0" style="mix-blend-mode: normal"><path d="M246.64031,203.4747l-1.25379,-10.16688l2.63587,-0.32507l1.25379,10.16688z" data-paper-data="{&quot;origPos&quot;:null,&quot;origRot&quot;:0}" fill="#454545" fill-rule="nonzero" stroke="none" stroke-width="0" stroke-linecap="butt"/><path d="M240.26221,200.3676c0.42918,3.48015 5.01719,9.7767 3.14552,10.00753c-1.87167,0.23082 -6.10532,-6.10945 -6.53449,-9.58959c-0.42918,-3.48015 1.62701,-8.59695 3.49867,-8.82777c1.87167,-0.23082 -0.5389,4.92969 -0.10971,8.40984z" data-paper-data="{&quot;origPos&quot;:null,&quot;origRot&quot;:0}" fill="#454545" fill-rule="nonzero" stroke="none" stroke-width="0" stroke-linecap="butt"/><g data-paper-data="{&quot;origPos&quot;:null,&quot;origRot&quot;:0}" fill-rule="nonzero" stroke="none" stroke-width="0" stroke-linecap="butt"><path d="M332.75517,151.0592c-0.53003,-4.29791 8.62379,-8.9639 12.05069,-9.38651c3.42689,-0.42261 6.6346,2.71894 7.16463,7.01684c0.53003,4.29791 -1.81835,8.12463 -5.24525,8.54725c-3.42689,0.42261 -13.44005,-1.87969 -13.97008,-6.17758z" data-paper-data="{&quot;origPos&quot;:null}" fill="#777777"/><path d="M323.75012,155.48279l-0.80491,-6.52689l15.61246,-1.92536l0.80491,6.52689z" data-paper-data="{&quot;origPos&quot;:null}" fill="#777777"/><path d="M317.73092,157.75419l-1.26927,-10.2924l10.80862,-1.33294l1.26927,10.2924z" data-paper-data="{&quot;origPos&quot;:null}" fill="#777777"/><path d="M342.76317,149.825c-0.22226,-1.80235 0.76254,-3.40711 2.19963,-3.58433c1.43709,-0.17722 2.78225,1.1402 3.00452,2.94255c0.22226,1.80235 -0.76253,3.40711 -2.19962,3.58433c-1.43709,0.17722 -2.78226,-1.1402 -3.00453,-2.94255z" data-paper-data="{&quot;origPos&quot;:null}" fill="#5a5a5a"/><path d="M205.594,169.54427l-0.80491,-6.52689l113.09022,-13.94646l0.80491,6.52689z" data-paper-data="{&quot;origPos&quot;:null}" fill="#707070"/><path d="M205.17927,171.12454l-1.17641,-9.5393l7.40591,-0.91332l1.17641,9.5393z" data-paper-data="{&quot;origPos&quot;:null}" fill="#7a7a7a"/><path d="M199.26949,175.93096l-2.10515,-17.0703l7.40591,-0.91332l2.10515,17.0703z" data-paper-data="{&quot;origPos&quot;:null}" fill="#616161"/></g><path d="" data-paper-data="{&quot;origPos&quot;:null}" fill="#737373" fill-rule="nonzero" stroke="none" stroke-width="0" stroke-linecap="butt"/><path d="M242.82643,150.19413l1.53107,4.03664l-24.32119,2.86563c0,0 -0.07618,-6.9822 -0.37533,-9.29235c-0.7924,-6.1191 10.22008,-16.79787 8.80845,-10.91323c-0.40394,1.68392 -3.37831,6.21718 -3.8794,8.80471c-0.44566,2.3014 3.05741,4.58326 3.05741,4.58326z" data-paper-data="{&quot;origPos&quot;:null,&quot;origRot&quot;:0}" fill="url(#color-1)" fill-rule="nonzero" stroke="none" stroke-width="0" stroke-linecap="butt"/><g fill-rule="nonzero" stroke-linecap="round"><path d="M150.2622,181.55551c3.25638,-0.30072 -0.59342,-2.96083 0.04333,0.32262c1.70469,13.14188 2.94097,26.41507 5.62487,39.43606c2.0084,9.74126 4.57083,19.37281 7.81274,28.83165c2.54806,7.42288 6.62753,14.10156 10.08495,21.30245c0.80046,1.7444 2.45738,-1.19429 -0.32251,0.04331c-11.1164,4.95258 -22.64331,10.43845 -34.05031,15.40908c-2.8527,1.2422 0.67079,1.86439 -0.36583,-0.2792c-4.1374,-8.57675 -8.62373,-17.29699 -12.06832,-26.28992c-2.40693,-6.2636 -4.48111,-13.35613 -5.99798,-20.20954c-3.0369,-13.72216 -4.76004,-27.74569 -7.09791,-41.60248c-0.74526,-4.35504 -1.18932,-8.88458 -2.05157,-13.31858c-0.12813,-1.07168 -3.5039,0.68734 -0.2792,0.36583c12.87648,-1.30519 25.63677,-2.81015 38.66769,-4.01129z" data-paper-data="{&quot;origPos&quot;:null}" fill="#e3e3e3" stroke="none" stroke-width="0"/><path d="M166.45291,272.76715l-9.3533,-20.74397l-6.10389,-18.55359l-3.62941,-17.2441l-4.54393,-28.94235" data-paper-data="{&quot;origPos&quot;:null}" fill="none" stroke="#c2adec" stroke-width="2.12828"/><path d="M163.20815,275.50155l-10.34489,-23.23784l-6.23382,-19.5211l-6.32516,-25.09111l-2.94577,-21.933" data-paper-data="{&quot;origPos&quot;:null}" fill="none" stroke="#c2adec" stroke-width="2.12828"/><path d="M155.59711,277.50884l-16.05421,-33.96366l-6.84511,-28.96159l-4.45716,-28.29725" data-paper-data="{&quot;origPos&quot;:null}" fill="none" stroke="#c2adec" stroke-width="2.12828"/><path d="M146.1614,283.04475l-7.90448,-12.40116l-10.65292,-30.42033l-4.92901,-26.92046l-3.1431,-25.84681" data-paper-data="{&quot;origPos&quot;:null}" fill="none" stroke="#c2adec" stroke-width="2.12828"/></g><path d="M246.56871,202.7619l-1.3636,-10.15274l2.63219,-0.35352l1.36359,10.15274z" fill="#71648d" fill-rule="nonzero" stroke="none" stroke-width="0" stroke-linecap="butt"/><path d="M240.1574,199.72392c0.46676,3.47531 5.12255,9.72191 3.25348,9.97294c-1.86907,0.25102 -6.17098,-6.04311 -6.63773,-9.51841c-0.46676,-3.47531 1.53401,-8.61403 3.40307,-8.86506c1.86907,-0.25102 -0.48558,4.93523 -0.01883,8.41054z" fill="#71648d" fill-rule="nonzero" stroke="none" stroke-width="0" stroke-linecap="butt"/><g fill-rule="nonzero" stroke="none" stroke-linecap="butt"><path d="M296.17046,148.10762l-0.44371,-3.30367l23.45604,-3.15033l0.44371,3.30367z" data-paper-data="{&quot;origPos&quot;:null}" fill="#5f5f5f" stroke-width="0"/><path d="M31.10343,239.7117l-2.02634,-11.33111l88.07488,-12.83808l-8.12124,7.14462l-44.88344,19.05246l-10.87202,3.72789l-17.80085,4.25145z" data-paper-data="{&quot;origPos&quot;:null}" fill="url(#color-2)" stroke-width="0"/><path d="M99.6307,222.75858l-70.00464,9.08879l-5.39846,-34.14393l3.75563,-22.24964l43.4508,-6.90801l11.67791,8.55138l27.11829,-3.30586l11.58303,37.41168z" data-paper-data="{&quot;origPos&quot;:null}" fill="url(#color-3)" stroke-width="0"/><path d="M108.00479,178.34592l-1.12289,-8.36063l67.814,-9.10792l1.12289,8.36062z" data-paper-data="{&quot;origPos&quot;:null}" fill="#393939" stroke-width="0"/><path d="M107.83121,191.1364l-2.12102,-15.7923l72.92327,-9.79413l2.12102,15.7923z" data-paper-data="{&quot;origPos&quot;:null}" fill="#e3e3e3" stroke-width="0"/><path d="M344.31105,143.49447c0,0 -1.04465,-8.80756 -1.77887,-15.83911c-0.14613,-1.39955 -2.54497,-8.64817 -10.24037,-7.7302c-48.85819,5.82817 -74.31283,8.39918 -123.10765,14.77707c-7.17445,0.93777 -7.35296,0.22877 -9.20653,5.59149c-0.88163,2.55072 0.06112,23.91656 0.06112,23.91656l-24.78944,2.37972c0,0 1.29915,-26.60251 1.83497,-35.58028c0.25316,-4.24174 1.78814,-8.84925 19.47154,-11.05637c41.07446,-5.12663 107.23488,-9.10279 148.65807,-11.47604c3.35188,-0.32746 14.29771,3.62601 14.98108,8.00118c1.40162,8.97367 2.94046,24.48774 2.94046,24.48774z" data-paper-data="{&quot;origPos&quot;:null}" fill="#e3e3e3" stroke-width="0"/><g data-paper-data="{&quot;origPos&quot;:null}" stroke-width="0"><path d="M196.94895,248.22584c0,0 -0.81239,-14.78682 1.6273,-23.88125c1.39657,-5.20598 4.79684,-12.3503 6.24579,-17.53981c0.73905,-2.64693 6.03687,-4.21269 6.7689,-6.86187c1.37023,-4.95891 -4.39774,-11.61991 -4.39774,-11.61991l26.89368,6.86511c0,0 -1.41502,4.19735 -2.8402,9.35514c-1.26312,4.57124 -4.75387,9.83301 -4.75387,9.83301l0.46163,10.30486l-5.32229,13.1002l1.60543,11.57481l-3.40559,4.1946z" data-paper-data="{&quot;origPos&quot;:null,&quot;origRot&quot;:0}" fill="url(#color-4)"/><path d="M213.50734,252.12044l1.402,-3.81253c0,0 8.79104,-0.5362 14.34974,-1.38574c7.02435,-1.07355 17.89278,-3.54193 17.89278,-3.54193l15.83029,-7.2287l18.43187,-42.24947l3.28603,1.13891l-16.96575,43.27538l-18.88038,9.05678c0,0 -11.73214,3.60502 -19.61801,4.93204c-5.99315,1.00851 -15.72854,-0.18473 -15.72854,-0.18473z" data-paper-data="{&quot;origPos&quot;:null}" fill="url(#color-5)"/><path d="M279.10052,201.80382l-13.29768,-10.65137l19.87816,-3.05845l-0.9059,7.50633z" data-paper-data="{&quot;origPos&quot;:null}" fill="#71648d"/></g><path d="M186.12961,178.72328l-2.25581,-16.79588l27.98894,-3.75912l2.25581,16.79588z" data-paper-data="{&quot;origPos&quot;:null}" fill="#e3e3e3" stroke-width="0"/><path d="M210.23639,173.3688l-2.5517,-14.63937l24.06574,-3.23221l1.88545,14.03835z" data-paper-data="{&quot;origPos&quot;:null}" fill="#626262" stroke-width="0"/><path d="M233.3708,171.99562l-2.22214,-16.54519l132.36157,-17.77714l2.22214,16.54519z" data-paper-data="{&quot;origPos&quot;:null}" fill="url(#color-6)" stroke-width="0"/><path d="M157.89909,220.2175l-42.50676,13.10319c0,0 -1.67999,-7.10263 -4.36015,-9.17286c-1.67184,-1.29137 -7.41994,-0.36532 -7.41994,-0.36532l4.13746,-33.81186l127.14769,-20.85974l3.1817,23.68971l-22.75431,2.54566c0,0 -17.64419,-3.30149 -27.79992,-1.81042c-5.76476,0.84636 -13.04549,6.42287 -19.93474,12.62749c-6.88925,6.20461 -9.69103,14.05416 -9.69103,14.05416z" data-paper-data="{&quot;origPos&quot;:null}" fill="#9181b1" stroke-width="0"/><g data-paper-data="{&quot;origPos&quot;:null}" fill="none" stroke-width="1" font-family="sans-serif" font-weight="normal" font-size="12" text-anchor="start"/><path d="M357.51213,167.12038l-1.58243,-11.78219l23.06299,-3.09753l1.58244,11.78219z" data-paper-data="{&quot;origPos&quot;:null}" fill="#4c4c4c" stroke-width="0"/><path d="M238.05049,192.58749l-4.65719,-23.27455l132.26057,-16.98975c0,0 1.59271,-0.13999 -1.24863,6.11594c-0.94711,2.08531 -4.33621,4.9058 -4.33621,4.9058l6.11303,2.77242l-5.38936,20.15503l-3.89791,0.19929l-6.8215,-6.08578l-11.5326,0.64443l-26.9322,3.77809z" data-paper-data="{&quot;origPos&quot;:null}" fill="url(#color-7)" stroke-width="0"/><path d="M326.09184,180.8988l0.97354,-5.76857c0,0 2.38779,-6.18029 3.50294,-6.38246c0.99777,-0.18089 3.81174,4.74568 3.81174,4.74568l2.74492,5.71576z" data-paper-data="{&quot;origPos&quot;:null,&quot;origRot&quot;:0}" fill="#e3e3e3" stroke-width="0"/><path d="M311.8117,182.5083l0.97354,-5.76856c0,0 2.38779,-6.18029 3.50294,-6.38246c0.99777,-0.18089 3.81173,4.74568 3.81173,4.74568l2.74492,5.71576z" data-paper-data="{&quot;origPos&quot;:null,&quot;origRot&quot;:0}" fill="#e3e3e3" stroke-width="0"/><path d="M296.744,183.91725l1.27772,-5.7089c0,0 2.71177,-6.04514 3.83607,-6.18795c1.00595,-0.12779 3.55502,4.94091 3.55502,4.94091l2.43832,5.85312z" data-paper-data="{&quot;origPos&quot;:null,&quot;origRot&quot;:0}" fill="#e3e3e3" stroke-width="0"/><path d="M283.42326,185.85841l0.97353,-5.76855c0,0 2.38779,-6.18028 3.50294,-6.38245c0.99777,-0.18089 3.81174,4.74568 3.81174,4.74568l2.74492,5.71575z" data-paper-data="{&quot;origPos&quot;:null,&quot;origRot&quot;:0}" fill="#e3e3e3" stroke-width="0"/><path d="M219.36359,197.09285l-6.48474,-2.67875l119.59558,-15.7514l11.71016,-0.6537l9.00386,0.67376l4.81916,7.51055l-2.33313,0.30675l-4.49406,-4.08915l-11.30942,-0.34649z" data-paper-data="{&quot;origPos&quot;:null}" fill="#e3e3e3" stroke-width="0"/><path d="M178.23569,181.3653l-2.66167,-19.81778l9.0631,-0.58677l3.19781,19.1153l-14.47623,19.73356l-40.1366,3.30289l4.58946,-4.00332l18.78094,-4.21639l9.23851,-9.65476z" data-paper-data="{&quot;origPos&quot;:null}" fill="#e3e3e3" stroke-width="0"/><path d="M184.00047,161.02846c-0.34866,-2.59593 1.47312,-4.98298 4.06905,-5.33164c2.59593,-0.34866 4.98297,1.47313 5.33163,4.06906c0.34866,2.59593 -1.47311,4.98297 -4.06904,5.33163c-2.59593,0.34866 -4.98298,-1.47312 -5.33164,-4.06905z" data-paper-data="{&quot;origPos&quot;:null}" fill="#71648d" stroke-width="0"/><path d="M163.05206,193.88627c-0.3273,-2.43699 1.38294,-4.67789 3.81992,-5.0052c2.43699,-0.3273 4.67788,1.38294 5.00519,3.81992c0.3273,2.43699 -1.38293,4.67788 -3.81991,5.00519c-2.43699,0.3273 -4.67789,-1.38293 -5.0052,-3.81992z" data-paper-data="{&quot;origPos&quot;:null}" fill="#71648d" stroke-width="0"/><path d="M116.87128,188.03081l5.47001,-12.08325l51.09273,-6.86212l1.4972,11.14751z" data-paper-data="{&quot;origPos&quot;:null}" fill="url(#color-8)" stroke-width="0"/><path d="M57.01241,244.80825l5.67313,-10.34724l21.40488,-5.90178c0,0 6.06981,1.94376 4.00886,2.67677c-0.99567,0.35413 -31.08689,13.57225 -31.08689,13.57225z" data-paper-data="{&quot;origPos&quot;:null}" fill="#e3e3e3" stroke-width="0"/><path d="M31.83618,251.49441l-10.99196,-49.68737l7.7815,-1.8951l10.99196,49.68737z" data-paper-data="{&quot;origPos&quot;:null,&quot;origRot&quot;:0}" fill="#e3e3e3" stroke-width="0"/><path d="M115.50978,225.85286c-0.29407,-2.18948 1.24248,-4.20279 3.43196,-4.49685c2.18948,-0.29406 4.20278,1.24246 4.49685,3.43195c0.29407,2.18948 -1.24246,4.20279 -3.43195,4.49685c-2.18948,0.29406 -4.20279,-1.24247 -4.49686,-3.43195z" data-paper-data="{&quot;origPos&quot;:null}" fill="#4c4c4c" stroke-width="0"/></g><g fill-rule="nonzero" stroke="none" stroke-width="0" stroke-linecap="butt"><path d="M332.11213,149.4189c-0.57643,-4.29193 8.52642,-9.05656 11.94856,-9.51619c3.42212,-0.45961 6.66361,2.6471 7.24004,6.93902c0.57643,4.29193 -1.73045,8.14381 -5.15259,8.60343c-3.42212,0.45961 -13.45958,-1.73434 -14.03601,-6.02626z" data-paper-data="{&quot;origPos&quot;:null}" fill="#9181b1"/><path d="M323.15537,153.93954l-0.87539,-6.51781l15.59074,-2.09395l0.8754,6.51781z" data-paper-data="{&quot;origPos&quot;:null}" fill="#9181b1"/><path d="M317.16105,156.27586l-1.38042,-10.27807l10.79359,-1.44966l1.38043,10.27808z" data-paper-data="{&quot;origPos&quot;:null}" fill="#9181b1"/><path d="M342.1062,148.07661c-0.24174,-1.79985 0.72568,-3.41515 2.16077,-3.60788c1.43509,-0.19274 2.79441,1.11007 3.03615,2.90992c0.24174,1.79985 -0.72567,3.41515 -2.16076,3.60788c-1.43509,0.19274 -2.79443,-1.11007 -3.03616,-2.9099z" data-paper-data="{&quot;origPos&quot;:null}" fill="#5a5a5a"/><path d="M205.15811,169.27702l-0.87539,-6.51781l112.93291,-15.16772l0.87539,6.5178z" data-paper-data="{&quot;origPos&quot;:null}" fill="#b1cfda"/><path d="M204.76048,170.86168l-1.27941,-9.52603l7.39561,-0.99328l1.27941,9.52602z" data-paper-data="{&quot;origPos&quot;:null}" fill="#9181b1"/><path d="M198.90299,175.73168l-2.28948,-17.04656l7.39561,-0.99328l2.28948,17.04656z" data-paper-data="{&quot;origPos&quot;:null}" fill="#9181b1"/></g><g fill="#ffffff" fill-rule="evenodd" stroke="none" stroke-width="1" stroke-linecap="butt"><path d="M60.84298,182.76193c-0.27933,0.16514 -0.33644,0.38736 -0.1713,0.6667c-1.19827,0.08428 -2.40465,0.16919 -3.61897,0.25465c0.04232,-0.08784 0.08462,-0.17567 0.12694,-0.26351c1.28201,-0.34272 2.50304,-0.56196 3.66336,-0.65784z" opacity="0.989"/><path d="M63.5985,182.64076c0.28501,-0.06943 0.5539,-0.03991 0.80635,0.08873c-0.30226,0.16843 -0.57099,0.13884 -0.80635,-0.08873z" opacity="0.616"/><path d="M62.86853,183.63772c0.4375,-0.08535 0.85445,-0.01772 1.25083,0.20293c-0.4375,0.08535 -0.85445,0.01772 -1.25083,-0.20293z" opacity="0.365"/><path d="M60.84298,182.76193c0.92337,-0.18648 1.84187,-0.22687 2.75551,-0.12117c0.23536,0.22756 0.5041,0.25715 0.80635,0.08873c0.66469,-0.02655 1.32287,0.02416 1.97462,0.15202c0.16513,0.27933 0.38737,0.33643 0.66671,0.1713c1.10993,0.16673 2.17458,0.47974 3.19381,0.93909c0.26669,0.26621 0.59041,0.38884 0.97149,0.36806c0.19044,0.24627 0.44026,0.35002 0.74925,0.31096c0.11588,0.2193 0.29161,0.3039 0.52702,0.25386c0.11588,0.2193 0.29162,0.3039 0.52703,0.25386c0.11588,0.2193 0.29162,0.30391 0.52702,0.25387c0.16562,0.21194 0.24282,0.44902 0.23188,0.71106c-0.51896,0.34449 -1.01734,0.67058 -1.49505,0.97806c-0.02748,-0.04651 -0.05506,-0.09314 -0.08256,-0.13967c-0.37904,-0.41957 -0.83205,-0.65443 -1.35886,-0.7045c-0.30964,-0.08063 -0.58696,-0.23088 -0.83183,-0.45063c-0.28013,-0.35591 -0.63159,-0.52508 -1.05406,-0.50773c-1.57778,-0.56377 -3.18849,-1.05662 -4.83199,-1.47845c-0.39638,-0.22064 -0.8133,-0.28828 -1.25082,-0.20294c-0.73818,-0.0206 -1.47052,-0.09028 -2.19687,-0.2091c-0.16513,-0.27933 -0.10803,-0.50156 0.1713,-0.66671z" opacity="0.998"/><path d="M66.37948,182.8815c0.24123,-0.01696 0.46346,0.04016 0.66671,0.1713c-0.27932,0.16514 -0.50156,0.10803 -0.66671,-0.1713z" opacity="0.306"/><path d="M70.23999,183.99187c0.38107,-0.02078 0.70478,0.10184 0.97149,0.36806c-0.38107,0.02078 -0.70478,-0.10184 -0.97149,-0.36806z" opacity="0.722"/><path d="M68.95135,185.31908c0.42248,-0.01735 0.77392,0.15183 1.05406,0.50773c-0.38723,-0.07604 -0.73853,-0.24531 -1.05406,-0.50773z" opacity="0.937"/><path d="M71.21148,184.35992c0.30901,-0.03905 0.55881,0.06469 0.74925,0.31096c-0.30901,0.03905 -0.55881,-0.06469 -0.74925,-0.31096z" opacity="0.588"/><path d="M71.96074,184.67089c0.23544,-0.05003 0.41115,0.03458 0.52702,0.25386c-0.23544,0.05003 -0.41115,-0.03458 -0.52702,-0.25386z" opacity="0.125"/><path d="M70.83725,186.27744c0.5268,0.05007 0.97982,0.28493 1.35886,0.7045c-0.49009,-0.14264 -0.94305,-0.37734 -1.35886,-0.7045z" opacity="0.69"/><path d="M72.48777,184.92475c0.23544,-0.05003 0.41115,0.03457 0.52702,0.25385c-0.23544,0.05003 -0.41115,-0.03457 -0.52702,-0.25385z" opacity="0.247"/><path d="M73.0148,185.17862c0.23544,-0.05003 0.41115,0.03458 0.52702,0.25387c-0.23544,0.05003 -0.41115,-0.03458 -0.52702,-0.25387z" opacity="0.086"/><path d="M74.45624,186.02278c0.34011,0.01738 0.61741,0.16764 0.83183,0.45063c-0.34011,-0.01738 -0.61741,-0.16764 -0.83183,-0.45063z" opacity="0.102"/><path d="M73.54184,185.43248c0.34939,0.11027 0.65422,0.30702 0.9144,0.59029c0.21442,0.283 0.49172,0.43326 0.83183,0.45064c0.02748,0.04651 0.05507,0.09315 0.08259,0.13967c0.12923,0.26135 0.3133,0.46654 0.55249,0.61575c-0.65182,0.38534 -1.3035,0.77059 -1.95532,1.15592c-0.16432,-0.35482 -0.42262,-0.57909 -0.77473,-0.67287c-0.30479,-0.19676 -0.6096,-0.39354 -0.9144,-0.5903c0.47771,-0.30748 0.97608,-0.63357 1.49505,-0.97806c0.01095,-0.26206 -0.06625,-0.49913 -0.23187,-0.71106z" opacity="0.983"/><path d="M56.92856,198.45781c-3.77582,2.16976 -7.47267,4.41798 -11.09071,6.74495c-0.21483,0.12378 -0.33973,0.07193 -0.37463,-0.15548c0.12171,-0.18656 0.28045,-0.34316 0.47611,-0.46993c3.60231,-1.88173 7.09397,-3.94587 10.47495,-6.19245c0.19319,-0.088 0.36453,-0.06376 0.5143,0.07292z" opacity="0.17"/><path d="M63.49284,194.57721c-1.68141,0.93219 -3.28341,1.94199 -4.80575,3.02947c-0.40997,0.1074 -0.49252,-0.03226 -0.2477,-0.41899c1.70078,-0.8835 3.38534,-1.75364 5.05345,-2.61048z" opacity="0.175"/><path d="M73.19306,187.7119c0.35209,0.09379 0.6104,0.31805 0.77473,0.67287c-2.05371,1.15207 -4.02805,2.38201 -5.92308,3.69c-0.32297,-0.15096 -0.31237,-0.34572 0.03164,-0.58413c1.85858,-0.88596 3.64145,-1.90863 5.34858,-3.06768c-0.04226,-0.29241 -0.1196,-0.5294 -0.23188,-0.71106z" opacity="0.152"/><path d="M75.37063,186.61307c0.18728,0.03271 0.36299,0.11732 0.52702,0.25386c0.35286,-0.08251 0.68718,-0.15463 1.00313,-0.21606c-0.32585,0.19261 -0.65183,0.38534 -0.97767,0.57796c-0.2392,-0.14922 -0.42324,-0.35442 -0.55249,-0.61575z" opacity="0.192"/><path d="M68.04472,192.07478c1.89502,-1.308 3.86934,-2.53793 5.92306,-3.69001c0.65182,-0.38534 1.3035,-0.77058 1.95531,-1.15591c0.32585,-0.19261 0.65182,-0.38535 0.97767,-0.57797c0.93675,-0.57414 1.92095,-0.71606 2.95227,-0.42596c0.2773,0.15027 0.57353,0.22638 0.88893,0.22841c0.30901,-0.03905 0.55881,0.0647 0.74926,0.31097c0.11588,0.2193 0.29162,0.3039 0.52703,0.25386c0.9858,0.97122 1.72032,2.10755 2.20381,3.40908c0.15214,0.43684 0.15859,0.87275 0.0193,1.30793c-0.15731,0.18215 -0.16791,0.37688 -0.03164,0.58413c-0.17202,0.6658 -0.41754,1.31343 -0.73613,1.94299c0.10709,0.06542 0.20866,0.13109 0.3048,0.19677c0.19044,0.24627 0.44026,0.35002 0.74925,0.31096c0.19044,0.24627 0.44026,0.35003 0.74926,0.31097c0.19044,0.24627 0.44025,0.35002 0.74925,0.31096c0.11588,0.2193 0.29162,0.3039 0.52703,0.25386c0.30901,-0.03905 0.55881,0.0647 0.74926,0.31097c0.26669,0.26621 0.59041,0.38884 0.97148,0.36806c0.11588,0.2193 0.29161,0.3039 0.52702,0.25386c0.54025,0.077 0.96996,0.32562 1.28903,0.74577c-1.25059,0.71632 -2.46108,1.43192 -3.63131,2.14672c-0.81639,-0.47013 -1.62504,-0.93445 -2.42565,-1.39317c-1.06088,-0.58814 -2.07699,-1.24401 -3.04798,-1.96766c-0.18617,0.11006 -0.37247,0.22022 -0.55867,0.33028c-1.02418,0.60546 -2.04848,1.21098 -3.07266,1.81645c0.93573,1.58284 1.87151,3.16581 2.80724,4.74863c-0.65182,0.38534 -1.3035,0.77059 -1.95532,1.15592c-0.18617,0.11006 -0.37247,0.22021 -0.55866,0.33026c-2.35903,-4.20055 -4.87409,-8.24228 -7.54514,-12.12545c-0.09315,0.05507 -0.16715,0.03605 -0.22221,-0.05709c-0.32385,-0.20189 -0.66659,-0.25052 -1.02859,-0.14582c-0.12907,-0.11217 -0.2773,-0.15028 -0.44445,-0.1142c-0.12066,0.00858 -0.24126,0.01689 -0.3619,0.02546zM76.29197,190.40336c0.05506,0.09314 0.11006,0.18617 0.16513,0.27932c0.71951,0.92187 1.43715,1.81698 2.15289,2.68528c0.21439,0.29093 0.2357,0.59252 0.06367,0.90474c-0.91691,0.38901 -1.81951,0.82836 -2.70767,1.31797c-0.69607,-1.21091 -1.38409,-2.37475 -2.06414,-3.49165c0.70468,-0.68233 1.5014,-1.24757 2.39013,-1.69568zM79.19333,189.25359c0.35618,0.17336 0.70761,0.34257 1.05406,0.50774c0.09955,0.15019 0.22862,0.26236 0.38737,0.33643c-0.0258,0.22862 0.08427,0.41478 0.33026,0.55866c0.02748,0.04651 0.05506,0.09315 0.08258,0.13968c0.0394,0.46485 -0.00071,0.92848 -0.12036,1.3905c-0.63139,-0.85221 -1.29404,-1.65429 -1.98775,-2.40597c-0.10768,-0.13463 -0.16705,-0.288 -0.17788,-0.46028c0.1558,0.04963 0.29973,0.0275 0.43174,-0.06677z"/><path d="M56.92856,198.45781c0.68157,0.72793 1.17696,1.56595 1.48618,2.514c-2.42083,1.43112 -4.84179,2.86231 -7.26261,4.29343c0.63304,1.07081 1.26598,2.14149 1.899,3.2123c1.82645,-0.8922 3.62315,-1.8914 5.38987,-2.99784c0.46791,0.79149 0.93573,1.58284 1.40363,2.37432c-1.76915,1.04586 -3.53815,2.09165 -5.3073,3.13751c1.04586,1.76915 2.09165,3.53815 3.13751,5.3073c-0.79298,0.64934 -1.64998,1.21874 -2.57109,1.70842c-2.12339,-3.45134 -4.18753,-6.943 -6.19245,-10.47495c-0.39089,-0.85662 -0.92435,-1.5464 -1.60038,-2.06952c-0.50393,-0.03627 -0.99492,-0.12293 -1.47305,-0.26004c3.61804,-2.32698 7.31488,-4.57519 11.0907,-6.74495z"/><path d="M63.49284,194.57721c0.12841,0.33836 0.3592,0.51611 0.69217,0.53319c0.16432,0.35482 0.42261,0.57909 0.77471,0.67287c0.2439,0.46197 0.60375,0.75188 1.07953,0.86964c0.02748,0.04651 0.05507,0.09315 0.08259,0.13967c0.12841,0.33836 0.35919,0.51611 0.69217,0.53319c0.14496,0.38738 0.40311,0.61173 0.77472,0.67287c0.2439,0.46197 0.60375,0.75188 1.07953,0.86964c0.02748,0.04651 0.05506,0.09314 0.08256,0.13967c0.12841,0.33836 0.3592,0.51612 0.69217,0.53319c0.16432,0.35482 0.42262,0.57908 0.77472,0.67286c0.16432,0.35482 0.42262,0.57909 0.77472,0.67287c0.10584,0.24728 0.27636,0.4292 0.51121,0.54593c-0.08742,0.10973 -0.13929,0.23463 -0.15549,0.37462c0.37512,0.09639 0.74537,0.19151 1.11116,0.28551c0.2439,0.46197 0.60375,0.75188 1.07953,0.86964c0.02748,0.04651 0.05507,0.09314 0.08258,0.13967c0.24813,0.44683 0.608,0.73674 1.07953,0.86964c0.48062,0.31054 0.89546,0.69345 1.24464,1.14896c-0.71117,0.78964 -1.5871,1.4332 -2.62817,1.93064c-0.24769,-0.04469 -0.45077,-0.17589 -0.6096,-0.39353c-0.16432,-0.35482 -0.42262,-0.57909 -0.77473,-0.67287c-0.02748,-0.04651 -0.05506,-0.09315 -0.08257,-0.13968c-0.20201,-0.31142 -0.46031,-0.53569 -0.77472,-0.67287c-1.85426,0.96726 -3.72498,1.94747 -5.6121,2.94073c-0.02273,0.64766 0.14036,1.24239 0.48922,1.78402c0.06644,0.077 0.15422,0.11934 0.26351,0.12694c-0.02641,0.44533 0.01715,0.89078 0.13041,1.33648c-0.0994,-0.04604 -0.19673,-0.05128 -0.29207,-0.01581c-0.87205,0.54682 -1.77026,1.04654 -2.69493,1.49893c0.01095,-0.26206 -0.06626,-0.49913 -0.23189,-0.71105c-0.0836,-0.1596 -0.11966,-0.32676 -0.10802,-0.50156c-0.02178,-0.29698 0.06826,-0.56997 0.26968,-0.81909c-0.2865,-0.28185 -0.49291,-0.63102 -0.61923,-1.0475c-0.02748,-0.04651 -0.05507,-0.09315 -0.08258,-0.13968c0.06847,-0.27248 0.1583,-0.54554 0.26969,-0.81909c-0.2865,-0.28185 -0.49292,-0.63101 -0.61924,-1.04749c-0.00858,-0.12066 -0.0169,-0.24126 -0.02547,-0.3619c0.04226,-0.22628 -0.02114,-0.44003 -0.19059,-0.64123c0.10285,-0.59023 0.01384,-1.1658 -0.26699,-1.7269c-0.02748,-0.04651 -0.05507,-0.09315 -0.08258,-0.13968c0.06207,-0.52373 -0.04597,-1.02528 -0.3241,-1.5047c0.14553,-0.29995 0.10105,-0.58785 -0.13349,-0.86346c-0.02748,-0.04651 -0.05506,-0.09314 -0.08257,-0.13967c0.08025,-0.23855 0.06321,-0.47972 -0.05093,-0.72379c-0.04594,-0.62101 -0.16233,-1.24317 -0.34957,-1.86659c-0.22618,-0.40176 -0.35329,-0.82909 -0.3812,-1.28246c0.12929,-0.30354 0.06573,-0.5172 -0.19059,-0.64123c-0.18215,-0.15731 -0.37691,-0.16792 -0.58414,-0.03165c-0.30924,-0.00058 -0.60561,-0.0766 -0.88892,-0.2284c1.52232,-1.08748 3.12432,-2.09729 4.80574,-3.02947zM64.18581,199.25642c0.46023,0.53555 0.97665,0.98416 1.54945,1.34572c0.20201,0.31142 0.46031,0.53569 0.77472,0.67287c0.20201,0.31142 0.46031,0.53568 0.77473,0.67286c0.46023,0.53555 0.97665,0.98416 1.54944,1.34571c0.08259,0.13967 0.16512,0.27933 0.2477,0.41899c-0.09315,0.05507 -0.18616,0.11005 -0.27932,0.16513c-0.11006,-0.18617 -0.25828,-0.22426 -0.44446,-0.1142c-0.11695,-0.08879 -0.23755,-0.08046 -0.3619,0.02546c-1.0745,0.30067 -2.08808,0.71138 -3.04102,1.23232c0.09418,-0.29692 0.04969,-0.58482 -0.13349,-0.86346c-0.02748,-0.04651 -0.05506,-0.09314 -0.08257,-0.13967c0.09418,-0.29692 0.04969,-0.58482 -0.13349,-0.86346c0.02343,-0.35254 -0.04871,-0.68685 -0.21607,-1.00313c0.03138,-0.3416 -0.0406,-0.67601 -0.21608,-1.00312c0.03138,-0.3416 -0.04059,-0.67602 -0.21607,-1.00314c0.06772,-0.17365 0.03167,-0.34081 -0.10802,-0.50156c0.06633,-0.118 0.08119,-0.25229 0.04437,-0.40318c0.0994,0.04604 0.19673,0.05127 0.29207,0.01581z" opacity="0.999"/><path d="M63.49284,194.57721c0.30555,0.06061 0.53634,0.23837 0.69217,0.53319c-0.33296,-0.01709 -0.56376,-0.19485 -0.69217,-0.53319z" opacity="0.639"/><path d="M68.40661,192.04931c0.16715,-0.03606 0.3154,0.00204 0.44446,0.11421c-0.18617,0.11006 -0.33441,0.07198 -0.44446,-0.11421z" opacity="0.008"/><path d="M68.85109,192.16351c0.36199,-0.10469 0.70474,-0.05607 1.02859,0.14582c-0.36199,0.10469 -0.70474,0.05607 -1.02859,-0.14582z" opacity="0.573"/><path d="M59.57604,197.83509c0.20724,-0.13628 0.40196,-0.12569 0.58413,0.03164c-0.20724,0.13628 -0.40196,0.12569 -0.58413,-0.03164z" opacity="0.314"/><path d="M79.85306,186.22492c0.35333,-0.14612 0.64979,-0.06995 0.88893,0.22841c-0.3154,-0.00203 -0.61162,-0.07814 -0.88893,-0.22841z" opacity="0.008"/><path d="M60.16015,197.86673c0.25633,0.12402 0.31988,0.3377 0.19059,0.64124c-0.12982,-0.19824 -0.19337,-0.41192 -0.19059,-0.64124z" opacity="0.227"/><path d="M64.18501,195.1104c0.31442,0.13718 0.57271,0.36144 0.77472,0.67287c-0.35209,-0.09379 -0.61039,-0.31805 -0.77472,-0.67287z" opacity="0.392"/><path d="M47.3109,205.46279c0.67605,0.52312 1.2095,1.21291 1.6004,2.06953c-0.53113,-0.67212 -1.06457,-1.36193 -1.6004,-2.06953z" opacity="0.056"/><path d="M64.95975,195.78327c0.39261,0.22703 0.75248,0.51695 1.07953,0.86964c-0.47578,-0.11776 -0.83563,-0.40766 -1.07953,-0.86964z" opacity="0.482"/><path d="M81.49125,186.76428c0.23544,-0.05003 0.41115,0.03458 0.52702,0.25386c-0.23544,0.05003 -0.41115,-0.03458 -0.52702,-0.25386z" opacity="0.067"/><path d="M58.41473,200.97179c-2.26755,1.52841 -4.61439,2.97855 -7.0404,4.35052c0.63517,1.04637 1.24064,2.07053 1.81647,3.07265c-0.04651,0.02748 -0.09315,0.05507 -0.13969,0.08257c-0.63304,-1.07081 -1.26598,-2.1415 -1.89901,-3.21231c2.42083,-1.43112 4.8418,-2.86231 7.26261,-4.29343z" opacity="0.082"/><path d="M60.73197,199.79041c0.18723,0.62343 0.3036,1.24559 0.34956,1.86659c-0.32272,-0.60234 -0.43923,-1.22441 -0.34956,-1.86659z" opacity="0.404"/><path d="M78.74887,189.13939c0.16715,-0.03606 0.3154,0.00203 0.44446,0.1142c-0.132,0.09426 -0.27592,0.11638 -0.43174,0.06677c0.01083,0.1723 0.07019,0.32566 0.17788,0.46029c-0.12159,-0.00672 -0.22317,-0.07239 -0.30481,-0.19677c-0.06566,-0.18981 -0.02757,-0.33804 0.1142,-0.44446z" opacity="0.09"/><path d="M79.19333,189.25359c0.49703,-0.17849 0.84848,-0.0093 1.05406,0.50774c-0.34644,-0.16518 -0.69788,-0.33439 -1.05406,-0.50774z" opacity="0.992"/><path d="M66.12183,196.79258c0.2629,0.11411 0.4937,0.29185 0.69217,0.53319c-0.33296,-0.01709 -0.56376,-0.19484 -0.69217,-0.53319z" opacity="0.655"/><path d="M76.29197,190.40336c0.79157,-0.52864 1.61057,-0.95003 2.45689,-1.26396c-0.14178,0.10643 -0.17986,0.25466 -0.1142,0.44446c0.08163,0.12438 0.18322,0.19005 0.30481,0.19677c0.619,0.9894 1.29013,1.91198 2.01322,2.76785c0.00122,0.13536 -0.0505,0.26017 -0.15548,0.37463c-0.51551,0.39881 -1.06039,0.7524 -1.63471,1.06063c-0.11845,-0.2909 -0.30251,-0.49609 -0.55249,-0.61575c-0.5542,-1.05543 -1.27182,-1.9505 -2.15289,-2.68527c-0.05506,-0.09314 -0.11006,-0.18617 -0.16513,-0.27932z" opacity="0.99"/><path d="M64.18581,199.25642c-0.09534,0.03544 -0.19265,0.03021 -0.29206,-0.01581c0.03681,0.15088 0.02197,0.28518 -0.04437,0.40318c-0.08259,-0.13967 -0.16512,-0.27933 -0.2477,-0.41899c0.21675,-0.16865 0.41149,-0.15806 0.58414,0.03165z" opacity="0.133"/><path d="M66.814,197.32578c0.31442,0.13718 0.57272,0.36144 0.77472,0.67287c-0.37164,-0.06115 -0.62979,-0.28548 -0.77472,-0.67287z" opacity="0.757"/><path d="M61.08152,201.65699c0.11413,0.24408 0.13118,0.48527 0.05093,0.7238c-0.19307,-0.2402 -0.20998,-0.48144 -0.05093,-0.7238z" opacity="0.322"/><path d="M80.63474,190.09776c0.28627,0.10613 0.39641,0.29243 0.33026,0.55866c-0.24602,-0.14387 -0.35607,-0.33005 -0.33026,-0.55866z" opacity="0.471"/><path d="M63.9574,200.14534c0.17549,0.32712 0.24745,0.66152 0.21607,1.00313c-0.23167,-0.31501 -0.30362,-0.64942 -0.21607,-1.00313z" opacity="0.169"/><path d="M67.58872,197.99863c0.39261,0.22703 0.75248,0.51695 1.07954,0.86963c-0.47578,-0.11776 -0.83564,-0.40766 -1.07954,-0.86963z" opacity="0.537"/><path d="M76.4571,190.68269c0.88108,0.73477 1.59871,1.62986 2.15289,2.68528c-0.71574,-0.86831 -1.43338,-1.76342 -2.15289,-2.68528z" opacity="0.082"/><path d="M78.93946,189.78063c0.69372,0.75166 1.35635,1.55374 1.98775,2.40596c0.11965,-0.46203 0.15978,-0.92564 0.12036,-1.39049c0.13529,0.17879 0.22211,0.37892 0.26043,0.59996c0.06266,0.44905 -0.0557,0.8332 -0.35533,1.15245c-0.72309,-0.85586 -1.3942,-1.77847 -2.01323,-2.76785z" opacity="0.216"/><path d="M61.21501,202.52046c0.23454,0.27561 0.27902,0.56351 0.13349,0.86346c-0.18319,-0.27864 -0.22768,-0.56654 -0.13349,-0.86346z" opacity="0.643"/><path d="M64.17346,201.14847c0.17549,0.32712 0.24745,0.66151 0.21607,1.00313c-0.23167,-0.31501 -0.30362,-0.64942 -0.21607,-1.00313z" opacity="0.18"/><path d="M58.35844,205.34004c0.02748,0.04651 0.05506,0.09315 0.08257,0.13968c-1.76672,1.10643 -3.56342,2.10565 -5.38987,2.99784c0.04651,-0.02748 0.09316,-0.05507 0.13969,-0.08257c1.7089,-1.05756 3.43139,-2.07585 5.16763,-3.05494z" opacity="0.576"/><path d="M65.73525,200.60214c0.35209,0.09379 0.61038,0.31805 0.77471,0.67286c-0.31442,-0.13718 -0.57271,-0.36143 -0.77471,-0.67286z" opacity="0.2"/><path d="M61.34851,203.38393c0.27814,0.47941 0.38617,0.98097 0.32409,1.50469c-0.21146,-0.49413 -0.31947,-0.9957 -0.32409,-1.50469z" opacity="0.435"/><path d="M68.75081,199.00793c0.30555,0.06061 0.53634,0.23838 0.69216,0.53322c-0.33296,-0.01709 -0.56376,-0.19486 -0.69216,-0.53322z" opacity="0.682"/><path d="M70.10191,192.36643c2.67107,3.88319 5.18612,7.92492 7.54514,12.12547c-0.07544,0.14054 -0.20026,0.08878 -0.37463,-0.15548c-2.43658,-3.96224 -4.82674,-7.95212 -7.1705,-11.96998z" opacity="0.605"/><path d="M76.29197,190.40336c-0.88875,0.44812 -1.68547,1.01336 -2.39013,1.69569c0.68007,1.1169 1.3681,2.28072 2.06416,3.49164c0.88814,-0.48961 1.79076,-0.92896 2.70767,-1.31797c0.17203,-0.31223 0.15072,-0.61382 -0.06367,-0.90474c0.24999,0.11967 0.43403,0.32485 0.5525,0.61575c-0.96307,0.75632 -2.00625,1.43577 -3.12975,2.03868c-0.82176,-1.33714 -1.59674,-2.701 -2.32458,-4.09159c0.76566,-0.70255 1.62685,-1.21166 2.58382,-1.52747z" opacity="0.377"/><path d="M66.50997,201.27501c0.35209,0.09379 0.6104,0.31805 0.77473,0.67287c-0.31442,-0.13718 -0.57273,-0.36145 -0.77473,-0.67287z" opacity="0.165"/><path d="M69.44297,199.54113c0.31442,0.13718 0.57271,0.36144 0.77472,0.67287c-0.35209,-0.09379 -0.61038,-0.31805 -0.77472,-0.67287z" opacity="0.478"/><path d="M84.24139,191.73515c0.13628,0.20724 0.12569,0.40197 -0.03164,0.58414c-0.13628,-0.20724 -0.12569,-0.40197 0.03164,-0.58414z" opacity="0.016"/><path d="M64.6056,203.15474c0.1832,0.27865 0.22767,0.56654 0.13349,0.86346c-0.1832,-0.27865 -0.22767,-0.56654 -0.13349,-0.86346z" opacity="0.216"/><path d="M61.75518,205.02829c0.28083,0.56112 0.36984,1.13669 0.26699,1.7269c-0.19416,-0.57295 -0.28316,-1.14853 -0.26699,-1.7269z" opacity="0.827"/><path d="M70.21771,200.21399c0.31442,0.13718 0.57272,0.36144 0.77473,0.67287c-0.35209,-0.09379 -0.61039,-0.31805 -0.77473,-0.67287z" opacity="0.584"/><path d="M64.82166,204.15787c0.1832,0.27865 0.22767,0.56653 0.13349,0.86346c-0.1832,-0.27865 -0.22767,-0.56653 -0.13349,-0.86346z" opacity="0.243"/><path d="M64.95515,205.02133c0.95293,-0.52093 1.96652,-0.93166 3.04101,-1.23233c-1.02224,0.48503 -2.05498,0.96982 -3.09813,1.45454c-0.0328,-0.09502 -0.01379,-0.16902 0.05709,-0.22221z" opacity="0.12"/><path d="M62.02218,206.7552c0.16947,0.20121 0.23286,0.41496 0.19059,0.64124c-0.05581,0.04525 -0.11616,0.04962 -0.18094,0.01273c-0.02579,-0.23015 -0.02913,-0.44813 -0.00965,-0.65396z" opacity="0.431"/><path d="M70.99243,200.88685c0.56361,0.28897 1.05269,0.69097 1.46688,1.20608c-0.36579,-0.094 -0.73604,-0.18913 -1.11115,-0.28551c0.01619,-0.14001 0.06806,-0.26489 0.15549,-0.37462c-0.23487,-0.11672 -0.40537,-0.29865 -0.51121,-0.54593z" opacity="0.984"/><path d="M68.35807,203.76352c0.18617,-0.11006 0.3344,-0.07199 0.44446,0.1142c-0.16715,0.03606 -0.31539,-0.00203 -0.44446,-0.1142z" opacity="0.004"/><path d="M83.77843,194.45904c0.30901,-0.03905 0.55881,0.0647 0.74926,0.31097c-0.30901,0.03905 -0.55881,-0.0647 -0.74926,-0.31097z" opacity="0.384"/><path d="M68.83418,203.2936c0.24769,0.04469 0.45077,0.17588 0.6096,0.39353c-0.04651,0.02748 -0.09315,0.05506 -0.13968,0.08258c-0.05506,-0.09314 -0.12907,-0.11217 -0.22222,-0.05709c-0.08259,-0.13967 -0.16512,-0.27933 -0.24769,-0.41899z" opacity="0.161"/><path d="M84.52768,194.77001c0.30901,-0.03905 0.55881,0.06469 0.74925,0.31096c-0.30901,0.03905 -0.55881,-0.06469 -0.74925,-0.31096z" opacity="0.537"/><path d="M80.42644,196.44062c0.28857,0.50378 0.47075,1.02426 0.54632,1.56178c-0.22886,-0.32082 -0.37482,-0.67424 -0.43828,-1.06022c-0.12066,0.00858 -0.24126,0.0169 -0.3619,0.02547c-0.91969,0.35785 -1.76199,0.79304 -2.52672,1.30524c0.89664,1.63532 1.80912,3.23209 2.73741,4.78991c-0.69906,0.47377 -1.42496,0.83995 -2.17755,1.09883c0.65182,-0.38534 1.30349,-0.77059 1.95532,-1.15592c-0.93573,-1.58284 -1.87151,-3.16581 -2.80724,-4.74864c1.02418,-0.60546 2.04848,-1.21099 3.07265,-1.81645z" opacity="0.393"/><path d="M72.45931,202.09292c0.39261,0.22703 0.75248,0.51695 1.07954,0.86964c-0.47578,-0.11776 -0.83564,-0.40766 -1.07954,-0.86964z" opacity="0.573"/><path d="M85.27695,195.08097c0.30901,-0.03905 0.55881,0.0647 0.74926,0.31097c-0.30901,0.03905 -0.55881,-0.0647 -0.74926,-0.31097z" opacity="0.557"/><path d="M58.35844,205.34004c0.33909,0.36157 0.647,0.77627 0.92403,1.24426c0.32233,0.50378 0.54147,1.03391 0.65745,1.59034c-1.73317,0.90586 -3.43235,1.91036 -5.09781,3.01366c0.93886,1.69048 1.96238,3.31566 3.07076,4.87558c0.00837,0.25517 -0.07088,0.33348 -0.23805,0.23497c-1.04586,-1.76915 -2.09165,-3.53815 -3.13751,-5.3073c1.76915,-1.04586 3.53815,-2.09165 5.3073,-3.13751c-0.46791,-0.79149 -0.93573,-1.58283 -1.40362,-2.37431c-0.02748,-0.04651 -0.05506,-0.09315 -0.08257,-0.13968z" opacity="0.323"/><path d="M62.23824,207.75832c0.12635,0.41646 0.33276,0.76566 0.61924,1.0475c-0.11139,0.27353 -0.20123,0.5466 -0.26967,0.8191c-0.18723,-0.62343 -0.3036,-1.24558 -0.34956,-1.86659z"/><path d="M80.42644,196.44062c0.18617,-0.11006 0.37247,-0.22021 0.55867,-0.33027c0.97098,0.72365 1.98711,1.37953 3.04798,1.96765c-0.21594,-0.07928 -0.33228,-0.01052 -0.34917,0.20641c0.17567,0.69057 0.29643,1.37309 0.36228,2.04753c-0.24819,-0.68634 -0.63343,-1.33804 -1.15593,-1.95533c-0.13968,0.08258 -0.27933,0.16513 -0.41901,0.24772c-0.35301,-0.5356 -0.42282,-0.49433 -0.2095,0.12384c-0.16715,0.03606 -0.33441,0.07199 -0.50157,0.10804c-0.11838,0.23301 -0.19881,0.46904 -0.24112,0.70798c-0.28857,-0.50378 -0.47075,-1.02427 -0.54634,-1.56179c-0.07558,-0.53753 -0.25774,-1.05801 -0.54632,-1.56178z"/><path d="M86.02621,195.39194c0.23544,-0.05003 0.41115,0.03458 0.52702,0.25386c-0.23544,0.05003 -0.41115,-0.03458 -0.52702,-0.25386z" opacity="0.322"/><path d="M71.07579,205.17252c-1.70584,0.99449 -3.41469,2.03617 -5.12636,3.12478c-0.0496,0.53747 -0.04838,1.07068 0.00348,1.6c-0.34885,-0.54164 -0.51196,-1.13635 -0.48922,-1.78402c1.88712,-0.99328 3.75786,-1.97348 5.61211,-2.94073z" opacity="0.404"/><path d="M73.62141,203.1022c0.43602,0.17421 0.79583,0.46401 1.07953,0.86964c-0.47153,-0.13289 -0.8314,-0.42281 -1.07953,-0.86964z" opacity="0.424"/><path d="M71.07579,205.17252c0.31442,0.13718 0.57271,0.36143 0.77472,0.67286c-0.35209,-0.09379 -0.61038,-0.31805 -0.77472,-0.67286z" opacity="0.024"/><path d="M62.67037,209.76459c0.12635,0.41646 0.33276,0.76566 0.61924,1.0475c-0.2014,0.24912 -0.29144,0.52211 -0.26967,0.8191c-0.25442,-0.61047 -0.37078,-1.23263 -0.34956,-1.86659z"/><path d="M71.93309,205.98505c0.35209,0.09379 0.61039,0.31805 0.77472,0.67287c-0.31442,-0.13718 -0.57271,-0.36144 -0.77472,-0.67287z" opacity="0.251"/><path d="M84.04622,200.33198c-0.03808,0.14823 -0.07611,0.29622 -0.1142,0.44445c-0.50938,0.03201 -0.98346,0.18653 -1.42214,0.46376c0.10768,0.13463 0.16705,0.288 0.17788,0.46028c-0.074,-0.01901 -0.14824,-0.03808 -0.22222,-0.05709c0.23711,0.61374 0.1441,0.66873 -0.27932,0.16514c0.14926,0.38767 0.15154,0.76326 0.00656,1.12697c-0.22789,-1.13788 -0.45235,-2.26176 -0.67366,-3.37126c0.04232,-0.23893 0.12275,-0.47496 0.24112,-0.70799c0.16715,-0.03606 0.3344,-0.07199 0.50156,-0.10803c-0.21335,-0.61817 -0.14351,-0.65947 0.20952,-0.12384c0.13968,-0.08258 0.27932,-0.16514 0.419,-0.24772c0.52251,0.61729 0.90775,1.26899 1.15593,1.95534z" opacity="0.992"/><path d="M63.12796,212.13274c0.16562,0.21194 0.24282,0.44902 0.23188,0.71105c0.92467,-0.4524 1.82288,-0.95209 2.69494,-1.49892c-0.82309,0.67336 -1.72674,1.27034 -2.71075,1.79099c-0.23167,-0.31501 -0.30362,-0.64943 -0.21607,-1.00314z" opacity="0.039"/><path d="M75.9456,205.1208c0.28399,-0.07214 0.39926,0.01672 0.34607,0.2666c-0.93487,0.7074 -1.92625,1.26218 -2.97427,1.66406c1.04107,-0.49748 1.91702,-1.14102 2.62819,-1.93064z" opacity="0.043"/><path d="M84.04622,200.33198c0.1832,0.27865 0.22767,0.56653 0.13349,0.86345c-0.08259,-0.13967 -0.16512,-0.27933 -0.2477,-0.41899c0.03808,-0.14823 0.07611,-0.29622 0.1142,-0.44445z" opacity="0.098"/><path d="M84.17971,201.19542c0.19741,0.39992 0.25037,0.80831 0.15897,1.22536c-0.19741,-0.39992 -0.25037,-0.80831 -0.15897,-1.22536z" opacity="0.063"/><path d="M82.19276,202.93549c0.27733,0.42164 0.45522,0.88191 0.5336,1.38083c-0.19819,-0.08979 -0.31454,-0.021 -0.34916,0.2064c-0.10984,-0.53555 -0.17135,-1.06462 -0.18443,-1.58726z" opacity="0.925"/><path d="M84.41509,203.50648c0.14458,0.32427 0.14255,0.63966 -0.00618,0.94603c-0.14458,-0.32427 -0.14255,-0.63966 0.00618,-0.94603z" opacity="0.039"/><path d="M84.40891,204.45252c0.13628,0.20724 0.12569,0.40197 -0.03164,0.58414c-0.13628,-0.20724 -0.12569,-0.40197 0.03164,-0.58414z" opacity="0.035"/><path d="M83.93201,200.77643c0.08259,0.13967 0.16513,0.27932 0.2477,0.41899c-0.09141,0.41704 -0.03845,0.82544 0.15896,1.22535c0.09779,0.36626 0.12325,0.72817 0.0764,1.08569c-0.14873,0.30635 -0.15075,0.62175 -0.00618,0.94603c-0.15731,0.18215 -0.16792,0.37691 -0.03164,0.58414c-0.09132,2.73788 -0.66957,5.37291 -1.73499,7.90504c-0.27634,0.56141 -0.59048,1.09262 -0.94255,1.59383c-0.2193,0.11588 -0.3039,0.29161 -0.25386,0.52702c-0.17664,0.38507 -0.41992,0.71735 -0.72996,0.99695c-0.54474,0.2161 -0.70144,0.0575 -0.46993,-0.4761c0.13578,-0.52848 0.34314,-1.02801 0.62193,-1.49854c0.26621,-0.26669 0.38884,-0.59041 0.36806,-0.97148c0.3358,-1.45998 0.66985,-2.91403 1.00235,-4.36208c0.20189,-0.32385 0.25052,-0.66659 0.14581,-1.0286c-0.05044,-1.0641 -0.05276,-2.13064 -0.00697,-3.19998c0.03462,-0.22742 0.15097,-0.29621 0.34916,-0.20641c-0.07838,-0.49893 -0.25626,-0.9592 -0.5336,-1.38083c0.14497,-0.36371 0.1427,-0.7393 -0.00656,-1.12697c0.42343,0.50359 0.51645,0.44862 0.27933,-0.16513c0.074,0.01901 0.14824,0.03808 0.22222,0.05709c-0.01083,-0.1723 -0.07019,-0.32566 -0.17788,-0.46028c0.43867,-0.27722 0.91274,-0.43177 1.42213,-0.46377z" opacity="0.997"/><path d="M82.38415,207.72274c0.10469,0.36198 0.05607,0.70474 -0.14582,1.02859c-0.10469,-0.36198 -0.05607,-0.70474 0.14582,-1.02859z" opacity="0.239"/><path d="M81.23599,213.11339c0.02079,0.38106 -0.10184,0.70479 -0.36806,0.97149c-0.02079,-0.38106 0.10184,-0.70479 0.36806,-0.97149z" opacity="0.498"/><path d="M81.69974,214.53553c0.05003,0.23543 -0.03457,0.41115 -0.25386,0.52702c-0.05003,-0.23543 0.03457,-0.41115 0.25386,-0.52702z" opacity="0.004"/><path d="M80.24597,215.5834c-0.23151,0.5336 -0.07481,0.69219 0.46993,0.47611c-0.45857,0.87705 -1.10386,1.69842 -1.93603,2.46385c-0.09315,0.05507 -0.16715,0.03605 -0.22221,-0.05709c0.49404,-0.99432 1.05676,-1.95536 1.68833,-2.88285z" opacity="0.986"/><path d="M95.0504,221.72113c0.05506,0.09314 0.12907,0.11217 0.22222,0.05709c-0.2586,0.4224 -0.54436,0.84257 -0.85691,1.26047c-0.14572,-0.09253 -0.25147,-0.21848 -0.31752,-0.37772c0.31742,-0.31335 0.63477,-0.62651 0.9522,-0.93985z" opacity="0.459"/></g></g></g></svg>