<svg version="1.1" xmlns="http://www.w3.org/2000/svg" xmlns:xlink="http://www.w3.org/1999/xlink" width="360.44116" height="175.21773" viewBox="0,0,360.44116,175.21773"><defs><linearGradient x1="216.81967" y1="147.66751" x2="241.40507" y2="147.66751" gradientUnits="userSpaceOnUse" id="color-1"><stop offset="0" stop-color="#71648d"/><stop offset="1" stop-color="#64888d"/></linearGradient><linearGradient x1="30.62481" y1="229.97612" x2="118.94845" y2="229.97612" gradientUnits="userSpaceOnUse" id="color-2"><stop offset="0" stop-color="#71648d"/><stop offset="1" stop-color="#64888d"/></linearGradient><linearGradient x1="75.05798" y1="165.80331" x2="75.05798" y2="228.21851" gradientUnits="userSpaceOnUse" id="color-3"><stop offset="0" stop-color="#b295ed"/><stop offset="1" stop-color="#c4c4c4"/></linearGradient><linearGradient x1="217.14499" y1="188.4097" x2="217.14499" y2="253.88702" gradientUnits="userSpaceOnUse" id="color-4"><stop offset="0" stop-color="#e3e3e3"/><stop offset="1" stop-color="#c2adec"/></linearGradient><linearGradient x1="250.70367" y1="195.53665" x2="250.70367" y2="253.13085" gradientUnits="userSpaceOnUse" id="color-5"><stop offset="0" stop-color="#e3e3e3"/><stop offset="1" stop-color="#c2adec"/></linearGradient><linearGradient x1="234.17452" y1="156.83292" x2="368.75462" y2="156.83292" gradientUnits="userSpaceOnUse" id="color-6"><stop offset="0" stop-color="#71648d"/><stop offset="1" stop-color="#64888d"/></linearGradient><linearGradient x1="236.12934" y1="174.52111" x2="369.14341" y2="174.52111" gradientUnits="userSpaceOnUse" id="color-7"><stop offset="0" stop-color="#71648d"/><stop offset="1" stop-color="#64888d"/></linearGradient><linearGradient x1="118.60993" y1="180.64427" x2="176.81996" y2="174.05989" gradientUnits="userSpaceOnUse" id="color-8"><stop offset="0" stop-color="#c9b1d9"/><stop offset="1" stop-color="#80c1d9"/></linearGradient></defs><g transform="translate(-22.94836,-111.4508)"><g data-paper-data="{&quot;isPaintingLayer&quot;:true}" stroke-linejoin="miter" stroke-miterlimit="10" stroke-dasharray="" stroke-dashoffset="0" style="mix-blend-mode: normal"><path d="" data-paper-data="{&quot;origPos&quot;:null}" fill="#737373" fill-rule="nonzero" stroke="none" stroke-width="0" stroke-linecap="butt"/><path d="M239.95858,152.11635l1.44649,4.06772l-24.3757,2.35739c0,0 0.06957,-6.98227 -0.1813,-9.29816c-0.66451,-6.13431 10.56845,-16.5809 9.03431,-10.72701c-0.439,1.67512 -3.50734,6.14532 -4.06232,8.72182c-0.4936,2.2916 2.96108,4.64607 2.96108,4.64607z" data-paper-data="{&quot;origPos&quot;:null,&quot;origRot&quot;:0}" fill="url(#color-1)" fill-rule="nonzero" stroke="none" stroke-width="0" stroke-linecap="butt"/><path d="" data-paper-data="{&quot;origPos&quot;:null}" fill="#737373" fill-rule="nonzero" stroke="none" stroke-width="0" stroke-linecap="butt"/><g fill-rule="nonzero" stroke-linecap="round"><path d="M152.76083,180.45546c3.26195,-0.23269 -0.53149,-2.97257 0.03659,0.32345c1.43003,13.1746 2.38901,26.4707 4.80056,39.54487c1.80465,9.78106 4.1655,19.46399 7.20928,28.98843c2.39258,7.47444 6.33177,14.23681 9.63814,21.5083c0.76388,1.76073 2.48177,-1.14274 -0.32334,0.03657c-11.21735,4.71949 -22.85624,9.96358 -34.3645,14.69504c-2.87801,1.18239 0.63173,1.87798 -0.35992,-0.28677c-3.95749,-8.66124 -8.26084,-17.47321 -11.51698,-26.53608c-2.27568,-6.31247 -4.20137,-13.44675 -5.57487,-20.33032c-2.74984,-13.78256 -4.17991,-27.839 -6.22806,-41.74156c-0.6542,-4.36965 -1.00363,-8.90747 -1.77314,-13.3585c-0.10573,-1.07412 -3.51748,0.61406 -0.28677,0.35992c12.90092,-1.03615 25.68984,-2.27446 38.74299,-3.20336z" data-paper-data="{&quot;origPos&quot;:null}" fill="#e3e3e3" stroke="none" stroke-width="0"/><path d="M167.04429,271.98515l-8.91831,-20.93467l-5.71532,-18.67695l-3.26871,-17.31609l-3.93887,-29.03088" data-paper-data="{&quot;origPos&quot;:null}" fill="none" stroke="#c2adec" stroke-width="2.12828"/><path d="M163.74317,274.65123l-9.85763,-23.44869l-5.82503,-19.64696l-5.80009,-25.21766l-2.48735,-21.9897" data-paper-data="{&quot;origPos&quot;:null}" fill="none" stroke="#c2adec" stroke-width="2.12828"/><path d="M156.09189,276.49923l-15.34184,-34.29134l-6.23915,-29.09815l-3.86558,-28.38411" data-paper-data="{&quot;origPos&quot;:null}" fill="none" stroke="#c2adec" stroke-width="2.12828"/><path d="M146.54269,281.837l-7.64393,-12.56344l-10.01568,-30.63605l-4.36607,-27.01747l-2.60295,-25.90678" data-paper-data="{&quot;origPos&quot;:null}" fill="none" stroke="#c2adec" stroke-width="2.12828"/></g><path d="M248.60375,203.66729l-1.1514,-10.17899l2.639,-0.29851l1.15139,10.17899z" fill="#71648d" fill-rule="nonzero" stroke="none" stroke-width="0" stroke-linecap="butt"/><path d="M242.25724,200.49615c0.39412,3.48429 4.91852,9.82671 3.04462,10.03867c-1.8739,0.21196 -6.04351,-6.17059 -6.43762,-9.65488c-0.39412,-3.48429 1.71346,-8.58014 3.58736,-8.7921c1.8739,-0.21196 -0.58848,4.92402 -0.19437,8.40831z" fill="#71648d" fill-rule="nonzero" stroke="none" stroke-width="0" stroke-linecap="butt"/><g fill-rule="nonzero" stroke="none" stroke-linecap="butt"><path d="M299.33541,150.06017l-0.37466,-3.31221l23.51668,-2.66008l0.37466,3.31221z" data-paper-data="{&quot;origPos&quot;:null}" fill="#5f5f5f" stroke-width="0"/><path d="M32.41421,236.11196l-1.7894,-11.37093l88.32364,-10.99703l-8.26859,6.97356l-45.27132,18.11153l-10.94746,3.50016l-17.88571,3.87899z" data-paper-data="{&quot;origPos&quot;:null}" fill="url(#color-2)" stroke-width="0"/><path d="M101.28039,220.5928l-70.17909,7.62571l-4.68465,-34.24917l4.21919,-22.16641l43.58552,-5.99962l11.49689,8.79325l27.18138,-2.73914l10.79967,37.64529z" data-paper-data="{&quot;origPos&quot;:null}" fill="url(#color-3)" stroke-width="0"/><path d="M110.57961,176.36459l-0.94815,-8.38225l67.98932,-7.69056l0.94815,8.38224z" data-paper-data="{&quot;origPos&quot;:null}" fill="#393939" stroke-width="0"/><path d="M110.13911,189.14866l-1.79095,-15.83313l73.1118,-8.26998l1.79095,15.83313z" data-paper-data="{&quot;origPos&quot;:null}" fill="#e3e3e3" stroke-width="0"/><path d="M347.5618,146.45279c0,0 -0.8606,-8.82744 -1.4479,-15.87279c-0.11689,-1.4023 -2.36392,-8.6994 -10.0768,-7.94225c-48.96919,4.80716 -74.47195,6.84633 -123.38925,12.20441c-7.19246,0.78782 -7.35613,0.07525 -9.32123,5.39812c-0.93468,2.53176 -0.43807,23.91263 -0.43807,23.91263l-24.83371,1.86181c0,0 1.8541,-26.5696 2.57718,-35.53423c0.34164,-4.23553 1.97245,-8.81 19.69806,-10.64756c41.17251,-4.26823 107.40151,-6.86266 148.86521,-8.37083c3.35798,-0.25743 14.21892,3.92363 14.81082,8.31211c1.21402,9.00097 2.42872,24.54378 2.42872,24.54378z" data-paper-data="{&quot;origPos&quot;:null}" fill="#e3e3e3" stroke-width="0"/><g data-paper-data="{&quot;origPos&quot;:null}" stroke-width="0"><path d="M198.0459,248.08568c0,0 -0.50359,-14.80055 2.12538,-23.84208c1.50492,-5.1757 5.05356,-12.24749 6.61051,-17.40563c0.79413,-2.63093 6.12348,-4.08577 6.91064,-6.7191c1.47343,-4.92923 -4.15426,-11.70917 -4.15426,-11.70917l26.74454,7.42493c0,0 -1.50232,4.1669 -3.03484,9.29382c-1.35825,4.54388 -4.95806,9.73165 -4.95806,9.73165l0.24645,10.31225l-5.59455,12.98626l1.3635,11.6058l-3.4924,4.12261z" data-paper-data="{&quot;origPos&quot;:null,&quot;origRot&quot;:0}" fill="url(#color-4)"/><path d="M214.5194,252.32503l1.48127,-3.78244c0,0 8.80032,-0.3526 14.37554,-1.08594c7.04523,-0.92671 17.96281,-3.16771 17.96281,-3.16771l15.97772,-6.89672l19.30966,-41.85557l3.26154,1.20725l-17.86527,42.91185l-19.0653,8.66075c0,0 -11.80483,3.35937 -19.71668,4.52151c-6.01289,0.8832 -15.72126,-0.51297 -15.72126,-0.51297z" data-paper-data="{&quot;origPos&quot;:null}" fill="url(#color-5)"/><path d="M281.14847,203.3884l-13.07247,-10.92659l19.93766,-2.6429l-1.06237,7.48579z" data-paper-data="{&quot;origPos&quot;:null}" fill="#71648d"/></g><path d="M188.67954,178.37245l-1.90476,-16.8393l28.0613,-3.17413l1.90476,16.8393z" data-paper-data="{&quot;origPos&quot;:null}" fill="#e3e3e3" stroke-width="0"/><path d="M212.89282,173.52228l-2.2456,-14.68944l24.12796,-2.72922l1.59204,14.07464z" data-paper-data="{&quot;origPos&quot;:null}" fill="#626262" stroke-width="0"/><path d="M236.05085,172.63225l-1.87633,-16.58797l132.70377,-15.01069l1.87633,16.58797z" data-paper-data="{&quot;origPos&quot;:null}" fill="url(#color-6)" stroke-width="0"/><path d="M159.58912,219.26842l-42.77098,12.21316c0,0 -1.53138,-7.13615 -4.16775,-9.26186c-1.64452,-1.32598 -7.4107,-0.52011 -7.4107,-0.52011l4.84226,-33.71814l127.55537,-18.20144l2.68657,23.75096l-22.80249,2.07019c0,0 -17.57144,-3.66903 -27.75608,-2.39025c-5.78117,0.72586 -13.1767,6.14919 -20.19395,12.20867c-7.01725,6.05947 -9.98225,13.84883 -9.98225,13.84883z" data-paper-data="{&quot;origPos&quot;:null}" fill="#9181b1" stroke-width="0"/><g data-paper-data="{&quot;origPos&quot;:null}" fill="none" stroke-width="1" font-family="sans-serif" font-weight="normal" font-size="12" text-anchor="start"/><path d="M360.26689,170.34908l-1.33617,-11.81265l23.12262,-2.6155l1.33618,11.81265z" data-paper-data="{&quot;origPos&quot;:null}" fill="#4c4c4c" stroke-width="0"/><path d="M240.29974,193.3173l-4.1704,-23.36668l132.58636,-14.22558c0,0 1.59528,-0.10672 -1.37601,6.08855c-0.99043,2.06509 -4.43766,4.81423 -4.43766,4.81423l6.05383,2.8994l-5.80885,20.03816l-3.90122,0.11789l-6.69299,-6.22683l-11.54354,0.40359l-27.00519,3.21515z" data-paper-data="{&quot;origPos&quot;:null}" fill="url(#color-7)" stroke-width="0"/><path d="M328.56587,183.46871l1.09373,-5.74699c0,0 2.51626,-6.12911 3.63539,-6.30796c1.00133,-0.16003 3.71186,4.8242 3.71186,4.8242l2.62503,5.77181z" data-paper-data="{&quot;origPos&quot;:null,&quot;origRot&quot;:0}" fill="#e3e3e3" stroke-width="0"/><path d="M314.25525,184.77981l1.09373,-5.74698c0,0 2.51626,-6.12911 3.63539,-6.30796c1.00133,-0.16003 3.71185,4.8242 3.71185,4.8242l2.62503,5.77181z" data-paper-data="{&quot;origPos&quot;:null,&quot;origRot&quot;:0}" fill="#e3e3e3" stroke-width="0"/><path d="M299.16143,185.87397l1.39659,-5.68099c0,0 2.83735,-5.98722 3.96439,-6.10654c1.0084,-0.10677 3.45112,5.01403 3.45112,5.01403l2.31563,5.90274z" data-paper-data="{&quot;origPos&quot;:null,&quot;origRot&quot;:0}" fill="#e3e3e3" stroke-width="0"/><path d="M285.80307,187.53669l1.09372,-5.74697c0,0 2.51626,-6.1291 3.63539,-6.30795c1.00133,-0.16003 3.71186,4.8242 3.71186,4.8242l2.62503,5.7718z" data-paper-data="{&quot;origPos&quot;:null,&quot;origRot&quot;:0}" fill="#e3e3e3" stroke-width="0"/><path d="M221.52288,197.43166l-6.42742,-2.81351l119.89828,-13.25183l11.72125,-0.40915l8.98784,0.86154l4.66135,7.6095l-2.33902,0.25799l-4.40773,-4.18206l-11.29972,-0.58246z" data-paper-data="{&quot;origPos&quot;:null}" fill="#e3e3e3" stroke-width="0"/><path d="M180.73219,180.84914l-2.24746,-19.86902l9.07337,-0.39748l2.79815,19.17788l-14.88494,19.42712l-40.19679,2.46446l4.67202,-3.90666l18.86485,-3.82349l9.43801,-9.45984z" data-paper-data="{&quot;origPos&quot;:null}" fill="#e3e3e3" stroke-width="0"/><path d="M186.92018,160.63705c-0.2944,-2.60264 1.5768,-4.95115 4.17944,-5.24555c2.60264,-0.2944 4.95114,1.57681 5.24554,4.17945c0.2944,2.60264 -1.57679,4.95114 -4.17943,5.24554c-2.60264,0.2944 -4.95115,-1.5768 -5.24555,-4.17944z" data-paper-data="{&quot;origPos&quot;:null}" fill="#71648d" stroke-width="0"/><path d="M165.29054,193.05047c-0.27637,-2.44329 1.48027,-4.64801 3.92355,-4.92438c2.44329,-0.27637 4.648,1.48027 4.92437,3.92355c0.27637,2.44329 -1.48026,4.648 -3.92354,4.92437c-2.44329,0.27637 -4.64801,-1.48026 -4.92438,-3.92355z" data-paper-data="{&quot;origPos&quot;:null}" fill="#71648d" stroke-width="0"/><path d="M119.24203,186.23243l5.72101,-11.96645l51.22482,-5.79425l1.26421,11.17633z" data-paper-data="{&quot;origPos&quot;:null}" fill="url(#color-8)" stroke-width="0"/><path d="M58.21117,241.74816l5.88786,-10.22658l21.5234,-5.45374c0,0 6.02792,2.07002 3.95212,2.75986c-1.00284,0.33327 -31.36339,12.92046 -31.36339,12.92046z" data-paper-data="{&quot;origPos&quot;:null}" fill="#e3e3e3" stroke-width="0"/><path d="M32.90088,247.9074l-9.95252,-49.90596l7.81936,-1.73228l9.95252,49.90596z" data-paper-data="{&quot;origPos&quot;:null,&quot;origRot&quot;:0}" fill="#e3e3e3" stroke-width="0"/><path d="M117.09143,224.01782c-0.24831,-2.19514 1.32993,-4.17594 3.52507,-4.42424c2.19514,-0.2483 4.17593,1.32991 4.42424,3.52506c0.24831,2.19514 -1.32991,4.17594 -3.52506,4.42424c-2.19514,0.2483 -4.17594,-1.32992 -4.42425,-3.52506z" data-paper-data="{&quot;origPos&quot;:null}" fill="#4c4c4c" stroke-width="0"/></g><g fill-rule="nonzero" stroke="none" stroke-width="0" stroke-linecap="butt"><path d="M335.24188,152.12132c-0.48673,-4.30303 8.71359,-8.87663 12.14457,-9.26473c3.43097,-0.38809 6.60691,2.7856 7.09364,7.08862c0.48673,4.30303 -1.90005,8.10592 -5.33103,8.49401c-3.43097,0.38809 -13.42045,-2.01488 -13.90718,-6.3179z" data-paper-data="{&quot;origPos&quot;:null}" fill="#9181b1"/><path d="M326.19272,156.45404l-0.73916,-6.53466l15.63105,-1.76809l0.73917,6.53466z" data-paper-data="{&quot;origPos&quot;:null}" fill="#9181b1"/><path d="M320.15094,158.66474l-1.1656,-10.30464l10.8215,-1.22407l1.16561,10.30465z" data-paper-data="{&quot;origPos&quot;:null}" fill="#9181b1"/><path d="M345.26179,150.98791c-0.20412,-1.8045 0.7968,-3.39926 2.2356,-3.562c1.4388,-0.16275 2.77063,1.16815 2.97475,2.97265c0.20412,1.8045 -0.79679,3.39926 -2.23559,3.562c-1.4388,0.16275 -2.77065,-1.16815 -2.97476,-2.97264z" data-paper-data="{&quot;origPos&quot;:null}" fill="#5a5a5a"/><path d="M207.90105,169.3254l-0.73916,-6.53466l113.22488,-12.80734l0.73916,6.53465z" data-paper-data="{&quot;origPos&quot;:null}" fill="#b1cfda"/><path d="M207.47043,170.90141l-1.08031,-9.55066l7.41473,-0.83871l1.08031,9.55065z" data-paper-data="{&quot;origPos&quot;:null}" fill="#9181b1"/><path d="M201.51257,175.6481l-1.93319,-17.09063l7.41473,-0.83871l1.93319,17.09063z" data-paper-data="{&quot;origPos&quot;:null}" fill="#9181b1"/></g><g fill="#ffffff" fill-rule="evenodd" stroke="none" stroke-width="1" stroke-linecap="butt"><path d="M63.33591,179.7953c-0.28272,0.15927 -0.34445,0.38025 -0.18518,0.66298c-1.19977,0.05925 -2.40766,0.11896 -3.6235,0.17906c0.04414,-0.08694 0.08827,-0.17387 0.13241,-0.2608c1.28888,-0.31589 2.51422,-0.5096 3.67629,-0.58124z" opacity="0.989"/><path d="M66.09335,179.73167c0.2864,-0.06347 0.55461,-0.02834 0.80432,0.10554c-0.30571,0.16208 -0.57376,0.12689 -0.80432,-0.10554z" opacity="0.616"/><path d="M65.34274,180.71318c0.43919,-0.0762 0.85463,0.00012 1.24632,0.22899c-0.43919,0.0762 -0.85463,-0.00012 -1.24632,-0.22899z" opacity="0.365"/><path d="M63.33591,179.7953c0.92706,-0.16717 1.8462,-0.18838 2.75744,-0.06363c0.23056,0.23242 0.49862,0.26762 0.80432,0.10554c0.6651,-0.01267 1.32208,0.05177 1.97102,0.1932c0.15926,0.28272 0.38026,0.34444 0.66299,0.18518c1.10621,0.18986 2.16409,0.52502 3.17351,1.00554c0.26108,0.27172 0.58217,0.40108 0.9636,0.38826c0.18526,0.25019 0.43286,0.35913 0.7426,0.32653c0.11128,0.22167 0.2852,0.30992 0.52161,0.2648c0.11128,0.22167 0.28521,0.30992 0.52162,0.2648c0.11128,0.22167 0.28521,0.30993 0.52161,0.26481c0.16116,0.21535 0.2334,0.45399 0.21699,0.71574c-0.52604,0.33358 -1.03111,0.6492 -1.51514,0.94664c-0.0265,-0.04707 -0.0531,-0.09427 -0.07963,-0.14136c-0.3702,-0.42739 -0.81821,-0.67165 -1.34386,-0.73271c-0.30789,-0.08708 -0.58201,-0.24308 -0.82224,-0.46789c-0.27264,-0.36168 -0.62049,-0.53815 -1.04323,-0.52962c-1.56567,-0.59658 -3.16574,-1.12294 -4.80008,-1.57898c-0.39169,-0.22887 -0.80711,-0.30519 -1.24631,-0.229c-0.73759,-0.036 -1.46832,-0.12095 -2.19203,-0.25491c-0.15926,-0.28272 -0.09754,-0.50371 0.18518,-0.66299z" opacity="0.998"/><path d="M68.8687,180.0304c0.24153,-0.01192 0.46252,0.04982 0.66299,0.18518c-0.28271,0.15927 -0.50371,0.09754 -0.66299,-0.18518z" opacity="0.306"/><path d="M72.7052,181.2211c0.38142,-0.01282 0.7025,0.11653 0.9636,0.38826c-0.38142,0.01282 -0.7025,-0.11653 -0.9636,-0.38826z" opacity="0.722"/><path d="M71.38914,182.52113c0.42275,-0.00853 0.77058,0.16795 1.04323,0.52962c-0.38556,-0.08411 -0.73325,-0.26067 -1.04323,-0.52962z" opacity="0.937"/><path d="M73.6688,181.60935c0.30976,-0.03259 0.55734,0.07634 0.7426,0.32653c-0.30976,0.03259 -0.55734,-0.07634 -0.7426,-0.32653z" opacity="0.588"/><path d="M74.4114,181.93589c0.23643,-0.04511 0.41034,0.04315 0.52161,0.2648c-0.23643,0.04511 -0.41034,-0.04315 -0.52161,-0.2648z" opacity="0.125"/><path d="M73.25463,183.51864c0.52564,0.06105 0.97366,0.30532 1.34386,0.73271c-0.48701,-0.15284 -0.93497,-0.39694 -1.34386,-0.73271z" opacity="0.69"/><path d="M74.93302,182.2007c0.23643,-0.04511 0.41034,0.04314 0.52161,0.26479c-0.23643,0.04511 -0.41034,-0.04314 -0.52161,-0.26479z" opacity="0.247"/><path d="M75.45463,182.46551c0.23643,-0.04511 0.41034,0.04315 0.52161,0.26481c-0.23643,0.04511 -0.41034,-0.04315 -0.52161,-0.26481z" opacity="0.086"/><path d="M76.87814,183.33957c0.33967,0.02447 0.61378,0.18049 0.82224,0.46789c-0.33967,-0.02447 -0.61378,-0.18049 -0.82224,-0.46789z" opacity="0.102"/><path d="M75.97626,182.73032c0.34701,0.11754 0.64767,0.32061 0.90188,0.60925c0.20847,0.28741 0.48257,0.44343 0.82224,0.4679c0.0265,0.04707 0.05311,0.09428 0.07966,0.14136c0.12375,0.26399 0.30349,0.47298 0.53952,0.62715c-0.65972,0.37165 -1.3193,0.74322 -1.97902,1.11486c-0.15688,-0.35817 -0.41044,-0.58778 -0.76052,-0.68889c-0.30062,-0.20308 -0.60125,-0.40618 -0.90188,-0.60926c0.48402,-0.29744 0.98909,-0.61306 1.51514,-0.94664c0.01642,-0.26177 -0.05582,-0.5004 -0.21698,-0.71574z" opacity="0.983"/><path d="M59.09474,195.40606c-3.82028,2.09048 -7.56325,4.26105 -11.22907,6.512c-0.21737,0.11927 -0.34116,0.06482 -0.3713,-0.16327c0.12558,-0.18398 0.28755,-0.33723 0.48581,-0.45989c3.6408,-1.80613 7.17478,-3.79695 10.60191,-5.97247c0.19498,-0.08395 0.36578,-0.05614 0.51267,0.08364z" opacity="0.17"/><path d="M65.73859,191.66332c-1.7005,0.89689 -3.32323,1.87304 -4.86793,2.92851c-0.41212,0.09882 -0.49174,-0.04253 -0.2389,-0.42407c1.71885,-0.84781 3.4212,-1.6826 5.10683,-2.50444z" opacity="0.175"/><path d="M75.57998,185.00196c0.35006,0.10112 0.60363,0.33072 0.76052,0.68889c-2.07731,1.10896 -4.07689,2.29742 -5.99881,3.56557c-0.31975,-0.15767 -0.30509,-0.35216 0.04382,-0.58334c1.87667,-0.84698 3.68049,-1.83221 5.41144,-2.95538c-0.03615,-0.29323 -0.10852,-0.53178 -0.21699,-0.71574z" opacity="0.152"/><path d="M77.78001,183.94882c0.18656,0.03661 0.36046,0.12487 0.52161,0.2648c0.35451,-0.07513 0.69026,-0.14025 1.00742,-0.19508c-0.3298,0.18577 -0.65973,0.37165 -0.98952,0.55743c-0.23603,-0.15418 -0.41575,-0.36318 -0.53952,-0.62715z" opacity="0.192"/><path d="M70.3417,189.25644c1.92191,-1.26816 3.92147,-2.45662 5.99879,-3.56558c0.65972,-0.37165 1.3193,-0.74321 1.97901,-1.11485c0.3298,-0.18577 0.65972,-0.37166 0.98952,-0.55744c0.94853,-0.55446 1.93548,-0.67581 2.96052,-0.36425c0.2741,0.15602 0.56868,0.2383 0.88397,0.24691c0.30976,-0.03259 0.55734,0.07635 0.74261,0.32654c0.11128,0.22167 0.28521,0.30992 0.52162,0.2648c0.96531,0.99158 1.67596,2.143 2.13218,3.45433c0.14299,0.43992 0.14034,0.87587 -0.008,1.30805c-0.16108,0.17883 -0.17574,0.37329 -0.04382,0.58334c-0.18588,0.66206 -0.44486,1.30443 -0.77652,1.9272c0.1057,0.06764 0.20588,0.13542 0.30063,0.20309c0.18526,0.25019 0.43286,0.35913 0.7426,0.32653c0.18526,0.25019 0.43286,0.35914 0.74261,0.32654c0.18526,0.25019 0.43285,0.35913 0.7426,0.32653c0.11128,0.22167 0.28521,0.30992 0.52162,0.2648c0.30976,-0.03259 0.55734,0.07635 0.74261,0.32654c0.26108,0.27172 0.58217,0.40108 0.96359,0.38826c0.11128,0.22167 0.2852,0.30992 0.52161,0.2648c0.53853,0.08826 0.96295,0.34579 1.27318,0.77251c-1.26527,0.69006 -2.49043,1.38024 -3.67532,2.07046c-0.8064,-0.48707 -1.60518,-0.96816 -2.39604,-1.44349c-1.04837,-0.61015 -2.05057,-1.28709 -3.00625,-2.03085c-0.18843,0.10615 -0.37699,0.2124 -0.56544,0.31855c-1.03659,0.58395 -2.07331,1.16796 -3.1099,1.75192c0.90249,1.60203 1.80503,3.20418 2.70752,4.80619c-0.65972,0.37165 -1.3193,0.74322 -1.97902,1.11486c-0.18843,0.10615 -0.37699,0.21239 -0.56543,0.31853c-2.27084,-4.24887 -4.701,-8.34221 -7.29042,-12.28029c-0.09428,0.05311 -0.16787,0.03255 -0.22097,-0.06172c-0.31957,-0.20861 -0.66122,-0.26438 -1.02532,-0.16726c-0.1267,-0.11484 -0.2741,-0.15603 -0.44197,-0.12345c-0.12081,0.00606 -0.24156,0.01185 -0.36235,0.0179zM78.62204,187.75751c0.0531,0.09427 0.10615,0.18843 0.15926,0.28271c0.70011,0.93669 1.39891,1.84658 2.09638,2.72963c0.20827,0.29534 0.22328,0.59731 0.04477,0.90587c-0.92483,0.36979 -1.8364,0.7902 -2.73459,1.26117c-0.67064,-1.22517 -1.33422,-2.40312 -1.99081,-3.53397c0.71877,-0.66747 1.52711,-1.21596 2.425,-1.64543zM81.54677,186.66855c0.35248,0.18076 0.70031,0.35726 1.04323,0.52963c0.09639,0.15223 0.22309,0.26707 0.38026,0.34444c-0.03057,0.22803 0.07559,0.41645 0.31853,0.56543c0.0265,0.04707 0.0531,0.09428 0.07965,0.14137c0.02969,0.46557 -0.02009,0.92826 -0.14936,1.38768c-0.61347,-0.8652 -1.25923,-1.68094 -1.9371,-2.44693c-0.10485,-0.13685 -0.161,-0.29142 -0.16823,-0.46389c0.15473,0.05287 0.29909,0.03375 0.43304,-0.05774z"/><path d="M59.09474,195.40606c0.66623,0.742 1.14402,1.59017 1.43339,2.54447c-2.45017,1.38028 -4.90048,2.76063 -7.35064,4.14091c0.61055,1.08379 1.22101,2.16745 1.83154,3.25124c1.84467,-0.85389 3.66184,-1.81537 5.45127,-2.88469c0.45129,0.80108 0.90249,1.60203 1.35377,2.4031c-1.79059,1.00871 -3.58104,2.01735 -5.37163,3.02606c1.00871,1.79059 2.01735,3.58104 3.02606,5.37163c-0.80636,0.63265 -1.67506,1.18404 -2.60619,1.65439c-2.05089,-3.49491 -4.04171,-7.02889 -5.97247,-10.60191c-0.37293,-0.86459 -0.89187,-1.56536 -1.55684,-2.10247c-0.50306,-0.04678 -0.99214,-0.14367 -1.4673,-0.29073c3.66582,-2.25096 7.40878,-4.42152 11.22906,-6.512z"/><path d="M65.73859,191.66332c0.12132,0.34097 0.34835,0.52349 0.68089,0.54752c0.15688,0.35817 0.41043,0.58778 0.7605,0.68889c0.2342,0.46696 0.58793,0.76432 1.06114,0.89198c0.0265,0.04707 0.05311,0.09428 0.07966,0.14136c0.12132,0.34097 0.34834,0.52349 0.68089,0.54752c0.13684,0.39032 0.39025,0.62001 0.76051,0.68889c0.2342,0.46696 0.58793,0.76432 1.06114,0.89198c0.0265,0.04707 0.0531,0.09427 0.07963,0.14136c0.12132,0.34097 0.34835,0.5235 0.68089,0.54752c0.15688,0.35817 0.41044,0.58777 0.76051,0.68888c0.15688,0.35817 0.41044,0.58778 0.76051,0.68889c0.10066,0.24944 0.26734,0.43487 0.4997,0.55648c-0.08969,0.10788 -0.14416,0.23167 -0.16327,0.37129c0.37303,0.1042 0.74121,0.20703 1.10496,0.30864c0.2342,0.46696 0.58793,0.76432 1.06114,0.89198c0.0265,0.04707 0.05311,0.09427 0.07965,0.14136c0.23875,0.45191 0.59249,0.74927 1.06114,0.89198c0.47403,0.3205 0.88079,0.71199 1.22039,1.17469c-0.7275,0.77462 -1.61667,1.39976 -2.66789,1.87537c-0.2467,-0.04985 -0.447,-0.18526 -0.60125,-0.40617c-0.15688,-0.35817 -0.41044,-0.58778 -0.76052,-0.68889c-0.0265,-0.04707 -0.0531,-0.09428 -0.07964,-0.14137c-0.19547,-0.31557 -0.44903,-0.54518 -0.76051,-0.68889c-1.87404,0.92835 -3.76482,1.8693 -5.67225,2.82296c-0.03624,0.64704 0.1144,1.24505 0.45188,1.79384c0.06482,0.07837 0.1517,0.12253 0.2608,0.13241c-0.0357,0.44468 -0.00145,0.89094 0.10249,1.33891c-0.09842,-0.0481 -0.19562,-0.05537 -0.29168,-0.0219c-0.88327,0.5285 -1.79172,1.00936 -2.72563,1.44236c0.01642,-0.26177 -0.05583,-0.5004 -0.217,-0.71574c-0.08025,-0.16131 -0.11281,-0.32919 -0.09753,-0.50371c-0.01558,-0.29737 0.08014,-0.56842 0.28672,-0.81328c-0.28055,-0.28777 -0.47963,-0.64117 -0.59723,-1.0602c-0.0265,-0.04707 -0.05311,-0.09428 -0.07965,-0.14137c0.07414,-0.27099 0.16965,-0.54212 0.28673,-0.81328c-0.28055,-0.28777 -0.47964,-0.64116 -0.59724,-1.06019c-0.00606,-0.12081 -0.01186,-0.24156 -0.01791,-0.36235c0.04697,-0.22535 -0.01195,-0.44038 -0.17717,-0.64507c0.11515,-0.58795 0.03817,-1.16526 -0.23089,-1.7321c-0.0265,-0.04707 -0.05311,-0.09428 -0.07965,-0.14137c0.07299,-0.52232 -0.02456,-1.02602 -0.29262,-1.51114c0.15176,-0.29685 0.1133,-0.58561 -0.11544,-0.86606c-0.0265,-0.04707 -0.0531,-0.09427 -0.07964,-0.14136c0.08521,-0.23682 0.07321,-0.4783 -0.03581,-0.7247c-0.03297,-0.62183 -0.13635,-1.24629 -0.31054,-1.87348c-0.21775,-0.40639 -0.33591,-0.83628 -0.35435,-1.29014c0.1356,-0.30078 0.07651,-0.51572 -0.17717,-0.64507c-0.17883,-0.16108 -0.37332,-0.17575 -0.58335,-0.04383c-0.30916,-0.00703 -0.60388,-0.08922 -0.88396,-0.2469c1.54469,-1.05547 3.16741,-2.03162 4.86792,-2.92851zM66.33374,196.35597c0.44895,0.54504 0.9559,1.00433 1.52103,1.37777c0.19547,0.31557 0.44903,0.54518 0.76051,0.68889c0.19547,0.31557 0.44903,0.54517 0.76052,0.68888c0.44895,0.54504 0.9559,1.00433 1.52102,1.37776c0.07966,0.14136 0.15925,0.28272 0.2389,0.42407c-0.09428,0.05311 -0.18842,0.10614 -0.28271,0.15926c-0.10615,-0.18843 -0.25354,-0.2296 -0.44198,-0.12345c-0.11507,-0.09121 -0.23582,-0.0854 -0.36235,0.0179c-1.08054,0.27818 -2.10247,0.66764 -3.06608,1.16858c0.10036,-0.29489 0.06189,-0.58366 -0.11544,-0.86606c-0.0265,-0.04707 -0.0531,-0.09427 -0.07964,-0.14136c0.10036,-0.29489 0.06189,-0.58366 -0.11544,-0.86606c0.03078,-0.35197 -0.03436,-0.68772 -0.19509,-1.00742c0.0385,-0.34087 -0.02648,-0.67671 -0.1951,-1.00741c0.0385,-0.34087 -0.02647,-0.67672 -0.19509,-1.00743c0.07133,-0.1722 0.03878,-0.34007 -0.09753,-0.50371c0.06878,-0.11659 0.08644,-0.25054 0.05278,-0.40217c0.09842,0.0481 0.19562,0.05536 0.29168,0.0219z" opacity="0.999"/><path d="M65.73859,191.66332c0.30422,0.06697 0.53125,0.24951 0.68089,0.54752c-0.33253,-0.02404 -0.55957,-0.20657 -0.68089,-0.54752z" opacity="0.639"/><path d="M70.70405,189.23852c0.16787,-0.03256 0.31529,0.00862 0.44198,0.12346c-0.18843,0.10615 -0.33584,0.06498 -0.44198,-0.12346z" opacity="0.008"/><path d="M71.14605,189.36198c0.3641,-0.09711 0.70576,-0.04135 1.02532,0.16726c-0.3641,0.09711 -0.70576,0.04135 -1.02532,-0.16726z" opacity="0.573"/><path d="M61.75464,194.83874c0.21004,-0.13192 0.4045,-0.11727 0.58334,0.04382c-0.21004,0.13192 -0.4045,0.11727 -0.58334,-0.04382z" opacity="0.314"/><path d="M82.26957,183.65431c0.3563,-0.13871 0.65111,-0.05637 0.88397,0.24691c-0.31529,-0.00861 -0.60986,-0.09089 -0.88397,-0.24691z" opacity="0.008"/><path d="M62.33797,194.88256c0.25369,0.12934 0.31276,0.3443 0.17716,0.64508c-0.12565,-0.20091 -0.18473,-0.41587 -0.17716,-0.64508z" opacity="0.227"/><path d="M66.41948,192.21084c0.31149,0.14371 0.56504,0.37331 0.76051,0.68889c-0.35006,-0.10112 -0.60362,-0.33072 -0.76051,-0.68889z" opacity="0.392"/><path d="M49.33297,202.20878c0.66498,0.53712 1.18392,1.23789 1.55686,2.10248c-0.51699,-0.68306 -1.03591,-1.38385 -1.55686,-2.10248z" opacity="0.056"/><path d="M67.18,192.89973c0.38779,0.23517 0.74153,0.53254 1.06114,0.89198c-0.47322,-0.12766 -0.82694,-0.42501 -1.06114,-0.89198z" opacity="0.482"/><path d="M83.89614,184.22774c0.23643,-0.04511 0.41034,0.04315 0.52161,0.2648c-0.23643,0.04511 -0.41034,-0.04315 -0.52161,-0.2648z" opacity="0.067"/><path d="M60.52812,197.95052c-2.29896,1.48075 -4.67555,2.88159 -7.12967,4.20263c0.61319,1.0594 1.19715,2.09597 1.75194,3.10989c-0.04707,0.0265 -0.09428,0.05311 -0.14138,0.07964c-0.61055,-1.08379 -1.22101,-2.16746 -1.83155,-3.25125c2.45017,-1.38028 4.90049,-2.76063 7.35064,-4.14091z" opacity="0.082"/><path d="M62.86951,196.81776c0.17418,0.6272 0.27754,1.25166 0.31053,1.87348c-0.31008,-0.60894 -0.41358,-1.23331 -0.31053,-1.87348z" opacity="0.404"/><path d="M81.10479,186.5451c0.16787,-0.03256 0.31529,0.00861 0.44198,0.12345c-0.13394,0.09148 -0.27829,0.1106 -0.43304,0.05774c0.00723,0.17249 0.06338,0.32705 0.16823,0.4639c-0.12142,-0.00926 -0.22161,-0.07703 -0.30064,-0.20309c-0.06168,-0.19114 -0.02051,-0.33854 0.12345,-0.44198z" opacity="0.09"/><path d="M81.54677,186.66855c0.50065,-0.16808 0.84849,0.00841 1.04323,0.52963c-0.34292,-0.17237 -0.69075,-0.34888 -1.04323,-0.52963z" opacity="0.992"/><path d="M68.32077,193.93307c0.26046,0.11957 0.4875,0.30209 0.68089,0.54752c-0.33253,-0.02404 -0.55957,-0.20656 -0.68089,-0.54752z" opacity="0.655"/><path d="M78.62204,187.75751c0.80243,-0.512 1.63005,-0.91621 2.48274,-1.21241c-0.14397,0.10345 -0.18514,0.25085 -0.12345,0.44198c0.07902,0.12606 0.17921,0.19383 0.30064,0.20309c0.59822,1.0021 1.24994,1.93849 1.95501,2.80927c-0.00161,0.13536 -0.05592,0.25906 -0.16327,0.3713c-0.52372,0.38796 -1.07586,0.7301 -1.65649,1.02628c-0.11235,-0.29331 -0.29209,-0.5023 -0.53952,-0.62715c-0.53205,-1.06677 -1.23083,-1.97662 -2.09638,-2.72962c-0.0531,-0.09427 -0.10615,-0.18843 -0.15926,-0.28271z" opacity="0.99"/><path d="M66.33374,196.35597c-0.09606,0.03344 -0.19324,0.02618 -0.29167,-0.0219c0.03365,0.15162 0.01601,0.28558 -0.05278,0.40217c-0.07966,-0.14136 -0.15925,-0.28272 -0.2389,-0.42407c0.22022,-0.16409 0.4147,-0.14944 0.58335,0.04383z" opacity="0.133"/><path d="M69.00166,194.4806c0.31149,0.14371 0.56505,0.37331 0.76051,0.68889c-0.37028,-0.06889 -0.62369,-0.29856 -0.76051,-0.68889z" opacity="0.757"/><path d="M63.18003,198.69123c0.10901,0.24641 0.12102,0.4879 0.03581,0.72471c-0.18801,-0.24418 -0.19989,-0.48572 -0.03581,-0.72471z" opacity="0.322"/><path d="M82.97025,187.54262c0.28399,0.11208 0.39022,0.30064 0.31853,0.56543c-0.24296,-0.14897 -0.3491,-0.33741 -0.31853,-0.56543z" opacity="0.471"/><path d="M66.08683,197.23993c0.16862,0.33071 0.23359,0.66654 0.19509,1.00742c-0.22504,-0.31978 -0.29,-0.65562 -0.19509,-1.00742z" opacity="0.169"/><path d="M69.76216,195.16948c0.38779,0.23517 0.74153,0.53254 1.06115,0.89197c-0.47322,-0.12766 -0.82695,-0.42501 -1.06115,-0.89197z" opacity="0.537"/><path d="M78.78131,188.04023c0.86555,0.753 1.56434,1.66287 2.09638,2.72963c-0.69746,-0.88306 -1.39626,-1.79295 -2.09638,-2.72963z" opacity="0.082"/><path d="M81.28195,187.19017c0.67788,0.76598 1.32363,1.58171 1.9371,2.44692c0.12927,-0.45943 0.17906,-0.9221 0.14936,-1.38767c0.13153,0.18157 0.21415,0.38347 0.24785,0.60526c0.05327,0.45026 -0.07308,0.83186 -0.37931,1.14478c-0.70507,-0.87077 -1.35678,-1.80718 -1.95502,-2.80927z" opacity="0.216"/><path d="M63.29547,199.55729c0.22874,0.28045 0.2672,0.56921 0.11544,0.86606c-0.17733,-0.2824 -0.21581,-0.57117 -0.11544,-0.86606z" opacity="0.643"/><path d="M66.28191,198.24735c0.16862,0.33071 0.23359,0.66653 0.19509,1.00742c-0.22504,-0.31978 -0.29,-0.65562 -0.19509,-1.00742z" opacity="0.18"/><path d="M60.38067,202.31664c0.0265,0.04707 0.0531,0.09428 0.07964,0.14137c-1.78943,1.06931 -3.60659,2.03082 -5.45127,2.88469c0.04707,-0.0265 0.09429,-0.05311 0.14138,-0.07964c1.7306,-1.02166 3.47397,-2.00378 5.23027,-2.94642z" opacity="0.576"/><path d="M67.85476,197.73374c0.35006,0.10112 0.60361,0.33072 0.7605,0.68888c-0.31149,-0.14371 -0.56504,-0.3733 -0.7605,-0.68888z" opacity="0.2"/><path d="M63.41091,200.42336c0.26807,0.48511 0.36561,0.98882 0.29261,1.51113c-0.2011,-0.49844 -0.29862,-1.00215 -0.29261,-1.51113z" opacity="0.435"/><path d="M70.90294,196.20281c0.30422,0.06697 0.53125,0.24952 0.68088,0.54755c-0.33253,-0.02404 -0.55957,-0.20658 -0.68088,-0.54755z" opacity="0.682"/><path d="M72.39236,189.59096c2.58944,3.93809 5.01959,8.03144 7.29042,12.28031c-0.07836,0.13893 -0.20207,0.08458 -0.3713,-0.16327c-2.35335,-4.01223 -4.65972,-8.05113 -6.91911,-12.11703z" opacity="0.605"/><path d="M78.62204,187.75751c-0.89791,0.42947 -1.70625,0.97796 -2.425,1.64544c0.65661,1.13085 1.3202,2.30878 1.99083,3.53396c0.89817,-0.47097 1.80976,-0.89138 2.73459,-1.26117c0.17851,-0.30857 0.1635,-0.61054 -0.04477,-0.90587c0.24744,0.12486 0.42716,0.33384 0.53953,0.62715c-0.97865,0.73605 -2.03578,1.39358 -3.17162,1.97291c-0.79367,-1.354 -1.54002,-2.73374 -2.23868,-4.13922c0.78016,-0.68642 1.65178,-1.17744 2.61514,-1.47321z" opacity="0.377"/><path d="M68.61527,198.42263c0.35006,0.10112 0.60363,0.33072 0.76052,0.68889c-0.31149,-0.14371 -0.56506,-0.37332 -0.76052,-0.68889z" opacity="0.165"/><path d="M71.58382,196.75034c0.31149,0.14371 0.56504,0.37331 0.76051,0.68889c-0.35006,-0.10112 -0.60361,-0.33072 -0.76051,-0.68889z" opacity="0.478"/><path d="M86.54193,189.25493c0.13192,0.21004 0.11727,0.40451 -0.04382,0.58335c-0.13192,-0.21004 -0.11727,-0.40451 0.04382,-0.58335z" opacity="0.016"/><path d="M66.67208,200.2622c0.17734,0.28241 0.2158,0.57117 0.11544,0.86606c-0.17734,-0.28241 -0.2158,-0.57117 -0.11544,-0.86606z" opacity="0.216"/><path d="M63.78318,202.07585c0.26906,0.56686 0.34604,1.14416 0.23089,1.7321c-0.18216,-0.57688 -0.25913,-1.15419 -0.23089,-1.7321z" opacity="0.827"/><path d="M72.34434,197.43923c0.31149,0.14371 0.56505,0.37331 0.76052,0.68889c-0.35006,-0.10112 -0.60362,-0.33072 -0.76052,-0.68889z" opacity="0.584"/><path d="M66.86715,201.26962c0.17734,0.28241 0.2158,0.57116 0.11544,0.86606c-0.17734,-0.28241 -0.2158,-0.57116 -0.11544,-0.86606z" opacity="0.243"/><path d="M66.98259,202.13568c0.9636,-0.50093 1.98554,-0.89041 3.06607,-1.16859c-1.03214,0.46359 -2.07477,0.92672 -3.12781,1.38956c-0.03081,-0.09568 -0.01026,-0.16927 0.06172,-0.22097z" opacity="0.12"/><path d="M64.01407,203.80796c0.16523,0.2047 0.22415,0.41973 0.17716,0.64508c-0.05674,0.04408 -0.11717,0.04718 -0.18117,0.00895c-0.02098,-0.23064 -0.01977,-0.44864 0.004,-0.65402z" opacity="0.431"/><path d="M73.10485,198.12811c0.55746,0.30067 1.03804,0.71279 1.44139,1.23643c-0.36375,-0.10161 -0.73193,-0.20445 -1.10495,-0.30864c0.01911,-0.13964 0.07357,-0.26341 0.16327,-0.37129c-0.23238,-0.1216 -0.39905,-0.30705 -0.4997,-0.55648z" opacity="0.984"/><path d="M70.41103,200.94917c0.18843,-0.10615 0.33583,-0.06499 0.44198,0.12345c-0.16787,0.03256 -0.31528,-0.00861 -0.44198,-0.12345z" opacity="0.004"/><path d="M86.02222,191.96856c0.30976,-0.03259 0.55734,0.07635 0.74261,0.32654c-0.30976,0.03259 -0.55734,-0.07635 -0.74261,-0.32654z" opacity="0.384"/><path d="M70.89684,200.48929c0.2467,0.04985 0.447,0.18525 0.60125,0.40617c-0.04707,0.0265 -0.09428,0.0531 -0.14137,0.07965c-0.0531,-0.09427 -0.1267,-0.11484 -0.22098,-0.06172c-0.07966,-0.14136 -0.15925,-0.28272 -0.23889,-0.42407z" opacity="0.161"/><path d="M86.76482,192.2951c0.30976,-0.03259 0.55734,0.07634 0.7426,0.32653c-0.30976,0.03259 -0.55734,-0.07634 -0.7426,-0.32653z" opacity="0.537"/><path d="M82.62961,193.87975c0.27799,0.50969 0.44927,1.03386 0.5136,1.57284c-0.22211,-0.32553 -0.36067,-0.68192 -0.41606,-1.06914c-0.12081,0.00606 -0.24156,0.01186 -0.36235,0.01791c-0.92696,0.33858 -1.77816,0.75609 -2.55341,1.25222c0.86231,1.65368 1.74127,3.26914 2.63684,4.846c-0.7088,0.45908 -1.44218,0.81003 -2.20001,1.05314c0.65972,-0.37165 1.31929,-0.74322 1.97902,-1.11486c-0.90249,-1.60203 -1.80503,-3.20418 -2.70752,-4.8062c1.03659,-0.58395 2.07331,-1.16797 3.10989,-1.75192z" opacity="0.393"/><path d="M74.54624,199.36453c0.38779,0.23517 0.74153,0.53254 1.06115,0.89198c-0.47322,-0.12766 -0.82695,-0.42501 -1.06115,-0.89198z" opacity="0.573"/><path d="M87.50744,192.62163c0.30976,-0.03259 0.55734,0.07635 0.74261,0.32654c-0.30976,0.03259 -0.55734,-0.07635 -0.74261,-0.32654z" opacity="0.557"/><path d="M60.38067,202.31664c0.33147,0.36857 0.63066,0.7896 0.89786,1.26327c0.31175,0.5104 0.51977,1.04499 0.62411,1.60372c-1.7517,0.86949 -3.47147,1.83831 -5.1596,2.9066c0.90337,1.70971 1.89275,3.3559 2.96833,4.93861c0.00304,0.25529 -0.07782,0.33193 -0.2429,0.22995c-1.00871,-1.79059 -2.01735,-3.58104 -3.02606,-5.37163c1.79059,-1.00871 3.58104,-2.01735 5.37163,-3.02606c-0.45129,-0.80108 -0.90249,-1.60202 -1.35376,-2.40309c-0.0265,-0.04707 -0.0531,-0.09428 -0.07964,-0.14137z" opacity="0.323"/><path d="M64.20915,204.81537c0.11763,0.41901 0.31671,0.77244 0.59724,1.0602c-0.11707,0.27115 -0.21259,0.54228 -0.28671,0.81329c-0.17418,-0.6272 -0.27754,-1.25165 -0.31053,-1.87348z"/><path d="M82.62961,193.87975c0.18843,-0.10615 0.37699,-0.21239 0.56544,-0.31854c0.95566,0.74376 1.95788,1.4207 3.00625,2.03084c-0.21424,-0.08377 -0.33199,-0.01745 -0.3534,0.19908c0.16122,0.69409 0.26771,1.37898 0.31947,2.05465c-0.23381,-0.69137 -0.60537,-1.35097 -1.11487,-1.97903c-0.14137,0.07965 -0.28272,0.15926 -0.42409,0.23892c-0.34175,-0.54285 -0.41241,-0.50305 -0.21204,0.11944c-0.16787,0.03256 -0.33584,0.06499 -0.50372,0.09755c-0.12322,0.23049 -0.20856,0.46479 -0.25584,0.70279c-0.27799,-0.50969 -0.44927,-1.03387 -0.51362,-1.57285c-0.06434,-0.53899 -0.2356,-1.06316 -0.5136,-1.57284z"/><path d="M88.25004,192.94817c0.23643,-0.04511 0.41034,0.04315 0.52161,0.2648c-0.23643,0.04511 -0.41034,-0.04315 -0.52161,-0.2648z" opacity="0.322"/><path d="M73.09875,202.41459c-1.72622,0.95867 -3.45644,1.96446 -5.19046,3.0171c-0.06081,0.53632 -0.07072,1.06944 -0.02992,1.59972c-0.33747,-0.5488 -0.48813,-1.14679 -0.45188,-1.79384c1.90744,-0.95368 3.79823,-1.89462 5.67226,-2.82296z" opacity="0.404"/><path d="M75.68702,200.39785c0.43229,0.18327 0.78597,0.48052 1.06114,0.89198c-0.46865,-0.1427 -0.82239,-0.44007 -1.06114,-0.89198z" opacity="0.424"/><path d="M73.09875,202.41459c0.31149,0.14371 0.56504,0.3733 0.76051,0.68888c-0.35006,-0.10112 -0.60361,-0.33072 -0.76051,-0.68888z" opacity="0.024"/><path d="M64.59931,206.83022c0.11763,0.41901 0.31671,0.77244 0.59724,1.0602c-0.20656,0.24486 -0.30227,0.51591 -0.28671,0.81329c-0.24162,-0.61565 -0.34497,-1.2401 -0.31053,-1.87348z"/><path d="M73.9389,203.24483c0.35006,0.10112 0.60362,0.33072 0.76051,0.68889c-0.31149,-0.14371 -0.56504,-0.37331 -0.76051,-0.68889z" opacity="0.251"/><path d="M86.16738,197.84581c-0.04117,0.1474 -0.08228,0.29457 -0.12345,0.44197c-0.50994,0.02137 -0.98714,0.16596 -1.43151,0.43398c0.10485,0.13685 0.161,0.29142 0.16823,0.46389c-0.07359,-0.02055 -0.14741,-0.04117 -0.22098,-0.06172c0.22425,0.61856 0.13011,0.67159 -0.28271,0.15927c0.14114,0.3907 0.13558,0.76626 -0.01696,1.12686c-0.20409,-1.14239 -0.40505,-2.27071 -0.60315,-3.38459c0.0473,-0.23799 0.13264,-0.47229 0.25584,-0.7028c0.16787,-0.03256 0.33583,-0.06499 0.50371,-0.09754c-0.2004,-0.62249 -0.12971,-0.66232 0.21206,-0.11944c0.14137,-0.07965 0.28271,-0.15927 0.42408,-0.23892c0.50951,0.62806 0.88107,1.28766 1.11487,1.97904z" opacity="0.992"/><path d="M65.00738,209.20741c0.16116,0.21535 0.2334,0.45399 0.21699,0.71573c0.93391,-0.433 1.84235,-0.91384 2.72564,-1.44235c-0.83696,0.65603 -1.75288,1.23402 -2.74754,1.73402c-0.22504,-0.31978 -0.29,-0.65563 -0.19509,-1.00743z" opacity="0.039"/><path d="M77.96857,202.46452c0.28543,-0.0662 0.39882,0.02505 0.34043,0.27376c-0.94943,0.68773 -1.95217,1.2217 -3.00835,1.60162c1.05123,-0.47564 1.94042,-1.10076 2.66791,-1.87537z" opacity="0.043"/><path d="M86.16738,197.84581c0.17734,0.28241 0.2158,0.57116 0.11544,0.86605c-0.07966,-0.14136 -0.15925,-0.28272 -0.2389,-0.42407c0.04117,-0.1474 0.08228,-0.29457 0.12345,-0.44197z" opacity="0.098"/><path d="M86.28282,198.71185c0.18902,0.40395 0.23344,0.81336 0.13336,1.22841c-0.18902,-0.40395 -0.23344,-0.81336 -0.13336,-1.22841z" opacity="0.063"/><path d="M84.25998,200.41007c0.26847,0.42734 0.43671,0.89122 0.50466,1.39167c-0.19627,-0.09391 -0.31403,-0.02756 -0.35339,0.19907c-0.09864,-0.53773 -0.14909,-1.06796 -0.15126,-1.59076z" opacity="0.925"/><path d="M86.46991,201.02732c0.13778,0.32722 0.12917,0.6425 -0.02592,0.9457c-0.13778,-0.32722 -0.12917,-0.6425 0.02592,-0.9457z" opacity="0.039"/><path d="M86.44399,201.97302c0.13192,0.21004 0.11727,0.40451 -0.04382,0.58335c-0.13192,-0.21004 -0.11727,-0.40451 0.04382,-0.58335z" opacity="0.035"/><path d="M86.04392,198.28778c0.07966,0.14136 0.15926,0.28271 0.2389,0.42407c-0.10009,0.41504 -0.05567,0.82446 0.13335,1.2284c0.09012,0.36822 0.10803,0.73058 0.05372,1.08705c-0.15509,0.30318 -0.16369,0.61847 -0.02592,0.9457c-0.16108,0.17883 -0.17575,0.37332 -0.04382,0.58335c-0.14844,2.73538 -0.78156,5.35776 -1.8996,7.86711c-0.288,0.55552 -0.61316,1.08006 -0.97561,1.57381c-0.22167,0.11128 -0.30992,0.2852 -0.2648,0.52161c-0.18464,0.3813 -0.4348,0.70843 -0.75061,0.9815c-0.54913,0.20468 -0.70249,0.04285 -0.45989,-0.4858c0.14678,-0.52553 0.36452,-1.02062 0.65307,-1.48523c0.27172,-0.26108 0.40108,-0.58217 0.38826,-0.96359c0.3662,-1.45265 0.73052,-2.89941 1.09317,-4.34021c0.20861,-0.31957 0.26438,-0.66122 0.16725,-1.02533c-0.02822,-1.06492 -0.00828,-2.13128 0.05982,-3.19943c0.03936,-0.22665 0.15712,-0.29299 0.35339,-0.19908c-0.06795,-0.50046 -0.23618,-0.96434 -0.50466,-1.39167c0.15253,-0.36061 0.1581,-0.73616 0.01696,-1.12686c0.41283,0.51232 0.50697,0.4593 0.28272,-0.15926c0.07359,0.02055 0.14741,0.04117 0.22098,0.06172c-0.00723,-0.17249 -0.06338,-0.32705 -0.16823,-0.46389c0.44436,-0.268 0.92155,-0.41263 1.4315,-0.43399z" opacity="0.997"/><path d="M84.35142,205.20027c0.09711,0.36409 0.04135,0.70576 -0.16726,1.02532c-0.09711,-0.36409 -0.04135,-0.70576 0.16726,-1.02532z" opacity="0.239"/><path d="M83.09099,210.56578c0.01283,0.38141 -0.11653,0.70251 -0.38826,0.9636c-0.01283,-0.38141 0.11653,-0.70251 0.38826,-0.9636z" opacity="0.498"/><path d="M83.52496,211.99729c0.04511,0.23642 -0.04314,0.41034 -0.2648,0.52161c-0.04511,-0.23642 0.04314,-0.41034 0.2648,-0.52161z" opacity="0.004"/><path d="M82.04964,213.01459c-0.2426,0.52865 -0.08924,0.69048 0.45989,0.48581c-0.47678,0.86729 -1.13907,1.67501 -1.98703,2.42291c-0.09428,0.05311 -0.16787,0.03255 -0.22097,-0.06172c0.51469,-0.98379 1.09734,-1.93288 1.74813,-2.84698z" opacity="0.986"/><path d="M96.72274,219.45998c0.0531,0.09427 0.1267,0.11484 0.22098,0.06172c-0.26736,0.41691 -0.56183,0.83102 -0.88303,1.24231c-0.14376,-0.09555 -0.24686,-0.22368 -0.30957,-0.38426c0.32389,-0.30666 0.64771,-0.61312 0.97161,-0.91977z" opacity="0.459"/></g></g></g></svg>