<svg version="1.1" xmlns="http://www.w3.org/2000/svg" xmlns:xlink="http://www.w3.org/1999/xlink" width="361.05174" height="154.27468" viewBox="0,0,361.05174,154.27468"><defs><linearGradient x1="26.36059" y1="200.41101" x2="115.21527" y2="205.49489" gradientUnits="userSpaceOnUse" id="color-1"><stop offset="0" stop-color="#71648d"/><stop offset="1" stop-color="#64888d"/></linearGradient><linearGradient x1="74.0569" y1="137.75314" x2="74.0569" y2="197.77855" gradientUnits="userSpaceOnUse" id="color-2"><stop offset="0" stop-color="#b295ed"/><stop offset="1" stop-color="#c4c4c4"/></linearGradient><linearGradient x1="213.24073" y1="184.56844" x2="209.45184" y2="250.78978" gradientUnits="userSpaceOnUse" id="color-3"><stop offset="0" stop-color="#e3e3e3"/><stop offset="1" stop-color="#c2adec"/></linearGradient><linearGradient x1="245.34408" y1="201.83957" x2="242.43374" y2="252.7059" gradientUnits="userSpaceOnUse" id="color-4"><stop offset="0" stop-color="#e3e3e3"/><stop offset="1" stop-color="#c2adec"/></linearGradient><linearGradient x1="237.80363" y1="187.50645" x2="371.27846" y2="195.1433" gradientUnits="userSpaceOnUse" id="color-5"><stop offset="0" stop-color="#71648d"/><stop offset="1" stop-color="#64888d"/></linearGradient><linearGradient x1="121.13152" y1="161.3327" x2="179.61711" y2="164.67899" gradientUnits="userSpaceOnUse" id="color-6"><stop offset="0" stop-color="#c9b1d9"/><stop offset="1" stop-color="#80c1d9"/></linearGradient></defs><g transform="translate(-23.91262,-115.00238)"><g data-paper-data="{&quot;isPaintingLayer&quot;:true}" stroke-linejoin="miter" stroke-miterlimit="10" stroke-dasharray="" stroke-dashoffset="0" style="mix-blend-mode: normal"><g data-paper-data="{&quot;origPos&quot;:null}" fill-rule="nonzero" stroke-linecap="round"><path d="M154.82325,166.91722c3.25436,0.32184 -0.02156,-3.01963 -0.0186,0.32499c-0.8167,13.2268 -2.11821,26.49373 -1.95053,39.7874c0.12596,9.94536 0.81669,19.88797 2.20732,29.78977c1.09519,7.77125 3.83507,15.102 5.8652,22.82762c0.45537,1.86449 2.63918,-0.70695 -0.32487,-0.01859c-11.85352,2.75618 -24.21117,5.9582 -36.35344,8.67702c-3.03642,0.67907 0.30532,1.95773 -0.30628,-0.34346c-2.43706,-9.20541 -5.18954,-18.61782 -6.86747,-28.10058c-1.17631,-6.60623 -1.86879,-13.96331 -2.05939,-20.97999c-0.3814,-14.04902 0.58426,-28.14498 0.91474,-42.19371c0.09357,-4.41736 0.51594,-8.94897 0.5096,-13.46603c0.07728,-1.07654 -3.57065,0.01086 -0.34346,0.30628c12.89049,1.15867 25.70475,2.09917 38.72716,3.38927z" data-paper-data="{&quot;origPos&quot;:null}" fill="#e3e3e3" stroke="none" stroke-width="0"/><path d="M153.43517,259.54429l-5.25266,-22.1406l-2.47721,-19.37412l-0.29574,-17.61943l1.02323,-29.279" data-paper-data="{&quot;origPos&quot;:null}" fill="none" stroke="#c2adec" stroke-width="2.12828"/><path d="M149.73102,261.61424l-5.75366,-24.77719l-2.42145,-20.34873l-1.45556,-25.83511l1.26411,-22.09379" data-paper-data="{&quot;origPos&quot;:null}" fill="none" stroke="#c2adec" stroke-width="2.12828"/><path d="M141.87749,262.14279l-9.32688,-36.39062l-1.2326,-29.734l0.98618,-28.62914" data-paper-data="{&quot;origPos&quot;:null}" fill="none" stroke="#c2adec" stroke-width="2.12828"/><path d="M131.56366,265.79025l-5.41112,-13.67441l-4.69496,-31.88791l0.26196,-27.36673l1.81206,-25.97408" data-paper-data="{&quot;origPos&quot;:null}" fill="none" stroke="#c2adec" stroke-width="2.12828"/></g><path d="M245.36582,205.99026l0.58515,-10.22718l2.6515,0.15171l-0.58516,10.22717z" data-paper-data="{&quot;origPos&quot;:null}" fill="#71648d" fill-rule="nonzero" stroke="none" stroke-width="0" stroke-linecap="butt"/><path d="M239.64643,201.79232c-0.2003,3.50079 3.18733,10.51651 1.30456,10.40879c-1.88277,-0.10772 -4.91393,-7.10306 -4.71363,-10.60384c0.2003,-3.50079 3.13864,-8.16723 5.02141,-8.05951c1.88277,0.10772 -1.41206,4.75377 -1.61236,8.25455z" data-paper-data="{&quot;origPos&quot;:null}" fill="#71648d" fill-rule="nonzero" stroke="none" stroke-width="0" stroke-linecap="butt"/><g data-paper-data="{&quot;origPos&quot;:null}" fill-rule="nonzero" stroke="none" stroke-linecap="butt"><path d="M304.42617,161.72634l0.1904,-3.32789l23.62802,1.35189l-0.1904,3.32789z" data-paper-data="{&quot;origPos&quot;:null}" fill="#5f5f5f" stroke-width="0"/><path d="M26.80265,201.43794l0.15772,-11.50979l88.9118,4.08551l-9.32803,5.47611l-47.68072,10.20141l-11.38148,1.6l-18.28397,0.80099z" data-paper-data="{&quot;origPos&quot;:null}" fill="url(#color-1)" stroke-width="0"/><path d="M97.3009,197.77855l-70.45849,-4.3424l1.16993,-34.54827l7.90407,-21.13474l43.97257,1.45148l9.84574,10.60949l27.25337,1.89319l4.28329,38.92884z" data-paper-data="{&quot;origPos&quot;:null}" fill="url(#color-2)" stroke-width="0"/><path d="M113.93984,155.75764l0.48186,-8.42193l68.31117,3.90847l-0.48186,8.42192z" data-paper-data="{&quot;origPos&quot;:null}" fill="#393939" stroke-width="0"/><path d="M111.34551,168.28345l0.91019,-15.90808l73.4579,4.20294l-0.91019,15.90808z" data-paper-data="{&quot;origPos&quot;:null}" fill="#e3e3e3" stroke-width="0"/><path d="M352.56871,166.31982c0,0 0.64338,-8.84592 1.255,-15.88921c0.12174,-1.40188 -0.85995,-8.97375 -8.58985,-9.53076c-49.07732,-3.53649 -74.55793,-5.83596 -123.67721,-8.82068c-7.22216,-0.43885 -7.26306,-1.16882 -10.09934,3.74545c-1.34904,2.33741 -4.47239,23.49476 -4.47239,23.49476l-24.79121,-2.36122c0,0 6.31701,-25.87424 8.54449,-34.58779c1.05242,-4.11689 3.43274,-8.35001 21.21397,-7.16599c41.30169,2.75024 107.01674,11.3841 148.13905,16.90391c3.35318,0.31368 13.35147,6.26984 13.19332,10.69522c-0.32437,9.07667 -1.75347,24.60124 -1.75347,24.60124z" data-paper-data="{&quot;origPos&quot;:null}" fill="#e3e3e3" stroke-width="0"/><g data-paper-data="{&quot;origPos&quot;:null}" stroke-width="0"><path d="M188.02939,241.22696c0,0 2.00456,-14.67282 6.12351,-23.14011c2.35784,-4.84699 7.05041,-11.21745 9.45656,-16.03834c1.22726,-2.45892 6.72582,-2.99231 7.94662,-5.45477c2.28516,-4.60937 -2.11598,-12.24276 -2.11598,-12.24276l25.10535,11.83729c0,0 -2.18481,3.85313 -4.56161,8.64737c-2.10652,4.24904 -6.53116,8.75393 -6.53116,8.75393l-1.49961,10.20561l-7.70845,11.85418l-0.61718,11.66931l-4.13881,3.4732z" data-paper-data="{&quot;origPos&quot;:null,&quot;origRot&quot;:0}" fill="url(#color-3)"/><path d="M203.54967,248.18894l2.09911,-3.47775c0,0 8.73335,1.1395 14.35232,1.35878c7.10052,0.27708 18.23978,-0.08692 18.23978,-0.08692l16.91333,-4.09772l26.10451,-37.99087l3.01064,1.74101l-24.85937,39.27603l-20.25459,5.31467c0,0 -12.20274,1.31635 -20.19719,1.12488c-6.07566,-0.14552 -15.40851,-3.16208 -15.40851,-3.16208z" data-paper-data="{&quot;origPos&quot;:null}" fill="url(#color-4)"/><path d="M277.48966,211.21459l-11.03818,-12.97837l20.09755,0.76406l-2.312,7.19863z" data-paper-data="{&quot;origPos&quot;:null}" fill="#71648d"/></g><path d="M190.57749,170.9335l0.96803,-16.91902l28.19414,1.61315l-0.96804,16.91902z" data-paper-data="{&quot;origPos&quot;:null}" fill="#e3e3e3" stroke-width="0"/><path d="M215.26212,170.2445l0.26883,-14.85766l24.24218,1.38703l-0.80911,14.14126z" data-paper-data="{&quot;origPos&quot;:null}" fill="#626262" stroke-width="0"/><path d="M238.23753,173.28037l0.95358,-16.66649l133.33197,7.62867l-0.95359,16.66649z" data-paper-data="{&quot;origPos&quot;:null}" fill="#626262" stroke-width="0"/><path d="M154.99497,206.32588l-44.21966,4.81035c0,0 -0.30353,-7.2923 -2.5428,-9.83292c-1.39682,-1.5848 -7.21626,-1.76484 -7.21626,-1.76484l10.47013,-32.41508l128.79676,3.61386l-1.36535,23.86339l-22.82441,-1.81261c0,0 -16.6988,-6.58538 -26.95307,-7.04594c-5.82069,-0.26144 -14.02629,3.83425 -21.96652,8.62086c-7.94024,4.78661 -12.1788,11.96294 -12.1788,11.96294z" data-paper-data="{&quot;origPos&quot;:null}" fill="#9181b1" stroke-width="0"/><g data-paper-data="{&quot;origPos&quot;:null}" fill="none" stroke-width="1" font-family="sans-serif" font-weight="normal" font-size="12" text-anchor="start"/><path d="M361.05321,192.01933l0.67907,-11.86857l23.23208,1.32924l-0.67907,11.86857z" data-paper-data="{&quot;origPos&quot;:null}" fill="#4c4c4c" stroke-width="0"/><path d="M238.93008,194.38593l-0.16206,-23.73538l133.08358,8.38264c0,0 1.59037,0.16438 -2.38503,5.76848c-1.32513,1.86803 -5.18733,3.99516 -5.18733,3.99516l5.47685,3.88065l-9.11125,18.76847l-3.86504,-0.54302l-5.54458,-7.26823l-11.44574,-1.55278l-27.16014,-1.39425z" data-paper-data="{&quot;origPos&quot;:null}" fill="url(#color-5)" stroke-width="0"/><path d="M327.59117,199.59365l2.0491,-5.47954c0,0 3.51574,-5.61579 4.649,-5.60297c1.01397,0.01147 2.84333,5.38204 2.84333,5.38204l1.61199,6.13237z" data-paper-data="{&quot;origPos&quot;:null,&quot;origRot&quot;:0}" fill="#e3e3e3" stroke-width="0"/><path d="M313.26479,198.46778l2.0491,-5.47953c0,0 3.51573,-5.61579 4.64899,-5.60297c1.01397,0.01147 2.84331,5.38204 2.84331,5.38204l1.612,6.13237z" data-paper-data="{&quot;origPos&quot;:null,&quot;origRot&quot;:0}" fill="#e3e3e3" stroke-width="0"/><path d="M298.20308,196.99574l2.33645,-5.3633c0,0 3.80824,-5.42169 4.93923,-5.34885c1.01194,0.06516 2.55426,5.52508 2.55426,5.52508l1.28491,6.20915z" data-paper-data="{&quot;origPos&quot;:null,&quot;origRot&quot;:0}" fill="#e3e3e3" stroke-width="0"/><path d="M284.75585,196.37733l2.04908,-5.47953c0,0 3.51574,-5.61578 4.649,-5.60295c1.01397,0.01147 2.84332,5.38204 2.84332,5.38204l1.612,6.13236z" data-paper-data="{&quot;origPos&quot;:null,&quot;origRot&quot;:0}" fill="#e3e3e3" stroke-width="0"/><path d="M219.72805,195.26833l-5.85959,-3.85913l120.41342,7.19844l11.62184,1.57733l8.71303,2.36786l3.30851,8.28773l-2.34897,-0.14096l-3.63768,-4.86672l-11.03882,-2.48345z" data-paper-data="{&quot;origPos&quot;:null}" fill="#e3e3e3" stroke-width="0"/><path d="M182.32589,172.03168l1.1422,-19.96308l9.01007,1.1414l-0.48265,19.37492l-17.95359,16.6326l-40.0352,-4.3632l5.26497,-3.06103l19.23965,-0.58084l10.90076,-7.72904z" data-paper-data="{&quot;origPos&quot;:null}" fill="#e3e3e3" stroke-width="0"/><path d="M191.84024,153.15584c0.14962,-2.61497 2.39074,-4.61352 5.00571,-4.4639c2.61497,0.14962 4.61351,2.39075 4.46389,5.00571c-0.14962,2.61497 -2.39073,4.61352 -5.0057,4.4639c-2.61497,-0.14962 -4.61352,-2.39075 -4.4639,-5.00571z" data-paper-data="{&quot;origPos&quot;:null}" fill="#71648d" stroke-width="0"/><path d="M165.04455,181.44832c0.14046,-2.45486 2.24437,-4.33104 4.69923,-4.19059c2.45486,0.14046 4.33104,2.24437 4.19058,4.69922c-0.14046,2.45486 -2.24436,4.33104 -4.69922,4.19058c-2.45486,-0.14046 -4.33105,-2.24436 -4.1906,-4.69922z" data-paper-data="{&quot;origPos&quot;:null}" fill="#71648d" stroke-width="0"/><path d="M120.81028,166.94732l7.66076,-10.82768l51.46732,2.94474l-0.64249,11.22924z" data-paper-data="{&quot;origPos&quot;:null}" fill="url(#color-6)" stroke-width="0"/><path d="M51.27629,211.35211l7.53123,-9.08463l22.13545,-1.73842c0,0 5.59147,3.05882 3.42895,3.38798c-1.04474,0.15902 -33.09562,7.43506 -33.09562,7.43506z" data-paper-data="{&quot;origPos&quot;:null}" fill="#e3e3e3" stroke-width="0"/><path d="M25.2892,213.146l-1.37658,-50.87005l7.99963,-0.3861l1.37659,50.87005z" data-paper-data="{&quot;origPos&quot;:null,&quot;origRot&quot;:0}" fill="#e3e3e3" stroke-width="0"/><path d="M112.30585,203.82597c0.12619,-2.20553 2.01642,-3.89117 4.22195,-3.76498c2.20553,0.12619 3.89117,2.01643 3.76498,4.22196c-0.12619,2.20553 -2.01642,3.89117 -4.22195,3.76498c-2.20553,-0.12619 -3.89117,-2.01642 -3.76498,-4.22196z" data-paper-data="{&quot;origPos&quot;:null}" fill="#4c4c4c" stroke-width="0"/></g><path d="M287.06635,155.85861l0.75847,4.2501l-24.43174,-1.67983c0,0 1.21589,-6.87594 1.34895,-9.20158c0.35246,-6.16012 13.14923,-14.61903 10.67407,-9.09679c-0.70827,1.58022 -4.46941,5.4855 -5.44019,7.9358c-0.86343,2.17935 2.15743,5.06947 2.15743,5.06947z" data-paper-data="{&quot;origPos&quot;:null}" fill="#71648d" fill-rule="nonzero" stroke="none" stroke-width="0" stroke-linecap="butt"/><g data-paper-data="{&quot;origPos&quot;:null}" fill-rule="nonzero" stroke="none" stroke-width="0" stroke-linecap="butt"><path d="M339.4681,169.8251c0.24737,-4.3234 10.08821,-7.27662 13.53543,-7.07939c3.44721,0.19724 6.04121,3.86193 5.79385,8.18532c-0.24737,4.3234 -3.24242,7.66831 -6.68964,7.47107c-3.44721,-0.19724 -12.887,-4.25362 -12.63964,-8.57701z" data-paper-data="{&quot;origPos&quot;:null}" fill="#9181b1"/><path d="M329.8169,172.56644l0.37565,-6.5656l15.70505,0.89857l-0.37566,6.56559z" data-paper-data="{&quot;origPos&quot;:null}" fill="#9181b1"/><path d="M323.48843,173.72445l0.59238,-10.35343l10.87273,0.62209l-0.59237,10.35343z" data-paper-data="{&quot;origPos&quot;:null}" fill="#9181b1"/><path d="M349.5354,170.40111c0.10373,-1.81304 1.35973,-3.21573 2.80534,-3.13303c1.44561,0.08271 2.53341,1.61951 2.42968,3.43255c-0.10373,1.81304 -1.35972,3.21574 -2.80533,3.13303c-1.44561,-0.08271 -2.53342,-1.61952 -2.42969,-3.43256z" data-paper-data="{&quot;origPos&quot;:null}" fill="#5a5a5a"/><path d="M211.05133,165.26449l0.37565,-6.5656l113.76087,6.5089l-0.37566,6.5656z" data-paper-data="{&quot;origPos&quot;:null}" fill="#b1cfda"/><path d="M210.3606,166.74507l0.54904,-9.59587l7.44983,0.42624l-0.54904,9.59587z" data-paper-data="{&quot;origPos&quot;:null}" fill="#9181b1"/><path d="M203.68628,170.41678l0.98248,-17.17154l7.44983,0.42625l-0.98248,17.17154z" data-paper-data="{&quot;origPos&quot;:null}" fill="#9181b1"/></g><g fill="#ffffff" fill-rule="evenodd" stroke="none" stroke-width="1" stroke-linecap="butt"><path d="M67.628,153.01361c-0.31264,0.08692 -0.42549,0.2867 -0.33858,0.59933c-1.17902,-0.22983 -2.36607,-0.46115 -3.56092,-0.69402c0.06367,-0.07384 0.12734,-0.14768 0.19102,-0.2215c1.32703,0.002 2.56309,0.10742 3.70848,0.31619z" opacity="0.989"/><path d="M70.32042,153.61228c0.29326,0.00698 0.54526,0.10532 0.75564,0.29512c-0.33563,0.08415 -0.58746,-0.01423 -0.75564,-0.29512z" opacity="0.616"/><path d="M69.35657,154.38544c0.44465,0.0312 0.82971,0.20481 1.15519,0.52084c-0.44465,-0.0312 -0.82971,-0.20481 -1.15519,-0.52084z" opacity="0.365"/><path d="M67.628,153.01361c0.94012,0.05974 1.83758,0.25928 2.69241,0.59867c0.16818,0.28089 0.42002,0.37926 0.75564,0.29511c0.64879,0.14699 1.2712,0.36692 1.86738,0.65966c0.08692,0.31264 0.2867,0.42549 0.59933,0.33857c1.02854,0.44929 1.97536,1.02806 2.84031,1.73635c0.18839,0.32636 0.46917,0.52884 0.84256,0.60775c0.11995,0.28729 0.33424,0.45235 0.64278,0.49489c0.05495,0.24187 0.20267,0.3692 0.44302,0.38203c0.05495,0.24187 0.20267,0.3692 0.44301,0.38203c0.05495,0.24187 0.20267,0.36921 0.44301,0.38204c0.10489,0.24768 0.11787,0.49669 0.03924,0.74688c-0.59063,0.19789 -1.15659,0.38334 -1.69776,0.55619c-0.01446,-0.05205 -0.02898,-0.10426 -0.04346,-0.15632c-0.25705,-0.50361 -0.63353,-0.84807 -1.12924,-1.03325c-0.27808,-0.15829 -0.50684,-0.37541 -0.68624,-0.65122c-0.17808,-0.41645 -0.47351,-0.6711 -0.88601,-0.76406c-1.37721,-0.95421 -2.80463,-1.84849 -4.28219,-2.68269c-0.32548,-0.31603 -0.71053,-0.48963 -1.15519,-0.52084c-0.70749,-0.21162 -1.39661,-0.46911 -2.06716,-0.7725c-0.08692,-0.31264 0.02594,-0.51242 0.33858,-0.59934z" opacity="0.998"/><path d="M72.94343,154.56704c0.23735,0.04629 0.43713,0.15915 0.59933,0.33858c-0.31264,0.08692 -0.51241,-0.02594 -0.59933,-0.33858z" opacity="0.306"/><path d="M76.38308,156.64197c0.37339,0.07891 0.65416,0.2814 0.84257,0.60775c-0.37339,-0.07891 -0.65416,-0.2814 -0.84257,-0.60775z" opacity="0.722"/><path d="M74.79396,157.58896c0.41249,0.09296 0.70793,0.34762 0.88601,0.76407c-0.35419,-0.17399 -0.64948,-0.42871 -0.88601,-0.76407z" opacity="0.937"/><path d="M77.22562,157.24973c0.30854,0.04254 0.52284,0.2076 0.64279,0.49488c-0.30854,-0.04254 -0.52284,-0.2076 -0.64279,-0.49488z" opacity="0.588"/><path d="M77.86842,157.74462c0.24034,0.01284 0.38805,0.14016 0.44301,0.38202c-0.24034,-0.01284 -0.38805,-0.14016 -0.44301,-0.38202z" opacity="0.125"/><path d="M76.36621,159.00424c0.49571,0.18517 0.8722,0.52963 1.12925,1.03324c-0.43624,-0.26503 -0.81269,-0.60932 -1.12925,-1.03324z" opacity="0.69"/><path d="M78.31143,158.12665c0.24034,0.01284 0.38805,0.14015 0.443,0.38203c-0.24034,-0.01284 -0.38805,-0.14015 -0.443,-0.38203z" opacity="0.247"/><path d="M78.75443,158.50868c0.24034,0.01284 0.38806,0.14016 0.44301,0.38204c-0.24034,-0.01284 -0.38806,-0.14016 -0.44301,-0.38204z" opacity="0.086"/><path d="M79.92716,159.69825c0.32393,0.10512 0.55268,0.32225 0.68624,0.65122c-0.32393,-0.10512 -0.55268,-0.32225 -0.68624,-0.65122z" opacity="0.102"/><path d="M79.19745,158.89073c0.30878,0.19723 0.55202,0.46641 0.7297,0.80753c0.13356,0.32897 0.36231,0.5461 0.68624,0.65122c0.01446,0.05205 0.02898,0.10427 0.04346,0.15632c0.05693,0.28595 0.18139,0.5319 0.37361,0.73812c-0.72953,0.20282 -1.45892,0.4056 -2.18844,0.60842c-0.06654,-0.38532 -0.25772,-0.66897 -0.57339,-0.851c-0.24324,-0.26917 -0.48647,-0.53835 -0.72971,-0.80753c0.54117,-0.17285 1.10714,-0.35831 1.69778,-0.55618c0.07863,-0.25021 0.06565,-0.4992 -0.03924,-0.74688z" opacity="0.983"/><path d="M59.7713,167.1542c-4.20978,1.11463 -8.36366,2.32554 -12.46193,3.63295c-0.2396,0.06375 -0.34674,-0.01878 -0.32138,-0.24746c0.166,-0.14853 0.35994,-0.25854 0.5818,-0.33014c3.96742,-0.88154 7.87536,-1.968 11.72381,-3.25934c0.20941,-0.03482 0.36857,0.0331 0.47771,0.20399z" opacity="0.17"/><path d="M67.11821,165.11168c-1.86583,0.46348 -3.67511,1.02257 -5.42765,1.67735c-0.42379,-0.00275 -0.46724,-0.15906 -0.13038,-0.46895c1.87188,-0.41145 3.72461,-0.81422 5.55803,-1.2084z" opacity="0.175"/><path d="M78.26862,161.00134c0.31567,0.18202 0.50684,0.46568 0.57339,0.851c-2.28246,0.57914 -4.50849,1.25408 -6.67818,2.025c-0.27268,-0.22967 -0.21186,-0.41497 0.18225,-0.55586c2.02491,-0.37283 4.0122,-0.89736 5.96179,-1.57325c0.03514,-0.29335 0.02201,-0.54229 -0.03925,-0.74688z" opacity="0.152"/><path d="M80.65685,160.50578c0.17235,0.08023 0.32007,0.20758 0.443,0.38203c0.36218,0.01197 0.70376,0.02916 1.02482,0.05188c-0.36469,0.10138 -0.72953,0.20282 -1.09422,0.30421c-0.19222,-0.20622 -0.31667,-0.45219 -0.37361,-0.73813z" opacity="0.192"/><path d="M72.16381,163.87733c2.16969,-0.77093 4.39574,-1.44586 6.67818,-2.02501c0.72953,-0.20282 1.45891,-0.40559 2.18844,-0.60841c0.36469,-0.10138 0.72953,-0.20283 1.09422,-0.30421c1.05374,-0.31114 2.04102,-0.19257 2.9616,0.35545c0.22876,0.21712 0.49506,0.36755 0.79909,0.45144c0.30854,0.04254 0.52284,0.20761 0.64278,0.4949c0.05495,0.24187 0.20267,0.36921 0.44301,0.38204c0.69971,1.19393 1.1139,2.48204 1.24277,3.86447c0.03345,0.46138 -0.07352,0.88399 -0.32107,1.26806c-0.19923,0.13504 -0.26003,0.32036 -0.18225,0.55587c-0.33904,0.59828 -0.74434,1.15991 -1.21551,1.68512c0.08643,0.09098 0.16746,0.18077 0.24323,0.26917c0.11995,0.28729 0.33424,0.45235 0.64278,0.4949c0.11995,0.28729 0.33424,0.45236 0.64278,0.49489c0.11995,0.28729 0.33424,0.45235 0.64278,0.4949c0.05495,0.24187 0.20268,0.3692 0.44301,0.38203c0.30854,0.04254 0.52284,0.20761 0.64278,0.4949c0.18839,0.32636 0.46916,0.52885 0.84256,0.60775c0.05495,0.24187 0.20267,0.3692 0.443,0.38203c0.50172,0.21466 0.85211,0.56636 1.0511,1.05498c-1.39372,0.36692 -2.74851,0.74358 -4.06425,1.12991c-0.66627,-0.66602 -1.32657,-1.32445 -1.98058,-1.97537c-0.87172,-0.84349 -1.68263,-1.74078 -2.43233,-2.69177c-0.20837,0.05793 -0.41689,0.1159 -0.62527,0.17383c-1.14628,0.31868 -2.2927,0.63739 -3.43897,0.95607c0.49252,1.77155 0.98506,3.54324 1.47757,5.31479c-0.72953,0.20282 -1.45892,0.4056 -2.18844,0.60842c-0.20837,0.05793 -0.41689,0.11591 -0.62526,0.17384c-1.18708,-4.66908 -2.56611,-9.22535 -4.13694,-13.66901c-0.10425,0.02899 -0.17078,-0.0086 -0.19977,-0.11285c-0.26029,-0.27909 -0.57865,-0.41505 -0.95542,-0.40797c-0.09552,-0.14185 -0.22875,-0.21712 -0.39954,-0.22572c-0.11874,-0.02306 -0.23736,-0.04634 -0.35609,-0.06941zM80.56216,164.40529c0.02899,0.10426 0.05792,0.20837 0.08691,0.31262c0.45539,1.07711 0.91591,2.12788 1.38156,3.15229c0.13147,0.33662 0.07371,0.6334 -0.1735,0.89024c-0.98647,0.13752 -1.97221,0.32735 -2.95705,0.56949c-0.35767,-1.35013 -0.71981,-2.65274 -1.08646,-3.90793c0.85771,-0.47589 1.77389,-0.81481 2.74853,-1.01673zM83.66257,164.04854c0.29893,0.25992 0.59436,0.51459 0.88601,0.76407c0.05711,0.17088 0.15263,0.31273 0.2867,0.42549c-0.08429,0.21407 -0.02638,0.42243 0.17383,0.62526c0.01446,0.05205 0.02899,0.10427 0.04347,0.15632c-0.08269,0.45914 -0.24184,0.89642 -0.47739,1.31151c-0.38839,-0.98694 -0.81997,-1.9336 -1.29466,-2.83966c-0.06901,-0.15797 -0.08652,-0.3215 -0.05222,-0.49069c0.13756,0.08839 0.2823,0.1044 0.43425,0.04766z"/><path d="M59.7713,167.1542c0.46912,0.87998 0.72988,1.81788 0.78226,2.81372c-2.70944,0.75325 -5.41906,1.50655 -8.1285,2.25982c0.3332,1.19848 0.66633,2.39682 0.99953,3.59529c1.99549,-0.3872 3.99007,-0.88548 5.98353,-1.49508c0.24628,0.88585 0.49252,1.77155 0.73879,2.65739c-1.98007,0.55049 -3.95999,1.10092 -5.94006,1.65141c0.55049,1.98007 1.10092,3.95998 1.6514,5.94006c-0.93442,0.4211 -1.90989,0.74838 -2.92656,0.98202c-1.15412,-3.88441 -2.24057,-7.79232 -3.25934,-11.7238c-0.15501,-0.92874 -0.49097,-1.73341 -1.00796,-2.41416c-0.47722,-0.1659 -0.92887,-0.37712 -1.35498,-0.63369c4.09826,-1.30743 8.25214,-2.51833 12.46192,-3.63296z"/><path d="M67.11821,165.11168c0.03612,0.3601 0.21283,0.59169 0.52992,0.69468c0.06654,0.38532 0.25771,0.66896 0.57337,0.85099c0.11553,0.50946 0.38775,0.8829 0.81662,1.12018c0.01446,0.05205 0.02898,0.10425 0.04346,0.15631c0.03612,0.3601 0.21282,0.59169 0.52992,0.69468c0.03937,0.41174 0.23038,0.69544 0.57337,0.85099c0.11553,0.50946 0.38775,0.88289 0.81661,1.12017c0.01446,0.05205 0.02899,0.10426 0.04347,0.15632c0.03612,0.3601 0.21282,0.59169 0.52992,0.69467c0.06654,0.38532 0.25772,0.66897 0.57338,0.85099c0.06654,0.38532 0.25772,0.66896 0.57339,0.85099c0.03798,0.26629 0.1554,0.48624 0.35188,0.65997c-0.11291,0.08326 -0.19545,0.19039 -0.24745,0.32138c0.33722,0.19051 0.67004,0.37853 0.99886,0.56431c0.11553,0.50946 0.38775,0.8829 0.81661,1.12017c0.01446,0.05205 0.02898,0.10426 0.04346,0.15632c0.12356,0.49594 0.39578,0.86938 0.81662,1.12017c0.38347,0.4247 0.68462,0.90224 0.90353,1.4328c-0.89185,0.57784 -1.90487,0.97179 -3.03942,1.1818c-0.22758,-0.10748 -0.38962,-0.28691 -0.48647,-0.53834c-0.06654,-0.38532 -0.25772,-0.66897 -0.57339,-0.851c-0.01446,-0.05205 -0.02897,-0.10426 -0.04345,-0.15632c-0.11419,-0.35321 -0.30538,-0.63685 -0.57339,-0.85099c-2.04184,0.45247 -4.10295,0.91316 -6.18328,1.38223c-0.19016,0.61953 -0.18712,1.2362 0.00908,1.84986c0.04416,0.09161 0.11794,0.15531 0.2215,0.19101c-0.14118,0.42319 -0.2148,0.86466 -0.22118,1.32448c-0.08404,-0.07028 -0.17666,-0.10059 -0.27793,-0.09113c-0.98414,0.30156 -1.98132,0.55084 -2.99176,0.74755c0.07863,-0.25021 0.06565,-0.49921 -0.03925,-0.74689c-0.03928,-0.17583 -0.03069,-0.34662 0.02595,-0.51241c0.05611,-0.29245 0.21397,-0.53268 0.47317,-0.72094c-0.20345,-0.34659 -0.31209,-0.73738 -0.32592,-1.17238c-0.01446,-0.05205 -0.02899,-0.10427 -0.04347,-0.15632c0.1369,-0.24536 0.29456,-0.48571 0.47318,-0.72095c-0.20345,-0.34659 -0.31211,-0.73737 -0.32594,-1.17237c0.02306,-0.11873 0.04633,-0.23736 0.0694,-0.3561c0.09958,-0.20753 0.09387,-0.43042 -0.01752,-0.66872c0.25263,-0.54326 0.31616,-1.1222 0.1907,-1.737c-0.01446,-0.05205 -0.02899,-0.10426 -0.04347,-0.15632c0.19597,-0.48962 0.2219,-1.00203 0.07782,-1.53723c0.21845,-0.25187 0.25026,-0.54143 0.09535,-0.8685c-0.01446,-0.05205 -0.02898,-0.10427 -0.04346,-0.15632c0.13945,-0.20952 0.18563,-0.44684 0.13881,-0.7122c0.11692,-0.61162 0.16612,-1.24266 0.14722,-1.89332c-0.11408,-0.44672 -0.12584,-0.89239 -0.03503,-1.33746c0.20368,-0.25955 0.19781,-0.48239 -0.0175,-0.66873c-0.13504,-0.19923 -0.32035,-0.26003 -0.55588,-0.18226c-0.29849,-0.08087 -0.56493,-0.23127 -0.7991,-0.45144c1.75254,-0.65478 3.5618,-1.21385 5.42765,-1.67734zM66.57209,169.81027c0.30533,0.6367 0.68754,1.20404 1.14677,1.70198c0.11419,0.35321 0.30538,0.63685 0.57337,0.85098c0.11419,0.35321 0.30538,0.63685 0.57337,0.85098c0.30533,0.6367 0.68755,1.20404 1.14676,1.70198c0.04346,0.15632 0.08691,0.31262 0.13038,0.46895c-0.10425,0.02899 -0.20837,0.05792 -0.31264,0.0869c-0.05793,-0.20837 -0.19118,-0.28364 -0.39955,-0.22571c-0.08988,-0.11613 -0.2085,-0.1394 -0.3561,-0.0694c-1.11571,0.01127 -2.20118,0.14466 -3.25671,0.40022c0.16806,-0.26228 0.19987,-0.55185 0.09534,-0.86851c-0.01446,-0.05205 -0.02898,-0.10426 -0.04346,-0.15631c0.16806,-0.26228 0.19987,-0.55184 0.09534,-0.8685c0.11418,-0.33435 0.13137,-0.67593 0.05189,-1.02482c0.11902,-0.32172 0.13638,-0.66334 0.05188,-1.02482c0.11902,-0.32172 0.13639,-0.66336 0.05188,-1.02483c0.1105,-0.15011 0.1191,-0.3209 0.02595,-0.51241c0.0947,-0.09672 0.14392,-0.22255 0.14757,-0.37782c0.08404,0.07028 0.17666,0.10059 0.27793,0.09113z" opacity="0.999"/><path d="M67.11821,165.11168c0.27932,0.13789 0.45604,0.3695 0.52992,0.69468c-0.31709,-0.10298 -0.4938,-0.33458 -0.52992,-0.69468z" opacity="0.639"/><path d="M72.51992,163.94674c0.17079,0.0086 0.30403,0.08387 0.39955,0.22572c-0.20837,0.05793 -0.34162,-0.01735 -0.39955,-0.22572z" opacity="0.008"/><path d="M72.91948,164.17246c0.37676,-0.00708 0.69512,0.12888 0.95541,0.40797c-0.37676,0.00708 -0.69512,-0.12888 -0.95541,-0.40797z" opacity="0.573"/><path d="M62.48967,167.24046c0.23551,-0.07778 0.42083,-0.01698 0.55586,0.18225c-0.23551,0.07778 -0.42083,0.01698 -0.55586,-0.18225z" opacity="0.314"/><path d="M85.08628,161.29515c0.37917,-0.04933 0.64566,0.10123 0.79909,0.45145c-0.30403,-0.08388 -0.57033,-0.23433 -0.79909,-0.45145z" opacity="0.008"/><path d="M63.04553,167.42272c0.21532,0.18634 0.22119,0.40918 0.01751,0.66873c-0.07388,-0.22516 -0.07975,-0.448 -0.01751,-0.66873z" opacity="0.227"/><path d="M67.64814,165.80634c0.26801,0.21413 0.45919,0.49777 0.57337,0.85099c-0.31567,-0.18202 -0.50683,-0.46567 -0.57337,-0.85099z" opacity="0.392"/><path d="M48.66434,171.42084c0.51698,0.68077 0.85296,1.48542 1.00796,2.41416c-0.33834,-0.787 -0.6743,-1.59168 -1.00796,-2.41416z" opacity="0.056"/><path d="M68.22153,166.65732c0.32018,0.3212 0.59238,0.69465 0.81661,1.12018c-0.42887,-0.23728 -0.70108,-0.61072 -0.81661,-1.12018z" opacity="0.482"/><path d="M86.52817,162.24148c0.24034,0.01284 0.38805,0.14017 0.44301,0.38204c-0.24034,-0.01284 -0.38805,-0.14017 -0.44301,-0.38204z" opacity="0.067"/><path d="M60.55354,169.96791c-2.5867,0.88702 -5.22964,1.67788 -7.92873,2.37268c0.34161,1.17544 0.66029,2.32171 0.95608,3.43899c-0.05205,0.01446 -0.10427,0.02899 -0.15632,0.04346c-0.3332,-1.19848 -0.66633,-2.39682 -0.99953,-3.59529c2.70944,-0.75325 5.41906,-1.50656 8.1285,-2.25983z" opacity="0.082"/><path d="M63.09807,169.42891c0.0189,0.65066 -0.03033,1.2817 -0.14724,1.89332c-0.15521,-0.66548 -0.10614,-1.29646 0.14724,-1.89332z" opacity="0.404"/><path d="M83.26302,163.82282c0.17079,0.0086 0.30403,0.08387 0.39955,0.22572c-0.15196,0.05672 -0.29668,0.04071 -0.43425,-0.04766c-0.03431,0.16918 -0.0168,0.33271 0.05222,0.49068c-0.11567,-0.03807 -0.19669,-0.12785 -0.24323,-0.26918c-0.01411,-0.20034 0.06116,-0.3336 0.22572,-0.39955z" opacity="0.09"/><path d="M83.66257,164.04854c0.52633,-0.04326 0.82179,0.21139 0.88601,0.76407c-0.29165,-0.24948 -0.58709,-0.50415 -0.88601,-0.76407z" opacity="0.992"/><path d="M69.08159,167.93382c0.22425,0.17847 0.40096,0.41005 0.52992,0.69466c-0.31709,-0.10298 -0.4938,-0.33456 -0.52992,-0.69466z" opacity="0.655"/><path d="M80.56216,164.40529c0.90171,-0.30491 1.80204,-0.49913 2.70086,-0.58246c-0.16456,0.06596 -0.23983,0.1992 -0.22572,0.39954c0.04654,0.14132 0.12756,0.23111 0.24323,0.26918c0.34079,1.11621 0.74926,2.18145 1.22526,3.19575c-0.03397,0.13103 -0.11634,0.23812 -0.24745,0.32139c-0.6014,0.25124 -1.21941,0.45116 -1.85408,0.59966c-0.03883,-0.31169 -0.16328,-0.55766 -0.3736,-0.73813c-0.26105,-1.16313 -0.72158,-2.2139 -1.38157,-3.15229c-0.02899,-0.10426 -0.05793,-0.20837 -0.08692,-0.31264z" opacity="0.99"/><path d="M66.57209,169.81027c-0.10128,0.00946 -0.19391,-0.02086 -0.27795,-0.09113c-0.00365,0.15527 -0.05285,0.2811 -0.14757,0.37783c-0.04346,-0.15632 -0.08691,-0.31262 -0.13038,-0.46895c0.25311,-0.10657 0.43842,-0.04577 0.55586,0.18226z" opacity="0.133"/><path d="M69.61152,168.62848c0.26801,0.21413 0.4592,0.49778 0.57339,0.851c-0.34301,-0.15556 -0.53402,-0.43926 -0.57339,-0.851z" opacity="0.757"/><path d="M62.95084,171.32223c0.04683,0.26535 0.00065,0.50268 -0.1388,0.7122c-0.12406,-0.28209 -0.07774,-0.51947 0.1388,-0.7122z" opacity="0.322"/><path d="M84.83527,165.23811c0.24889,0.17684 0.30685,0.38536 0.17384,0.62526c-0.20021,-0.20284 -0.25812,-0.41119 -0.17384,-0.62526z" opacity="0.471"/><path d="M66.12064,170.60938c0.0845,0.36147 0.06714,0.7031 -0.05188,1.02483c-0.14188,-0.36437 -0.12453,-0.70601 0.05188,-1.02483z" opacity="0.169"/><path d="M70.1849,169.47949c0.32018,0.3212 0.59239,0.69464 0.81661,1.12016c-0.42887,-0.23728 -0.70109,-0.6107 -0.81661,-1.12016z" opacity="0.537"/><path d="M80.64906,164.71793c0.65999,0.9384 1.12052,1.98916 1.38156,3.15229c-0.46565,-1.02441 -0.92619,-2.07518 -1.38156,-3.15229z" opacity="0.082"/><path d="M83.28053,164.49155c0.47468,0.90605 0.90627,1.85271 1.29466,2.83965c0.23555,-0.41509 0.39471,-0.85237 0.47739,-1.31151c0.08421,0.20779 0.11607,0.42359 0.09566,0.647c-0.05612,0.4499 -0.27021,0.79015 -0.64246,1.02061c-0.47599,-1.01431 -0.88446,-2.07954 -1.22526,-3.19575z" opacity="0.216"/><path d="M62.8555,172.19073c0.15491,0.32708 0.1231,0.61664 -0.09535,0.8685c-0.10454,-0.31666 -0.07272,-0.60623 0.09535,-0.8685z" opacity="0.643"/><path d="M66.06875,171.6342c0.0845,0.36147 0.06715,0.7031 -0.05187,1.02482c-0.14188,-0.36437 -0.12454,-0.70601 0.05187,-1.02482z" opacity="0.18"/><path d="M59.36463,174.17162c0.01446,0.05205 0.02898,0.10426 0.04346,0.15632c-1.99345,0.6096 -3.98803,1.10788 -5.98352,1.49508c0.05205,-0.01446 0.10427,-0.02898 0.15632,-0.04346c1.92493,-0.57742 3.85279,-1.11339 5.78375,-1.60795z" opacity="0.576"/><path d="M67.71885,171.51226c0.31567,0.18202 0.50684,0.46566 0.57338,0.85098c-0.26801,-0.21413 -0.45919,-0.49777 -0.57338,-0.85098z" opacity="0.2"/><path d="M62.76016,173.05923c0.14408,0.53519 0.11814,1.0476 -0.07784,1.53722c-0.07587,-0.53211 -0.04991,-1.0445 0.07784,-1.53722z" opacity="0.435"/><path d="M71.04497,170.75596c0.27932,0.13789 0.45603,0.3695 0.52992,0.69467c-0.31709,-0.10298 -0.4938,-0.33458 -0.52992,-0.69467z" opacity="0.682"/><path d="M74.07465,164.6933c1.57084,4.44367 2.94986,8.99993 4.13694,13.66901c-0.10934,0.11611 -0.21644,0.03372 -0.32139,-0.24745c-1.32389,-4.4591 -2.59575,-8.93284 -3.81555,-13.42156z" opacity="0.605"/><path d="M80.56216,164.40529c-0.97464,0.20191 -1.89081,0.54083 -2.74853,1.01673c0.36664,1.25519 0.72878,2.55778 1.08645,3.90793c0.98484,-0.24214 1.97057,-0.43199 2.95706,-0.56949c0.24721,-0.25683 0.30498,-0.55361 0.1735,-0.89024c0.21032,0.18049 0.33478,0.42644 0.37361,0.73813c-1.12645,0.48023 -2.31031,0.86542 -3.55184,1.15583c-0.44628,-1.50468 -0.84043,-3.02301 -1.18212,-4.55492c0.92186,-0.47958 1.88572,-0.74754 2.89188,-0.80397z" opacity="0.377"/><path d="M68.29223,172.36324c0.31567,0.18202 0.50684,0.46567 0.57339,0.85099c-0.26801,-0.21413 -0.4592,-0.49777 -0.57339,-0.85099z" opacity="0.165"/><path d="M71.57491,171.45064c0.26801,0.21413 0.45919,0.49777 0.57337,0.85099c-0.31567,-0.18202 -0.50683,-0.46567 -0.57337,-0.85099z" opacity="0.478"/><path d="M87.89287,167.75604c0.07778,0.23551 0.01698,0.42083 -0.18225,0.55587c-0.07778,-0.23551 -0.01698,-0.42083 0.18225,-0.55587z" opacity="0.016"/><path d="M65.96499,173.68384c0.10454,0.31666 0.07272,0.60623 -0.09535,0.8685c-0.10454,-0.31666 -0.07272,-0.60623 0.09535,-0.8685z" opacity="0.216"/><path d="M62.72578,174.75278c0.12546,0.6148 0.06193,1.19374 -0.19069,1.737c-0.03867,-0.60374 0.02485,-1.18266 0.19069,-1.737z" opacity="0.827"/><path d="M72.14828,172.30162c0.26801,0.21413 0.45919,0.49777 0.57337,0.85099c-0.31567,-0.18202 -0.50683,-0.46567 -0.57337,-0.85099z" opacity="0.584"/><path d="M65.91311,174.70867c0.10454,0.31666 0.0727,0.60622 -0.09536,0.86849c-0.10454,-0.31666 -0.0727,-0.60622 0.09536,-0.86849z" opacity="0.243"/><path d="M65.81775,175.57717c1.05553,-0.25556 2.14102,-0.38894 3.25673,-0.4002c-1.11313,0.20287 -2.23634,0.40281 -3.36959,0.59998c-0.007,-0.10028 0.03059,-0.1668 0.11285,-0.19977z" opacity="0.12"/><path d="M62.53509,176.48978c0.11138,0.2383 0.11709,0.46121 0.01751,0.66873c-0.06565,0.0292 -0.12506,0.01775 -0.17805,-0.03471c0.03487,-0.22895 0.08826,-0.4403 0.16053,-0.63402z" opacity="0.431"/><path d="M72.72166,173.15261c0.46922,0.42544 0.83711,0.94067 1.1033,1.54566c-0.32882,-0.18577 -0.66165,-0.3738 -0.99887,-0.5643c0.052,-0.131 0.13453,-0.23812 0.24745,-0.32139c-0.19648,-0.17372 -0.3139,-0.39369 -0.35188,-0.65997z" opacity="0.984"/><path d="M69.43057,175.24636c0.20837,-0.05793 0.34161,0.01734 0.39954,0.22572c-0.17079,-0.0086 -0.30402,-0.08387 -0.39954,-0.22572z" opacity="0.004"/><path d="M86.73834,170.26621c0.30854,0.04254 0.52284,0.2076 0.64278,0.49489c-0.30854,-0.04254 -0.52284,-0.2076 -0.64278,-0.49489z" opacity="0.384"/><path d="M70.01238,174.91622c0.22758,0.10748 0.38962,0.28692 0.48647,0.53835c-0.05205,0.01446 -0.10427,0.02898 -0.15632,0.04346c-0.02899,-0.10426 -0.09552,-0.14184 -0.19977,-0.11286c-0.04346,-0.15632 -0.08691,-0.31263 -0.13038,-0.46896z" opacity="0.161"/><path d="M87.38112,170.76111c0.30854,0.04254 0.52284,0.20761 0.64278,0.4949c-0.30854,-0.04254 -0.52284,-0.20761 -0.64278,-0.4949z" opacity="0.537"/><path d="M82.98672,171.3092c0.14783,0.56144 0.18858,1.11138 0.12193,1.65008c-0.13769,-0.36925 -0.18685,-0.74846 -0.14789,-1.13769c-0.11874,-0.02306 -0.23736,-0.04634 -0.3561,-0.0694c-0.98107,0.10671 -1.9075,0.30819 -2.77901,0.6042c0.44114,1.8121 0.90759,3.59106 1.39943,5.33652c-0.79811,0.27595 -1.59422,0.44102 -2.38821,0.49555c0.72953,-0.20282 1.45891,-0.4056 2.18844,-0.60842c-0.49252,-1.77155 -0.98506,-3.54324 -1.47757,-5.31478c1.14628,-0.31868 2.2927,-0.6374 3.43899,-0.95608z" opacity="0.393"/><path d="M73.82497,174.69827c0.32018,0.3212 0.59239,0.69465 0.81662,1.12018c-0.42887,-0.23728 -0.70109,-0.61072 -0.81662,-1.12018z" opacity="0.573"/><path d="M88.02391,171.25599c0.30854,0.04254 0.52284,0.20761 0.64278,0.4949c-0.30854,-0.04254 -0.52284,-0.20761 -0.64278,-0.4949z" opacity="0.557"/><path d="M59.36463,174.17162c0.23354,0.43723 0.42318,0.91767 0.56917,1.44156c0.18042,0.57021 0.25436,1.13906 0.22182,1.70652c-1.90897,0.42463 -3.81073,0.95334 -5.70557,1.58621c0.46758,1.87632 1.03388,3.71155 1.69908,5.50582c-0.05821,0.24858 -0.15506,0.30362 -0.29092,0.16508c-0.55049,-1.98007 -1.10092,-3.95999 -1.6514,-5.94007c1.98007,-0.55049 3.95998,-1.10092 5.94005,-1.65141c-0.24628,-0.88585 -0.49252,-1.77153 -0.73879,-2.65739c-0.01446,-0.05205 -0.02899,-0.10427 -0.04347,-0.15632z" opacity="0.323"/><path d="M62.4832,177.5146c0.01384,0.435 0.12248,0.82579 0.32594,1.17237c-0.17861,0.23523 -0.33628,0.47557 -0.47317,0.72095c-0.0189,-0.65066 0.03032,-1.2817 0.14723,-1.89332z"/><path d="M82.98672,171.3092c0.20837,-0.05793 0.41689,-0.11591 0.62526,-0.17384c0.74971,0.951 1.56061,1.84828 2.43234,2.69177c-0.18794,-0.13265 -0.31815,-0.09647 -0.39079,0.10864c-0.00971,0.7125 -0.07035,1.40296 -0.18194,2.07137c-0.06141,-0.72725 -0.26418,-1.45664 -0.60842,-2.18843c-0.15633,0.04346 -0.31263,0.08691 -0.46895,0.13038c-0.20177,-0.60891 -0.27994,-0.58718 -0.23448,0.06517c-0.17079,-0.0086 -0.34163,-0.01734 -0.51242,-0.02594c-0.17485,0.19428 -0.31382,0.4013 -0.41674,0.62106c-0.14783,-0.56144 -0.18857,-1.11138 -0.12193,-1.65009c0.06663,-0.5387 0.02589,-1.08865 -0.12194,-1.65009z"/><path d="M88.66669,171.7509c0.24034,0.01284 0.38806,0.14016 0.44301,0.38204c-0.24034,-0.01284 -0.38806,-0.14016 -0.44301,-0.38204z" opacity="0.322"/><path d="M71.68907,177.31286c-1.90559,0.51732 -3.82636,1.07943 -5.76201,1.6861c-0.18751,0.50614 -0.3248,1.02137 -0.41219,1.54599c-0.19621,-0.61366 -0.19924,-1.23034 -0.00907,-1.84986c2.08033,-0.46907 4.14145,-0.92976 6.18329,-1.38223z" opacity="0.404"/><path d="M74.68505,175.97474c0.3758,0.28149 0.64799,0.65478 0.81661,1.12017c-0.42084,-0.25079 -0.69305,-0.62423 -0.81661,-1.12017z" opacity="0.424"/><path d="M71.68907,177.31286c0.26801,0.21413 0.45919,0.49777 0.57338,0.85098c-0.31567,-0.18202 -0.50684,-0.46566 -0.57338,-0.85098z" opacity="0.024"/><path d="M62.37943,179.56425c0.01384,0.435 0.12248,0.82579 0.32594,1.17238c-0.25919,0.18825 -0.41706,0.4285 -0.47317,0.72095c-0.08713,-0.65561 -0.03791,-1.28663 0.14723,-1.89332z"/><path d="M72.30592,178.32017c0.31567,0.18202 0.50683,0.46567 0.57337,0.85099c-0.26801,-0.21413 -0.45919,-0.49777 -0.57337,-0.85099z" opacity="0.251"/><path d="M85.4716,176.00714c-0.07528,0.13325 -0.15044,0.26629 -0.22572,0.39954c-0.50021,-0.10141 -0.99815,-0.0753 -1.49378,0.07849c0.06901,0.15797 0.08652,0.32151 0.05222,0.49068c-0.06653,-0.03758 -0.13325,-0.07529 -0.19977,-0.11286c0.06957,0.65426 -0.03453,0.68321 -0.31264,0.08693c0.04345,0.41313 -0.0519,0.77643 -0.28636,1.09c0.07547,-1.15802 0.15058,-2.30163 0.22505,-3.43054c0.10292,-0.21975 0.24189,-0.42678 0.41674,-0.62106c0.17079,0.0086 0.34162,0.01734 0.51241,0.02594c-0.04548,-0.65238 0.0327,-0.67409 0.23448,-0.06517c0.15633,-0.04346 0.31263,-0.08692 0.46896,-0.13039c0.34424,0.73182 0.547,1.4612 0.60841,2.18845z" opacity="0.992"/><path d="M62.20625,181.96997c0.10489,0.24768 0.11787,0.49668 0.03924,0.74688c1.01044,-0.19672 2.00762,-0.44598 2.99177,-0.74753c-0.96971,0.43647 -1.99742,0.77826 -3.08289,1.02549c-0.14188,-0.36437 -0.12454,-0.70601 0.05188,-1.02482z" opacity="0.039"/><path d="M76.40519,178.52772c0.29297,0.0041 0.38122,0.11983 0.26496,0.34733c-1.08652,0.44033 -2.18796,0.71859 -3.30439,0.83446c1.13456,-0.21 2.14758,-0.60395 3.03943,-1.18179z" opacity="0.043"/><path d="M85.4716,176.00714c0.10454,0.31666 0.07272,0.60622 -0.09534,0.86849c-0.04346,-0.15632 -0.08691,-0.31264 -0.13038,-0.46895c0.07528,-0.13325 0.15044,-0.26629 0.22572,-0.39954z" opacity="0.098"/><path d="M85.37625,176.87565c0.08676,0.43746 0.03183,0.84561 -0.16475,1.2246c-0.08676,-0.43746 -0.03183,-0.84561 0.16475,-1.2246z" opacity="0.063"/><path d="M83.00554,178.03994c0.15832,0.4792 0.21053,0.96988 0.15665,1.47204c-0.16808,-0.13817 -0.29828,-0.10199 -0.39078,0.10864c0.03302,-0.54569 0.11103,-1.07259 0.23416,-1.58069z" opacity="0.925"/><path d="M85.00331,179.16853c0.0554,0.3507 -0.02848,0.65474 -0.25167,0.91197c-0.0554,-0.3507 0.02848,-0.65474 0.25167,-0.91197z" opacity="0.039"/><path d="M84.75163,180.08049c0.07778,0.23551 0.01697,0.42083 -0.18226,0.55587c-0.07778,-0.23551 -0.01697,-0.42083 0.18226,-0.55587z" opacity="0.035"/><path d="M85.24588,176.4067c0.04346,0.15632 0.08692,0.31264 0.13038,0.46895c-0.19657,0.37899 -0.25151,0.78714 -0.16475,1.2246c-0.00069,0.37909 -0.0701,0.73517 -0.20821,1.06827c-0.22319,0.25721 -0.30705,0.56126 -0.25166,0.91196c-0.19923,0.13504 -0.26004,0.32036 -0.18226,0.55587c-0.79927,2.62021 -2.04206,5.01463 -3.72858,7.18315c-0.41266,0.47038 -0.85399,0.90176 -1.32416,1.29433c-0.24187,0.05496 -0.3692,0.20267 -0.38203,0.44301c-0.2706,0.32597 -0.59183,0.58366 -0.96385,0.77314c-0.58217,0.06721 -0.69231,-0.12665 -0.33016,-0.58181c0.26838,-0.47505 0.59837,-0.9036 0.9898,-1.28557c0.32636,-0.1884 0.52885,-0.46917 0.60775,-0.84256c0.70347,-1.32265 1.40371,-2.64004 2.10088,-3.95204c0.27908,-0.2603 0.41505,-0.57864 0.40797,-0.95541c0.22766,-1.04068 0.50243,-2.07122 0.82439,-3.09198c0.09249,-0.21062 0.22271,-0.24682 0.39079,-0.10864c0.05388,-0.50216 0.00167,-0.99284 -0.15665,-1.47205c0.23447,-0.31358 0.32981,-0.67688 0.28636,-1.09001c0.2781,0.59628 0.3822,0.56735 0.31264,-0.0869c0.06653,0.03758 0.13325,0.07528 0.19978,0.11285c0.03431,-0.16918 0.01679,-0.33271 -0.05223,-0.49069c0.49562,-0.15379 0.99356,-0.1799 1.49377,-0.07849z" opacity="0.997"/><path d="M81.94701,182.7126c0.00708,0.37676 -0.12889,0.69512 -0.40797,0.95541c-0.00708,-0.37676 0.12889,-0.69512 0.40797,-0.95541z" opacity="0.239"/><path d="M79.43816,187.62005c-0.07891,0.37339 -0.2814,0.65417 -0.60775,0.84256c0.07891,-0.37339 0.2814,-0.65417 0.60775,-0.84256z" opacity="0.498"/><path d="M79.51664,189.11384c-0.01284,0.24034 -0.14016,0.38806 -0.38203,0.44301c0.01284,-0.24034 0.14016,-0.38806 0.38203,-0.44301z" opacity="0.004"/><path d="M77.8406,189.74818c-0.36216,0.45516 -0.25202,0.64902 0.33016,0.58181c-0.67063,0.72784 -1.5071,1.35344 -2.50951,1.87646c-0.10425,0.02899 -0.17079,-0.0086 -0.19977,-0.11285c0.73534,-0.83188 1.52835,-1.6138 2.37913,-2.34541z" opacity="0.986"/><path d="M90.54287,199.52035c0.02899,0.10426 0.09552,0.14185 0.19977,0.11287c-0.35944,0.34073 -0.74451,0.67227 -1.15487,0.99465c-0.11669,-0.12721 -0.18609,-0.27631 -0.20852,-0.44723c0.38791,-0.22016 0.77569,-0.44014 1.16361,-0.66029z" opacity="0.459"/></g></g></g></svg>