<svg version="1.1" xmlns="http://www.w3.org/2000/svg" xmlns:xlink="http://www.w3.org/1999/xlink" width="361.22968" height="168.34016" viewBox="0,0,361.22968,168.34016"><defs><linearGradient x1="237.63492" y1="148.24601" x2="262.10992" y2="147.70794" gradientUnits="userSpaceOnUse" id="color-1"><stop offset="0" stop-color="#71648d"/><stop offset="1" stop-color="#64888d"/></linearGradient><linearGradient x1="33.45608" y1="228.62614" x2="122.2245" y2="226.67461" gradientUnits="userSpaceOnUse" id="color-2"><stop offset="0" stop-color="#71648d"/><stop offset="1" stop-color="#64888d"/></linearGradient><linearGradient x1="78.43684" y1="163.34428" x2="78.43684" y2="224.33671" gradientUnits="userSpaceOnUse" id="color-3"><stop offset="0" stop-color="#b295ed"/><stop offset="1" stop-color="#c4c4c4"/></linearGradient><linearGradient x1="219.0718" y1="190.17449" x2="220.52225" y2="256.15073" gradientUnits="userSpaceOnUse" id="color-4"><stop offset="0" stop-color="#e3e3e3"/><stop offset="1" stop-color="#c2adec"/></linearGradient><linearGradient x1="252.65892" y1="200.57106" x2="253.85513" y2="254.98239" gradientUnits="userSpaceOnUse" id="color-5"><stop offset="0" stop-color="#e3e3e3"/><stop offset="1" stop-color="#c2adec"/></linearGradient><linearGradient x1="240.66308" y1="182.43368" x2="374.18017" y2="179.49838" gradientUnits="userSpaceOnUse" id="color-6"><stop offset="0" stop-color="#71648d"/><stop offset="1" stop-color="#64888d"/></linearGradient><linearGradient x1="122.64621" y1="179.60872" x2="181.03827" y2="174.90462" gradientUnits="userSpaceOnUse" id="color-7"><stop offset="0" stop-color="#c9b1d9"/><stop offset="1" stop-color="#80c1d9"/></linearGradient></defs><g transform="translate(-26.47473,-117.89364)"><g data-paper-data="{&quot;isPaintingLayer&quot;:true}" stroke-linejoin="miter" stroke-miterlimit="10" stroke-dasharray="" stroke-dashoffset="0" style="mix-blend-mode: normal"><path d="" data-paper-data="{&quot;origPos&quot;:null}" fill="#737373" fill-rule="nonzero" stroke="none" stroke-width="0" stroke-linecap="butt"/><path d="M261.07833,153.48232l1.24939,4.13252l-24.46081,1.18357c0,0 0.40494,-6.97087 0.26563,-9.29613c-0.36903,-6.15914 11.35285,-16.054 9.53924,-10.28059c-0.51898,1.6521 -3.79853,5.96972 -4.47666,8.51658c-0.60313,2.26524 2.73445,4.78296 2.73445,4.78296z" data-paper-data="{&quot;origPos&quot;:null,&quot;origRot&quot;:0}" fill="url(#color-1)" fill-rule="nonzero" stroke="none" stroke-width="0" stroke-linecap="butt"/><path d="" data-paper-data="{&quot;origPos&quot;:null}" fill="#737373" fill-rule="nonzero" stroke="none" stroke-width="0" stroke-linecap="butt"/><g data-paper-data="{&quot;origPos&quot;:null}" fill-rule="nonzero" stroke-linecap="round"><path d="M156.78544,180.52113c3.26776,-0.1274 -0.43537,-2.98816 0.02614,0.32447c1.0045,13.21385 1.53428,26.53395 3.52303,39.67909c1.48835,9.83417 3.53576,19.58818 6.27087,29.20581c2.15035,7.5477 5.86945,14.43356 8.93965,21.80788c0.70671,1.78445 2.51732,-1.06212 -0.32436,0.02614c-11.36369,4.35535 -23.16561,9.22145 -34.82045,13.5794c-2.91464,1.08898 0.57085,1.89737 -0.35048,-0.29822c-3.67617,-8.78434 -7.69315,-17.73048 -10.65539,-26.89363c-2.07097,-6.38256 -3.76562,-13.57522 -4.91646,-20.4995c-2.30402,-13.86406 -3.28014,-27.95929 -4.87896,-41.92066c-0.51297,-4.38847 -0.71591,-8.9352 -1.3415,-13.40873c-0.07105,-1.07696 -3.53543,0.50032 -0.29821,0.35047c12.92762,-0.61965 25.74982,-1.44495 38.82612,-1.95251z" data-paper-data="{&quot;origPos&quot;:null}" fill="#e3e3e3" stroke="none" stroke-width="0"/><path d="M168.11031,272.46375l-8.23869,-21.21133l-5.11015,-18.85152l-2.70869,-17.41248l-3.00079,-29.14279" data-paper-data="{&quot;origPos&quot;:null}" fill="none" stroke="#c2adec" stroke-width="2.12828"/><path d="M164.72493,275.02203l-9.09645,-23.75433l-5.18853,-19.82456l-4.98399,-25.39156l-1.77705,-22.05847" data-paper-data="{&quot;origPos&quot;:null}" fill="none" stroke="#c2adec" stroke-width="2.12828"/><path d="M157.01805,276.62237l-14.22821,-34.76817l-5.2977,-29.2842l-2.94839,-28.49398" data-paper-data="{&quot;origPos&quot;:null}" fill="none" stroke="#c2adec" stroke-width="2.12828"/><path d="M147.30172,281.64949l-7.23488,-12.80337l-9.02269,-30.94306l-3.49268,-27.1442l-1.76629,-25.97723" data-paper-data="{&quot;origPos&quot;:null}" fill="none" stroke="#c2adec" stroke-width="2.12828"/></g><path d="M251.83011,206.81114l-0.82259,-10.21082l2.64726,-0.21327l0.8226,10.21083z" data-paper-data="{&quot;origPos&quot;:null}" fill="#71648d" fill-rule="nonzero" stroke="none" stroke-width="0" stroke-linecap="butt"/><path d="M245.58915,203.43702c0.28158,3.49518 4.59913,9.98018 2.71938,10.13162c-1.87975,0.15143 -5.84141,-6.36225 -6.12298,-9.85742c-0.28158,-3.49518 1.98922,-8.52043 3.86899,-8.67187c1.87975,-0.15143 -0.74695,4.9025 -0.46538,8.39768z" data-paper-data="{&quot;origPos&quot;:null}" fill="#71648d" fill-rule="nonzero" stroke="none" stroke-width="0" stroke-linecap="butt"/><g data-paper-data="{&quot;origPos&quot;:null}" fill-rule="nonzero" stroke="none" stroke-linecap="butt"><path d="M304.26384,154.86761l-0.26766,-3.32256l23.59023,-1.90045l0.26767,3.32257z" data-paper-data="{&quot;origPos&quot;:null}" fill="#5f5f5f" stroke-width="0"/><path d="M34.70687,232.26839l-1.42185,-11.42271l88.63229,-8.14352l-8.48914,6.70333l-45.83174,16.64244l-11.05463,3.14536l-18.00147,3.3003z" data-paper-data="{&quot;origPos&quot;:null}" fill="url(#color-2)" stroke-width="0"/><path d="M104.03762,218.97773l-70.38847,5.35898l-3.57793,-34.38241l4.9317,-22.01885l43.75631,-4.59117l11.2074,9.15938l27.25557,-1.86133l9.58026,37.97394z" data-paper-data="{&quot;origPos&quot;:null}" fill="url(#color-3)" stroke-width="0"/><path d="M114.75805,175.07235l-0.67739,-8.40846l68.20194,-5.49439l0.67738,8.40845z" data-paper-data="{&quot;origPos&quot;:null}" fill="#393939" stroke-width="0"/><path d="M113.90559,187.83557l-1.27952,-15.88264l73.34044,-5.90836l1.27951,15.88264z" data-paper-data="{&quot;origPos&quot;:null}" fill="#e3e3e3" stroke-width="0"/><path d="M352.58147,152.81705c0,0 -0.57553,-8.8506 -0.93536,-15.91123c-0.07162,-1.40534 -2.0822,-8.77111 -9.81547,-8.26302c-49.09872,3.22577 -74.65397,4.4416 -123.7186,8.21966c-7.21412,0.55551 -7.35473,-0.16197 -9.49043,5.09476c-1.01583,2.5003 -1.20885,23.88608 -1.20885,23.88608l-24.88083,1.06014c0,0 2.70982,-26.49601 3.72157,-35.43267c0.47804,-4.22231 2.25547,-8.74181 20.03112,-10.0069c41.28872,-2.93849 107.56694,-3.39617 149.05771,-3.56665c3.36453,-0.14902 14.08502,4.38004 14.53512,8.78532c0.92318,9.03543 1.6361,24.60933 1.6361,24.60933z" data-paper-data="{&quot;origPos&quot;:null}" fill="#e3e3e3" stroke-width="0"/><g data-paper-data="{&quot;origPos&quot;:null}" stroke-width="0"><path d="M199.86638,249.57631c0,0 -0.02612,-14.80909 2.89301,-23.76115c1.67101,-5.12448 5.44583,-12.07819 7.16827,-17.18345c0.87854,-2.60396 6.25203,-3.8862 7.12369,-6.49279c1.63161,-4.87916 -3.77456,-11.83703 -3.77456,-11.83703l26.49124,8.28339c0,0 -1.6359,4.11629 -3.33293,9.19114c-1.50404,4.49773 -5.26925,9.56672 -5.26925,9.56672l-0.08618,10.31484l-6.01035,12.79913l0.98859,11.64372l-3.62351,4.00787z" data-paper-data="{&quot;origPos&quot;:null,&quot;origRot&quot;:0}" fill="url(#color-4)"/><path d="M216.19462,254.3446l1.60246,-3.73272c0,0 8.8071,-0.06866 14.40307,-0.62186c7.07145,-0.69907 18.05561,-2.58689 18.05561,-2.58689l16.19177,-6.37796l20.64916,-41.21121l3.22092,1.31178l-19.23959,42.31351l-19.33463,8.04153c0,0 -11.90702,2.977 -19.85221,3.88343c-6.03824,0.68886 -15.69654,-1.0196 -15.69654,-1.0196z" data-paper-data="{&quot;origPos&quot;:null}" fill="url(#color-5)"/><path d="M284.3669,207.58172l-12.71336,-11.34241l20.01251,-1.99868l-1.30318,7.44764z" data-paper-data="{&quot;origPos&quot;:null}" fill="#71648d"/></g><path d="M192.75263,179.59732l-1.36083,-16.89196l28.14906,-2.26771l1.36083,16.89197z" data-paper-data="{&quot;origPos&quot;:null}" fill="#e3e3e3" stroke-width="0"/><path d="M217.10971,175.53038l-1.7708,-14.7542l24.2034,-1.94985l1.13741,14.11865z" data-paper-data="{&quot;origPos&quot;:null}" fill="#626262" stroke-width="0"/><path d="M240.2844,175.3875l-1.34051,-16.63985l133.11876,-10.72415l1.34053,16.63985z" data-paper-data="{&quot;origPos&quot;:null}" fill="#626262" stroke-width="0"/><path d="M162.35875,219.53408l-43.14251,10.82775c0,0 -1.30049,-7.18182 -3.86696,-9.39142c-1.60091,-1.37831 -7.39008,-0.75878 -7.39008,-0.75878l5.92692,-33.54448l128.07592,-14.07923l1.91937,23.82523l-22.85739,1.3339c0,0 -17.44401,-4.23367 -27.66457,-3.28395c-5.80158,0.53909 -13.36811,5.72115 -20.57709,11.55122c-7.20897,5.83007 -10.42357,13.51978 -10.42357,13.51978z" data-paper-data="{&quot;origPos&quot;:null}" fill="#9181b1" stroke-width="0"/><g data-paper-data="{&quot;origPos&quot;:null}" fill="none" stroke-width="1" font-family="sans-serif" font-weight="normal" font-size="12" text-anchor="start"/><path d="M364.50947,177.11058l-0.95461,-11.84959l23.19493,-1.86861l0.95462,11.84959z" data-paper-data="{&quot;origPos&quot;:null}" fill="#4c4c4c" stroke-width="0"/><path d="M243.86414,196.19878l-3.41484,-23.489l132.97609,-9.94323c0,0 1.59789,-0.05522 -1.5716,6.04101c-1.0565,2.03208 -4.59058,4.66866 -4.59058,4.66866l5.9572,3.09308l-6.45193,19.84045l-3.90299,-0.00796l-6.48874,-6.43939l-11.55056,0.03118l-27.09481,2.34275z" data-paper-data="{&quot;origPos&quot;:null}" fill="url(#color-6)" stroke-width="0"/><path d="M332.40191,189.20126l1.27847,-5.70874c0,0 2.71256,-6.04479 3.83688,-6.18747c1.00597,-0.12766 3.55439,4.94137 3.55439,4.94137l2.43757,5.85345z" data-paper-data="{&quot;origPos&quot;:null,&quot;origRot&quot;:0}" fill="#e3e3e3" stroke-width="0"/><path d="M318.05647,190.05026l1.27846,-5.70873c0,0 2.71257,-6.04479 3.83689,-6.18747c1.00597,-0.12766 3.55437,4.94137 3.55437,4.94137l2.43757,5.85345z" data-paper-data="{&quot;origPos&quot;:null,&quot;origRot&quot;:0}" fill="#e3e3e3" stroke-width="0"/><path d="M302.93521,190.65719l1.57905,-5.63301c0,0 3.02892,-5.89261 4.15922,-5.97554c1.01132,-0.0742 3.28767,5.12269 3.28767,5.12269l2.1241,5.97433z" data-paper-data="{&quot;origPos&quot;:null,&quot;origRot&quot;:0}" fill="#e3e3e3" stroke-width="0"/><path d="M289.53019,191.88833l1.27846,-5.70872c0,0 2.71257,-6.04478 3.83689,-6.18745c1.00597,-0.12766 3.55437,4.94136 3.55437,4.94136l2.43758,5.85343z" data-paper-data="{&quot;origPos&quot;:null,&quot;origRot&quot;:0}" fill="#e3e3e3" stroke-width="0"/><path d="M224.96438,199.70559l-6.33336,-3.01929l120.26322,-9.37909l11.72834,-0.031l8.95539,1.15088l4.41357,7.75584l-2.34611,0.18244l-4.2706,-4.32201l-11.27507,-0.94649z" data-paper-data="{&quot;origPos&quot;:null}" fill="#e3e3e3" stroke-width="0"/><path d="M184.72956,181.81649l-1.60567,-19.93115l9.08148,-0.10473l2.17834,19.25814l-15.50358,18.93709l-40.25535,1.16711l4.79556,-3.75398l18.97832,-3.21325l9.73811,-9.1506z" data-paper-data="{&quot;origPos&quot;:null}" fill="#e3e3e3" stroke-width="0"/><path d="M191.56602,161.81443c-0.21033,-2.61079 1.73562,-4.89774 4.34641,-5.10807c2.61079,-0.21033 4.89773,1.73561 5.10806,4.34641c0.21033,2.61079 -1.73561,4.89773 -4.3464,5.10807c-2.61079,0.21033 -4.89773,-1.73561 -5.10806,-4.3464z" data-paper-data="{&quot;origPos&quot;:null}" fill="#71648d" stroke-width="0"/><path d="M168.90254,193.51359c-0.19744,-2.45093 1.62937,-4.59788 4.08029,-4.79532c2.45093,-0.19744 4.59786,1.62936 4.7953,4.08029c0.19744,2.45093 -1.62935,4.59786 -4.08028,4.7953c-2.45093,0.19744 -4.59787,-1.62936 -4.79532,-4.08028z" data-paper-data="{&quot;origPos&quot;:null}" fill="#71648d" stroke-width="0"/><path d="M123.0978,185.21436l6.10386,-11.77578l51.38501,-4.13961l0.90318,11.21129z" data-paper-data="{&quot;origPos&quot;:null}" fill="url(#color-7)" stroke-width="0"/><path d="M60.30869,238.73342l6.21454,-10.03142l21.68806,-4.75693c0,0 5.95804,2.26331 3.86108,2.88586c-1.01308,0.30076 -31.76368,11.90249 -31.76368,11.90249z" data-paper-data="{&quot;origPos&quot;:null}" fill="#e3e3e3" stroke-width="0"/><path d="M34.81297,244.07339l-8.33824,-50.20091l7.87115,-1.47926l8.33823,50.2009z" data-paper-data="{&quot;origPos&quot;:null,&quot;origRot&quot;:0}" fill="#e3e3e3" stroke-width="0"/><path d="M119.73002,222.91076c-0.1774,-2.20201 1.46388,-4.13088 3.66589,-4.30828c2.20202,-0.17739 4.13088,1.46386 4.30828,3.66587c0.1774,2.20201 -1.46386,4.13089 -3.66588,4.30829c-2.20202,0.17739 -4.1309,-1.46388 -4.30829,-3.66589z" data-paper-data="{&quot;origPos&quot;:null}" fill="#4c4c4c" stroke-width="0"/></g><g data-paper-data="{&quot;origPos&quot;:null}" fill-rule="nonzero" stroke="none" stroke-width="0" stroke-linecap="butt"><path d="M340.08518,158.08542c-0.34774,-4.31648 8.99526,-8.59107 12.43697,-8.86834c3.44169,-0.27728 6.51366,2.99717 6.86139,7.31365c0.34774,4.31648 -2.16041,8.04044 -5.60213,8.3177c-3.44169,0.27728 -13.34851,-2.44654 -13.69624,-6.76302z" data-paper-data="{&quot;origPos&quot;:null}" fill="#9181b1"/><path d="M330.90103,162.12411l-0.52808,-6.55509l15.67994,-1.26319l0.52808,6.5551z" data-paper-data="{&quot;origPos&quot;:null}" fill="#9181b1"/><path d="M324.79112,164.13886l-0.83274,-10.33687l10.85534,-0.87452l0.83274,10.33686z" data-paper-data="{&quot;origPos&quot;:null}" fill="#9181b1"/><path d="M350.13642,157.27568c-0.14582,-1.81014 0.90599,-3.3718 2.34929,-3.48807c1.44329,-0.11627 2.73154,1.25688 2.87736,3.06701c0.14582,1.81014 -0.90598,3.37181 -2.34928,3.48808c-1.44329,0.11627 -2.73154,-1.25688 -2.87736,-3.06701z" data-paper-data="{&quot;origPos&quot;:null}" fill="#5a5a5a"/><path d="M212.25585,171.17473l-0.52808,-6.55509l113.57895,-9.15l0.52809,6.55509z" data-paper-data="{&quot;origPos&quot;:null}" fill="#b1cfda"/><path d="M211.77464,172.73603l-0.77182,-9.58052l7.43792,-0.5992l0.77182,9.58052z" data-paper-data="{&quot;origPos&quot;:null}" fill="#9181b1"/><path d="M205.66683,177.28817l-1.38115,-17.14407l7.43792,-0.5992l1.38114,17.14407z" data-paper-data="{&quot;origPos&quot;:null}" fill="#9181b1"/></g><g fill="#ffffff" fill-rule="evenodd" stroke="none" stroke-width="1" stroke-linecap="butt"><path d="M68.07541,177.43664c-0.29348,0.13845 -0.37099,0.35441 -0.23253,0.64789c-1.20091,-0.02747 -2.40996,-0.05508 -3.62698,-0.08286c0.0503,-0.08353 0.10058,-0.16705 0.15088,-0.25056c1.30831,-0.22207 2.54444,-0.32686 3.70865,-0.31447z" opacity="0.989"/><path d="M70.83025,177.57213c0.29023,-0.04264 0.55522,0.01175 0.79462,0.1633c-0.31661,0.1396 -0.58143,0.08516 -0.79462,-0.1633z" opacity="0.616"/><path d="M70.01077,178.49693c0.44355,-0.04431 0.8524,0.06178 1.22656,0.31832c-0.44355,0.04431 -0.8524,-0.06178 -1.22656,-0.31832z" opacity="0.365"/><path d="M68.07541,177.43664c0.9367,-0.09984 1.85497,-0.05469 2.75484,0.13549c0.21319,0.24846 0.47801,0.3029 0.79461,0.1633c0.66428,0.03535 1.3149,0.14703 1.95194,0.33491c0.13845,0.29348 0.35442,0.37098 0.6479,0.23254c1.08963,0.26918 2.12056,0.67979 3.09268,1.23189c0.2408,0.28985 0.55171,0.44205 0.93308,0.45677c0.16673,0.26291 0.40582,0.38942 0.71711,0.37926c0.095,0.22912 0.2621,0.32969 0.50115,0.30175c0.095,0.22912 0.2621,0.32968 0.50115,0.30174c0.095,0.22912 0.2621,0.3297 0.50115,0.30176c0.1452,0.22642 0.20003,0.46965 0.16478,0.72953c-0.54873,0.29475 -1.07526,0.57311 -1.57949,0.83485c-0.02304,-0.04886 -0.04616,-0.09786 -0.06922,-0.14674c-0.3384,-0.45299 -0.76762,-0.72893 -1.2875,-0.82776c-0.3008,-0.10906 -0.56296,-0.28445 -0.78634,-0.52599c-0.24583,-0.38041 -0.58004,-0.58152 -1.0023,-0.60352c-1.51855,-0.708 -3.07646,-1.34842 -4.67364,-1.9212c-0.37416,-0.25654 -0.78299,-0.36263 -1.22655,-0.31833c-0.73306,-0.08913 -1.45576,-0.22658 -2.16793,-0.41241c-0.13845,-0.29348 -0.06094,-0.50943 0.23254,-0.6479z" opacity="0.998"/><path d="M73.57681,178.07034c0.24176,0.00554 0.45772,0.08306 0.6479,0.23254c-0.29347,0.13845 -0.50944,0.06094 -0.6479,-0.23254z" opacity="0.306"/><path d="M77.3174,179.53474c0.38135,0.01473 0.69226,0.16692 0.93307,0.45677c-0.38135,-0.01473 -0.69226,-0.16692 -0.93307,-0.45677z" opacity="0.722"/><path d="M75.91097,180.73643c0.42226,0.022 0.75646,0.22311 1.0023,0.60352c-0.37848,-0.11171 -0.71252,-0.3129 -1.0023,-0.60352z" opacity="0.937"/><path d="M78.25047,179.99151c0.3113,-0.01015 0.55038,0.11635 0.71711,0.37926c-0.3113,0.01015 -0.55038,-0.11635 -0.71711,-0.37926z" opacity="0.588"/><path d="M78.96759,180.37078c0.23906,-0.02793 0.40615,0.07264 0.50114,0.30175c-0.23906,0.02793 -0.40615,-0.07264 -0.50114,-0.30175z" opacity="0.125"/><path d="M77.69962,181.86594c0.51987,0.09882 0.9491,0.37478 1.2875,0.82776c-0.47472,-0.18758 -0.9039,-0.46336 -1.2875,-0.82776z" opacity="0.69"/><path d="M79.46874,180.67253c0.23906,-0.02793 0.40615,0.07263 0.50114,0.30174c-0.23906,0.02793 -0.40615,-0.07263 -0.50114,-0.30174z" opacity="0.247"/><path d="M79.96988,180.97429c0.23906,-0.02793 0.40615,0.07264 0.50114,0.30176c-0.23906,0.02793 -0.40615,-0.07264 -0.50114,-0.30176z" opacity="0.086"/><path d="M81.32661,181.94879c0.33701,0.04891 0.59915,0.22431 0.78634,0.526c-0.33701,-0.04891 -0.59915,-0.22431 -0.78634,-0.526z" opacity="0.102"/><path d="M80.47105,181.27605c0.33763,0.14228 0.62285,0.3665 0.85558,0.67273c0.18718,0.3017 0.44931,0.47709 0.78634,0.52601c0.02304,0.04886 0.04617,0.09787 0.06925,0.14674c0.10438,0.27223 0.26858,0.49364 0.49287,0.66445c-0.68482,0.32308 -1.36949,0.64608 -2.05431,0.96917c-0.13063,-0.36856 -0.36696,-0.61587 -0.70883,-0.74197c-0.28519,-0.22424 -0.57037,-0.4485 -0.85558,-0.67274c0.50422,-0.26174 1.03075,-0.5401 1.57949,-0.83485c0.03526,-0.2599 -0.01957,-0.50312 -0.16477,-0.72953z" opacity="0.983"/><path d="M62.71893,192.7007c-3.96116,1.80939 -7.85098,3.70423 -11.66966,5.68481c-0.22541,0.10328 -0.34495,0.04003 -0.35856,-0.18963c0.13853,-0.17443 0.31113,-0.31561 0.51773,-0.42364c3.76163,-1.53873 7.43004,-3.26938 11.0052,-5.19194c0.20052,-0.06966 0.36888,-0.02961 0.5053,0.12042z" opacity="0.17"/><path d="M69.61552,189.44709c-1.76078,0.77185 -3.44972,1.62837 -5.06655,2.56964c-0.41818,0.06883 -0.48739,-0.0779 -0.20767,-0.4402c1.77554,-0.72158 3.53369,-1.43136 5.27422,-2.12944z" opacity="0.175"/><path d="M79.91189,183.51317c0.34185,0.12611 0.5782,0.37341 0.70883,0.74197c-2.15192,0.95619 -4.23203,1.99726 -6.24044,3.12344c-0.30754,-0.18034 -0.27889,-0.37325 0.08579,-0.57865c1.9329,-0.70936 3.8031,-1.56188 5.61058,-2.55722c-0.0149,-0.29507 -0.06987,-0.53823 -0.16479,-0.72953z" opacity="0.152"/><path d="M82.18217,182.62152c0.18344,0.04998 0.35051,0.15055 0.50114,0.30175c0.359,-0.04935 0.69858,-0.09008 1.01887,-0.12188c-0.34234,0.1615 -0.68482,0.32307 -1.02715,0.48458c-0.22429,-0.17081 -0.38847,-0.39222 -0.49287,-0.66445z" opacity="0.192"/><path d="M74.3803,187.3786c2.0084,-1.12618 4.0885,-2.16727 6.24043,-3.12345c0.68482,-0.32308 1.36949,-0.64608 2.05429,-0.96916c0.34234,-0.1615 0.68481,-0.32308 1.02715,-0.48459c0.98607,-0.48458 1.9792,-0.5344 2.97909,-0.1497c0.26213,0.17539 0.55001,0.27871 0.86386,0.31005c0.3113,-0.01015 0.55038,0.11636 0.71711,0.37927c0.095,0.22912 0.2621,0.32969 0.50115,0.30175c0.89124,1.05865 1.51696,2.25835 1.87738,3.59917c0.11087,0.44909 0.07679,0.88371 -0.10236,1.30407c-0.17356,0.16674 -0.20221,0.35964 -0.08579,0.57865c-0.23317,0.64692 -0.53781,1.26892 -0.91355,1.86615c0.10054,0.07509 0.19557,0.14991 0.28518,0.22425c0.16673,0.26291 0.40582,0.38942 0.71711,0.37926c0.16673,0.26291 0.40582,0.38943 0.71711,0.37927c0.16673,0.26291 0.40581,0.38943 0.71711,0.37926c0.095,0.22912 0.2621,0.32968 0.50115,0.30174c0.3113,-0.01015 0.55038,0.11637 0.71711,0.37928c0.2408,0.28985 0.55171,0.44204 0.93306,0.45677c0.095,0.22912 0.2621,0.32969 0.50114,0.30175c0.53075,0.12688 0.93549,0.41437 1.21413,0.86236c-1.31176,0.59697 -2.58353,1.19696 -3.81513,1.79988c-0.76915,-0.54398 -1.53114,-1.08146 -2.28565,-1.61262c-1.00161,-0.6842 -1.95237,-1.43169 -2.85189,-2.24247c-0.1956,0.09228 -0.39133,0.18465 -0.58695,0.27692c-1.07603,0.50763 -2.15217,1.01531 -3.22819,1.52296c0.78455,1.66297 1.56914,3.32607 2.35368,4.98902c-0.68482,0.32308 -1.36949,0.64608 -2.0543,0.96917c-0.1956,0.09228 -0.39133,0.18463 -0.58693,0.2769c-1.95834,-4.40164 -4.08683,-8.65965 -6.38536,-12.77431c-0.09787,0.04617 -0.16979,0.02036 -0.21595,-0.0775c-0.30369,-0.23112 -0.64042,-0.3114 -1.01058,-0.24081c-0.11808,-0.12368 -0.26212,-0.1754 -0.43191,-0.15502c-0.12093,-0.00268 -0.24178,-0.0056 -0.3627,-0.00829zM82.7472,186.48104c0.04616,0.09786 0.09228,0.19559 0.13844,0.29346c0.6307,0.98477 1.26203,1.9427 1.89396,2.87377c0.18642,0.3096 0.1796,0.61186 -0.02071,0.90675c-0.9491,0.3021 -1.88863,0.65564 -2.81846,1.06058c-0.58049,-1.27037 -1.15734,-2.49312 -1.73063,-3.6684c0.76505,-0.61388 1.61086,-1.1026 2.5374,-1.46617zM85.74288,185.60595c0.33853,0.20572 0.67271,0.40686 1.0023,0.60353c0.08515,0.15878 0.20324,0.28247 0.35442,0.37098c-0.04694,0.22522 0.04534,0.42081 0.2769,0.58693c0.02304,0.04886 0.04616,0.09787 0.06924,0.14675c-0.00398,0.4665 -0.08701,0.92439 -0.24909,1.37328c-0.54945,-0.90722 -1.13466,-1.76742 -1.7555,-2.58032c-0.0947,-0.14406 -0.13956,-0.30227 -0.13432,-0.47482c0.15051,0.0639 0.29587,0.05524 0.43607,-0.02634z"/><path d="M62.71893,192.7007c0.61096,0.78813 1.02631,1.66857 1.24607,2.64126c-2.54337,1.19989 -5.08689,2.39984 -7.63027,3.59974c0.53075,1.12501 1.06144,2.24991 1.59219,3.37492c1.90147,-0.71857 3.78328,-1.54642 5.6452,-2.48385c0.39231,0.83156 0.78455,1.66297 1.17685,2.49452c-1.85871,0.87688 -3.71726,1.7537 -5.57597,2.63059c0.87689,1.8587 1.75371,3.71727 2.63059,5.57597c-0.8499,0.57282 -1.75612,1.06009 -2.71876,1.46203c-1.79338,-3.63378 -3.52402,-7.30219 -5.19194,-11.0052c-0.30958,-0.88924 -0.7766,-1.62564 -1.40109,-2.20932c-0.49838,-0.08295 -0.97919,-0.21488 -1.4425,-0.39584c3.81868,-1.98059 7.70849,-3.87543 11.66965,-5.68481z"/><path d="M69.61552,189.44709c0.0964,0.34884 0.30967,0.54726 0.63961,0.59522c0.13063,0.36856 0.36695,0.61587 0.7088,0.74197c0.19989,0.48264 0.53125,0.80474 0.99402,0.96621c0.02304,0.04886 0.04617,0.09787 0.06925,0.14675c0.0964,0.34884 0.30967,0.54726 0.63961,0.59522c0.10832,0.39918 0.34449,0.64656 0.70882,0.74197c0.19989,0.48264 0.53125,0.80474 0.99402,0.96622c0.02304,0.04886 0.04616,0.09786 0.06922,0.14673c0.0964,0.34884 0.30967,0.54727 0.6396,0.59522c0.13063,0.36856 0.36697,0.61586 0.70882,0.74196c0.13063,0.36856 0.36697,0.61587 0.70882,0.74197c0.0824,0.25605 0.23526,0.45303 0.45824,0.59108c-0.09724,0.10113 -0.1605,0.22066 -0.18964,0.35854c0.36455,0.13084 0.72434,0.25997 1.07981,0.38756c0.19989,0.48264 0.53125,0.80474 0.99402,0.96621c0.02304,0.04886 0.04617,0.09786 0.06924,0.14674c0.20552,0.46795 0.53688,0.79007 0.99401,0.96622c0.44966,0.35386 0.82713,0.77369 1.13245,1.25968c-0.78149,0.72011 -1.71345,1.27946 -2.79626,1.67799c-0.24246,-0.06751 -0.43246,-0.21703 -0.57037,-0.4485c-0.13063,-0.36856 -0.36696,-0.61586 -0.70883,-0.74197c-0.02304,-0.04886 -0.04616,-0.09786 -0.06923,-0.14674c-0.17219,-0.32886 -0.40852,-0.57616 -0.70882,-0.74197c-1.93614,0.79072 -3.88988,1.59277 -5.86114,2.40633c-0.08284,0.64273 0.02428,1.25006 0.32127,1.82177c0.05899,0.08284 0.14246,0.13316 0.25056,0.15088c-0.0677,0.44094 -0.06573,0.88851 0.00562,1.34281c-0.0947,-0.05507 -0.19112,-0.06933 -0.28934,-0.04289c-0.91909,0.46339 -1.85987,0.87745 -2.82259,1.24194c0.03526,-0.2599 -0.01958,-0.50312 -0.16479,-0.72953c-0.0684,-0.16667 -0.08877,-0.33647 -0.06094,-0.50943c0.00592,-0.29772 0.12095,-0.56116 0.34465,-0.79048c-0.25906,-0.30726 -0.43212,-0.6741 -0.51918,-1.10053c-0.02304,-0.04886 -0.04617,-0.09787 -0.06924,-0.14674c0.0935,-0.26494 0.20833,-0.52847 0.34466,-0.79048c-0.25906,-0.30726 -0.43213,-0.67409 -0.51918,-1.10052c0.00267,-0.12093 0.00559,-0.24178 0.00828,-0.3627c0.06311,-0.22137 0.01985,-0.44009 -0.13017,-0.65616c0.15727,-0.5781 0.12215,-1.15947 -0.10531,-1.74425c-0.02304,-0.04886 -0.04617,-0.09786 -0.06924,-0.14674c0.11048,-0.51569 0.04953,-1.02512 -0.18283,-1.52831c0.17279,-0.28512 0.15526,-0.57591 -0.05265,-0.87213c-0.02304,-0.04886 -0.04616,-0.09786 -0.06923,-0.14674c0.10208,-0.23006 0.10752,-0.47177 0.01657,-0.7254c0.01198,-0.62258 -0.04607,-1.25288 -0.17455,-1.891c-0.18786,-0.42104 -0.2747,-0.85834 -0.26034,-1.31234c0.15695,-0.29021 0.11353,-0.50886 -0.13016,-0.65617c-0.16675,-0.17356 -0.35966,-0.20222 -0.57867,-0.0858c-0.30785,-0.02932 -0.59587,-0.13255 -0.86384,-0.31004c1.61682,-0.94126 3.30575,-1.79778 5.06654,-2.56964zM69.87053,194.17045c0.40845,0.57601 0.88094,1.07068 1.41765,1.48393c0.17219,0.32886 0.40852,0.57616 0.70882,0.74197c0.17219,0.32886 0.40853,0.57615 0.70883,0.74196c0.40845,0.57601 0.88094,1.07068 1.41764,1.48392c0.06925,0.14675 0.13844,0.29348 0.20767,0.4402c-0.09787,0.04617 -0.19558,0.09228 -0.29346,0.13845c-0.09228,-0.1956 -0.23631,-0.2473 -0.43192,-0.15502c-0.10819,-0.09928 -0.22904,-0.10219 -0.3627,-0.00829c-1.09779,0.19949 -2.14516,0.5142 -3.1424,0.9443c0.12138,-0.28688 0.10384,-0.57767 -0.05266,-0.87213c-0.02304,-0.04886 -0.04616,-0.09786 -0.06923,-0.14674c0.12138,-0.28688 0.10384,-0.57767 -0.05265,-0.87213c0.05609,-0.34883 0.01535,-0.6884 -0.12189,-1.01887c0.063,-0.33721 0.02241,-0.67685 -0.1219,-1.01886c0.063,-0.33721 0.02243,-0.67687 -0.12189,-1.01888c0.08357,-0.16661 0.06321,-0.33639 -0.06094,-0.50943c0.07701,-0.11132 0.10429,-0.24365 0.08166,-0.39731c0.0947,0.05507 0.19112,0.06932 0.28934,0.04289z" opacity="0.999"/><path d="M69.61552,189.44709c0.2986,0.08875 0.51187,0.28719 0.63961,0.59522c-0.32993,-0.04797 -0.54321,-0.24641 -0.63961,-0.59522z" opacity="0.639"/><path d="M74.74298,187.38687c0.16979,-0.02036 0.31385,0.03135 0.43192,0.15503c-0.1956,0.09228 -0.33965,0.04057 -0.43192,-0.15503z" opacity="0.008"/><path d="M75.17493,187.54191c0.37016,-0.07058 0.7069,0.00969 1.01058,0.24081c-0.37016,0.07058 -0.7069,-0.00969 -1.01058,-0.24081z" opacity="0.573"/><path d="M65.41284,192.32678c0.21901,-0.11642 0.41191,-0.08777 0.57865,0.08579c-0.21901,0.11642 -0.41191,0.08777 -0.57865,-0.08579z" opacity="0.314"/><path d="M86.68128,182.65172c0.36539,-0.11264 0.65349,-0.00924 0.86386,0.31005c-0.31385,-0.03134 -0.60171,-0.13466 -0.86386,-0.31005z" opacity="0.008"/><path d="M65.99148,192.41257c0.2437,0.14731 0.2871,0.36597 0.13015,0.65618c-0.11083,-0.20945 -0.15425,-0.42812 -0.13015,-0.65618z" opacity="0.227"/><path d="M70.25512,190.04231c0.3003,0.16581 0.53663,0.41311 0.70882,0.74197c-0.34185,-0.12611 -0.57819,-0.37341 -0.70882,-0.74197z" opacity="0.392"/><path d="M52.49177,198.78134c0.62449,0.58371 1.09152,1.32009 1.40109,2.20933c-0.46636,-0.71858 -0.93336,-1.45498 -1.40109,-2.20933z" opacity="0.056"/><path d="M70.96395,190.78428c0.36981,0.26254 0.70118,0.58466 0.99402,0.96622c-0.46278,-0.16146 -0.79413,-0.48357 -0.99402,-0.96622z" opacity="0.482"/><path d="M88.26224,183.34101c0.23906,-0.02793 0.40615,0.07264 0.50114,0.30175c-0.23906,0.02793 -0.40615,-0.07264 -0.50114,-0.30175z" opacity="0.067"/><path d="M63.96499,195.34195c-2.39981,1.31101 -4.87128,2.53672 -7.41432,3.67725c0.53516,1.10089 1.04279,2.17688 1.52298,3.22819c-0.04886,0.02304 -0.09786,0.04618 -0.14675,0.06923c-0.53075,-1.12501 -1.06144,-2.24992 -1.5922,-3.37493c2.54337,-1.19989 5.08691,-2.39984 7.63027,-3.59974z" opacity="0.082"/><path d="M66.382,194.38108c0.12847,0.63813 0.1865,1.26842 0.17454,1.891c-0.26533,-0.62973 -0.32351,-1.25993 -0.17454,-1.891z" opacity="0.404"/><path d="M85.31096,185.45092c0.16979,-0.02036 0.31384,0.03134 0.43192,0.15501c-0.14019,0.08158 -0.28554,0.09023 -0.43608,0.02634c-0.00524,0.17255 0.03962,0.33076 0.13432,0.47483c-0.12044,-0.018 -0.21547,-0.09282 -0.2852,-0.22425c-0.04773,-0.19509 0.00397,-0.33914 0.15502,-0.43192z" opacity="0.09"/><path d="M85.74288,185.60595c0.51148,-0.13152 0.84568,0.06961 1.0023,0.60353c-0.32959,-0.19666 -0.66378,-0.39781 -1.0023,-0.60353z" opacity="0.992"/><path d="M72.02719,191.89724c0.25115,0.13806 0.46443,0.33648 0.6396,0.59522c-0.32993,-0.04797 -0.5432,-0.2464 -0.6396,-0.59522z" opacity="0.655"/><path d="M82.7472,186.48104c0.83728,-0.45277 1.69191,-0.79621 2.56375,-1.03011c-0.15105,0.09279 -0.20276,0.23683 -0.15502,0.43192c0.06972,0.13143 0.16475,0.20626 0.2852,0.22425c0.52435,1.04264 1.10681,2.02363 1.74721,2.94301c-0.01137,0.13489 -0.07447,0.25435 -0.18963,0.35855c-0.55035,0.34916 -1.12573,0.65057 -1.72622,0.90408c-0.09089,-0.30066 -0.25509,-0.52207 -0.49287,-0.66445c-0.45369,-1.10237 -1.085,-2.06028 -1.89396,-2.87377c-0.04616,-0.09786 -0.09229,-0.1956 -0.13845,-0.29347z" opacity="0.99"/><path d="M69.87053,194.17045c-0.09822,0.02642 -0.19463,0.01217 -0.28933,-0.04289c0.02263,0.15365 -0.00464,0.28599 -0.08166,0.39731c-0.06925,-0.14675 -0.13844,-0.29348 -0.20768,-0.4402c0.23149,-0.14777 0.42441,-0.11912 0.57867,0.0858z" opacity="0.133"/><path d="M72.66679,192.49246c0.3003,0.16581 0.53664,0.41311 0.70882,0.74197c-0.36435,-0.09543 -0.60052,-0.34279 -0.70882,-0.74197z" opacity="0.757"/><path d="M66.55654,196.27207c0.09095,0.25363 0.0855,0.49536 -0.01657,0.72541c-0.1699,-0.25711 -0.16433,-0.49888 0.01657,-0.72541z" opacity="0.322"/><path d="M87.09959,186.58044c0.27517,0.13227 0.3675,0.32801 0.2769,0.58693c-0.23158,-0.16611 -0.32385,-0.36172 -0.2769,-0.58693z" opacity="0.471"/><path d="M69.56048,195.03429c0.14432,0.34201 0.18489,0.68166 0.12189,1.01887c-0.20137,-0.33518 -0.24194,-0.67484 -0.12189,-1.01887z" opacity="0.169"/><path d="M73.37562,193.23442c0.36981,0.26254 0.70118,0.58466 0.99403,0.96621c-0.46278,-0.16146 -0.79414,-0.48357 -0.99403,-0.96621z" opacity="0.537"/><path d="M82.88565,186.77451c0.80897,0.81348 1.44028,1.77141 1.89396,2.87377c-0.63192,-0.93108 -1.26326,-1.88902 -1.89396,-2.87377z" opacity="0.082"/><path d="M85.44111,186.1071c0.62085,0.81289 1.20605,1.6731 1.7555,2.58031c0.16209,-0.4489 0.24513,-0.90678 0.24909,-1.37328c0.11809,0.19059 0.18592,0.39792 0.20354,0.62157c0.02064,0.45292 -0.13291,0.82442 -0.46092,1.11443c-0.6404,-0.91938 -1.22285,-1.90036 -1.74723,-2.943z" opacity="0.216"/><path d="M66.60919,197.14421c0.20791,0.29622 0.22544,0.58701 0.05265,0.87213c-0.15649,-0.29446 -0.17404,-0.58525 -0.05265,-0.87213z" opacity="0.643"/><path d="M69.68236,196.05316c0.14432,0.34201 0.18489,0.68165 0.12189,1.01887c-0.20137,-0.33518 -0.24194,-0.67484 -0.12189,-1.01887z" opacity="0.18"/><path d="M63.50288,199.68604c0.02304,0.04886 0.04617,0.09787 0.06923,0.14675c-1.86192,0.93741 -3.74372,1.7653 -5.6452,2.48385c0.04886,-0.02304 0.09787,-0.04617 0.14675,-0.06923c1.7998,-0.89413 3.60949,-1.74789 5.42923,-2.56136z" opacity="0.576"/><path d="M71.28817,195.65438c0.34185,0.12611 0.57818,0.37341 0.70881,0.74196c-0.3003,-0.16581 -0.53663,-0.41309 -0.70881,-0.74196z" opacity="0.2"/><path d="M66.66184,198.01635c0.23237,0.50319 0.29331,1.01262 0.18282,1.5283c-0.16461,-0.51165 -0.22554,-1.0211 -0.18282,-1.5283z" opacity="0.435"/><path d="M74.43887,194.34737c0.2986,0.08875 0.51187,0.2872 0.63959,0.59524c-0.32993,-0.04797 -0.54321,-0.24642 -0.63959,-0.59524z" opacity="0.682"/><path d="M76.40147,187.86022c2.29854,4.11467 4.42702,8.37269 6.38536,12.77433c-0.08818,0.13291 -0.20765,0.06978 -0.35856,-0.18964c-2.05773,-4.17157 -4.06666,-8.36636 -6.0268,-12.58468z" opacity="0.605"/><path d="M82.7472,186.48104c-0.92655,0.36356 -1.77237,0.85229 -2.53741,1.46618c0.5733,1.17529 1.15018,2.39802 1.73065,3.6684c0.92982,-0.40493 1.86936,-0.75848 2.81846,-1.06057c0.20031,-0.29488 0.20713,-0.59716 0.02071,-0.90675c0.23779,0.14239 0.40197,0.36379 0.49287,0.66445c-1.02921,0.66352 -2.13103,1.24305 -3.30571,1.73892c-0.69391,-1.40774 -1.33876,-2.83773 -1.93418,-4.28995c0.82765,-0.62834 1.73242,-1.05519 2.71461,-1.28068z" opacity="0.377"/><path d="M71.99699,196.39634c0.34185,0.12611 0.5782,0.37341 0.70883,0.74197c-0.3003,-0.16581 -0.53665,-0.41312 -0.70883,-0.74197z" opacity="0.165"/><path d="M75.07846,194.9426c0.3003,0.16581 0.53663,0.4131 0.70882,0.74197c-0.34185,-0.12611 -0.57818,-0.37341 -0.70882,-0.74197z" opacity="0.478"/><path d="M90.53841,188.54599c0.11642,0.21902 0.08777,0.41193 -0.08579,0.57867c-0.11642,-0.21902 -0.08777,-0.41193 0.08579,-0.57867z" opacity="0.016"/><path d="M69.92614,198.09091c0.1565,0.29447 0.17403,0.58525 0.05265,0.87213c-0.1565,-0.29447 -0.17403,-0.58525 -0.05265,-0.87213z" opacity="0.216"/><path d="M66.91391,199.69138c0.22746,0.58479 0.26258,1.16616 0.10531,1.74425c-0.14006,-0.58853 -0.17517,-1.16988 -0.10531,-1.74425z" opacity="0.827"/><path d="M75.78729,195.68457c0.3003,0.16581 0.53664,0.41311 0.70883,0.74197c-0.34185,-0.12611 -0.57819,-0.37341 -0.70883,-0.74197z" opacity="0.584"/><path d="M70.04801,199.10978c0.1565,0.29447 0.17403,0.58525 0.05265,0.87213c-0.1565,-0.29447 -0.17403,-0.58525 -0.05265,-0.87213z" opacity="0.243"/><path d="M70.10066,199.98191c0.99723,-0.4301 2.04461,-0.74483 3.14239,-0.94431c-1.0629,0.3879 -2.13623,0.7746 -3.21992,1.16026c-0.02382,-0.09765 0.00199,-0.16957 0.07751,-0.21595z" opacity="0.12"/><path d="M67.01922,201.43564c0.15002,0.21608 0.19329,0.4348 0.13016,0.65617c-0.05977,0.03987 -0.12027,0.03861 -0.18135,-0.00414c-0.00428,-0.23155 0.01265,-0.44889 0.05118,-0.65202z" opacity="0.431"/><path d="M76.49612,196.42653c0.53432,0.34011 0.9839,0.78584 1.34841,1.33721c-0.35547,-0.12759 -0.71526,-0.25673 -1.0798,-0.38756c0.02913,-0.13789 0.09238,-0.25741 0.18963,-0.35854c-0.223,-0.13805 -0.37586,-0.33504 -0.45824,-0.59108z" opacity="0.984"/><path d="M73.60577,199.04587c0.1956,-0.09228 0.33964,-0.04058 0.43192,0.15502c-0.16979,0.02036 -0.31384,-0.03134 -0.43192,-0.15502z" opacity="0.004"/><path d="M89.82425,191.21506c0.3113,-0.01015 0.55038,0.11636 0.71711,0.37927c-0.3113,0.01015 -0.55038,-0.11636 -0.71711,-0.37927z" opacity="0.384"/><path d="M74.1235,198.62223c0.24246,0.06751 0.43246,0.21702 0.57037,0.4485c-0.04886,0.02304 -0.09787,0.04616 -0.14674,0.06924c-0.04616,-0.09786 -0.11808,-0.12368 -0.21595,-0.0775c-0.06925,-0.14675 -0.13844,-0.29348 -0.20767,-0.4402z" opacity="0.161"/><path d="M90.54136,191.59433c0.3113,-0.01015 0.55038,0.11635 0.71711,0.37926c-0.3113,0.01015 -0.55038,-0.11635 -0.71711,-0.37926z" opacity="0.537"/><path d="M86.30258,192.87648c0.24049,0.52842 0.3735,1.06358 0.39878,1.6058c-0.19804,-0.34071 -0.31052,-0.70616 -0.33783,-1.09637c-0.12093,-0.00268 -0.24178,-0.00559 -0.3627,-0.00828c-0.94898,0.27081 -1.82807,0.62582 -2.63711,1.06472c0.74075,1.71159 1.50085,3.38626 2.28032,5.02362c-0.74008,0.40675 -1.49687,0.70386 -2.27026,0.89166c0.68482,-0.32308 1.36948,-0.6461 2.0543,-0.96917c-0.78455,-1.66297 -1.56914,-3.32606 -2.35368,-4.98903c1.07603,-0.50763 2.15218,-1.01533 3.22819,-1.52297z" opacity="0.393"/><path d="M77.84453,197.76372c0.36981,0.26254 0.70118,0.58466 0.99403,0.96622c-0.46278,-0.16146 -0.79414,-0.48357 -0.99403,-0.96622z" opacity="0.573"/><path d="M91.25848,191.97359c0.3113,-0.01015 0.55038,0.11636 0.71711,0.37927c-0.3113,0.01015 -0.55038,-0.11636 -0.71711,-0.37927z" opacity="0.557"/><path d="M63.50288,199.68604c0.30401,0.39153 0.57205,0.83304 0.80438,1.32476c0.27411,0.53157 0.44302,1.07978 0.50677,1.64457c-1.80987,0.74083 -3.59507,1.58304 -5.35587,2.52675c0.77765,1.77043 1.64568,3.48372 2.60426,5.13991c-0.01539,0.25484 -0.10157,0.32545 -0.25886,0.21182c-0.87689,-1.8587 -1.75371,-3.71726 -2.63059,-5.57596c1.85871,-0.87688 3.71727,-1.75371 5.57597,-2.63059c-0.39231,-0.83156 -0.78455,-1.66296 -1.17684,-2.49451c-0.02304,-0.04886 -0.04617,-0.09787 -0.06923,-0.14675z" opacity="0.323"/><path d="M67.1411,202.45451c0.0871,0.42641 0.26015,0.79327 0.51919,1.10052c-0.13634,0.262 -0.25116,0.52553 -0.34465,0.79049c-0.12847,-0.63813 -0.1865,-1.26842 -0.17454,-1.891z"/><path d="M86.30258,192.87648c0.1956,-0.09228 0.39133,-0.18464 0.58695,-0.27691c0.89951,0.81078 1.85027,1.55826 2.85189,2.24246c-0.20763,-0.09901 -0.32987,-0.04136 -0.36684,0.17307c0.11072,0.70391 0.16751,1.3947 0.17039,2.07234c-0.18331,-0.70644 -0.50632,-1.39113 -0.96917,-2.05431c-0.14674,0.06924 -0.29348,0.13844 -0.44022,0.2077c-0.30169,-0.56609 -0.37504,-0.5315 -0.2201,0.10383c-0.16979,0.02036 -0.33965,0.04059 -0.50944,0.06095c-0.13953,0.221 -0.24155,0.44853 -0.30588,0.6825c-0.24049,-0.52842 -0.3735,-1.06359 -0.39879,-1.60582c-0.02528,-0.54223 -0.15829,-1.07739 -0.39879,-1.6058z"/><path d="M91.97559,192.35286c0.23906,-0.02793 0.40615,0.07263 0.50114,0.30174c-0.23906,0.02793 -0.40615,-0.07263 -0.50114,-0.30174z" opacity="0.322"/><path d="M76.18075,200.70139c-1.7909,0.83163 -3.58918,1.70995 -5.39463,2.63473c-0.09936,0.53053 -0.1477,1.06155 -0.14526,1.59338c-0.297,-0.57172 -0.40412,-1.17902 -0.32127,-1.82177c1.97128,-0.81357 3.92502,-1.61562 5.86115,-2.40633z" opacity="0.404"/><path d="M78.90779,198.87666c0.41795,0.21399 0.74925,0.53598 0.99401,0.96622c-0.45713,-0.17614 -0.78849,-0.49826 -0.99401,-0.96622z" opacity="0.424"/><path d="M76.18075,200.70139c0.3003,0.16581 0.53663,0.41309 0.70882,0.74196c-0.34185,-0.12611 -0.57818,-0.37341 -0.70882,-0.74196z" opacity="0.024"/><path d="M67.38487,204.49225c0.0871,0.42641 0.26015,0.79327 0.51918,1.10052c-0.2237,0.22932 -0.33871,0.49276 -0.34465,0.79049c-0.19657,-0.63148 -0.25459,-1.26176 -0.17454,-1.891z"/><path d="M76.9588,201.59008c0.34185,0.12611 0.57819,0.37341 0.70882,0.74197c-0.3003,-0.16581 -0.53663,-0.41311 -0.70882,-0.74197z" opacity="0.251"/><path d="M89.54497,197.08746c-0.05169,0.14404 -0.10332,0.28787 -0.15502,0.43191c-0.51015,-0.01548 -0.99654,0.0943 -1.45909,0.32956c0.0947,0.14406 0.13956,0.30228 0.13432,0.47483c-0.07192,-0.0258 -0.14405,-0.0517 -0.21595,-0.07751c0.17904,0.63313 0.08132,0.67923 -0.29347,0.13845c0.11258,0.39986 0.07994,0.77405 -0.09822,1.1227c-0.12113,-1.15413 -0.24016,-2.29402 -0.35737,-3.41929c0.06436,-0.23396 0.16636,-0.46149 0.30588,-0.68251c0.16979,-0.02036 0.33964,-0.04059 0.50944,-0.06094c-0.15496,-0.63533 -0.08159,-0.66995 0.22012,-0.10384c0.14674,-0.06924 0.29346,-0.13845 0.44021,-0.2077c0.46287,0.66318 0.78587,1.34788 0.96917,2.05433z" opacity="0.992"/><path d="M67.62035,206.89269c0.1452,0.22642 0.20002,0.46965 0.16478,0.72952c0.96272,-0.36449 1.9035,-0.77853 2.82261,-1.24193c-0.88211,0.59393 -1.83736,1.10433 -2.8655,1.53126c-0.20137,-0.33518 -0.24193,-0.67485 -0.12189,-1.01888z" opacity="0.039"/><path d="M81.03427,201.10256c0.28946,-0.04543 0.39598,0.05375 0.31979,0.29761c-0.99658,0.61744 -2.03524,1.07766 -3.11608,1.38038c1.08281,-0.39855 2.01479,-0.95789 2.79628,-1.67799z" opacity="0.043"/><path d="M89.54497,197.08746c0.1565,0.29447 0.17403,0.58525 0.05265,0.87213c-0.06925,-0.14675 -0.13844,-0.29348 -0.20768,-0.4402c0.05169,-0.14404 0.10332,-0.28787 0.15502,-0.43191z" opacity="0.098"/><path d="M89.59762,197.95958c0.15939,0.41654 0.17414,0.82808 0.04438,1.23483c-0.15939,-0.41654 -0.17414,-0.82808 -0.04438,-1.23483z" opacity="0.063"/><path d="M87.45753,199.50742c0.23694,0.4456 0.37127,0.92041 0.40293,1.42446c-0.18899,-0.10782 -0.31123,-0.05015 -0.36684,0.17306c-0.05959,-0.54344 -0.07165,-1.07594 -0.03609,-1.59753z" opacity="0.925"/><path d="M89.61715,200.28251c0.11381,0.33631 0.08248,0.65015 -0.09409,0.94137c-0.11381,-0.33631 -0.08248,-0.65015 0.09409,-0.94137z" opacity="0.039"/><path d="M89.52307,201.22387c0.11642,0.21902 0.08777,0.41192 -0.0858,0.57867c-0.11642,-0.21902 -0.08777,-0.41192 0.0858,-0.57867z" opacity="0.035"/><path d="M89.38995,197.51937c0.06925,0.14675 0.13845,0.29347 0.20768,0.4402c-0.12977,0.40674 -0.11501,0.81829 0.04437,1.23482c0.06332,0.37376 0.05503,0.73647 -0.02485,1.08809c-0.17656,0.2912 -0.20789,0.60504 -0.09409,0.94136c-0.17356,0.16674 -0.20222,0.35966 -0.0858,0.57867c-0.34542,2.71754 -1.1661,5.28741 -2.46228,7.70954c-0.32733,0.5333 -0.68949,1.03301 -1.08662,1.49931c-0.22911,0.095 -0.32968,0.2621 -0.30174,0.50114c-0.21167,0.36698 -0.48479,0.67521 -0.81948,0.92478c-0.56247,0.16452 -0.70375,-0.00794 -0.42364,-0.51771c0.18431,-0.51356 0.43721,-0.99166 0.75853,-1.43424c0.28984,-0.2408 0.44204,-0.55171 0.45677,-0.93306c0.47006,-1.42245 0.93782,-2.83915 1.40348,-4.25003c0.23112,-0.30369 0.3114,-0.64041 0.24079,-1.01058c0.04869,-1.06418 0.14553,-2.12632 0.29052,-3.18678c0.0556,-0.22322 0.17785,-0.28088 0.36684,-0.17306c-0.03167,-0.50405 -0.16599,-0.97887 -0.40294,-1.42446c0.17815,-0.34866 0.2108,-0.72284 0.09822,-1.1227c0.37479,0.54077 0.47251,0.49469 0.29348,-0.13844c0.07192,0.0258 0.14405,0.05169 0.21595,0.0775c0.00524,-0.17255 -0.03962,-0.33077 -0.13432,-0.47483c0.46254,-0.23524 0.94893,-0.34506 1.45908,-0.32957z" opacity="0.997"/><path d="M87.2031,204.29173c0.07058,0.37015 -0.00969,0.7069 -0.24081,1.01057c-0.07058,-0.37015 0.00969,-0.7069 0.24081,-1.01057z" opacity="0.239"/><path d="M85.55882,209.55231c-0.01472,0.38135 -0.16692,0.69227 -0.45677,0.93308c0.01472,-0.38135 0.16692,-0.69227 0.45677,-0.93308z" opacity="0.498"/><path d="M85.88836,211.0114c0.02793,0.23906 -0.07263,0.40615 -0.30175,0.50114c-0.02793,-0.23906 0.07263,-0.40615 0.30175,-0.50114z" opacity="0.004"/><path d="M84.34349,211.9196c-0.28011,0.50977 -0.13883,0.68224 0.42364,0.51772c-0.53812,0.83063 -1.25696,1.58846 -2.15666,2.27322c-0.09787,0.04617 -0.16979,0.02036 -0.21595,-0.0775c0.58433,-0.94409 1.23394,-1.84867 1.94899,-2.71343z" opacity="0.986"/><path d="M98.51329,219.4069c0.04616,0.09786 0.11809,0.12368 0.21596,0.07751c-0.29675,0.39653 -0.62032,0.78832 -0.97037,1.17536c-0.13649,-0.10567 -0.23008,-0.24091 -0.28104,-0.40559c0.34517,-0.2825 0.69026,-0.56479 1.03544,-0.84727z" opacity="0.459"/></g></g></g></svg>