<svg version="1.1" xmlns="http://www.w3.org/2000/svg" xmlns:xlink="http://www.w3.org/1999/xlink" width="12.25" height="56.74166" viewBox="0,0,12.25,56.74166"><defs><radialGradient cx="241.30668" cy="158.80632" r="13.5" gradientUnits="userSpaceOnUse" id="color-1"><stop offset="0" stop-color="#574e77"/><stop offset="1" stop-color="#9cf0ff"/></radialGradient><linearGradient x1="235.5" y1="184.62235" x2="247.75" y2="184.62235" gradientUnits="userSpaceOnUse" id="color-2"><stop offset="0" stop-color="#c09eff"/><stop offset="1" stop-color="#9cf0ff"/></linearGradient></defs><g transform="translate(-235.5,-149.58336)"><g data-paper-data="{&quot;isPaintingLayer&quot;:true}" fill-rule="nonzero" stroke="none" stroke-width="0" stroke-linecap="butt" stroke-linejoin="miter" stroke-miterlimit="10" stroke-dasharray="" stroke-dashoffset="0" style="mix-blend-mode: normal"><path d="M244.58333,160.21972c0,4.06682 -1.41776,16.36364 -3.16667,16.36364c-1.7489,0 -3.16667,-12.29681 -3.16667,-16.36364c0,-4.06682 3.16667,-10.63636 3.16667,-10.63636c0,0 3.16667,6.56954 3.16667,10.63636z" data-paper-data="{&quot;origPos&quot;:null}" fill="url(#color-1)"/><path d="M235.5,206.32502c0,0 0.16667,-18.71598 0.16667,-30.99978c0,-2.80429 1.165,-4.51967 1.85556,-7.2376c0.52556,-2.06851 0.84652,-5.08762 0.84652,-5.08762l6.17917,-0.08033c0,0 0.61863,3.42327 1.16616,5.52455c0.89987,3.45348 2.03592,5.23188 2.03592,8.80068c0,11.30109 -0.30625,29.08009 -0.30625,29.08009z" data-paper-data="{&quot;origPos&quot;:null}" fill="url(#color-2)"/></g></g></svg>