<svg version="1.1" xmlns="http://www.w3.org/2000/svg" xmlns:xlink="http://www.w3.org/1999/xlink" width="766.41937" height="431.35823" viewBox="0,0,766.41937,431.35823"><defs><linearGradient x1="240.00001" y1="-35.6791" x2="240.00001" y2="395.67914" gradientUnits="userSpaceOnUse" id="color-1"><stop offset="0" stop-color="#47a4a9"/><stop offset="1" stop-color="#c4c4c4" stop-opacity="0.47581"/></linearGradient><linearGradient x1="152.42748" y1="43.36337" x2="327.57252" y2="43.36337" gradientUnits="userSpaceOnUse" id="color-2"><stop offset="0" stop-color="#88439f"/><stop offset="1" stop-color="#40998b"/></linearGradient></defs><g transform="translate(143.20968,35.67909)"><g data-paper-data="{&quot;isPaintingLayer&quot;:true}" stroke="none" stroke-linecap="butt" stroke-linejoin="miter" stroke-miterlimit="10" stroke-dasharray="" stroke-dashoffset="0" style="mix-blend-mode: normal"><path d="M-143.20968,395.67914v-431.35823h766.41937v431.35823z" fill="url(#color-1)" fill-rule="nonzero" stroke-width="0"/><path d="M229.7118,43.36925c0,-4.07355 2.16435,-7.19143 5.67404,-8.31291c0.60433,2.67288 0.92303,5.45272 0.92303,8.30646c0,2.84553 -0.31694,5.61773 -0.91775,8.28338c-3.51282,-1.11874 -5.67932,-4.23135 -5.67932,-8.27693zM237.48334,57.21308c-4.44875,10.62858 -13.86358,18.69377 -25.37042,21.34299c10.05417,-3.9058 18.02608,-11.93325 21.80618,-21.98821c-5.69751,-1.78799 -9.46156,-6.95192 -9.46156,-13.19863c0,-6.27837 3.76543,-11.42452 9.46469,-13.20293c-3.77832,-10.05804 -11.75064,-18.08828 -21.80618,-21.99563c11.50977,2.65105 20.92616,10.7209 25.37236,21.35453c0.30617,-0.01779 0.61608,-0.02678 0.92928,-0.02678c4.90899,0 9.24277,2.47699 11.54399,6.28757l-4.56391,2.62948c-1.19381,-2.16298 -3.48056,-3.55955 -6.21288,-3.7801c0.69858,2.79488 1.06926,5.71823 1.06926,8.72759c0,2.99999 -0.36834,5.91452 -1.06281,8.70178c2.73507,-0.2219 5.04859,-1.61494 6.20642,-3.74157l4.56391,2.62929c-2.26289,3.81078 -6.59666,6.28777 -11.54399,6.28777c-0.12103,0 -0.24147,-0.00138 -0.36131,-0.00411l-0.08368,-0.00196c-0.16404,-0.00449 -0.32729,-0.01172 -0.48937,-0.02112zM299.58103,30.03181v26.67489h-4.02683l-11.50567,-16.30966v16.30966h-5.29259v-24.04483l-3.33138,-2.63769l3.35523,0.00469v0.00293h4.00316l11.50567,16.27174v-16.27174zM160.65721,35.062v6.32569h10.43177v5.03021h-10.43177v10.28878h-5.29256v-24.35706l-2.93717,-2.32546l3.35528,0.00469v0.00293h19.10646v5.03021zM189.73897,51.90524h-10.70034l-1.61085,4.80146h-5.71432l8.66366,-24.5954l-2.63613,-2.08712l3.35523,0.00469v0.04085l0.0135,-0.03792h6.55816l9.43458,26.67489h-5.75283zM186.06759,46.9894l2.95736,2.45548l-0.93534,-2.45548l-3.68155,-10.89859l-3.68193,10.89859zM216.92337,46.64648c3.06822,-1.40985 5.17762,-4.42039 5.17762,-7.77367c0,-4.8777 -3.9887,-8.841 -8.93601,-8.841h-13.42348v-0.00293l-3.35523,-0.00469l3.32297,2.63104v24.05146h5.29259v-9.25997h6.74409l5.40755,9.25997h6.5126zM216.80841,38.8728c0,2.21011 -1.64916,3.96308 -3.64343,3.96308h-8.16314v-7.88824h8.16314c1.99425,0 3.64343,1.71487 3.64343,3.92516zM266.64966,30.03181h-6.52394v-0.00293l-3.35523,-0.00469l2.59879,2.0578l-8.67403,24.62471h5.71451l1.61065,-4.80146h10.70034l1.61066,4.80146h5.75283zM267.0714,46.9894l0.93534,2.45548l-2.95736,-2.45548h-5.34146l3.68193,-10.89859zM320.20886,51.90524h-10.70015l-1.61086,4.80146h-5.71451l8.67656,-24.63136l-2.59058,-2.05115l3.35523,0.00469v0.00293h6.51339l9.43458,26.67489h-5.75283zM316.53766,46.9894l2.95736,2.45548l-0.93534,-2.45548l-3.68175,-10.89859l-3.68173,10.89859z" fill="url(#color-2)" fill-rule="evenodd" stroke-width="1"/></g></g></svg>